<svg width="80" height="100" xmlns="http://www.w3.org/2000/svg">
  <!-- 勇者のグラデーション定義 -->
  <defs>
    <radialGradient id="auraGlow" cx="50%" cy="30%" r="70%" fx="50%" fy="30%">
      <stop offset="0%" style="stop-color:#FFFF00;stop-opacity:0.8" />
      <stop offset="100%" style="stop-color:#FFA500;stop-opacity:0" />
    </radialGradient>
    <linearGradient id="hairGradient" x1="0%" y1="0%" x2="100%" y2="0%">
      <stop offset="0%" style="stop-color:#FF4500;stop-opacity:1" />
      <stop offset="100%" style="stop-color:#FF0000;stop-opacity:1" />
    </linearGradient>
    <linearGradient id="armorGradient" x1="0%" y1="0%" x2="100%" y2="100%">
      <stop offset="0%" style="stop-color:#FFA500;stop-opacity:1" />
      <stop offset="100%" style="stop-color:#FF8C00;stop-opacity:1" />
    </linearGradient>
  </defs>
  
  <!-- オーラ効果 -->
  <ellipse cx="40" cy="30" rx="30" ry="25" fill="url(#auraGlow)">
    <animate attributeName="ry" 
             values="25;28;25" 
             dur="2s" 
             repeatCount="indefinite" />
    <animate attributeName="opacity" 
             values="0.8;0.6;0.8" 
             dur="2s" 
             repeatCount="indefinite" />
  </ellipse>
  
  <!-- 体 -->
  <rect x="30" y="50" width="20" height="30" fill="url(#armorGradient)" />
  
  <!-- 肩部分 -->
  <rect x="25" y="50" width="5" height="10" fill="url(#armorGradient)" />
  <rect x="50" y="50" width="5" height="10" fill="url(#armorGradient)" />
  
  <!-- 腕 -->
  <rect x="22" y="60" width="8" height="15" fill="url(#armorGradient)" />
  <rect x="50" y="60" width="8" height="15" fill="url(#armorGradient)" />
  
  <!-- 手 -->
  <circle cx="26" cy="80" r="5" fill="#FFC0CB" />
  <circle cx="54" cy="80" r="5" fill="#FFC0CB" />
  
  <!-- 脚 -->
  <rect x="30" y="80" width="8" height="20" fill="#8B4513" />
  <rect x="42" y="80" width="8" height="20" fill="#8B4513" />
  
  <!-- 顔 -->
  <circle cx="40" cy="30" r="15" fill="#FFC0CB" />
  
  <!-- 髪の毛 -->
  <path d="M 25,30 
           Q 30,15 40,15 
           Q 50,15 55,30 
           Q 50,20 45,25
           Q 43,20 40,22
           Q 37,20 35,25
           Q 30,20 25,30" 
        fill="url(#hairGradient)" />
  
  <!-- 目 -->
  <ellipse cx="34" cy="30" rx="3" ry="4" fill="white" />
  <ellipse cx="46" cy="30" rx="3" ry="4" fill="white" />
  
  <circle cx="34" cy="30" r="1.5" fill="#1E90FF" />
  <circle cx="46" cy="30" r="1.5" fill="#1E90FF" />
  
  <!-- 眉毛 -->
  <path d="M32,25 Q34,23 36,25" stroke="#FF0000" stroke-width="1" fill="none" />
  <path d="M44,25 Q46,23 48,25" stroke="#FF0000" stroke-width="1" fill="none" />
  
  <!-- 口 -->
  <path d="M38,38 Q40,40 42,38" stroke="#FF0000" stroke-width="1" fill="none" />
  
  <!-- マント -->
  <path d="M25,55 Q20,70 25,85 L30,85 Q28,70 30,55" fill="#FF0000" />
  <path d="M55,55 Q60,70 55,85 L50,85 Q52,70 50,55" fill="#FF0000" />
  
  <!-- 装飾 -->
  <circle cx="40" cy="55" r="3" fill="#FFD700" />
</svg>