<?xml version="1.0" encoding="UTF-8" standalone="no"?>
<!DOCTYPE svg PUBLIC "-//W3C//DTD SVG 1.1//EN" "http://www.w3.org/Graphics/SVG/1.1/DTD/svg11.dtd">
<svg width="1600.00" height="1200.00" viewBox="0.00 0.00 1600.00 1200.00" xmlns="http://www.w3.org/2000/svg" xmlns:xlink="http://www.w3.org/1999/xlink">
<g stroke-linecap="round" id="CS">
<path d="M358.67,328.61 L358.67,1153.43" fill="none" stroke="rgb(0, 0, 0)" stroke-width="5.00" stroke-opacity="1.00" stroke-linejoin="round"/>
<path d="M356.88,330.14 L750.58,78.10" fill="none" stroke="rgb(0, 0, 0)" stroke-width="5.00" stroke-opacity="1.00" stroke-linejoin="round"/>
<path d="M751.27,77.82 L751.27,794.61" fill="none" stroke="rgb(0, 0, 0)" stroke-width="5.00" stroke-opacity="1.00" stroke-linejoin="round"/>
<path d="M372.35,1048.31 L372.35,1153.01" fill="none" stroke="rgb(0, 0, 0)" stroke-width="5.00" stroke-opacity="1.00" stroke-linejoin="round"/>
<path d="M372.94,1048.45 L616.53,804.86" fill="none" stroke="rgb(0, 0, 0)" stroke-width="5.00" stroke-opacity="1.00" stroke-linejoin="round"/>
<path d="M615.97,803.75 L832.98,803.75" fill="none" stroke="rgb(0, 0, 0)" stroke-width="5.00" stroke-opacity="1.00" stroke-linejoin="round"/>
<path d="M375.71,1047.76 L373.08,1049.56" fill="none" stroke="rgb(0, 0, 0)" stroke-width="5.00" stroke-opacity="1.00" stroke-linejoin="round"/>
<path d="M371.00,1051.36 L373.49,1049.70" fill="none" stroke="rgb(0, 0, 0)" stroke-width="5.00" stroke-opacity="1.00" stroke-linejoin="round"/>
<path d="M374.04,1048.45 L374.04,1049.42" fill="none" stroke="rgb(0, 0, 0)" stroke-width="5.00" stroke-opacity="1.00" stroke-linejoin="round"/>
<path d="M372.52,1051.64 L621.24,1051.64" fill="none" stroke="rgb(0, 0, 0)" stroke-width="5.00" stroke-opacity="1.00" stroke-linejoin="round"/>
<path d="M621.51,1050.12 L861.50,810.12" fill="none" stroke="rgb(0, 0, 0)" stroke-width="5.00" stroke-opacity="1.00" stroke-linejoin="round"/>
<path d="M620.13,1053.02 L620.13,1145.39" fill="none" stroke="rgb(0, 0, 0)" stroke-width="5.00" stroke-opacity="1.00" stroke-linejoin="round"/>
<path d="M859.71,811.51 L859.71,945.28" fill="none" stroke="rgb(0, 0, 0)" stroke-width="5.00" stroke-opacity="1.00" stroke-linejoin="round"/>
<path d="M42.38,733.68 L352.72,509.89" fill="none" stroke="rgb(0, 0, 0)" stroke-width="5.00" stroke-opacity="1.00" stroke-linejoin="round"/>
<path d="M41.83,758.61 L351.75,532.19" fill="none" stroke="rgb(0, 0, 0)" stroke-width="5.00" stroke-opacity="1.00" stroke-linejoin="round"/>
<path d="M454.09,420.57 L454.09,582.32" fill="none" stroke="rgb(0, 0, 0)" stroke-width="5.00" stroke-opacity="1.00" stroke-linejoin="round"/>
<path d="M457.97,581.77 L555.32,501.58" fill="none" stroke="rgb(0, 0, 0)" stroke-width="5.00" stroke-opacity="1.00" stroke-linejoin="round"/>
<path d="M557.95,499.65 L557.81,499.23" fill="none" stroke="rgb(0, 0, 0)" stroke-width="5.00" stroke-opacity="1.00" stroke-linejoin="round"/>
<path d="M557.81,499.23 L558.51,499.09" fill="none" stroke="rgb(0, 0, 0)" stroke-width="5.00" stroke-opacity="1.00" stroke-linejoin="round"/>
<path d="M553.07,503.24 L554.21,504.08" fill="none" stroke="rgb(0, 0, 0)" stroke-width="5.00" stroke-opacity="1.00" stroke-linejoin="round"/>
<path d="M554.21,504.08 L554.21,504.08" fill="none" stroke="rgb(0, 0, 0)" stroke-width="5.00" stroke-opacity="1.00" stroke-linejoin="round"/>
<path d="M557.12,498.54 L557.12,350.77" fill="none" stroke="rgb(0, 0, 0)" stroke-width="5.00" stroke-opacity="1.00" stroke-linejoin="round"/>
<path d="M453.40,419.32 L554.21,346.20" fill="none" stroke="rgb(0, 0, 0)" stroke-width="5.00" stroke-opacity="1.00" stroke-linejoin="round"/>
<path d="M546.84,382.63 L566.45,363.01" fill="none" stroke="rgb(0, 0, 0)" stroke-width="5.00" stroke-opacity="1.00" stroke-linejoin="round"/>
<path d="M549.92,399.25 L566.19,382.97" fill="none" stroke="rgb(0, 0, 0)" stroke-width="5.00" stroke-opacity="1.00" stroke-linejoin="round"/>
<path d="M551.86,418.91 L568.96,401.80" fill="none" stroke="rgb(0, 0, 0)" stroke-width="5.00" stroke-opacity="1.00" stroke-linejoin="round"/>
<path d="M551.72,435.94 L567.44,420.22" fill="none" stroke="rgb(0, 0, 0)" stroke-width="5.00" stroke-opacity="1.00" stroke-linejoin="round"/>
<path d="M554.77,448.27 L569.24,433.79" fill="none" stroke="rgb(0, 0, 0)" stroke-width="5.00" stroke-opacity="1.00" stroke-linejoin="round"/>
<path d="M554.49,461.15 L566.33,449.31" fill="none" stroke="rgb(0, 0, 0)" stroke-width="5.00" stroke-opacity="1.00" stroke-linejoin="round"/>
<path d="M555.46,476.94 L567.44,464.96" fill="none" stroke="rgb(0, 0, 0)" stroke-width="5.00" stroke-opacity="1.00" stroke-linejoin="round"/>
<path d="M556.15,494.94 L570.97,480.12" fill="none" stroke="rgb(0, 0, 0)" stroke-width="5.00" stroke-opacity="1.00" stroke-linejoin="round"/>
<path d="M445.50,443.56 L444.40,443.56" fill="none" stroke="rgb(0, 0, 0)" stroke-width="5.00" stroke-opacity="1.00" stroke-linejoin="round"/>
<path d="M444.40,443.70 L453.05,435.04" fill="none" stroke="rgb(0, 0, 0)" stroke-width="5.00" stroke-opacity="1.00" stroke-linejoin="round"/>
<path d="M445.50,463.22 L458.87,449.86" fill="none" stroke="rgb(0, 0, 0)" stroke-width="5.00" stroke-opacity="1.00" stroke-linejoin="round"/>
<path d="M448.00,478.32 L459.98,466.34" fill="none" stroke="rgb(0, 0, 0)" stroke-width="5.00" stroke-opacity="1.00" stroke-linejoin="round"/>
<path d="M445.50,500.20 L457.07,488.63" fill="none" stroke="rgb(0, 0, 0)" stroke-width="5.00" stroke-opacity="1.00" stroke-linejoin="round"/>
<path d="M446.89,520.69 L459.70,507.88" fill="none" stroke="rgb(0, 0, 0)" stroke-width="5.00" stroke-opacity="1.00" stroke-linejoin="round"/>
<path d="M445.92,535.93 L459.08,522.77" fill="none" stroke="rgb(0, 0, 0)" stroke-width="5.00" stroke-opacity="1.00" stroke-linejoin="round"/>
<path d="M450.07,548.67 L460.95,537.80" fill="none" stroke="rgb(0, 0, 0)" stroke-width="5.00" stroke-opacity="1.00" stroke-linejoin="round"/>
<path d="M447.72,562.52 L463.30,546.94" fill="none" stroke="rgb(0, 0, 0)" stroke-width="5.00" stroke-opacity="1.00" stroke-linejoin="round"/>
<path d="M781.32,546.73 L781.32,371.68" fill="none" stroke="rgb(0, 0, 0)" stroke-width="5.00" stroke-opacity="1.00" stroke-linejoin="round"/>
<path d="M778.28,373.48 L1162.99,90.84" fill="none" stroke="rgb(0, 0, 0)" stroke-width="5.00" stroke-opacity="1.00" stroke-linejoin="round"/>
<path d="M783.54,545.20 L1170.60,247.05" fill="none" stroke="rgb(0, 0, 0)" stroke-width="5.00" stroke-opacity="1.00" stroke-linejoin="round"/>
<path d="M1164.23,91.81 L1164.23,253.56" fill="none" stroke="rgb(0, 0, 0)" stroke-width="5.00" stroke-opacity="1.00" stroke-linejoin="round"/>
<path d="M897.51,541.47 L897.51,692.41" fill="none" stroke="rgb(0, 0, 0)" stroke-width="5.00" stroke-opacity="1.00" stroke-linejoin="round"/>
<path d="M895.81,543.68 L1270.03,245.25" fill="none" stroke="rgb(0, 0, 0)" stroke-width="5.00" stroke-opacity="1.00" stroke-linejoin="round"/>
<path d="M1269.61,248.44 L1264.77,424.59" fill="none" stroke="rgb(0, 0, 0)" stroke-width="5.00" stroke-opacity="1.00" stroke-linejoin="round"/>
<path d="M902.08,691.86 L1264.91,404.78" fill="none" stroke="rgb(0, 0, 0)" stroke-width="5.00" stroke-opacity="1.00" stroke-linejoin="round"/>
<path d="M1057.84,689.23 L1057.84,843.77" fill="none" stroke="rgb(0, 0, 0)" stroke-width="5.00" stroke-opacity="1.00" stroke-linejoin="round"/>
<path d="M1059.68,692.83 L1405.33,411.16" fill="none" stroke="rgb(0, 0, 0)" stroke-width="5.00" stroke-opacity="1.00" stroke-linejoin="round"/>
<path d="M1406.71,411.98 L1406.71,579.41" fill="none" stroke="rgb(0, 0, 0)" stroke-width="5.00" stroke-opacity="1.00" stroke-linejoin="round"/>
<path d="M1406.58,580.11 L1058.71,869.12" fill="none" stroke="rgb(0, 0, 0)" stroke-width="5.00" stroke-opacity="1.00" stroke-linejoin="round"/>
<path d="M58.03,619.99 C58.03,619.99 58.03,619.43 58.03,619.43 C58.03,619.43 59.56,673.85 59.56,673.85 C59.56,673.85 59.69,666.38 59.69,666.38" fill="none" stroke="rgb(0, 0, 0)" stroke-width="5.00" stroke-opacity="1.00" stroke-linejoin="round"/>
<path d="M58.86,622.89 C58.86,622.89 57.82,622.06 57.82,622.06 C58.33,624.78 60.73,629.97 63.56,634.82 C68.66,643.26 81.79,661.26 82.40,662.08 C83.24,656.20 83.05,624.08 82.95,614.81 C82.95,614.09 82.95,613.37 82.95,612.65" fill="none" stroke="rgb(0, 0, 0)" stroke-width="5.00" stroke-opacity="1.00" stroke-linejoin="round"/>
<path d="M90.29,640.76 C91.04,639.73 104.34,626.75 104.85,625.58 C105.58,623.80 105.45,621.46 104.63,620.01 C103.60,618.40 101.47,616.42 100.15,616.15 C99.09,615.98 96.94,617.65 96.47,618.75 C95.29,621.77 93.68,630.53 93.24,633.34 C92.42,639.08 92.46,643.80 93.83,644.83 C95.35,645.92 98.10,647.07 99.37,647.11 C100.92,647.09 102.62,646.49 104.07,645.42 C105.23,644.52 106.75,642.87 107.22,641.93 C107.25,641.87 111.75,631.91 113.42,628.29" fill="none" stroke="rgb(0, 0, 0)" stroke-width="5.00" stroke-opacity="1.00" stroke-linejoin="round"/>
<path d="M108.57,617.36 C108.57,617.36 107.08,617.77 107.08,617.77 C107.08,617.77 124.70,604.76 124.70,604.76 C124.70,604.76 121.04,606.14 121.04,606.14" fill="none" stroke="rgb(0, 0, 0)" stroke-width="5.00" stroke-opacity="1.00" stroke-linejoin="round"/>
<path d="M116.47,606.00 C116.28,605.95 116.10,605.91 115.91,605.86 C115.73,605.81 115.54,605.77 115.36,605.72 C114.43,610.26 114.10,616.62 115.01,620.11 C116.02,623.83 120.43,632.03 121.99,632.81 C123.47,633.50 125.89,632.21 126.84,630.53 C128.83,626.76 131.38,620.87 132.53,618.18" fill="none" stroke="rgb(0, 0, 0)" stroke-width="5.00" stroke-opacity="1.00" stroke-linejoin="round"/>
<path d="M124.50,596.86 C124.50,596.86 123.81,596.72 123.81,596.72 C124.18,598.57 126.01,602.61 128.71,607.57 C131.27,612.10 135.03,617.38 137.43,619.75 C137.51,618.06 137.50,611.15 137.48,607.55 C137.48,603.30 137.44,596.08 138.23,594.66 C139.51,597.67 142.18,604.12 143.59,607.56 C145.05,611.00 147.29,613.74 148.13,614.50 C149.45,612.23 150.56,606.30 150.80,600.51 C150.86,598.57 150.98,594.43 151.01,594.09 C151.01,594.06 151.08,594.06 151.09,594.09" fill="none" stroke="rgb(0, 0, 0)" stroke-width="5.00" stroke-opacity="1.00" stroke-linejoin="round"/>
<path d="M159.81,587.31 C158.21,592.55 156.59,598.33 156.85,601.18 C156.96,602.17 158.35,606.10 158.89,607.28 C159.80,609.21 161.06,610.83 162.53,611.97 C163.75,612.84 166.43,612.59 167.99,611.44 C169.26,610.44 171.62,603.03 171.75,599.63 C171.82,596.41 169.98,590.91 168.65,589.46 C167.25,588.00 165.35,587.16 163.64,587.23 C161.90,587.34 161.16,587.98 160.48,589.68 C160.48,589.68 163.27,589.66 163.27,589.66" fill="none" stroke="rgb(0, 0, 0)" stroke-width="5.00" stroke-opacity="1.00" stroke-linejoin="round"/>
<path d="M174.07,569.99 C174.07,569.99 186.44,596.51 186.44,596.51 C185.31,594.70 183.71,589.64 183.83,585.57 C183.98,582.37 186.16,576.58 188.05,574.19 C188.59,573.54 191.53,570.55 192.30,569.96 C194.20,568.59 196.84,568.05 198.14,568.89 C198.48,569.11 198.95,569.67 199.56,570.55" fill="none" stroke="rgb(0, 0, 0)" stroke-width="5.00" stroke-opacity="1.00" stroke-linejoin="round"/>
<path d="M186.26,538.42 C186.26,538.42 202.32,579.41 202.32,579.41 C202.32,579.41 203.16,572.07 203.16,572.07" fill="none" stroke="rgb(0, 0, 0)" stroke-width="5.00" stroke-opacity="1.00" stroke-linejoin="round"/>
<path d="M208.98,552.82 C208.98,552.82 208.98,552.27 208.98,552.27 C204.82,556.26 202.18,561.99 200.91,565.65 C202.67,566.86 203.92,567.27 206.48,567.30 C210.89,567.38 218.49,567.49 220.73,567.85 C220.73,567.85 219.64,567.92 219.64,567.92" fill="none" stroke="rgb(0, 0, 0)" stroke-width="5.00" stroke-opacity="1.00" stroke-linejoin="round"/>
<path d="M414.07,394.68 C414.07,394.68 413.68,396.24 413.68,396.24 C413.73,388.57 414.21,381.50 415.99,368.64 C418.73,351.73 422.12,330.95 422.90,327.96 C424.71,330.66 430.46,348.99 432.99,357.21 C435.40,365.15 438.58,375.62 439.35,378.15 C439.35,378.15 436.64,378.33 436.64,378.33" fill="none" stroke="rgb(0, 0, 0)" stroke-width="5.00" stroke-opacity="1.00" stroke-linejoin="round"/>
<path d="M414.34,366.84 C414.34,366.84 414.20,366.70 414.20,366.70 C423.00,359.61 428.78,355.87 433.85,353.75 C433.85,353.75 432.07,355.62 432.07,355.62" fill="none" stroke="rgb(0, 0, 0)" stroke-width="5.00" stroke-opacity="1.00" stroke-linejoin="round"/>
<path d="M439.27,343.57 C444.64,356.01 448.70,374.53 449.25,377.03 C449.41,367.34 450.55,357.38 452.56,352.06 C453.53,349.52 456.29,344.55 457.28,343.92 C457.28,343.92 458.52,347.04 458.52,347.04" fill="none" stroke="rgb(0, 0, 0)" stroke-width="5.00" stroke-opacity="1.00" stroke-linejoin="round"/>
<path d="M471.95,337.90 C470.19,337.36 466.77,336.17 466.28,336.23 C465.30,336.38 464.42,338.20 464.05,340.16 C463.32,344.70 463.02,350.91 463.61,354.34 C463.98,356.35 464.84,358.92 465.87,361.17 C466.79,363.03 469.15,365.40 470.60,365.68 C471.87,365.86 474.82,363.27 475.82,361.53 C476.04,361.14 480.66,350.63 480.78,350.04 C480.99,348.77 479.96,345.97 478.87,344.63 C477.49,342.97 473.05,338.92 471.95,337.90" fill="none" stroke="rgb(0, 0, 0)" stroke-width="5.00" stroke-opacity="1.00" stroke-linejoin="round"/>
<path d="M471.12,306.60 C471.12,306.60 470.57,305.36 470.57,305.36 C470.57,305.36 485.51,355.49 485.51,355.49 C485.65,348.27 486.13,330.47 487.41,329.16 C487.63,328.94 488.33,328.34 489.51,327.36 C491.58,328.31 492.66,329.18 493.83,331.16 C498.04,338.32 500.66,347.27 501.02,348.49 C501.02,348.49 501.03,345.93 501.03,345.93" fill="none" stroke="rgb(0, 0, 0)" stroke-width="5.00" stroke-opacity="1.00" stroke-linejoin="round"/>
<path d="M496.32,326.95 C496.32,326.95 503.46,343.24 503.46,343.24 C503.46,343.24 499.40,336.28 499.40,336.28" fill="none" stroke="rgb(0, 0, 0)" stroke-width="5.00" stroke-opacity="1.00" stroke-linejoin="round"/>
<path d="M484.28,311.59 C487.22,312.24 492.24,313.37 493.07,313.46 C493.65,313.51 494.92,313.58 496.90,313.66" fill="none" stroke="rgb(0, 0, 0)" stroke-width="5.00" stroke-opacity="1.00" stroke-linejoin="round"/>
<path d="M504.22,325.43 C504.22,325.43 503.89,326.01 503.89,326.01 C506.61,325.13 512.68,323.17 516.68,321.61 C518.58,320.85 521.22,318.74 522.06,317.22 C522.31,316.73 522.42,316.01 522.39,315.04" fill="none" stroke="rgb(0, 0, 0)" stroke-width="5.00" stroke-opacity="1.00" stroke-linejoin="round"/>
<path d="M513.22,309.92 C513.22,309.92 513.01,309.92 513.01,309.92 C512.96,312.70 513.50,318.93 514.19,321.93 C515.37,326.94 521.98,340.92 523.28,342.00 C523.62,342.27 524.13,342.30 524.80,342.08 C524.80,342.08 528.78,330.53 528.78,330.53" fill="none" stroke="rgb(0, 0, 0)" stroke-width="5.00" stroke-opacity="1.00" stroke-linejoin="round"/>
<path d="M530.39,321.42 C532.68,321.40 533.84,321.02 535.02,319.65 C537.97,316.15 539.79,312.03 540.24,308.37 C537.81,306.94 535.34,306.72 533.54,308.17 C532.88,308.71 530.14,313.19 530.04,313.37 C528.62,316.13 528.20,322.51 528.76,327.20 C529.28,331.07 532.12,333.99 533.40,334.78 C535.30,333.31 536.18,332.31 537.13,330.30 C538.83,326.85 540.95,322.38 541.47,321.28" fill="none" stroke="rgb(0, 0, 0)" stroke-width="5.00" stroke-opacity="1.00" stroke-linejoin="round"/>
<path d="M560.44,298.70 C560.09,298.76 558.90,298.59 557.63,298.27 C555.78,297.83 553.73,297.99 552.75,298.78 C552.35,299.14 550.30,306.46 550.01,309.23 C549.71,312.47 550.43,321.48 551.18,322.94 C551.44,323.44 552.13,324.39 553.26,325.82 C555.18,325.14 556.18,324.61 556.65,323.64 C557.77,321.35 560.56,313.05 561.83,309.23" fill="none" stroke="rgb(0, 0, 0)" stroke-width="5.00" stroke-opacity="1.00" stroke-linejoin="round"/>
<path d="M552.69,297.32 C552.69,297.32 572.94,286.60 572.94,286.60 C572.94,286.60 566.30,285.69 566.30,285.69" fill="none" stroke="rgb(0, 0, 0)" stroke-width="5.00" stroke-opacity="1.00" stroke-linejoin="round"/>
<path d="M561.42,288.46 C561.82,292.80 562.81,299.62 563.74,303.79 C564.65,307.68 567.35,312.14 570.59,315.94 C571.85,317.37 573.97,318.74 575.13,318.64 C576.17,318.51 577.91,316.77 578.53,315.55 C581.30,309.70 582.74,300.81 583.01,298.93" fill="none" stroke="rgb(0, 0, 0)" stroke-width="5.00" stroke-opacity="1.00" stroke-linejoin="round"/>
<path d="M580.67,278.49 C580.67,278.49 580.53,277.93 580.53,277.93 C580.33,280.08 580.59,284.85 581.30,291.46 C582.01,297.36 583.68,304.11 585.54,306.55 C586.44,307.71 587.64,309.07 588.61,310.09 C590.98,309.21 592.24,308.38 592.57,306.73 C593.33,302.82 594.10,285.55 594.28,280.64 C594.28,280.64 601.34,295.68 601.34,295.68 C601.34,295.68 605.17,295.24 605.17,295.24" fill="none" stroke="rgb(0, 0, 0)" stroke-width="5.00" stroke-opacity="1.00" stroke-linejoin="round"/>
<path d="M602.92,267.82 C606.49,275.65 611.68,296.09 611.95,297.17 C611.73,296.70 611.14,290.85 611.41,287.22 C611.78,282.73 613.27,277.59 615.22,274.05 C616.09,272.51 617.23,271.50 619.72,269.85 C620.55,270.20 621.07,270.42 621.29,270.52 C621.51,270.62 621.72,270.74 621.93,270.87" fill="none" stroke="rgb(0, 0, 0)" stroke-width="5.00" stroke-opacity="1.00" stroke-linejoin="round"/>
<path d="M624.56,276.27 C624.56,276.27 624.15,276.83 624.15,276.83 C624.55,277.19 626.22,277.50 627.34,277.06 C628.74,276.48 630.40,274.66 631.17,273.00 C633.02,268.90 633.73,264.51 632.68,262.60 C631.71,260.94 628.99,258.32 627.26,257.50 C625.44,256.68 623.10,257.28 622.05,258.70 C620.93,260.38 620.23,268.05 620.43,273.45 C620.65,278.46 621.57,284.28 623.11,289.24 C623.78,291.26 625.29,293.15 626.78,293.83 C627.27,294.04 629.75,293.65 630.80,293.47 C632.83,292.95 636.16,288.53 639.44,282.88 C640.47,281.05 642.17,278.03 642.84,276.83" fill="none" stroke="rgb(0, 0, 0)" stroke-width="5.00" stroke-opacity="1.00" stroke-linejoin="round"/>
<path d="M696.85,1020.34 C696.85,1020.34 696.70,1019.99 696.70,1019.99 C694.89,1019.95 689.30,1022.36 687.63,1023.70 C685.53,1025.43 681.16,1031.56 680.25,1033.72 C679.25,1036.21 678.80,1042.37 679.02,1045.89 C679.28,1049.76 680.30,1056.48 681.58,1060.21 C682.12,1061.73 684.00,1065.94 684.62,1066.77 C685.47,1067.85 687.96,1069.75 688.91,1069.96 C690.45,1070.23 692.58,1069.69 694.47,1068.52 C698.22,1066.11 704.28,1059.56 704.61,1059.08 C705.75,1057.35 706.44,1055.29 706.70,1052.96 C706.76,1052.35 707.35,1048.03 707.52,1046.79" fill="none" stroke="rgb(0, 0, 0)" stroke-width="5.00" stroke-opacity="1.00" stroke-linejoin="round"/>
<path d="M711.53,1011.06 C711.51,1011.00 711.60,1010.97 711.53,1010.92 C711.02,1010.53 710.74,1010.30 710.70,1010.23 C710.62,1010.10 710.62,1009.88 710.70,1009.58" fill="none" stroke="rgb(0, 0, 0)" stroke-width="5.00" stroke-opacity="1.00" stroke-linejoin="round"/>
<path d="M708.86,1006.77 C708.86,1006.77 709.59,1007.05 709.59,1007.05 C709.59,1007.05 709.31,1007.05 709.31,1007.05 C709.31,1007.05 735.76,1035.16 735.76,1035.16 C735.76,1035.16 736.28,992.03 736.28,992.03" fill="none" stroke="rgb(0, 0, 0)" stroke-width="5.00" stroke-opacity="1.00" stroke-linejoin="round"/>
<path d="M753.91,996.39 C753.91,996.39 751.98,996.29 751.98,996.29 C751.98,996.29 752.44,991.64 752.44,991.64 C752.44,991.64 753.62,992.52 753.62,992.52 C753.62,992.52 753.21,993.75 753.21,993.75" fill="none" stroke="rgb(0, 0, 0)" stroke-width="5.00" stroke-opacity="1.00" stroke-linejoin="round"/>
<path d="M785.07,945.70 C785.07,945.70 784.23,946.25 784.23,946.25 C784.18,946.13 779.18,945.03 776.58,948.01 C775.45,949.37 773.31,953.94 772.90,956.56 C772.39,960.13 773.20,966.49 774.82,970.08 C775.75,972.05 777.58,975.33 778.45,976.23 C779.72,977.47 783.16,979.55 784.61,979.87 C786.48,980.23 789.07,980.11 790.42,979.61 C792.15,978.90 793.89,977.78 795.01,976.57 C797.04,974.29 799.10,968.20 799.41,966.80 C799.52,966.29 799.68,965.35 799.88,963.98" fill="none" stroke="rgb(0, 0, 0)" stroke-width="5.00" stroke-opacity="1.00" stroke-linejoin="round"/>
<path d="M814.84,915.23 C814.84,915.23 814.84,915.09 814.84,915.09 C810.85,917.40 807.56,919.76 806.29,921.90 C804.65,924.81 803.31,930.52 803.27,935.02 C803.27,937.62 803.84,943.55 804.61,946.43 C805.59,949.95 808.37,955.36 810.61,957.17 C811.70,958.01 814.76,959.36 815.94,959.52 C817.13,959.65 819.84,959.03 820.88,958.43 C822.82,957.21 824.46,951.58 825.21,945.65 C825.48,943.26 825.52,940.87 825.29,939.40 C825.15,938.66 823.24,936.14 822.35,935.79 C821.06,935.33 818.24,936.25 816.37,937.42 C815.64,937.89 813.85,939.10 813.61,939.48 C818.94,934.76 826.66,927.92 829.07,925.79 C830.36,924.68 832.12,923.18 832.70,922.71" fill="none" stroke="rgb(0, 0, 0)" stroke-width="5.00" stroke-opacity="1.00" stroke-linejoin="round"/>
<path d="M1193.17,645.05 C1192.81,645.42 1191.15,647.02 1190.45,647.38 C1189.94,647.64 1184.71,648.97 1183.91,649.02 C1181.78,649.13 1179.12,647.96 1177.20,646.25 C1175.70,644.84 1173.65,640.18 1173.09,637.04 C1172.60,634.08 1173.88,627.49 1175.13,625.69 C1176.07,624.42 1179.08,621.73 1180.38,621.15 C1182.25,620.38 1185.87,620.13 1187.59,620.69 C1189.08,621.23 1190.96,623.02 1192.34,625.04 C1193.83,627.31 1194.98,629.67 1195.25,631.17 C1195.65,633.68 1193.94,639.93 1192.59,641.82 C1192.00,642.62 1190.43,643.92 1189.14,644.79 C1188.90,644.95 1188.72,645.04 1188.60,645.05" fill="none" stroke="rgb(0, 0, 0)" stroke-width="5.00" stroke-opacity="1.00" stroke-linejoin="round"/>
<path d="M1185.28,687.01 C1182.34,687.45 1180.92,687.40 1179.07,686.70 C1177.35,685.99 1175.80,684.52 1175.28,682.90 C1174.96,681.80 1175.26,676.83 1175.74,675.73 C1176.84,673.39 1183.44,669.99 1185.96,669.77 C1187.35,669.68 1191.10,669.90 1192.26,670.19 C1193.47,670.52 1195.86,671.97 1196.73,672.84 C1197.61,673.80 1198.87,676.27 1199.00,677.48 C1199.10,678.73 1198.35,682.15 1197.74,683.42 C1196.33,686.12 1193.68,687.72 1190.99,688.98 C1190.99,688.98 1187.08,685.77 1187.08,685.77" fill="none" stroke="rgb(0, 0, 0)" stroke-width="5.00" stroke-opacity="1.00" stroke-linejoin="round"/>
<path d="M1194.83,729.39 C1194.83,729.39 1193.87,729.53 1193.87,729.53 C1191.93,729.73 1189.10,729.90 1188.08,729.75 C1186.96,729.57 1185.10,728.34 1184.29,727.42 C1182.68,725.40 1181.68,720.33 1181.90,715.82 C1182.04,713.76 1182.82,710.20 1183.55,708.90 C1184.39,707.48 1187.58,704.75 1189.25,704.03 C1190.84,703.39 1195.41,702.73 1197.04,702.83 C1198.50,702.97 1200.51,704.14 1201.16,705.23 C1202.59,707.87 1203.22,715.90 1202.11,719.07 C1201.63,720.37 1200.19,723.01 1199.18,724.70 C1199.18,724.70 1195.67,721.91 1195.67,721.91" fill="none" stroke="rgb(0, 0, 0)" stroke-width="5.00" stroke-opacity="1.00" stroke-linejoin="round"/>
<path d="M1238.60,625.94 C1238.60,625.94 1237.70,628.23 1237.70,628.23 C1235.41,628.71 1233.80,628.71 1232.28,628.02 C1230.67,627.27 1228.82,625.74 1227.92,624.37 C1226.37,621.89 1225.82,615.48 1226.68,612.02 C1227.17,610.18 1228.35,607.59 1229.29,606.34 C1230.26,605.10 1232.00,603.87 1233.27,603.51 C1235.31,603.00 1240.18,603.64 1242.71,604.80 C1244.00,605.44 1246.25,607.47 1246.99,608.89 C1247.61,610.16 1247.99,613.19 1247.77,614.10 C1245.94,620.43 1240.61,625.24 1239.60,626.02 C1239.26,626.27 1238.93,626.52 1238.60,626.77" fill="none" stroke="rgb(0, 0, 0)" stroke-width="5.00" stroke-opacity="1.00" stroke-linejoin="round"/>
<path d="M1244.69,674.82 C1244.69,674.82 1243.72,675.93 1243.72,675.93 C1241.80,676.68 1239.02,677.65 1237.94,677.80 C1236.71,677.96 1234.68,677.19 1233.89,676.33 C1232.15,674.27 1230.94,667.73 1231.51,664.09 C1231.77,662.62 1232.95,659.92 1233.78,658.96 C1235.72,656.80 1241.24,654.55 1243.93,654.79 C1245.19,654.95 1247.97,656.00 1248.85,656.72 C1249.72,657.48 1251.30,660.13 1251.73,661.43 C1252.46,663.87 1251.36,668.95 1249.82,672.54 C1249.13,674.10 1247.84,676.16 1246.80,677.39 C1246.53,677.70 1246.10,678.14 1245.52,678.70" fill="none" stroke="rgb(0, 0, 0)" stroke-width="5.00" stroke-opacity="1.00" stroke-linejoin="round"/>
<path d="M1130.72,717.89 C1128.54,716.23 1126.95,714.94 1126.19,714.07 C1125.09,712.77 1124.15,710.60 1123.88,708.61 C1123.71,707.18 1123.64,702.77 1123.77,701.23 C1124.00,699.05 1124.97,696.60 1126.07,695.51 C1127.10,694.57 1129.28,693.79 1130.70,693.80 C1132.06,693.85 1133.95,694.57 1134.84,695.35 C1135.62,696.09 1136.96,698.20 1137.39,699.44 C1137.91,701.03 1137.99,704.00 1137.55,706.12 C1137.07,708.24 1135.68,711.10 1134.51,712.41 C1132.69,714.35 1128.31,716.20 1127.62,716.30 C1127.32,716.33 1126.78,716.31 1126.01,716.23" fill="none" stroke="rgb(0, 0, 0)" stroke-width="5.00" stroke-opacity="1.00" stroke-linejoin="round"/>
<path d="M1153.15,755.98 C1153.15,755.98 1153.15,756.39 1153.15,756.39 C1150.08,757.49 1143.66,759.18 1140.95,759.27 C1138.92,759.29 1134.28,756.32 1132.64,754.57 C1130.26,751.99 1127.04,746.42 1126.64,743.98 C1126.33,741.77 1127.80,736.41 1129.23,734.26 C1130.61,732.27 1134.97,729.86 1137.82,729.31 C1140.77,728.79 1146.22,728.96 1147.45,729.62 C1149.03,730.55 1150.69,733.15 1150.77,735.15 C1150.81,737.27 1147.82,744.70 1145.83,747.46 C1145.14,748.39 1143.41,750.50 1142.76,751.27" fill="none" stroke="rgb(0, 0, 0)" stroke-width="5.00" stroke-opacity="1.00" stroke-linejoin="round"/>
<path d="M1138.75,692.28 C1138.75,692.28 1137.51,692.28 1137.51,692.28 C1138.16,690.07 1139.21,688.28 1142.20,684.22 C1151.80,671.35 1169.20,647.47 1171.76,644.03 C1171.76,644.03 1172.26,646.43 1172.26,646.43" fill="none" stroke="rgb(0, 0, 0)" stroke-width="5.00" stroke-opacity="1.00" stroke-linejoin="round"/>
<path d="M1145.40,696.29 C1145.40,696.29 1144.98,696.29 1144.98,696.29 C1144.98,696.29 1177.39,680.57 1177.39,680.57 C1177.65,680.82 1177.83,681.00 1177.91,681.12 C1177.99,681.23 1178.09,681.44 1178.22,681.75" fill="none" stroke="rgb(0, 0, 0)" stroke-width="5.00" stroke-opacity="1.00" stroke-linejoin="round"/>
<path d="M1141.52,707.23 C1144.29,707.35 1152.31,707.70 1155.62,708.24 C1172.40,711.09 1186.37,720.06 1187.49,720.94" fill="none" stroke="rgb(0, 0, 0)" stroke-width="5.00" stroke-opacity="1.00" stroke-linejoin="round"/>
<path d="M1148.31,740.05 C1149.51,730.83 1150.88,722.92 1153.43,713.18 C1155.65,705.50 1159.87,690.79 1161.88,683.18 C1162.82,679.43 1167.47,658.03 1168.48,655.98 C1169.23,654.46 1170.84,652.24 1171.91,651.03 C1171.72,652.17 1171.58,652.98 1171.48,653.45 C1171.38,653.92 1171.18,654.72 1170.88,655.85" fill="none" stroke="rgb(0, 0, 0)" stroke-width="5.00" stroke-opacity="1.00" stroke-linejoin="round"/>
<path d="M1144.57,738.80 C1144.57,738.80 1144.57,739.50 1144.57,739.50 C1148.62,727.78 1152.64,717.26 1156.32,711.12 C1161.09,703.24 1173.80,688.18 1174.46,687.39 C1174.46,687.39 1173.79,689.92 1173.79,689.92" fill="none" stroke="rgb(0, 0, 0)" stroke-width="5.00" stroke-opacity="1.00" stroke-linejoin="round"/>
<path d="M1143.32,748.78 C1143.51,747.48 1143.91,746.71 1145.33,745.23 C1152.82,737.30 1172.20,723.98 1173.20,723.30 C1173.20,723.30 1172.54,722.32 1172.54,722.32" fill="none" stroke="rgb(0, 0, 0)" stroke-width="5.00" stroke-opacity="1.00" stroke-linejoin="round"/>
<path d="M1203.70,707.37 C1203.70,707.37 1202.87,708.06 1202.87,708.06 C1202.87,708.06 1200.38,709.31 1200.38,709.31 C1200.60,708.62 1219.95,682.25 1224.31,676.58 C1224.92,675.77 1225.53,674.95 1226.13,674.14" fill="none" stroke="rgb(0, 0, 0)" stroke-width="5.00" stroke-opacity="1.00" stroke-linejoin="round"/>
<path d="M1204.39,700.72 C1204.40,700.76 1206.53,687.22 1208.78,677.51 C1212.12,663.49 1216.99,638.10 1217.11,637.36 C1217.12,637.28 1217.13,637.21 1217.13,637.16" fill="none" stroke="rgb(0, 0, 0)" stroke-width="5.00" stroke-opacity="1.00" stroke-linejoin="round"/>
<path d="M1185.70,633.56 C1185.61,633.58 1187.22,633.52 1188.47,633.49 C1192.37,633.37 1200.57,633.16 1204.82,633.21 C1210.00,633.32 1216.84,634.67 1218.94,635.90 C1221.17,637.27 1222.18,637.56 1225.10,637.72 C1224.77,638.83 1224.52,639.58 1224.35,639.99 C1224.18,640.39 1223.85,641.02 1223.36,641.87" fill="none" stroke="rgb(0, 0, 0)" stroke-width="5.00" stroke-opacity="1.00" stroke-linejoin="round"/>
<path d="M1194.83,677.32 C1194.83,677.32 1194.42,676.35 1194.42,676.35 C1194.42,676.35 1192.20,674.92 1192.20,674.92 C1201.88,673.03 1212.53,671.65 1221.71,671.21 C1234.59,670.69 1235.02,670.65 1235.07,670.56 C1234.27,669.96 1233.74,669.55 1233.46,669.31 C1233.18,669.08 1232.77,668.70 1232.22,668.18" fill="none" stroke="rgb(0, 0, 0)" stroke-width="5.00" stroke-opacity="1.00" stroke-linejoin="round"/>
<path d="M987.80,582.45 C987.80,582.45 987.45,582.18 987.45,582.18 C984.59,583.48 978.87,584.70 975.35,584.48 C971.93,584.23 965.96,581.66 962.98,579.72 C960.05,577.78 955.04,572.32 953.95,569.12 C953.07,566.42 952.96,557.51 953.87,554.90 C954.44,553.33 959.58,545.98 960.56,545.16 C962.35,543.72 969.59,541.85 972.07,541.74 C974.69,541.66 980.57,543.17 982.94,544.44 C985.88,546.08 989.64,549.91 991.43,553.94 C992.60,556.67 994.43,563.81 994.47,567.33 C994.47,571.05 993.28,577.80 991.90,580.03 C991.32,580.93 989.27,583.20 988.55,583.81 C988.27,584.03 987.70,584.46 986.84,585.09" fill="none" stroke="rgb(0, 0, 0)" stroke-width="5.00" stroke-opacity="1.00" stroke-linejoin="round"/>
<path d="M980.88,535.93 C980.88,535.93 980.74,536.20 980.74,536.20 C980.74,536.20 979.70,536.62 979.70,536.62 C978.77,534.94 977.57,532.38 977.38,531.20 C977.04,528.96 979.88,522.68 981.69,519.75 C983.32,517.16 987.66,511.75 989.56,509.86 C993.74,505.78 1006.18,498.28 1012.35,496.21 C1019.30,493.92 1027.11,493.19 1032.28,493.20 C1034.51,493.20 1035.62,494.00 1036.99,496.15 C1036.99,496.15 1034.75,501.03 1034.75,501.03" fill="none" stroke="rgb(0, 0, 0)" stroke-width="5.00" stroke-opacity="1.00" stroke-linejoin="round"/>
<path d="M1026.44,511.14 C1026.44,511.14 1025.47,511.83 1025.47,511.83 C1029.75,511.17 1035.04,509.02 1038.81,506.19 C1041.53,504.10 1043.86,501.15 1044.56,500.04 C1044.56,500.04 1039.26,495.56 1039.26,495.56 C1039.26,495.56 1042.92,501.31 1042.92,501.31" fill="none" stroke="rgb(0, 0, 0)" stroke-width="5.00" stroke-opacity="1.00" stroke-linejoin="round"/>
<path d="M1074.08,503.10 C1074.08,503.10 1074.91,502.83 1074.91,502.83 C1072.32,503.53 1066.72,505.02 1065.16,504.84 C1063.85,504.65 1060.42,503.36 1059.40,502.57 C1058.44,501.80 1056.59,499.08 1055.87,497.64 C1054.89,495.53 1054.26,489.82 1054.14,485.58 C1054.05,481.13 1055.15,475.05 1056.99,471.66 C1058.69,468.64 1063.37,464.00 1066.24,462.87 C1068.88,461.87 1078.17,460.83 1081.78,461.62 C1084.54,462.26 1089.52,465.57 1091.08,467.33 C1092.66,469.17 1095.91,476.54 1096.19,478.39 C1096.55,481.03 1095.85,488.41 1095.37,491.41 C1094.79,494.84 1092.66,498.75 1091.29,500.50 C1090.84,501.07 1090.13,501.99 1089.17,503.24" fill="none" stroke="rgb(0, 0, 0)" stroke-width="5.00" stroke-opacity="1.00" stroke-linejoin="round"/>
<path d="M1065.21,524.71 C1065.21,524.71 1064.07,523.74 1064.07,523.74 C1064.07,523.74 1066.46,520.57 1066.46,520.57 C1065.87,523.73 1062.40,531.31 1061.25,533.41 C1059.36,536.83 1055.23,541.70 1052.38,544.02 C1047.34,548.05 1033.71,555.12 1026.82,557.41 C1023.93,558.34 1016.66,559.49 1013.42,558.77 C1012.68,558.59 1011.95,558.40 1011.21,558.22" fill="none" stroke="rgb(0, 0, 0)" stroke-width="5.00" stroke-opacity="1.00" stroke-linejoin="round"/>
<path d="M1014.25,548.25 C1014.25,548.25 1014.53,548.11 1014.53,548.11 C1014.53,548.11 1005.74,562.49 1005.74,562.49 C1006.47,563.39 1007.26,563.75 1009.55,564.02 C1013.60,564.54 1020.71,565.43 1023.76,565.80 C1023.76,565.80 1021.59,565.15 1021.59,565.15" fill="none" stroke="rgb(0, 0, 0)" stroke-width="5.00" stroke-opacity="1.00" stroke-linejoin="round"/>
<path d="M1034.89,481.37 C1034.89,481.37 1035.16,480.67 1035.16,480.67 C1036.96,483.30 1041.19,489.54 1043.62,493.14 C1045.92,496.62 1047.09,500.08 1047.35,500.53 C1047.43,500.68 1047.66,500.89 1048.05,501.17" fill="none" stroke="rgb(0, 0, 0)" stroke-width="5.00" stroke-opacity="1.00" stroke-linejoin="round"/>
<path d="M995.14,308.40 C995.14,308.40 994.04,305.63 994.04,305.63 C994.03,305.60 997.15,333.04 999.22,351.20 C999.39,352.72 999.71,355.53 999.85,356.80 C999.85,356.80 999.02,355.76 999.02,355.76" fill="none" stroke="rgb(0, 0, 0)" stroke-width="5.00" stroke-opacity="1.00" stroke-linejoin="round"/>
<path d="M995.52,307.57 C995.64,307.57 995.76,307.57 995.89,307.57 C996.01,307.57 996.13,307.57 996.25,307.57 C996.25,307.57 995.28,307.20 995.28,307.20 C995.68,304.87 998.92,298.65 1000.08,296.75 C1003.60,291.02 1009.23,287.22 1013.68,284.48 C1014.04,293.64 1015.01,305.71 1015.80,313.63 C1016.67,321.31 1017.79,331.40 1018.97,335.15 C1018.97,335.15 1019.24,335.13 1019.24,335.13" fill="none" stroke="rgb(0, 0, 0)" stroke-width="5.00" stroke-opacity="1.00" stroke-linejoin="round"/>
<path d="M1022.29,330.56 C1022.29,330.56 1023.39,331.25 1023.39,331.25 C1023.39,331.25 1023.67,334.16 1023.67,334.16 C1023.60,327.69 1023.37,312.13 1022.58,305.10 C1021.88,298.93 1016.73,279.19 1016.22,276.92 C1014.87,270.80 1013.81,255.75 1013.84,255.38 C1014.10,253.27 1015.10,251.45 1017.04,249.60 C1017.12,249.53 1021.72,244.93 1023.29,243.40 C1025.12,241.56 1026.05,241.19 1027.46,241.46 C1028.45,244.39 1030.60,261.45 1031.63,269.65 C1033.78,287.03 1036.52,309.34 1036.61,309.74 C1036.71,310.17 1036.96,311.02 1037.38,312.27" fill="none" stroke="rgb(0, 0, 0)" stroke-width="5.00" stroke-opacity="1.00" stroke-linejoin="round"/>
<path d="M1044.03,311.59 C1044.03,311.82 1044.03,312.05 1044.03,312.28 C1044.03,313.43 1044.03,314.58 1044.03,315.74 C1044.03,315.74 1042.78,289.95 1039.77,275.62 C1041.26,273.48 1046.06,268.40 1047.25,268.05 C1048.64,267.70 1050.60,268.78 1051.08,270.14 C1052.40,274.12 1055.58,287.60 1057.22,296.05 C1057.44,297.26 1057.66,298.47 1057.87,299.68" fill="none" stroke="rgb(0, 0, 0)" stroke-width="5.00" stroke-opacity="1.00" stroke-linejoin="round"/>
<path d="M1059.12,302.58 C1059.12,302.58 1059.12,303.19 1059.12,303.19 C1059.08,296.15 1058.86,277.66 1058.46,275.66 C1057.83,272.61 1052.21,252.74 1051.10,246.37 C1050.31,241.76 1049.25,230.76 1046.66,218.22 C1046.20,216.11 1045.13,211.06 1045.02,210.64 C1044.47,208.42 1044.56,207.18 1045.44,206.26 C1046.03,205.68 1052.26,201.00 1055.19,200.20 C1057.26,201.90 1058.38,204.31 1059.25,208.77 C1060.04,213.37 1067.16,269.37 1067.30,270.75 C1067.58,273.33 1067.68,275.50 1067.71,276.55" fill="none" stroke="rgb(0, 0, 0)" stroke-width="5.00" stroke-opacity="1.00" stroke-linejoin="round"/>
<path d="M1071.03,277.65 C1071.10,277.94 1071.28,278.26 1071.59,278.63 C1071.89,278.99 1072.73,279.90 1074.10,281.36 C1074.10,281.36 1072.98,279.97 1072.98,279.97" fill="none" stroke="rgb(0, 0, 0)" stroke-width="5.00" stroke-opacity="1.00" stroke-linejoin="round"/>
<path d="M1071.59,278.63" fill="none" stroke="rgb(0, 0, 0)" stroke-width="5.00" stroke-opacity="1.00" stroke-linejoin="round"/>
<path d="M1074.77,282.78 C1074.77,282.80 1074.77,282.82 1074.77,282.85 C1074.77,282.87 1074.77,282.89 1074.77,282.92 C1074.76,261.96 1074.15,253.32 1071.11,225.99 C1070.08,216.81 1067.79,194.66 1067.76,194.42 C1067.53,192.37 1067.69,190.95 1068.33,189.94 C1070.24,187.15 1077.62,183.13 1078.45,182.68 C1080.75,184.52 1081.49,185.43 1081.58,186.84 C1081.63,187.61 1089.38,274.85 1089.72,277.23 C1089.90,276.64 1090.01,276.18 1090.07,275.84 C1090.12,275.50 1090.19,274.81 1090.28,273.78" fill="none" stroke="rgb(0, 0, 0)" stroke-width="5.00" stroke-opacity="1.00" stroke-linejoin="round"/>
<path d="M830.35,429.02 C829.65,428.87 829.03,428.78 828.50,428.74 C826.57,428.64 823.66,428.43 822.73,428.02 C821.53,427.43 819.14,425.53 818.01,424.14 C816.60,422.33 815.24,419.43 814.98,417.67 C814.76,415.80 814.89,412.99 815.32,411.73 C816.19,409.39 821.03,405.54 824.19,404.51 C825.64,404.07 829.28,403.38 830.45,403.49 C832.65,403.73 835.44,405.37 836.41,407.01 C837.31,408.64 837.16,415.73 836.31,418.48 C835.44,421.19 833.21,425.55 830.86,429.38 C830.46,430.05 830.06,430.71 829.66,431.37" fill="none" stroke="rgb(0, 0, 0)" stroke-width="5.00" stroke-opacity="1.00" stroke-linejoin="round"/>
<path d="M842.40,414.34 C842.40,414.34 842.40,414.20 842.40,414.20 C842.40,414.20 869.32,408.26 869.32,408.26 C867.90,408.53 866.97,408.71 866.54,408.80 C866.12,408.90 865.59,409.03 864.97,409.21" fill="none" stroke="rgb(0, 0, 0)" stroke-width="5.00" stroke-opacity="1.00" stroke-linejoin="round"/>
<path d="M876.60,411.43 C876.60,411.43 869.81,415.72 869.81,415.72 C867.98,414.47 867.14,413.46 867.00,411.93 C866.76,408.92 867.83,402.60 869.47,400.24 C871.03,398.08 875.46,395.94 877.84,395.62 C880.31,395.35 885.28,397.10 887.18,399.09 C889.02,401.11 890.09,406.66 889.72,408.57 C889.22,410.86 884.46,417.66 884.05,417.81 C883.76,417.91 883.11,417.86 882.12,417.66 C882.12,417.66 880.76,411.16 880.76,411.16" fill="none" stroke="rgb(0, 0, 0)" stroke-width="5.00" stroke-opacity="1.00" stroke-linejoin="round"/>
<path d="M901.94,393.01 C901.94,393.01 901.11,393.01 901.11,393.01 C901.11,391.09 901.28,389.77 901.92,388.80 C903.96,385.76 915.58,374.48 919.11,371.82 C919.11,371.82 919.12,372.38 919.12,372.38" fill="none" stroke="rgb(0, 0, 0)" stroke-width="5.00" stroke-opacity="1.00" stroke-linejoin="round"/>
<path d="M926.59,364.07 C926.75,363.85 926.80,363.67 926.73,363.52 C926.70,363.45 924.64,360.73 924.00,359.58 C923.14,358.00 921.66,353.81 921.57,352.37 C921.52,350.93 922.64,348.03 923.58,346.81 C924.47,345.73 926.76,344.10 927.98,343.74 C930.56,343.05 938.02,344.02 940.58,345.32 C941.80,345.97 944.21,348.11 945.04,349.28 C945.90,350.55 947.27,353.98 947.41,355.38 C947.53,356.79 946.74,360.25 946.05,361.47 C945.39,362.57 943.25,364.70 941.96,365.67 C940.81,366.49 938.81,367.27 937.13,367.56 C935.90,367.77 929.55,368.16 928.40,368.23" fill="none" stroke="rgb(0, 0, 0)" stroke-width="5.00" stroke-opacity="1.00" stroke-linejoin="round"/>
<path d="M874.80,398.83 C874.79,392.27 874.66,377.16 874.54,368.61 C874.18,355.30 874.04,354.72 873.72,354.74 C873.72,354.74 872.58,355.21 872.58,355.21" fill="none" stroke="rgb(0, 0, 0)" stroke-width="5.00" stroke-opacity="1.00" stroke-linejoin="round"/>
<path d="M865.66,357.70 C865.66,357.70 864.83,357.28 864.83,357.28 C862.84,354.72 859.72,349.12 859.38,346.30 C859.25,345.01 860.17,342.70 861.15,341.51 C863.48,338.85 869.85,335.06 873.61,334.09 C876.33,333.43 883.28,333.62 885.74,334.24 C888.78,335.06 893.75,338.49 894.42,340.10 C895.13,341.95 895.10,344.53 894.36,346.03 C892.81,349.00 889.98,352.58 888.19,353.89 C887.30,354.51 884.48,355.56 882.91,355.85 C882.43,355.94 881.85,355.96 881.17,355.90" fill="none" stroke="rgb(0, 0, 0)" stroke-width="5.00" stroke-opacity="1.00" stroke-linejoin="round"/>
<path d="M812.35,262.84 C812.35,262.84 810.83,258.57 810.83,258.57 C811.10,269.75 811.84,281.80 812.52,289.45 C814.85,311.07 815.83,316.25 816.08,317.34 C816.08,317.34 816.08,313.52 816.08,313.52" fill="none" stroke="rgb(0, 0, 0)" stroke-width="5.00" stroke-opacity="1.00" stroke-linejoin="round"/>
<path d="M809.16,269.90 C808.92,267.35 809.52,261.66 811.51,258.82 C812.57,257.38 818.73,254.13 821.36,253.28 C824.79,252.23 830.09,251.84 832.64,253.38 C834.47,254.55 837.69,259.60 838.54,262.82 C839.34,266.01 840.11,272.53 839.93,275.73 C839.76,278.44 838.63,285.22 837.75,287.98 C836.85,290.75 833.81,295.60 831.21,298.86 C827.87,302.89 825.33,304.66 824.31,305.45 C823.96,305.72 823.71,306.01 823.56,306.32" fill="none" stroke="rgb(0, 0, 0)" stroke-width="5.00" stroke-opacity="1.00" stroke-linejoin="round"/>
<path d="M848.90,260.49 C847.27,261.63 845.87,262.82 845.36,263.92 C843.95,267.05 843.49,275.40 843.54,279.60 C843.62,283.57 845.01,286.72 845.69,287.53 C848.08,287.30 849.35,286.99 849.78,286.16 C850.85,284.06 853.92,269.00 854.53,265.94 C854.53,265.94 858.16,280.23 858.16,280.23 C858.16,280.23 860.40,274.61 860.40,274.61" fill="none" stroke="rgb(0, 0, 0)" stroke-width="5.00" stroke-opacity="1.00" stroke-linejoin="round"/>
<path d="M859.85,257.99 C862.34,256.40 869.72,251.58 870.06,251.06 C870.35,250.62 870.83,249.50 871.50,247.68 C870.57,246.12 869.23,244.79 867.77,244.31 C866.34,243.86 864.22,244.39 863.39,245.31 C862.81,246.02 862.37,253.11 862.52,257.15 C862.99,267.84 865.86,273.51 867.07,275.00 C868.94,274.58 872.06,270.88 875.46,264.80 C875.98,263.87 876.50,262.94 877.01,262.01" fill="none" stroke="rgb(0, 0, 0)" stroke-width="5.00" stroke-opacity="1.00" stroke-linejoin="round"/>
<path d="M892.25,242.76 C892.24,242.19 891.23,241.19 889.76,240.76 C889.22,240.60 888.05,240.39 886.27,240.13 C884.83,241.99 884.32,243.08 884.22,244.92 C883.98,248.12 883.65,255.91 883.62,258.17 C883.65,262.60 884.03,263.22 885.04,263.76 C885.04,263.76 888.23,248.80 888.23,248.80 C891.25,248.76 892.88,249.28 894.66,251.15 C897.35,253.95 900.49,255.60 901.83,256.21 C901.83,256.21 902.50,247.60 902.50,247.60" fill="none" stroke="rgb(0, 0, 0)" stroke-width="5.00" stroke-opacity="1.00" stroke-linejoin="round"/>
<path d="M918.84,201.76 C916.32,203.76 911.75,208.27 910.53,210.21 C909.40,212.03 909.01,213.87 909.34,214.82 C920.52,216.52 925.70,217.87 927.31,219.58 C928.84,221.28 930.61,223.66 931.15,224.97 C932.30,227.86 931.83,235.44 930.51,238.51 C930.08,239.49 928.19,242.54 927.47,243.38 C925.73,245.39 924.26,246.18 923.09,245.93 C922.16,243.50 921.84,241.94 921.95,239.52 C922.29,231.31 923.80,220.30 923.78,219.45 C923.67,217.45 919.68,214.19 918.77,213.62 C918.51,213.46 918.16,213.29 917.73,213.12" fill="none" stroke="rgb(0, 0, 0)" stroke-width="5.00" stroke-opacity="1.00" stroke-linejoin="round"/>
<path d="M919.40,251.34 C919.30,248.19 919.15,240.00 919.71,237.47 C920.48,234.22 923.15,230.92 923.79,230.11 C925.62,230.56 926.75,231.22 928.32,232.98 C932.72,237.78 933.99,238.55 936.48,239.47 C938.10,238.57 940.15,235.11 941.55,230.94 C943.50,224.68 945.71,217.50 945.98,216.58" fill="none" stroke="rgb(0, 0, 0)" stroke-width="5.00" stroke-opacity="1.00" stroke-linejoin="round"/>
<path d="M962.74,212.01 C961.03,210.74 960.39,209.95 959.98,208.34 C957.66,199.19 956.50,189.03 956.29,178.32 C956.17,168.77 956.63,163.87 956.70,163.10 C965.26,175.61 970.75,194.84 970.81,195.17 C971.06,196.64 970.39,197.97 968.83,199.55" fill="none" stroke="rgb(0, 0, 0)" stroke-width="5.00" stroke-opacity="1.00" stroke-linejoin="round"/>
<path d="M959.41,198.44 C959.41,198.44 958.58,198.86 958.58,198.86 C964.65,196.79 972.08,191.23 973.18,190.40 C973.99,189.76 974.80,189.11 975.61,188.47" fill="none" stroke="rgb(0, 0, 0)" stroke-width="5.00" stroke-opacity="1.00" stroke-linejoin="round"/>
<path d="M974.09,164.79 C974.09,164.79 974.37,164.10 974.37,164.10 C976.29,171.55 981.55,191.79 981.95,192.69 C982.17,193.18 982.75,194.31 983.70,196.07 C983.70,196.07 984.20,193.52 984.20,193.52" fill="none" stroke="rgb(0, 0, 0)" stroke-width="5.00" stroke-opacity="1.00" stroke-linejoin="round"/>
<path d="M1006.22,168.12 C1006.22,168.12 1005.67,167.42 1005.67,167.42 C1004.21,170.75 1000.37,179.36 998.84,181.74 C996.85,184.79 993.75,187.00 993.01,187.55 C990.80,185.81 989.91,184.02 990.47,181.64 C990.96,179.56 992.00,178.04 993.26,177.10 C994.64,177.12 995.74,178.17 997.02,180.84 C997.85,182.63 997.57,187.90 996.53,193.37 C995.72,197.52 993.30,203.22 991.84,204.44 C991.87,202.83 994.90,197.01 997.06,193.97 C998.77,191.57 1004.25,185.12 1006.36,182.66" fill="none" stroke="rgb(0, 0, 0)" stroke-width="5.00" stroke-opacity="1.00" stroke-linejoin="round"/>
<path d="M1007.98,167.14 C1007.98,167.14 1004.91,180.66 1004.91,180.66 C1004.91,180.66 1005.71,181.35 1005.71,181.35 C1008.06,179.36 1009.97,175.71 1010.55,171.80 C1010.63,171.29 1010.74,170.33 1010.91,168.92 C1010.91,168.92 1008.35,168.83 1008.35,168.83 C1008.35,168.83 1006.91,172.55 1006.91,172.55" fill="none" stroke="rgb(0, 0, 0)" stroke-width="5.00" stroke-opacity="1.00" stroke-linejoin="round"/>
<path d="M1010.52,141.53 C1010.52,141.53 1010.52,141.25 1010.52,141.25 C1010.52,141.25 1019.34,170.47 1019.34,170.47 C1019.34,170.47 1020.48,162.93 1020.48,162.93" fill="none" stroke="rgb(0, 0, 0)" stroke-width="5.00" stroke-opacity="1.00" stroke-linejoin="round"/>
<path d="M1025.89,153.02 C1025.89,153.02 1027.40,165.24 1027.40,165.24 C1027.40,165.24 1025.89,154.13 1025.89,154.13" fill="none" stroke="rgb(0, 0, 0)" stroke-width="5.00" stroke-opacity="1.00" stroke-linejoin="round"/>
<path d="M1019.66,138.62 C1019.66,138.62 1023.28,138.45 1023.28,138.45 C1023.28,138.45 1020.64,138.47 1020.64,138.47" fill="none" stroke="rgb(0, 0, 0)" stroke-width="5.00" stroke-opacity="1.00" stroke-linejoin="round"/>
<path d="M1030.87,144.99 C1032.15,145.01 1034.28,144.78 1035.51,144.25 C1036.71,143.72 1041.03,140.77 1042.01,139.82 C1042.82,139.02 1043.54,138.16 1044.16,137.24 C1044.32,136.99 1044.37,136.80 1044.30,136.68" fill="none" stroke="rgb(0, 0, 0)" stroke-width="5.00" stroke-opacity="1.00" stroke-linejoin="round"/>
<path d="M1037.24,130.73 C1037.24,130.73 1036.55,130.73 1036.55,130.73 C1036.44,138.13 1037.81,149.55 1038.82,151.95 C1039.19,152.73 1041.27,154.72 1042.09,154.83 C1043.35,154.95 1045.33,153.35 1046.07,151.84 C1047.33,149.09 1048.11,145.45 1048.42,143.76" fill="none" stroke="rgb(0, 0, 0)" stroke-width="5.00" stroke-opacity="1.00" stroke-linejoin="round"/>
<path d="M1042.23,114.94 C1042.23,114.94 1041.81,114.66 1041.81,114.66 C1042.00,123.74 1046.31,143.47 1047.70,148.47 C1047.73,146.67 1048.19,142.41 1048.93,137.68 C1049.23,135.65 1050.07,134.48 1052.11,132.84 C1052.11,132.84 1057.44,145.09 1057.44,145.09 C1057.44,145.09 1058.01,141.66 1058.01,141.66" fill="none" stroke="rgb(0, 0, 0)" stroke-width="5.00" stroke-opacity="1.00" stroke-linejoin="round"/>
<path d="M1058.84,124.35 C1058.84,124.35 1058.43,123.52 1058.43,123.52 C1058.43,123.52 1061.32,142.22 1061.32,142.22 C1061.20,132.65 1062.41,129.46 1063.51,128.32 C1063.51,128.32 1066.73,135.53 1066.73,135.53 C1067.73,133.96 1069.74,130.72 1070.33,130.18 C1071.73,128.96 1075.02,129.00 1076.42,130.25 C1076.91,130.70 1077.51,131.62 1078.20,132.99 C1078.26,133.11 1078.55,133.74 1079.07,134.88" fill="none" stroke="rgb(0, 0, 0)" stroke-width="5.00" stroke-opacity="1.00" stroke-linejoin="round"/>
<path d="M1291.91,205.51 C1291.91,205.51 1291.91,205.27 1291.91,205.27 C1291.97,205.86 1292.30,212.30 1292.48,215.81 C1293.39,233.48 1294.44,253.57 1294.58,255.99 C1294.58,255.99 1294.41,249.96 1294.41,249.96" fill="none" stroke="rgb(0, 0, 0)" stroke-width="5.00" stroke-opacity="1.00" stroke-linejoin="round"/>
<path d="M1290.94,211.88 C1290.94,211.88 1290.39,211.88 1290.39,211.88 C1290.39,211.88 1303.91,203.63 1303.91,203.63 C1303.91,203.63 1301.62,208.91 1301.62,208.91" fill="none" stroke="rgb(0, 0, 0)" stroke-width="5.00" stroke-opacity="1.00" stroke-linejoin="round"/>
<path d="M1288.73,227.67 C1288.73,227.67 1288.45,228.08 1288.45,228.08 C1291.06,226.71 1297.23,223.48 1300.79,221.63 C1304.17,219.89 1306.86,218.85 1307.56,218.66" fill="none" stroke="rgb(0, 0, 0)" stroke-width="5.00" stroke-opacity="1.00" stroke-linejoin="round"/>
<path d="M1307.00,223.23 C1307.00,223.23 1306.73,222.82 1306.73,222.82 C1305.66,232.60 1304.77,243.32 1306.11,245.97 C1308.58,244.96 1309.98,244.05 1310.94,242.58 C1312.70,239.85 1314.77,233.69 1315.38,229.78 C1315.70,227.67 1315.30,225.90 1314.13,223.33 C1312.42,222.67 1311.24,222.80 1309.63,224.06 C1308.05,225.33 1307.20,226.90 1307.18,228.52 C1307.18,228.85 1307.26,229.31 1307.42,229.88" fill="none" stroke="rgb(0, 0, 0)" stroke-width="5.00" stroke-opacity="1.00" stroke-linejoin="round"/>
<path d="M1306.73,222.82 C1315.48,229.40 1317.86,232.37 1318.04,233.11 C1318.70,230.32 1321.38,225.22 1324.70,220.73 C1327.09,217.55 1329.52,216.05 1330.36,215.78 C1330.36,215.78 1331.38,217.28 1331.38,217.28" fill="none" stroke="rgb(0, 0, 0)" stroke-width="5.00" stroke-opacity="1.00" stroke-linejoin="round"/>
<path d="M1333.46,208.69 C1333.46,208.69 1335.22,228.51 1335.22,228.51 C1335.22,226.04 1334.93,220.37 1334.76,217.31 C1334.63,214.10 1335.43,209.90 1335.84,208.39 C1337.78,210.81 1339.46,216.21 1340.41,219.75 C1340.53,220.07 1340.77,220.34 1341.12,220.56 C1342.35,217.78 1346.62,210.38 1347.83,209.51 C1349.09,208.66 1351.71,209.83 1352.71,211.44 C1353.09,212.07 1354.01,215.23 1354.39,216.39 C1354.62,217.10 1354.81,217.61 1354.96,217.90 C1355.02,218.02 1355.10,218.09 1355.20,218.11" fill="none" stroke="rgb(0, 0, 0)" stroke-width="5.00" stroke-opacity="1.00" stroke-linejoin="round"/>
<path d="M1360.05,202.74 C1358.80,205.45 1357.09,210.84 1356.38,214.60 C1355.81,217.81 1356.78,220.99 1357.35,222.00 C1357.35,222.00 1359.01,222.37 1359.01,222.37 C1359.01,222.37 1365.61,206.44 1365.61,206.44 C1365.61,206.44 1368.50,215.19 1368.50,215.19 C1368.50,215.19 1370.02,209.10 1370.02,209.10" fill="none" stroke="rgb(0, 0, 0)" stroke-width="5.00" stroke-opacity="1.00" stroke-linejoin="round"/>
<path d="M1376.39,167.01 C1376.39,167.01 1376.66,166.87 1376.66,166.87 C1377.84,173.09 1380.68,188.18 1382.36,197.07 C1384.40,207.69 1385.41,211.88 1385.44,212.23 C1385.47,212.63 1385.50,213.66 1385.53,215.34" fill="none" stroke="rgb(0, 0, 0)" stroke-width="5.00" stroke-opacity="1.00" stroke-linejoin="round"/>
<path d="M1309.64,270.73 C1309.64,270.73 1309.64,267.81 1309.64,267.81 C1309.64,267.81 1312.15,304.91 1312.15,304.91 C1312.15,304.91 1312.41,299.95 1312.41,299.95" fill="none" stroke="rgb(0, 0, 0)" stroke-width="5.00" stroke-opacity="1.00" stroke-linejoin="round"/>
<path d="M1315.46,305.36 C1315.46,305.36 1313.24,305.77 1313.24,305.77 C1313.33,304.76 1317.19,299.88 1319.82,297.99 C1322.10,296.36 1327.42,293.76 1327.56,293.04 C1327.56,293.04 1325.80,290.54 1325.80,290.54" fill="none" stroke="rgb(0, 0, 0)" stroke-width="5.00" stroke-opacity="1.00" stroke-linejoin="round"/>
<path d="M1337.06,270.87 C1337.06,270.87 1337.06,270.45 1337.06,270.45 C1335.18,270.24 1332.58,271.02 1331.19,272.53 C1330.23,273.60 1328.67,282.15 1328.31,285.34 C1327.91,289.16 1328.48,290.68 1329.49,292.92 C1331.95,291.54 1333.08,290.84 1333.45,290.20 C1334.65,288.05 1338.00,275.67 1338.32,274.46 C1338.32,274.46 1340.55,284.46 1340.55,284.46 C1341.30,283.33 1341.80,282.48 1342.05,281.91 C1342.31,281.34 1342.68,280.24 1343.15,278.63" fill="none" stroke="rgb(0, 0, 0)" stroke-width="5.00" stroke-opacity="1.00" stroke-linejoin="round"/>
<path d="M1337.06,270.45 C1337.06,270.45 1344.98,278.63 1344.98,278.63 C1344.98,278.63 1346.36,270.00 1346.36,270.00 C1346.36,270.00 1349.15,269.62 1349.15,269.62 C1349.15,269.62 1352.25,278.08 1352.25,278.08 C1352.25,278.08 1355.62,275.16 1355.62,275.16" fill="none" stroke="rgb(0, 0, 0)" stroke-width="5.00" stroke-opacity="1.00" stroke-linejoin="round"/>
<path d="M1367.53,264.64 C1367.53,264.64 1358.78,271.63 1358.78,271.63 C1358.72,269.82 1358.54,265.76 1358.84,264.98 C1359.55,263.18 1362.66,262.15 1364.34,262.90 C1365.52,263.50 1367.45,268.76 1367.40,271.68 C1367.31,274.95 1365.87,281.03 1364.25,285.66 C1363.15,288.64 1360.72,291.15 1356.89,294.05 C1356.79,290.71 1358.85,284.60 1361.52,280.08 C1362.16,279.03 1364.86,274.96 1365.63,274.14 C1367.41,272.26 1369.91,270.44 1371.40,269.76" fill="none" stroke="rgb(0, 0, 0)" stroke-width="5.00" stroke-opacity="1.00" stroke-linejoin="round"/>
<path d="M1373.89,261.04 C1373.02,262.40 1372.70,263.39 1372.68,265.18 C1372.62,274.02 1374.21,276.35 1375.31,277.35 C1376.67,277.66 1378.62,277.07 1379.55,275.73 C1380.44,274.42 1382.73,259.83 1382.92,258.56 C1382.92,258.56 1386.55,272.06 1386.55,272.06 C1386.55,272.06 1388.02,268.10 1388.02,268.10" fill="none" stroke="rgb(0, 0, 0)" stroke-width="5.00" stroke-opacity="1.00" stroke-linejoin="round"/>
<path d="M1395.78,250.51 C1395.78,250.51 1395.22,249.40 1395.22,249.40 C1393.64,248.90 1391.45,249.50 1390.72,251.07 C1390.45,251.68 1391.16,262.89 1392.47,266.28 C1392.66,266.77 1393.00,267.45 1393.48,268.31 C1394.76,264.63 1396.00,260.75 1396.83,257.17 C1398.22,251.25 1398.49,250.70 1399.31,249.92 C1399.31,249.92 1404.29,258.14 1404.29,258.14 C1404.92,257.37 1405.33,256.78 1405.51,256.37 C1405.69,255.97 1405.91,255.17 1406.16,253.97" fill="none" stroke="rgb(0, 0, 0)" stroke-width="5.00" stroke-opacity="1.00" stroke-linejoin="round"/>
<path d="M1408.65,235.97 C1408.65,235.97 1409.07,235.97 1409.07,235.97 C1409.12,239.07 1409.19,247.14 1408.79,249.73 C1408.43,251.94 1407.72,254.05 1406.71,256.04 C1405.96,257.48 1405.24,258.14 1403.75,258.98 C1402.90,258.26 1402.53,256.27 1402.95,253.71 C1403.54,250.45 1405.61,248.69 1408.13,247.33 C1410.69,248.89 1412.03,250.24 1412.70,252.33 C1413.89,256.09 1414.11,263.23 1413.21,266.95 C1412.78,268.63 1411.69,271.68 1410.83,273.63 C1409.96,275.57 1408.61,276.75 1406.03,278.13 C1404.65,276.03 1404.30,274.76 1404.92,272.98 C1406.32,268.77 1408.15,264.20 1409.49,261.31" fill="none" stroke="rgb(0, 0, 0)" stroke-width="5.00" stroke-opacity="1.00" stroke-linejoin="round"/>
<path d="M1417.38,255.50 C1417.38,255.50 1417.38,256.06 1417.38,256.06 C1419.55,256.27 1421.41,256.24 1422.95,255.81 C1424.83,255.26 1427.14,253.77 1428.58,252.15 C1430.83,249.54 1433.35,243.78 1433.66,241.36 C1433.79,240.20 1433.49,238.98 1432.76,237.07 C1431.49,236.53 1430.17,236.81 1427.99,238.18 C1426.27,239.30 1425.04,243.05 1424.27,248.91 C1424.10,250.25 1423.59,255.44 1423.62,256.57 C1423.71,259.20 1424.45,261.63 1425.50,262.53 C1426.36,263.23 1427.95,264.11 1429.16,264.68 C1431.26,263.33 1434.24,259.62 1437.21,255.03 C1447.62,238.17 1449.82,234.93 1451.72,232.37" fill="none" stroke="rgb(0, 0, 0)" stroke-width="5.00" stroke-opacity="1.00" stroke-linejoin="round"/>
<path d="M1431.51,443.70 C1431.51,443.70 1431.23,442.73 1431.23,442.73 C1431.23,442.73 1435.99,486.07 1435.99,486.07 C1435.99,486.07 1433.17,480.81 1433.17,480.81" fill="none" stroke="rgb(0, 0, 0)" stroke-width="5.00" stroke-opacity="1.00" stroke-linejoin="round"/>
<path d="M1432.19,443.01 C1434.18,444.28 1436.44,448.00 1438.72,453.50 C1443.29,465.25 1445.34,469.67 1447.17,473.24 C1448.05,472.32 1449.19,466.33 1449.88,462.83 C1452.04,451.74 1454.11,446.63 1454.79,445.62 C1454.79,445.62 1463.70,477.83 1463.70,477.83 C1463.70,477.83 1464.19,473.05 1464.19,473.05" fill="none" stroke="rgb(0, 0, 0)" stroke-width="5.00" stroke-opacity="1.00" stroke-linejoin="round"/>
<path d="M1471.39,432.89 C1471.39,432.89 1471.81,431.65 1471.81,431.65 C1472.72,438.35 1474.34,451.73 1475.04,458.42 C1475.37,461.46 1476.84,468.89 1478.48,470.44 C1479.67,471.49 1482.63,471.00 1484.59,469.70 C1487.08,467.96 1495.80,458.59 1497.74,456.18 C1498.72,454.94 1499.54,454.60 1501.00,454.57 C1501.31,454.96 1501.54,455.23 1501.69,455.39 C1501.84,455.54 1502.12,455.80 1502.54,456.16" fill="none" stroke="rgb(0, 0, 0)" stroke-width="5.00" stroke-opacity="1.00" stroke-linejoin="round"/>
</g>
</svg>
