<?xml version="1.0" encoding="UTF-8" standalone="no"?>
<!DOCTYPE svg PUBLIC "-//W3C//DTD SVG 1.1//EN" "http://www.w3.org/Graphics/SVG/1.1/DTD/svg11.dtd">
<svg width="1600.00" height="1200.00" viewBox="0.00 0.00 1600.00 1200.00" xmlns="http://www.w3.org/2000/svg" xmlns:xlink="http://www.w3.org/1999/xlink">
<g stroke-linecap="round" id="Layer_2">
<path d="M301.57,54.47 C301.57,54.47 303.09,53.42 303.09,53.42 C302.18,53.31 301.67,53.31 301.53,53.42 C301.15,53.71 301.32,55.27 300.23,56.79 C296.39,62.28 289.03,74.57 286.55,80.34 C283.55,87.39 279.82,100.91 278.68,108.91 C277.78,115.49 278.05,129.06 279.15,136.64 C280.37,144.87 284.69,159.34 287.29,165.51 C290.32,172.64 297.28,182.71 298.88,184.05 C298.88,184.05 297.78,178.49 297.78,178.49" fill="none" stroke="rgb(0, 0, 0)" stroke-width="5.00" stroke-opacity="1.00" stroke-linejoin="round"/>
<path d="M324.59,83.39 C324.59,83.39 324.74,83.24 324.74,83.24 C323.44,100.54 323.53,154.38 323.53,167.57 C323.53,167.57 323.53,160.17 323.53,160.17" fill="none" stroke="rgb(0, 0, 0)" stroke-width="5.00" stroke-opacity="1.00" stroke-linejoin="round"/>
<path d="M346.24,107.17 C346.24,107.17 343.59,103.08 343.59,103.08 C344.07,102.54 358.67,102.33 361.49,103.02 C362.51,103.29 365.47,105.04 366.26,105.75 C367.50,106.91 368.76,108.97 369.26,110.57 C370.19,113.84 370.27,119.19 369.64,123.58 C369.06,127.39 367.77,133.48 367.09,135.57 C365.72,139.68 354.74,156.99 351.85,160.30 C349.13,163.38 346.07,164.99 345.29,165.43 C345.29,165.43 379.57,165.16 379.57,165.16 C378.85,165.30 378.31,165.39 377.95,165.44 C377.59,165.48 376.91,165.54 375.92,165.62" fill="none" stroke="rgb(0, 0, 0)" stroke-width="5.00" stroke-opacity="1.00" stroke-linejoin="round"/>
<path d="M400.15,105.35 C400.15,105.35 399.39,105.20 399.39,105.20 C399.99,102.32 401.22,100.74 403.53,100.30 C405.81,99.89 411.69,100.61 413.63,101.99 C415.53,103.42 418.90,109.32 419.30,111.98 C419.69,114.94 417.77,121.33 415.56,125.33 C414.00,128.07 409.68,131.52 405.34,134.11 C402.19,135.97 398.88,137.06 397.81,137.30 C399.51,136.62 404.38,136.62 408.30,137.52 C411.83,138.38 417.43,142.18 418.75,144.10 C419.78,145.70 420.03,148.26 419.29,150.08 C418.35,152.24 412.96,158.01 410.19,159.37 C407.41,160.68 404.62,161.32 402.12,161.72 C402.12,161.72 403.74,159.26 403.74,159.26" fill="none" stroke="rgb(0, 0, 0)" stroke-width="5.00" stroke-opacity="1.00" stroke-linejoin="round"/>
<path d="M447.85,158.50 C447.56,158.67 447.54,159.57 447.85,162.11 C447.96,163.07 448.08,164.04 448.19,165.00 C448.19,165.00 450.06,164.49 450.06,164.49 C450.06,164.49 447.55,159.11 447.55,159.11" fill="none" stroke="rgb(0, 0, 0)" stroke-width="5.00" stroke-opacity="1.00" stroke-linejoin="round"/>
<path d="M470.56,93.08 C470.56,93.08 469.43,91.87 469.43,91.87 C470.31,90.84 471.22,90.45 472.80,90.70 C475.72,91.19 481.88,94.08 484.45,96.27 C485.85,97.51 487.33,99.54 487.70,100.78 C488.27,102.96 485.77,111.51 484.64,113.27 C482.31,116.80 468.79,127.33 466.03,128.60 C469.03,129.06 481.58,134.82 482.86,135.68 C484.64,136.93 486.01,138.63 486.23,140.01 C486.40,141.29 486.39,144.13 486.23,145.48 C485.91,147.70 483.29,151.33 479.32,155.72 C477.80,157.37 476.07,159.06 475.10,159.87 C474.78,160.13 472.94,161.39 472.41,161.70 C472.27,161.78 472.21,161.77 472.23,161.68" fill="none" stroke="rgb(0, 0, 0)" stroke-width="5.00" stroke-opacity="1.00" stroke-linejoin="round"/>
<path d="M530.23,107.02 C530.23,107.02 529.62,106.11 529.62,106.11 C522.64,111.83 514.96,119.63 514.84,119.74 C513.41,121.12 512.94,122.91 513.88,123.93 C513.97,124.03 536.19,132.20 543.53,134.89 C543.53,134.89 540.98,135.33 540.98,135.33" fill="none" stroke="rgb(0, 0, 0)" stroke-width="5.00" stroke-opacity="1.00" stroke-linejoin="round"/>
<path d="M530.68,108.38 C529.68,112.04 528.88,117.40 528.40,120.59 C526.67,133.11 525.77,152.01 525.72,153.06 C525.72,153.06 532.27,139.65 532.27,139.65" fill="none" stroke="rgb(0, 0, 0)" stroke-width="5.00" stroke-opacity="1.00" stroke-linejoin="round"/>
<path d="M561.87,76.58 C561.87,76.58 561.12,75.07 561.12,75.07 C561.12,75.07 560.78,74.13 560.78,74.13 C563.08,75.88 564.42,77.69 566.97,82.66 C571.33,91.38 576.14,105.25 577.31,112.93 C578.41,120.40 578.11,136.59 577.05,142.19 C576.28,146.17 573.87,152.18 572.63,154.54 C571.43,156.82 568.01,162.04 566.07,164.10 C565.02,165.21 563.81,165.75 561.77,166.23 C561.77,166.23 561.57,161.84 561.57,161.84" fill="none" stroke="rgb(0, 0, 0)" stroke-width="5.00" stroke-opacity="1.00" stroke-linejoin="round"/>
<path d="M633.96,134.43 C633.09,133.67 631.27,131.94 630.55,131.85 C629.08,131.69 626.29,132.59 624.92,133.49 C623.25,134.70 621.78,136.14 620.71,137.63 C619.82,138.94 619.72,141.77 620.46,143.04 C621.07,144.01 629.77,149.30 632.79,151.79 C633.74,152.58 637.16,155.69 637.56,156.18 C638.86,157.87 639.76,161.19 639.39,163.25 C639.11,164.61 636.72,168.08 635.49,169.22 C634.61,169.99 631.57,171.41 630.12,171.88 C627.20,172.75 622.78,171.41 621.11,170.63 C620.88,168.28 620.94,166.91 621.65,165.96 C623.31,163.75 637.78,149.66 640.52,145.38 C641.31,144.11 642.52,141.57 642.92,140.30 C643.62,137.87 642.04,133.76 641.18,132.15 C641.18,132.15 638.20,131.70 638.20,131.70" fill="none" stroke="rgb(0, 0, 0)" stroke-width="5.00" stroke-opacity="1.00" stroke-linejoin="round"/>
<path d="M685.14,125.94 C685.14,125.94 685.14,125.64 685.14,125.64 C685.14,125.64 717.46,125.88 717.46,125.88 C716.32,128.18 715.29,129.37 711.63,131.09" fill="none" stroke="rgb(0, 0, 0)" stroke-width="5.00" stroke-opacity="1.00" stroke-linejoin="round"/>
<path d="M683.01,147.45 C690.02,150.15 699.18,152.19 711.20,153.98 C712.83,154.22 715.64,154.63 716.81,154.80 C716.81,154.80 708.91,152.30 708.91,152.30" fill="none" stroke="rgb(0, 0, 0)" stroke-width="5.00" stroke-opacity="1.00" stroke-linejoin="round"/>
<path d="M817.79,78.24 C817.79,78.24 817.79,77.49 817.79,77.49 C814.36,76.84 811.41,76.84 807.86,77.79 C805.51,78.46 801.54,81.13 797.05,84.64 C793.31,87.67 789.68,91.52 787.76,94.80 C786.90,96.34 786.12,98.66 786.14,99.87 C786.16,100.36 787.46,102.68 788.00,103.65 C789.48,105.95 805.03,115.39 809.22,118.56 C811.16,120.04 817.14,125.30 818.66,127.33 C819.85,128.97 821.34,134.36 821.09,137.44 C820.81,140.52 818.99,145.12 817.41,147.42 C815.70,149.83 809.06,155.60 807.23,156.64 C806.01,157.29 803.13,158.08 801.07,158.32 C798.62,158.57 795.78,158.21 793.97,157.41 C792.55,156.74 790.29,154.97 789.83,154.04 C789.27,152.79 789.16,150.14 789.52,147.97 C790.33,143.61 793.02,137.79 795.08,134.79 C798.21,130.31 810.18,117.14 815.81,111.01 C818.75,107.71 821.48,103.58 821.78,101.72 C821.88,100.92 821.75,98.00 821.43,97.20 C820.65,95.40 819.30,93.91 817.92,93.34 C817.24,93.05 816.55,92.76 815.86,92.47 C814.77,92.07 813.68,91.67 812.60,91.27" fill="none" stroke="rgb(0, 0, 0)" stroke-width="5.00" stroke-opacity="1.00" stroke-linejoin="round"/>
<path d="M846.56,87.03 C846.56,87.03 845.11,84.94 845.11,84.94 C847.83,83.75 851.58,82.82 855.72,82.79 C858.10,82.79 864.64,83.42 867.63,84.58 C869.21,85.21 871.04,86.51 872.11,87.68 C873.51,89.32 873.74,94.57 872.77,97.11 C871.65,99.86 868.37,104.41 865.65,107.16 C863.01,109.75 857.98,112.89 854.27,114.08 C849.17,115.57 847.67,115.72 845.05,115.70 C849.34,115.35 854.59,115.69 857.34,116.72 C860.10,117.81 867.77,123.24 869.59,125.09 C870.90,126.46 872.09,128.57 872.51,130.27 C872.94,132.26 873.24,135.87 872.88,137.19 C872.49,138.51 870.54,141.30 868.74,143.42 C866.47,145.98 861.31,147.92 856.26,148.90 C850.39,149.92 849.12,149.83 846.51,149.26 C846.98,147.95 847.83,145.92 848.40,145.03 C848.97,144.14 850.52,142.44 851.55,141.40" fill="none" stroke="rgb(0, 0, 0)" stroke-width="5.00" stroke-opacity="1.00" stroke-linejoin="round"/>
<path d="M901.22,139.73 C901.22,139.73 902.59,140.03 902.59,140.03 C902.59,140.03 906.23,148.43 906.23,148.43 C906.23,148.43 902.59,140.03 902.59,140.03" fill="none" stroke="rgb(0, 0, 0)" stroke-width="5.00" stroke-opacity="1.00" stroke-linejoin="round"/>
<path d="M944.68,88.39 C944.68,88.39 944.99,85.52 944.99,85.52 C930.04,107.57 927.08,113.16 925.54,116.91 C927.76,118.35 932.13,119.37 938.36,120.12 C947.60,121.06 963.36,122.64 965.37,123.05 C964.63,123.18 964.08,123.26 963.71,123.29 C963.35,123.32 962.66,123.35 961.64,123.37" fill="none" stroke="rgb(0, 0, 0)" stroke-width="5.00" stroke-opacity="1.00" stroke-linejoin="round"/>
<path d="M950.29,96.72 C950.29,96.72 950.29,96.19 950.29,96.19 C950.16,97.93 950.12,98.96 950.08,101.09 C949.99,108.95 949.96,125.10 950.80,131.00 C951.32,134.58 952.77,141.63 953.50,145.03 C953.50,145.03 955.74,137.46 955.74,137.46" fill="none" stroke="rgb(0, 0, 0)" stroke-width="5.00" stroke-opacity="1.00" stroke-linejoin="round"/>
<path d="M995.56,81.28 C995.56,81.28 989.35,80.97 989.35,80.97 C992.20,82.22 998.88,85.19 1001.19,86.75 C1002.34,87.55 1004.70,89.90 1005.67,91.18 C1006.87,92.82 1007.56,94.96 1007.46,96.66 C1007.36,97.68 1006.65,100.54 1006.17,101.30 C1004.84,103.32 998.38,109.22 996.84,110.51 C990.45,115.81 982.79,118.42 981.67,118.80 C982.95,118.83 989.14,119.20 992.35,120.53 C996.64,122.37 1001.07,125.37 1002.80,127.97 C1004.67,130.92 1006.13,136.67 1005.44,139.77 C1005.10,141.21 1003.32,144.98 1002.35,146.52 C1000.65,149.08 995.71,152.16 991.00,154.24 C987.56,155.73 983.44,156.63 982.05,156.79 C981.36,156.85 980.66,156.92 979.96,156.99" fill="none" stroke="rgb(0, 0, 0)" stroke-width="5.00" stroke-opacity="1.00" stroke-linejoin="round"/>
<path d="M1026.76,89.91 C1026.76,89.91 1026.45,89.45 1026.45,89.45 C1026.45,89.45 1025.94,100.21 1025.94,100.21 C1025.42,99.56 1024.78,97.95 1024.52,97.33 C1023.86,95.66 1023.81,93.89 1024.72,93.23 C1025.75,92.53 1034.74,91.99 1040.14,92.18 C1044.12,92.36 1047.86,93.53 1050.03,95.66 C1051.21,96.89 1052.32,98.80 1052.53,100.24 C1052.98,103.81 1050.84,118.53 1048.62,130.23 C1046.98,138.31 1044.80,149.05 1044.02,149.76 C1044.02,149.76 1043.56,149.72 1043.56,149.72" fill="none" stroke="rgb(0, 0, 0)" stroke-width="5.00" stroke-opacity="1.00" stroke-linejoin="round"/>
<path d="M1076.88,92.78 C1076.88,92.78 1077.33,92.18 1077.33,92.18 C1077.33,92.18 1077.33,91.57 1077.33,91.57 C1077.33,91.57 1074.49,123.81 1074.49,123.81 C1077.81,123.22 1082.28,123.33 1085.73,124.29 C1087.27,124.75 1090.31,126.27 1091.90,127.44 C1093.63,128.74 1095.40,131.23 1095.79,132.87 C1096.07,134.27 1095.80,137.22 1095.26,138.71 C1094.14,141.63 1088.44,147.60 1085.60,149.07 C1084.46,149.62 1082.44,150.21 1081.46,150.19 C1079.71,150.09 1078.57,149.18 1077.76,147.16 C1077.05,145.40 1075.59,141.67 1075.03,140.04 C1074.27,137.83 1072.64,132.28 1072.34,131.25" fill="none" stroke="rgb(0, 0, 0)" stroke-width="5.00" stroke-opacity="1.00" stroke-linejoin="round"/>
<path d="M1079.60,102.78 C1079.60,102.78 1075.78,102.17 1075.78,102.17 C1075.78,102.17 1121.40,102.06 1121.40,102.06 C1120.89,102.27 1120.58,102.41 1120.46,102.46 C1120.34,102.52 1120.25,102.57 1120.19,102.63" fill="none" stroke="rgb(0, 0, 0)" stroke-width="5.00" stroke-opacity="1.00" stroke-linejoin="round"/>
<path d="M255.08,256.78 C255.08,256.78 253.83,256.17 253.83,256.17 C252.77,258.50 251.95,259.69 250.18,261.20 C247.02,263.96 240.54,269.67 238.04,272.40 C235.77,274.91 232.48,279.78 231.23,282.51 C228.62,288.33 225.29,301.16 224.46,307.62 C223.42,315.96 224.21,329.09 225.57,334.56 C226.08,336.58 228.33,344.07 229.47,347.16 C234.73,361.23 245.46,372.26 248.74,375.10 C249.18,373.38 249.46,372.15 249.59,371.42 C249.72,370.69 249.89,369.42 250.08,367.62" fill="none" stroke="rgb(0, 0, 0)" stroke-width="5.00" stroke-opacity="1.00" stroke-linejoin="round"/>
<path d="M277.65,284.95 C277.65,284.95 276.74,284.03 276.74,284.03 C275.89,303.05 275.46,328.73 276.65,345.63 C276.78,347.60 276.89,348.13 277.15,348.32 C277.15,348.32 279.62,340.37 279.62,340.37" fill="none" stroke="rgb(0, 0, 0)" stroke-width="5.00" stroke-opacity="1.00" stroke-linejoin="round"/>
<path d="M304.90,298.12 C310.43,298.29 316.81,298.71 319.59,300.57 C321.77,302.09 324.83,308.14 325.25,310.47 C325.66,312.97 325.03,319.52 323.88,323.05 C322.85,326.15 319.82,333.42 318.98,334.68 C316.91,337.71 307.53,346.18 306.58,347.04 C306.58,347.04 333.37,350.83 333.37,350.83 C333.37,350.83 333.82,348.24 333.82,348.24" fill="none" stroke="rgb(0, 0, 0)" stroke-width="5.00" stroke-opacity="1.00" stroke-linejoin="round"/>
<path d="M365.32,284.03 C365.32,284.03 360.78,285.25 360.78,285.25 C363.35,285.58 369.61,286.42 372.65,287.27 C375.88,288.21 381.79,291.99 383.52,294.16 C384.53,295.50 385.18,297.55 385.08,299.14 C384.88,301.39 382.96,306.53 380.66,309.04 C375.68,314.39 366.42,320.78 364.46,321.59 C367.84,321.84 374.12,323.86 376.91,326.23 C378.06,327.23 381.04,330.16 381.64,330.96 C382.65,332.35 383.30,334.42 383.11,335.84 C382.90,337.14 381.98,340.31 381.24,342.40 C380.50,344.37 379.01,346.64 377.58,347.92 C376.30,349.03 370.12,352.46 368.96,353.09 C367.19,352.19 366.07,351.50 365.61,351.03 C365.14,350.55 364.70,349.62 364.26,348.24" fill="none" stroke="rgb(0, 0, 0)" stroke-width="5.00" stroke-opacity="1.00" stroke-linejoin="round"/>
<path d="M421.35,270.41 C421.35,270.41 420.14,269.80 420.14,269.80 C423.58,272.33 427.53,275.96 429.54,278.69 C431.41,281.28 434.98,288.06 436.42,291.34 C437.89,294.72 439.75,301.09 440.30,304.34 C441.30,310.46 440.31,324.58 438.60,333.53 C436.95,342.01 431.85,356.36 428.23,362.56 C423.54,370.53 420.77,372.66 418.40,374.06 C418.72,370.13 423.74,362.40 424.38,361.41" fill="none" stroke="rgb(0, 0, 0)" stroke-width="5.00" stroke-opacity="1.00" stroke-linejoin="round"/>
<path d="M487.83,331.44 C487.83,331.44 488.73,331.28 488.73,331.28 C485.38,331.88 478.99,333.39 476.03,335.11 C474.99,335.73 472.82,337.81 471.68,339.08 C470.66,340.30 469.68,342.37 469.82,343.38 C470.09,344.98 473.89,348.59 477.65,351.80 C482.00,355.48 485.81,358.88 486.65,360.27 C487.94,362.51 488.30,365.62 487.45,367.53 C486.61,369.26 481.27,373.10 478.39,374.14 C477.48,374.45 474.03,375.42 473.39,375.20 C472.95,375.04 471.94,374.43 470.37,373.38 C470.61,370.78 472.60,366.13 475.23,362.60 C477.88,359.08 489.14,346.18 489.87,344.90 C490.97,342.88 491.67,340.04 491.14,338.83 C490.96,338.44 490.41,337.49 489.49,335.97" fill="none" stroke="rgb(0, 0, 0)" stroke-width="5.00" stroke-opacity="1.00" stroke-linejoin="round"/>
<path d="M992.38,275.86 C992.38,275.86 992.99,275.33 992.99,275.33 C988.39,278.45 984.15,281.49 981.55,284.05 C979.26,286.35 974.65,292.02 973.24,294.35 C970.57,298.82 965.86,312.30 964.57,319.36 C963.40,325.95 964.18,338.76 965.71,344.84 C967.45,351.65 973.72,365.86 978.01,372.24 C980.74,376.26 988.92,386.38 991.49,388.46 C992.45,387.33 993.10,386.53 993.46,386.05 C993.81,385.56 994.36,384.72 995.11,383.53" fill="none" stroke="rgb(0, 0, 0)" stroke-width="5.00" stroke-opacity="1.00" stroke-linejoin="round"/>
<path d="M1043.11,308.42 C1043.11,308.42 1043.11,308.87 1043.11,308.87 C1042.82,308.72 1041.76,308.87 1040.51,309.36 C1037.84,310.43 1034.70,313.83 1032.72,316.93 C1031.01,319.64 1026.83,327.34 1025.60,330.68 C1024.39,333.99 1022.85,342.00 1022.60,344.25 C1022.15,348.54 1023.13,353.97 1024.30,356.51 C1025.71,359.47 1029.43,363.41 1031.82,364.31 C1032.89,364.67 1035.57,364.85 1036.55,364.54 C1037.44,364.25 1040.69,362.08 1041.49,361.51 C1043.77,359.84 1045.86,355.55 1047.44,350.82 C1048.67,346.92 1050.08,340.13 1050.09,336.85 C1050.08,334.39 1048.76,327.04 1047.95,324.43 C1045.85,317.95 1042.01,316.33 1041.15,316.31 C1040.90,316.31 1040.59,316.30 1040.23,316.29" fill="none" stroke="rgb(0, 0, 0)" stroke-width="5.00" stroke-opacity="1.00" stroke-linejoin="round"/>
<path d="M1071.42,363.08 C1071.36,362.95 1071.41,363.39 1071.42,363.54 C1071.79,366.57 1072.44,368.08 1073.41,368.26 C1073.41,368.26 1074.59,366.44 1074.59,366.44 C1074.59,366.44 1071.42,363.54 1071.42,363.54" fill="none" stroke="rgb(0, 0, 0)" stroke-width="5.00" stroke-opacity="1.00" stroke-linejoin="round"/>
<path d="M1099.75,304.03 C1099.75,304.03 1098.99,304.03 1098.99,304.03 C1103.33,305.02 1108.26,307.27 1111.09,310.12 C1112.24,311.35 1113.83,313.99 1114.08,315.26 C1114.55,317.93 1112.36,325.02 1110.32,327.98 C1107.85,331.45 1096.18,337.56 1096.46,337.79 C1099.22,338.14 1105.53,338.97 1107.55,339.81 C1109.31,340.57 1113.77,344.82 1114.20,346.91 C1114.42,348.18 1113.90,350.49 1113.05,352.16 C1109.40,358.92 1102.27,362.89 1098.82,364.65 C1098.82,364.65 1106.56,357.02 1106.56,357.02" fill="none" stroke="rgb(0, 0, 0)" stroke-width="5.00" stroke-opacity="1.00" stroke-linejoin="round"/>
<path d="M1150.32,307.96 C1150.32,307.96 1150.77,306.75 1150.77,306.75 C1142.29,312.81 1137.57,317.58 1135.71,320.55 C1134.98,321.83 1134.37,324.94 1134.83,326.36 C1135.35,327.80 1137.61,329.78 1139.32,330.64 C1145.72,333.65 1159.68,338.61 1164.81,340.40 C1164.81,340.40 1162.74,341.28 1162.74,341.28" fill="none" stroke="rgb(0, 0, 0)" stroke-width="5.00" stroke-opacity="1.00" stroke-linejoin="round"/>
<path d="M1154.56,317.65 C1154.56,317.65 1150.41,367.85 1150.41,367.85 C1152.17,364.92 1156.26,358.11 1158.58,354.24 C1159.06,353.44 1159.54,352.63 1160.02,351.83" fill="none" stroke="rgb(0, 0, 0)" stroke-width="5.00" stroke-opacity="1.00" stroke-linejoin="round"/>
<path d="M1189.84,294.64 C1193.10,296.77 1197.48,300.45 1199.70,303.19 C1200.08,303.67 1207.87,319.58 1210.29,325.68 C1211.95,329.90 1213.85,336.04 1214.13,338.76 C1214.42,341.87 1213.83,350.16 1213.29,353.35 C1212.65,357.02 1210.63,362.64 1208.92,366.11 C1205.03,373.84 1199.69,380.54 1197.68,382.33 C1197.68,382.33 1196.23,381.94 1196.23,381.94 C1195.83,380.17 1197.77,376.14 1201.66,370.80 C1202.99,369.02 1205.18,366.07 1206.05,364.90" fill="none" stroke="rgb(0, 0, 0)" stroke-width="5.00" stroke-opacity="1.00" stroke-linejoin="round"/>
<path d="M1265.26,334.16 C1262.63,335.60 1255.39,339.65 1253.96,340.76 C1251.79,342.49 1249.65,345.07 1249.32,346.55 C1249.14,347.45 1249.30,350.78 1249.54,351.69 C1250.14,353.72 1251.08,355.21 1252.83,356.89 C1255.41,359.32 1262.47,366.68 1263.66,368.76 C1264.86,370.97 1265.10,373.16 1264.35,374.88 C1263.09,377.54 1258.18,382.35 1255.08,383.71 C1253.50,384.36 1251.63,384.36 1250.66,383.69 C1249.80,383.03 1248.71,380.95 1248.37,379.35 C1247.77,376.20 1249.75,369.23 1251.07,366.86 C1252.59,364.24 1268.20,347.62 1269.15,346.01 C1269.62,345.16 1269.72,342.39 1269.38,341.34 C1268.78,339.70 1266.52,338.35 1263.64,337.81 C1263.05,337.71 1261.87,337.55 1260.11,337.34" fill="none" stroke="rgb(0, 0, 0)" stroke-width="5.00" stroke-opacity="1.00" stroke-linejoin="round"/>
<path d="M204.35,410.48 C204.35,410.48 203.75,410.03 203.75,410.03 C200.18,413.21 197.40,415.93 195.78,418.23 C193.59,421.39 184.64,439.55 182.53,445.25 C179.72,452.88 176.03,467.95 174.19,478.63 C172.22,490.27 172.25,491.60 172.67,492.67 C172.76,492.89 172.93,493.10 173.16,493.31" fill="none" stroke="rgb(0, 0, 0)" stroke-width="5.00" stroke-opacity="1.00" stroke-linejoin="round"/>
<path d="M161.65,480.14 C161.65,480.14 161.50,478.62 161.50,478.62 C161.50,478.62 177.36,499.74 177.36,499.74 C182.72,493.77 193.78,481.52 194.96,480.75 C195.24,480.57 195.60,480.46 196.03,480.44" fill="none" stroke="rgb(0, 0, 0)" stroke-width="5.00" stroke-opacity="1.00" stroke-linejoin="round"/>
<path d="M133.03,573.72 C133.03,573.72 133.03,573.26 133.03,573.26 C133.03,573.26 131.29,622.70 131.29,622.70 C131.29,622.70 132.27,619.45 132.27,619.45" fill="none" stroke="rgb(0, 0, 0)" stroke-width="5.00" stroke-opacity="1.00" stroke-linejoin="round"/>
<path d="M166.04,588.86 C166.04,588.86 165.44,588.25 165.44,588.25 C165.44,588.25 174.48,601.57 174.48,601.57 C174.48,601.57 174.98,601.58 174.98,601.58" fill="none" stroke="rgb(0, 0, 0)" stroke-width="5.00" stroke-opacity="1.00" stroke-linejoin="round"/>
<path d="M176.80,588.86 C174.33,590.90 171.15,595.55 168.81,600.86 C167.13,604.77 165.73,609.75 165.32,611.55 C165.32,611.55 167.25,611.72 167.25,611.72" fill="none" stroke="rgb(0, 0, 0)" stroke-width="5.00" stroke-opacity="1.00" stroke-linejoin="round"/>
<path d="M195.88,587.65 C195.88,587.65 195.13,586.98 195.13,586.98 C194.16,587.73 193.00,588.72 192.01,589.71 C190.54,591.23 190.05,593.36 190.97,594.72 C191.67,595.67 201.95,600.22 203.05,600.79 C206.81,602.76 211.12,606.87 211.89,608.71 C212.39,610.03 212.79,613.56 212.45,614.95 C212.14,616.10 209.83,620.26 208.97,621.17 C207.60,622.56 203.88,624.26 202.36,624.11 C201.13,623.94 199.23,621.38 198.66,619.67 C198.03,617.56 197.71,610.14 198.93,607.44 C199.44,606.36 209.03,591.59 209.20,591.12 C209.91,589.01 209.15,586.21 207.41,584.89 C206.54,584.26 202.61,583.17 201.69,583.18 C200.64,583.24 198.94,584.06 197.35,585.08 C196.91,585.37 196.12,585.87 194.96,586.59" fill="none" stroke="rgb(0, 0, 0)" stroke-width="5.00" stroke-opacity="1.00" stroke-linejoin="round"/>
<path d="M96.84,661.70 C96.84,661.70 114.95,661.55 114.95,661.55 C114.95,661.55 113.95,661.70 113.95,661.70" fill="none" stroke="rgb(0, 0, 0)" stroke-width="5.00" stroke-opacity="1.00" stroke-linejoin="round"/>
<path d="M102.75,652.00 C102.75,652.00 102.75,651.55 102.75,651.55 C102.75,651.55 106.03,675.53 106.03,675.53 C106.03,675.53 107.44,672.60 107.44,672.60" fill="none" stroke="rgb(0, 0, 0)" stroke-width="5.00" stroke-opacity="1.00" stroke-linejoin="round"/>
<path d="M192.39,657.91 C192.53,656.22 193.27,653.37 194.28,652.73 C195.37,652.06 198.08,652.21 200.12,652.75 C201.75,653.27 203.37,654.83 204.27,656.74 C204.49,657.25 204.67,661.55 204.64,661.79 C204.21,664.65 200.65,670.10 197.60,673.77 C196.22,675.40 193.90,677.68 192.36,678.90 C191.77,679.37 190.37,680.45 190.58,680.92 C200.58,680.98 207.25,681.51 211.70,682.27 C213.74,682.64 214.36,682.91 214.46,683.42 C214.48,683.59 214.49,683.72 214.50,683.81" fill="none" stroke="rgb(0, 0, 0)" stroke-width="5.00" stroke-opacity="1.00" stroke-linejoin="round"/>
<path d="M76.55,707.73 C76.55,707.73 75.94,708.19 75.94,708.19 C97.80,707.95 109.93,706.29 131.15,706.21 C148.77,706.29 183.36,706.25 200.32,706.12 C217.71,705.55 235.66,704.14 258.56,701.09 C265.82,700.28 281.93,698.88 287.79,698.76 C299.53,698.54 324.95,701.30 331.53,702.20 C333.38,702.43 335.38,703.03 336.71,703.76 C337.03,703.95 337.33,704.21 337.61,704.55" fill="none" stroke="rgb(0, 0, 0)" stroke-width="5.00" stroke-opacity="1.00" stroke-linejoin="round"/>
<path d="M195.57,730.75 C195.57,730.75 195.57,729.24 195.57,729.24 C195.64,736.32 195.87,749.57 196.59,757.59 C196.64,758.23 196.70,758.87 196.76,759.50 C197.11,758.95 197.46,758.40 197.81,757.84 C198.12,757.34 198.44,756.84 198.75,756.34" fill="none" stroke="rgb(0, 0, 0)" stroke-width="5.00" stroke-opacity="1.00" stroke-linejoin="round"/>
<path d="M214.35,737.56 C214.35,737.56 213.90,736.05 213.90,736.05 C213.90,736.05 212.56,735.95 212.56,735.95 C210.35,741.23 209.65,751.78 210.04,754.85 C210.47,757.78 213.20,759.89 214.46,760.44 C215.86,760.06 217.98,759.04 219.01,758.07 C220.25,756.87 222.21,750.57 222.15,747.80 C222.04,744.73 219.83,738.40 217.68,737.03 C216.71,736.43 213.61,735.81 212.37,735.79 C212.03,735.79 211.37,735.83 210.41,735.90" fill="none" stroke="rgb(0, 0, 0)" stroke-width="5.00" stroke-opacity="1.00" stroke-linejoin="round"/>
<path d="M247.81,740.74 C247.81,740.74 246.07,738.98 246.07,738.98 C246.58,740.73 248.56,743.57 252.26,747.98 C259.56,756.50 260.72,759.79 260.81,760.77 C260.81,760.77 262.05,760.73 262.05,760.73" fill="none" stroke="rgb(0, 0, 0)" stroke-width="5.00" stroke-opacity="1.00" stroke-linejoin="round"/>
<path d="M259.78,739.08 C259.78,739.08 259.93,737.87 259.93,737.87 C259.93,737.87 246.80,758.31 246.80,758.31 C246.80,758.31 249.03,758.31 249.03,758.31" fill="none" stroke="rgb(0, 0, 0)" stroke-width="5.00" stroke-opacity="1.00" stroke-linejoin="round"/>
<path d="M294.46,732.26 C294.46,732.26 294.46,731.96 294.46,731.96 C292.78,733.40 287.17,743.56 287.04,743.96 C286.58,745.51 287.35,746.78 289.28,747.98 C291.22,749.15 298.74,754.46 300.22,756.61 C300.79,757.51 301.99,761.33 301.87,762.50 C301.69,764.00 299.75,765.28 297.93,765.63 C297.41,765.71 296.72,765.84 295.88,766.01 C294.76,763.82 293.92,758.92 295.18,754.56 C295.80,752.50 299.18,745.94 301.11,742.80 C301.92,741.46 302.57,737.22 302.84,735.16 C301.25,734.92 298.76,734.62 297.60,734.58 C296.45,734.54 294.10,734.70 292.64,734.84" fill="none" stroke="rgb(0, 0, 0)" stroke-width="5.00" stroke-opacity="1.00" stroke-linejoin="round"/>
<path d="M98.66,819.18 C98.66,819.18 98.35,819.18 98.35,819.18 C108.87,819.34 118.27,819.78 123.95,821.29 C123.95,821.29 118.19,821.30 118.19,821.30" fill="none" stroke="rgb(0, 0, 0)" stroke-width="5.00" stroke-opacity="1.00" stroke-linejoin="round"/>
<path d="M111.08,812.06 C111.08,812.06 111.08,811.91 111.08,811.91 C110.89,816.28 115.61,830.46 117.18,834.93 C117.18,834.93 117.53,835.08 117.53,835.08" fill="none" stroke="rgb(0, 0, 0)" stroke-width="5.00" stroke-opacity="1.00" stroke-linejoin="round"/>
<path d="M287.34,806.16 C287.34,806.16 285.52,806.16 285.52,806.16 C290.98,806.17 296.66,806.41 299.46,808.08 C299.86,808.33 300.39,808.77 301.04,809.41 C300.87,812.02 300.07,813.67 297.83,815.24 C294.26,817.74 290.15,819.52 288.43,820.19 C292.09,820.57 296.86,821.52 299.04,822.73 C299.63,823.07 302.66,825.34 303.04,825.93 C303.91,827.32 303.99,829.06 303.36,830.77 C302.26,833.41 298.91,835.88 294.82,837.93 C293.90,838.39 291.72,839.31 290.97,839.62" fill="none" stroke="rgb(0, 0, 0)" stroke-width="5.00" stroke-opacity="1.00" stroke-linejoin="round"/>
<path d="M73.22,869.61 C73.22,869.61 71.86,870.06 71.86,870.06 C84.73,870.40 116.42,868.25 132.34,867.07 C148.44,866.04 175.97,865.16 194.75,865.43 C202.17,865.46 219.66,865.37 224.28,865.09 C232.47,864.57 276.63,858.56 286.51,857.56 C295.11,856.86 305.43,856.96 314.37,858.05 C323.15,859.21 350.26,863.36 353.13,863.24 C353.46,863.22 354.20,863.17 355.32,863.09" fill="none" stroke="rgb(0, 0, 0)" stroke-width="5.00" stroke-opacity="1.00" stroke-linejoin="round"/>
<path d="M294.76,901.10 C294.76,901.10 295.36,900.20 295.36,900.20 C293.61,900.01 288.25,903.75 287.30,905.57 C286.78,906.71 289.25,910.65 292.51,915.46 C295.74,920.21 299.10,925.48 299.05,927.28 C298.95,928.90 298.14,932.50 297.54,933.63 C297.09,934.43 294.74,936.74 294.03,937.19 C292.55,938.07 290.99,938.16 290.00,937.35 C288.94,936.39 288.47,934.46 288.91,932.41 C289.64,929.29 292.41,923.24 294.86,918.35 C296.73,914.65 300.44,907.12 300.49,904.90 C300.48,904.04 299.34,901.83 298.66,901.34 C297.59,900.64 295.11,900.14 293.19,900.19 C292.23,900.22 288.62,900.43 287.49,900.50" fill="none" stroke="rgb(0, 0, 0)" stroke-width="5.00" stroke-opacity="1.00" stroke-linejoin="round"/>
<path d="M321.71,900.50 C321.29,900.48 320.30,900.52 317.79,900.65 C316.84,900.70 315.89,900.75 314.94,900.80 C316.18,900.74 325.80,900.29 326.66,901.37 C327.60,902.65 327.45,905.75 326.50,907.66 C323.63,913.07 322.82,913.84 320.47,915.32 C326.02,917.98 329.68,920.26 330.58,922.23 C331.43,924.30 331.62,928.21 330.49,930.76 C329.58,932.74 326.02,938.29 323.38,939.94 C322.90,940.23 322.10,940.61 320.98,941.07 C319.96,941.48 318.94,941.89 317.93,942.29" fill="none" stroke="rgb(0, 0, 0)" stroke-width="5.00" stroke-opacity="1.00" stroke-linejoin="round"/>
<path d="M330.80,1035.57 C330.53,1035.40 329.45,1035.48 328.04,1035.92 C324.84,1036.96 317.85,1041.35 316.15,1042.86 C313.17,1045.57 308.69,1053.46 308.70,1054.55 C308.76,1056.22 310.17,1058.39 311.65,1059.40 C314.99,1061.57 329.03,1072.94 335.01,1078.12 C337.48,1080.33 342.80,1085.14 344.21,1087.33 C344.85,1088.36 345.57,1091.47 345.70,1093.17 C345.83,1095.40 345.34,1098.23 344.42,1100.44 C342.88,1104.02 338.36,1109.47 335.31,1111.57 C333.55,1112.74 331.06,1113.80 329.46,1114.06 C328.02,1114.25 325.92,1113.99 324.87,1113.50 C323.87,1113.00 322.25,1111.52 321.49,1110.42 C320.63,1109.08 319.85,1106.52 319.75,1104.55 C319.64,1101.10 321.36,1095.63 322.64,1092.75 C325.11,1087.29 330.74,1079.49 338.26,1070.15 C341.46,1066.00 344.77,1061.02 345.47,1058.50 C346.14,1055.90 345.72,1051.12 344.06,1048.63 C343.13,1047.30 341.20,1045.25 340.00,1044.38 C338.49,1043.35 335.99,1042.59 333.89,1042.51 C331.44,1042.45 326.73,1043.02 325.80,1043.14" fill="none" stroke="rgb(0, 0, 0)" stroke-width="5.00" stroke-opacity="1.00" stroke-linejoin="round"/>
<path d="M376.49,1049.96 C376.49,1049.96 376.98,1049.96 376.98,1049.96 C376.98,1049.96 371.03,1049.76 371.03,1049.76 C374.97,1048.72 381.67,1048.17 383.97,1048.09 C387.76,1047.98 396.35,1049.00 398.03,1049.56 C399.93,1050.22 401.56,1052.28 401.91,1054.33 C402.09,1055.59 400.70,1060.09 398.35,1062.94 C397.00,1064.54 391.49,1070.11 388.78,1072.14 C386.15,1074.09 380.04,1077.41 377.65,1078.69 C377.93,1078.83 385.94,1079.77 388.11,1080.09 C392.06,1080.68 396.50,1082.17 399.44,1083.88 C401.88,1085.34 407.66,1089.54 409.36,1091.83 C410.73,1093.73 412.07,1098.46 411.63,1100.73 C411.11,1103.13 408.17,1108.87 406.12,1110.88 C403.43,1113.45 398.19,1116.00 393.44,1118.16 C393.44,1118.16 390.15,1114.61 390.15,1114.61" fill="none" stroke="rgb(0, 0, 0)" stroke-width="5.00" stroke-opacity="1.00" stroke-linejoin="round"/>
<path d="M173.31,981.21 C173.29,984.62 173.29,993.45 173.84,996.85 C174.45,1000.52 177.15,1007.15 178.98,1010.83 C180.94,1014.70 184.64,1020.68 187.50,1023.44 C195.44,1030.92 212.90,1037.63 213.77,1037.97 C213.77,1037.97 209.96,1037.99 209.96,1037.99" fill="none" stroke="rgb(0, 0, 0)" stroke-width="5.00" stroke-opacity="1.00" stroke-linejoin="round"/>
<path d="M196.33,1045.41 C196.33,1045.41 222.82,1033.67 222.82,1033.67 C222.20,1032.55 220.17,1028.93 219.63,1028.06 C218.51,1026.31 216.36,1024.66 214.82,1024.37 C213.99,1024.23 213.14,1024.45 212.31,1024.44 C211.77,1024.45 210.68,1024.37 209.05,1024.21" fill="none" stroke="rgb(0, 0, 0)" stroke-width="5.00" stroke-opacity="1.00" stroke-linejoin="round"/>
<path d="M481.47,1052.68 C481.47,1052.68 481.62,1051.62 481.62,1051.62 C484.63,1050.97 503.78,1048.89 509.00,1047.67 C512.83,1046.76 519.13,1044.40 521.85,1042.86 C524.78,1041.16 530.01,1036.84 532.61,1033.78 C537.58,1027.85 544.48,1015.66 546.42,1009.97 C547.56,1006.60 550.41,995.36 550.67,994.34 C550.67,994.34 548.70,993.17 548.70,993.17" fill="none" stroke="rgb(0, 0, 0)" stroke-width="5.00" stroke-opacity="1.00" stroke-linejoin="round"/>
<path d="M525.83,1008.62 C525.83,1008.62 525.68,1009.07 525.68,1009.07 C526.21,1002.50 546.07,985.47 547.80,984.78 C549.27,984.23 550.84,984.32 552.03,985.03 C554.56,986.63 557.62,989.34 560.44,993.21 C564.11,998.31 572.17,1011.78 572.19,1012.08 C572.21,1012.65 571.92,1013.87 571.31,1015.72 C571.04,1016.48 570.77,1017.24 570.51,1018.00" fill="none" stroke="rgb(0, 0, 0)" stroke-width="5.00" stroke-opacity="1.00" stroke-linejoin="round"/>
<path d="M540.22,856.28 C540.51,854.53 540.69,854.14 540.67,854.14 C539.17,854.11 536.74,854.17 535.64,854.79 C533.48,856.04 530.57,859.99 529.31,861.83 C530.25,863.87 530.96,864.88 532.61,866.36 C535.56,869.07 542.77,875.76 543.44,876.52 C545.21,878.60 546.23,880.67 546.20,882.37 C546.10,884.51 545.52,887.76 544.87,889.11 C544.18,890.49 541.41,893.43 540.13,894.17 C539.15,894.70 535.34,895.67 534.31,895.59 C532.22,895.36 530.28,893.68 529.41,891.51 C528.74,889.66 530.46,885.00 532.80,881.15 C535.89,876.16 546.49,861.82 549.25,855.40 C550.08,853.41 550.51,850.59 550.14,849.33 C549.55,847.61 546.16,846.52 544.38,846.10 C543.15,845.81 541.91,845.52 540.67,845.22" fill="none" stroke="rgb(0, 0, 0)" stroke-width="5.00" stroke-opacity="1.00" stroke-linejoin="round"/>
<path d="M576.87,846.74 C576.87,846.74 567.48,849.01 567.48,849.01 C570.21,847.66 574.25,846.24 577.55,846.64 C577.98,846.70 578.77,846.83 579.91,847.04 C580.59,848.01 580.83,850.03 580.26,851.76 C579.05,855.32 572.35,862.10 571.24,863.01 C572.99,863.64 575.51,864.66 576.47,865.25 C578.51,866.55 580.92,871.84 581.45,874.77 C581.89,877.53 580.64,883.56 578.92,885.30 C577.39,886.77 570.56,889.14 566.65,890.06 C566.10,890.19 565.22,890.39 564.00,890.65" fill="none" stroke="rgb(0, 0, 0)" stroke-width="5.00" stroke-opacity="1.00" stroke-linejoin="round"/>
<path d="M493.89,838.87 C493.89,838.87 491.44,836.34 491.44,836.34 C494.38,839.33 497.71,843.47 499.79,846.90 C501.44,849.66 503.71,854.98 504.25,857.34 C504.74,859.60 504.95,865.39 504.58,868.45 C504.22,871.36 503.02,877.59 501.22,880.12 C495.99,887.31 489.63,890.47 488.31,890.90 C488.31,890.90 487.68,887.47 487.68,887.47" fill="none" stroke="rgb(0, 0, 0)" stroke-width="5.00" stroke-opacity="1.00" stroke-linejoin="round"/>
<path d="M497.21,830.84 C497.21,830.84 496.61,830.24 496.61,830.24 C498.76,829.06 512.37,826.14 520.88,825.63 C529.29,825.15 544.19,826.23 552.85,827.64 C556.20,828.20 573.74,831.55 577.00,832.33 C577.00,832.33 572.02,832.96 572.02,832.96" fill="none" stroke="rgb(0, 0, 0)" stroke-width="5.00" stroke-opacity="1.00" stroke-linejoin="round"/>
<path d="M463.90,844.77 C463.90,844.77 463.90,843.56 463.90,843.56 C462.83,843.48 459.77,843.21 458.99,843.33 C456.01,843.82 451.51,847.75 447.85,851.84 C446.37,853.52 445.76,854.43 444.87,856.23 C446.22,857.86 451.61,861.06 454.79,862.96 C459.37,865.85 462.57,868.70 462.87,871.19 C462.93,872.01 463.08,875.23 462.79,876.33 C462.02,879.11 458.06,883.92 455.02,885.98 C454.08,886.59 451.30,888.05 450.71,887.95 C450.37,887.88 449.68,887.52 448.63,886.86 C448.83,884.09 449.16,882.49 450.15,880.38 C453.45,873.33 461.02,861.80 462.70,856.87 C463.20,855.40 463.16,854.19 462.68,851.95 C462.68,851.95 455.72,852.19 455.72,852.19" fill="none" stroke="rgb(0, 0, 0)" stroke-width="5.00" stroke-opacity="1.00" stroke-linejoin="round"/>
<path d="M614.98,869.61 C614.98,869.61 614.98,868.73 614.98,868.73 C617.21,869.31 619.11,870.87 619.85,871.26 C620.02,871.34 620.48,871.32 621.23,871.20 C621.46,871.15 621.81,871.13 622.29,871.12" fill="none" stroke="rgb(0, 0, 0)" stroke-width="5.00" stroke-opacity="1.00" stroke-linejoin="round"/>
<path d="M635.47,867.34 C635.47,867.25 635.57,867.25 635.77,867.34 C637.00,867.87 638.64,869.15 640.35,870.88 C640.35,870.88 635.77,867.34 635.77,867.34" fill="none" stroke="rgb(0, 0, 0)" stroke-width="5.00" stroke-opacity="1.00" stroke-linejoin="round"/>
<path d="M655.91,865.97 C655.91,865.97 665.57,876.06 665.57,876.06 C665.63,874.63 665.12,873.64 663.21,871.99 C661.64,870.61 659.00,868.31 657.93,867.39" fill="none" stroke="rgb(0, 0, 0)" stroke-width="5.00" stroke-opacity="1.00" stroke-linejoin="round"/>
<path d="M694.98,841.90 C694.98,841.90 692.56,841.90 692.56,841.90 C694.58,841.92 701.91,843.57 703.19,844.34 C704.62,845.21 706.28,846.99 707.02,848.22 C706.23,850.26 704.65,853.32 703.42,854.88 C700.54,858.47 693.18,861.06 692.29,861.27 C696.39,861.79 701.75,863.31 704.74,865.29 C705.37,865.73 709.07,868.76 709.55,869.32 C710.60,870.61 711.25,872.67 711.08,874.31 C710.81,876.35 710.14,878.36 709.27,879.62 C707.57,882.01 703.59,885.83 701.17,887.37 C699.86,888.17 697.43,888.72 695.72,888.60 C694.87,888.53 691.46,887.68 690.13,887.34 C689.53,887.18 688.92,887.03 688.32,886.87" fill="none" stroke="rgb(0, 0, 0)" stroke-width="5.00" stroke-opacity="1.00" stroke-linejoin="round"/>
<path d="M529.62,769.97 C529.62,769.97 529.62,769.52 529.62,769.52 C529.62,769.52 529.62,768.00 529.62,768.00 C529.62,768.00 529.11,798.32 529.11,798.32 C529.11,798.32 532.95,796.01 532.95,796.01" fill="none" stroke="rgb(0, 0, 0)" stroke-width="5.00" stroke-opacity="1.00" stroke-linejoin="round"/>
<path d="M553.40,780.87 C552.07,782.80 550.00,788.12 549.46,792.08 C549.26,793.70 549.59,796.64 550.11,798.16 C550.79,799.93 552.86,803.02 554.08,803.70 C555.53,804.46 559.44,804.20 561.21,803.38 C562.83,802.58 566.75,796.93 567.97,794.19 C569.34,791.02 570.39,785.80 570.34,782.37 C570.28,780.69 569.53,777.89 568.66,776.27 C567.21,773.64 563.30,771.59 560.67,771.23 C559.34,771.09 557.89,771.46 556.56,772.24 C556.29,772.40 555.94,772.65 555.51,773.00" fill="none" stroke="rgb(0, 0, 0)" stroke-width="5.00" stroke-opacity="1.00" stroke-linejoin="round"/>
<path d="M497.82,759.37 C497.82,759.37 497.71,758.61 497.71,758.61 C498.19,761.26 499.55,769.03 499.78,770.79 C500.36,775.49 500.22,781.61 499.17,784.94 C498.00,788.51 494.40,794.66 491.93,796.66 C490.96,797.44 488.65,798.87 487.09,799.78 C487.09,799.78 489.04,790.41 489.04,790.41" fill="none" stroke="rgb(0, 0, 0)" stroke-width="5.00" stroke-opacity="1.00" stroke-linejoin="round"/>
<path d="M502.52,759.67 C502.52,759.67 499.57,757.41 499.57,757.41 C510.15,755.84 518.34,754.80 530.69,754.24 C542.66,753.85 569.24,753.68 573.37,753.65 C573.37,753.65 569.75,755.43 569.75,755.43" fill="none" stroke="rgb(0, 0, 0)" stroke-width="5.00" stroke-opacity="1.00" stroke-linejoin="round"/>
<path d="M456.18,763.15 C456.18,763.15 456.48,761.49 456.48,761.49 C456.51,761.62 455.97,768.29 455.67,771.99 C454.90,781.39 453.89,793.77 453.65,796.74 C454.17,797.07 454.53,797.28 454.73,797.36 C454.93,797.43 455.26,797.49 455.72,797.52" fill="none" stroke="rgb(0, 0, 0)" stroke-width="5.00" stroke-opacity="1.00" stroke-linejoin="round"/>
<path d="M608.21,775.27 C608.21,775.27 608.82,775.27 608.82,775.27 C610.81,777.96 613.61,781.74 614.42,782.82 C614.42,782.83 614.42,782.84 614.42,782.84" fill="none" stroke="rgb(0, 0, 0)" stroke-width="5.00" stroke-opacity="1.00" stroke-linejoin="round"/>
<path d="M634.86,774.97 C634.84,774.90 634.89,774.90 635.01,774.97 C636.36,775.78 641.23,785.15 641.40,785.39 C641.56,785.61 641.75,785.71 641.98,785.71" fill="none" stroke="rgb(0, 0, 0)" stroke-width="5.00" stroke-opacity="1.00" stroke-linejoin="round"/>
<path d="M657.88,775.12 C657.94,774.91 658.09,774.91 658.33,775.12 C658.70,775.43 662.02,779.00 663.23,780.30 C663.23,780.30 658.33,775.12 658.33,775.12" fill="none" stroke="rgb(0, 0, 0)" stroke-width="5.00" stroke-opacity="1.00" stroke-linejoin="round"/>
<path d="M691.34,760.43 C691.34,760.43 686.95,761.64 686.95,761.64 C687.86,760.34 695.83,757.97 697.76,758.44 C698.51,758.64 700.81,760.03 701.46,760.39 C702.81,761.21 704.38,763.14 705.06,764.96 C705.69,766.74 705.92,776.08 704.98,779.40 C704.23,781.92 701.25,788.42 699.49,791.32 C696.17,796.71 687.22,805.08 686.09,805.72 C688.90,805.76 695.93,805.86 700.15,805.93 C705.89,806.17 711.66,806.99 714.16,808.48 C714.65,808.77 715.62,809.31 717.08,810.09" fill="none" stroke="rgb(0, 0, 0)" stroke-width="5.00" stroke-opacity="1.00" stroke-linejoin="round"/>
<path d="M560.47,672.60 C560.47,672.60 560.47,672.29 560.47,672.29 C561.42,678.34 560.71,692.75 560.26,700.93 C560.11,705.42 560.18,712.60 560.21,715.45" fill="none" stroke="rgb(0, 0, 0)" stroke-width="5.00" stroke-opacity="1.00" stroke-linejoin="round"/>
<path d="M526.44,446.82 C526.44,446.82 527.96,446.07 527.96,446.07 C529.62,449.29 539.03,463.17 542.21,469.63 C545.61,476.61 549.30,488.79 550.72,496.89 C551.89,503.78 552.48,522.37 551.79,525.54 C551.79,525.54 545.67,519.81 545.67,519.81" fill="none" stroke="rgb(0, 0, 0)" stroke-width="5.00" stroke-opacity="1.00" stroke-linejoin="round"/>
<path d="M516.14,452.12 C516.14,452.12 516.30,455.91 516.30,455.91 C516.30,455.91 508.84,429.02 508.84,429.02 C510.45,428.16 511.55,427.87 513.48,427.96 C520.40,428.31 536.14,432.29 541.96,434.67 C545.44,436.12 551.85,439.49 553.87,441.02 C555.27,442.11 555.74,444.05 555.28,446.20 C555.18,446.64 554.95,447.35 554.61,448.34" fill="none" stroke="rgb(0, 0, 0)" stroke-width="5.00" stroke-opacity="1.00" stroke-linejoin="round"/>
<path d="M979.21,426.23 C979.21,426.23 979.36,427.42 979.36,427.42 C975.92,429.86 970.43,435.70 968.52,438.04 C963.60,444.12 957.15,455.96 954.01,464.14 C951.49,470.76 948.91,481.96 947.59,491.38 C946.70,498.87 945.14,512.84 945.09,519.86 C945.09,519.86 942.56,519.21 942.56,519.21" fill="none" stroke="rgb(0, 0, 0)" stroke-width="5.00" stroke-opacity="1.00" stroke-linejoin="round"/>
<path d="M922.72,505.88 C922.72,505.88 922.27,505.27 922.27,505.27 C923.84,509.34 925.59,513.11 927.90,516.66 C932.46,523.60 938.79,530.78 943.55,535.79 C945.17,535.46 946.04,535.04 947.47,533.74 C955.75,526.50 961.29,522.42 966.51,519.68 C966.51,519.68 964.07,518.14 964.07,518.14" fill="none" stroke="rgb(0, 0, 0)" stroke-width="5.00" stroke-opacity="1.00" stroke-linejoin="round"/>
<path d="M1027.51,606.43 C1027.51,606.43 1027.37,605.06 1027.37,605.06" fill="none" stroke="rgb(0, 0, 0)" stroke-width="5.00" stroke-opacity="1.00" stroke-linejoin="round"/>
<path d="M1009.95,609.91 C1009.95,609.91 1009.34,610.06 1009.34,610.06 C1009.34,610.06 1009.19,610.06 1009.19,610.06 C1009.19,610.06 1052.78,612.93 1052.78,612.93 C1052.78,612.93 1052.19,614.75 1052.19,614.75" fill="none" stroke="rgb(0, 0, 0)" stroke-width="5.00" stroke-opacity="1.00" stroke-linejoin="round"/>
<path d="M1034.03,642.16 C1034.03,642.16 1033.94,640.52 1033.94,640.52 C1032.13,640.29 1030.73,640.51 1029.14,641.46 C1026.44,643.10 1023.80,646.06 1022.72,647.38 C1024.84,649.35 1031.76,653.62 1033.74,655.71 C1035.80,657.93 1037.81,662.42 1037.47,665.18 C1037.23,666.74 1036.32,668.76 1035.40,669.75 C1033.81,671.37 1028.92,673.14 1026.00,673.42 C1024.43,673.56 1023.10,672.99 1021.14,671.56 C1021.83,668.84 1022.37,667.62 1023.76,665.93 C1028.85,659.50 1037.81,648.19 1038.52,646.28 C1037.42,644.92 1036.62,644.02 1036.12,643.58 C1035.62,643.15 1034.72,642.58 1033.42,641.86" fill="none" stroke="rgb(0, 0, 0)" stroke-width="5.00" stroke-opacity="1.00" stroke-linejoin="round"/>
<path d="M1036.14,565.39 C1036.14,565.39 1036.14,563.88 1036.14,563.88 C1036.14,563.88 1036.23,598.18 1036.23,598.18" fill="none" stroke="rgb(0, 0, 0)" stroke-width="5.00" stroke-opacity="1.00" stroke-linejoin="round"/>
<path d="M1071.54,609.15 C1073.45,610.01 1074.40,610.75 1075.91,612.77 C1081.34,619.85 1088.66,629.41 1090.26,632.21 C1090.26,632.21 1087.78,632.47 1087.78,632.47" fill="none" stroke="rgb(0, 0, 0)" stroke-width="5.00" stroke-opacity="1.00" stroke-linejoin="round"/>
<path d="M1092.02,611.27 C1092.02,611.27 1092.02,610.51 1092.02,610.51 C1085.86,615.93 1078.89,625.99 1072.58,635.94 C1072.14,636.64 1071.69,637.34 1071.25,638.05 C1071.25,638.05 1072.49,637.92 1072.49,637.92" fill="none" stroke="rgb(0, 0, 0)" stroke-width="5.00" stroke-opacity="1.00" stroke-linejoin="round"/>
<path d="M1118.98,609.61 C1118.98,609.61 1119.12,609.30 1119.12,609.30 C1114.69,611.89 1108.98,619.24 1107.92,621.28 C1112.27,623.69 1122.43,625.34 1126.40,625.74 C1128.32,625.93 1130.54,626.09 1132.20,626.21 C1132.34,626.22 1132.74,626.23 1132.61,626.26" fill="none" stroke="rgb(0, 0, 0)" stroke-width="5.00" stroke-opacity="1.00" stroke-linejoin="round"/>
<path d="M1125.64,614.75 C1125.64,614.75 1122.01,645.11 1122.01,645.11 C1122.01,645.11 1123.06,642.77 1123.06,642.77" fill="none" stroke="rgb(0, 0, 0)" stroke-width="5.00" stroke-opacity="1.00" stroke-linejoin="round"/>
<path d="M895.92,723.63 C895.92,723.63 895.00,722.82 895.00,722.82 C895.01,722.24 903.00,721.81 907.62,721.56 C910.98,721.41 915.02,721.24 915.71,721.22 C915.71,721.22 914.55,721.21 914.55,721.21" fill="none" stroke="rgb(0, 0, 0)" stroke-width="5.00" stroke-opacity="1.00" stroke-linejoin="round"/>
<path d="M904.25,706.82 C904.25,706.82 904.65,738.28 904.65,738.28 C904.65,738.28 908.52,734.05 908.52,734.05" fill="none" stroke="rgb(0, 0, 0)" stroke-width="5.00" stroke-opacity="1.00" stroke-linejoin="round"/>
<path d="M1014.49,710.30 C1018.36,710.29 1026.63,710.34 1029.00,711.25 C1029.60,711.50 1032.14,714.28 1032.52,714.98 C1033.16,716.23 1032.32,718.76 1030.84,721.11 C1029.61,722.94 1025.52,725.98 1021.79,727.99 C1019.00,729.48 1015.97,730.19 1014.95,730.29 C1017.89,729.91 1023.05,730.64 1026.70,732.17 C1028.36,732.92 1029.97,734.73 1030.71,736.62 C1031.24,738.12 1030.84,740.95 1030.01,742.40 C1026.91,747.47 1020.60,749.62 1018.72,749.97 C1018.07,750.08 1016.96,750.29 1015.40,750.58" fill="none" stroke="rgb(0, 0, 0)" stroke-width="5.00" stroke-opacity="1.00" stroke-linejoin="round"/>
<path d="M884.11,770.57 C884.11,770.57 883.73,770.27 883.73,770.27 C890.44,770.09 907.78,769.79 911.76,769.91 C920.51,770.16 945.22,766.54 968.12,765.20 C984.40,764.61 1017.17,763.80 1033.66,763.58 C1049.24,763.77 1082.59,763.98 1092.71,763.56 C1102.15,763.26 1134.88,765.32 1153.16,764.55 C1168.96,763.58 1190.09,762.19 1190.32,762.17 C1190.80,762.12 1191.85,761.99 1193.48,761.79" fill="none" stroke="rgb(0, 0, 0)" stroke-width="5.00" stroke-opacity="1.00" stroke-linejoin="round"/>
<path d="M998.14,798.44 C998.14,798.44 996.17,798.44 996.17,798.44 C1001.38,800.03 1006.66,802.26 1007.02,804.24 C1007.21,805.70 1005.79,808.86 1004.37,810.38 C1004.00,810.76 997.48,815.24 994.01,816.67 C999.67,819.30 1005.34,822.21 1006.52,824.79 C1006.68,825.17 1006.77,825.75 1006.78,826.53 C1005.64,828.67 1002.06,831.04 996.73,832.96 C994.55,833.73 993.21,833.94 992.16,833.75 C991.99,833.71 991.87,833.65 991.78,833.57" fill="none" stroke="rgb(0, 0, 0)" stroke-width="5.00" stroke-opacity="1.00" stroke-linejoin="round"/>
<path d="M1018.88,835.54 C1018.88,835.54 1019.03,835.54 1019.03,835.54 C1019.03,835.54 1021.57,841.37 1021.57,841.37 C1021.75,839.65 1021.46,838.49 1020.32,837.11 C1019.89,836.59 1019.46,836.06 1019.03,835.54" fill="none" stroke="rgb(0, 0, 0)" stroke-width="5.00" stroke-opacity="1.00" stroke-linejoin="round"/>
<path d="M1042.05,802.07 C1042.05,802.07 1042.43,801.14 1042.43,801.14 C1041.85,804.60 1038.42,812.54 1038.06,813.52 C1037.73,814.48 1036.85,817.67 1037.20,818.22 C1038.33,819.83 1045.82,824.52 1048.80,827.02 C1050.10,828.17 1050.65,830.92 1049.96,832.73 C1049.41,834.04 1044.43,836.09 1041.51,836.68 C1041.03,835.93 1039.74,833.86 1039.42,833.08 C1039.22,832.58 1038.83,831.43 1038.27,829.63" fill="none" stroke="rgb(0, 0, 0)" stroke-width="5.00" stroke-opacity="1.00" stroke-linejoin="round"/>
<path d="M1037.96,803.59 C1037.96,803.59 1037.96,802.83 1037.96,802.83 C1043.44,802.85 1048.53,803.17 1051.59,804.38 C1052.33,804.68 1055.17,806.14 1056.03,806.58 C1056.03,806.58 1051.29,803.89 1051.29,803.89" fill="none" stroke="rgb(0, 0, 0)" stroke-width="5.00" stroke-opacity="1.00" stroke-linejoin="round"/>
<path d="M948.02,812.52 C948.10,812.12 948.15,811.86 948.16,811.76 C948.18,811.65 948.18,811.55 948.16,811.46 C948.16,811.46 961.88,829.74 961.88,829.74 C961.51,829.48 961.25,829.28 961.09,829.15 C960.94,829.02 960.67,828.77 960.28,828.41" fill="none" stroke="rgb(0, 0, 0)" stroke-width="5.00" stroke-opacity="1.00" stroke-linejoin="round"/>
<path d="M959.37,810.09 C959.37,810.09 959.37,809.49 959.37,809.49 C955.89,812.75 952.67,816.21 950.12,819.92 C948.87,821.75 944.11,829.25 942.96,830.29 C942.96,830.29 943.54,827.34 943.54,827.34" fill="none" stroke="rgb(0, 0, 0)" stroke-width="5.00" stroke-opacity="1.00" stroke-linejoin="round"/>
<path d="M909.85,798.89 C909.85,798.89 910.31,798.13 910.31,798.13 C910.30,797.45 910.30,797.03 910.31,796.88 C910.32,796.73 910.36,796.65 910.43,796.62 C910.63,798.85 911.41,805.59 911.12,806.27 C910.94,806.70 910.31,807.37 909.25,808.28" fill="none" stroke="rgb(0, 0, 0)" stroke-width="5.00" stroke-opacity="1.00" stroke-linejoin="round"/>
<path d="M887.14,826.90 C887.14,826.90 885.03,827.54 885.03,827.54 C892.28,827.80 908.16,828.37 916.80,828.68 C919.14,828.76 920.17,828.83 920.88,828.87 C921.02,828.88 921.18,828.88 921.37,828.87" fill="none" stroke="rgb(0, 0, 0)" stroke-width="5.00" stroke-opacity="1.00" stroke-linejoin="round"/>
<path d="M913.03,861.43 C913.03,861.43 909.87,857.95 909.87,857.95 C907.64,858.22 904.02,860.25 901.15,863.07 C899.98,864.26 899.24,866.08 899.51,867.19 C900.39,870.20 912.70,878.58 913.94,879.93 C915.34,881.46 916.73,883.92 917.24,885.41 C916.30,887.31 914.69,890.14 913.66,891.34 C912.39,892.79 908.74,895.10 907.31,895.32 C905.97,895.47 903.20,894.14 902.07,892.97 C900.78,891.51 900.56,888.64 901.49,886.42 C902.23,884.74 918.98,865.21 919.59,864.23 C920.31,863.01 921.06,860.41 920.74,859.38 C919.99,857.23 918.53,855.82 916.60,855.47 C913.42,854.87 910.15,854.43 909.25,854.31" fill="none" stroke="rgb(0, 0, 0)" stroke-width="5.00" stroke-opacity="1.00" stroke-linejoin="round"/>
<path d="M907.88,785.71 C907.88,785.71 908.49,786.03 908.49,786.03 C908.49,786.03 910.40,815.70 910.40,815.70 C910.40,815.70 912.43,814.18 912.43,814.18" fill="none" stroke="rgb(0, 0, 0)" stroke-width="5.00" stroke-opacity="1.00" stroke-linejoin="round"/>
<path d="M889.41,933.81 C889.41,933.81 889.41,934.57 889.41,934.57 C904.45,934.65 935.87,934.77 952.24,934.81 C979.69,934.70 1031.21,930.98 1045.52,930.19 C1057.84,929.73 1091.40,930.52 1106.34,929.95 C1121.38,929.11 1181.39,920.71 1185.71,920.68 C1186.58,920.66 1187.46,920.65 1188.33,920.64" fill="none" stroke="rgb(0, 0, 0)" stroke-width="5.00" stroke-opacity="1.00" stroke-linejoin="round"/>
<path d="M903.64,969.09 C903.64,969.09 903.64,966.22 903.64,966.22 C902.08,967.80 900.25,972.08 899.62,975.18 C898.33,981.89 899.10,992.08 900.12,995.45 C900.66,997.13 902.81,999.08 904.53,999.54 C905.06,999.66 908.09,998.51 908.37,998.31 C909.67,997.30 911.62,995.04 912.22,993.87 C913.48,991.24 914.83,984.62 914.54,981.67 C914.22,978.87 912.30,974.18 911.44,972.24 C909.56,972.30 908.26,972.39 907.56,972.51 C906.85,972.63 905.75,972.96 904.25,973.48" fill="none" stroke="rgb(0, 0, 0)" stroke-width="5.00" stroke-opacity="1.00" stroke-linejoin="round"/>
<path d="M941.81,991.66 C941.65,991.96 941.97,992.57 943.19,994.08 C944.40,995.58 944.76,996.30 944.68,996.88 C944.68,996.88 941.81,992.26 941.81,992.26" fill="none" stroke="rgb(0, 0, 0)" stroke-width="5.00" stroke-opacity="1.00" stroke-linejoin="round"/>
<path d="M977.70,963.95 C977.70,963.95 977.24,963.04 977.24,963.04 C974.54,963.96 969.24,968.27 968.17,970.94 C967.96,971.50 967.74,972.64 967.51,974.36 C969.67,976.04 975.16,978.23 980.41,979.56 C982.21,980.00 986.43,981.01 986.53,981.03 C986.86,981.11 987.40,981.22 988.14,981.36" fill="none" stroke="rgb(0, 0, 0)" stroke-width="5.00" stroke-opacity="1.00" stroke-linejoin="round"/>
<path d="M983.90,967.43 C983.90,967.43 983.67,967.12 983.67,967.12 C983.43,974.05 983.11,994.54 983.33,995.61 C983.43,996.05 983.73,996.93 984.24,998.27 C984.24,998.27 987.09,991.20 987.09,991.20" fill="none" stroke="rgb(0, 0, 0)" stroke-width="5.00" stroke-opacity="1.00" stroke-linejoin="round"/>
<path d="M1008.28,966.98 C1008.28,966.98 1007.07,966.98 1007.07,966.98 C1007.78,966.38 1017.32,965.50 1018.70,966.41 C1019.72,967.12 1021.32,970.12 1021.25,971.08 C1020.72,975.86 1012.95,984.00 1010.19,985.94 C1011.39,986.27 1018.63,988.21 1020.52,989.53 C1021.28,990.10 1023.39,992.65 1023.57,993.58 C1023.74,994.57 1022.63,997.23 1022.03,997.98 C1021.14,998.99 1019.03,1000.88 1017.87,1001.59 C1016.00,1002.69 1013.39,1002.82 1011.24,1001.97 C1010.79,1001.78 1009.95,1001.37 1008.74,1000.74" fill="none" stroke="rgb(0, 0, 0)" stroke-width="5.00" stroke-opacity="1.00" stroke-linejoin="round"/>
<path d="M1047.65,966.52 C1047.65,966.52 1047.20,966.52 1047.20,966.52 C1047.20,966.52 1049.32,983.29 1049.32,983.29 C1047.94,979.47 1045.59,972.91 1045.25,972.02 C1045.01,971.41 1044.52,970.18 1043.77,968.32 C1047.05,966.62 1061.75,966.50 1063.96,967.12 C1066.65,967.93 1070.37,972.22 1070.83,974.34 C1071.26,976.68 1067.81,996.46 1066.45,1004.06 C1066.45,1004.06 1067.04,1002.10 1067.04,1002.10" fill="none" stroke="rgb(0, 0, 0)" stroke-width="5.00" stroke-opacity="1.00" stroke-linejoin="round"/>
<path d="M1113.83,963.79 C1113.83,963.79 1112.64,964.22 1112.64,964.22" fill="none" stroke="rgb(0, 0, 0)" stroke-width="5.00" stroke-opacity="1.00" stroke-linejoin="round"/>
<path d="M1113.07,964.09 C1104.09,972.34 1098.53,977.91 1098.26,978.41 C1097.50,979.85 1097.37,982.31 1097.96,983.14 C1098.62,983.97 1105.06,985.31 1107.44,986.22 C1109.69,987.11 1112.83,989.04 1113.68,990.22 C1114.48,991.43 1114.32,994.28 1113.53,996.20 C1113.08,997.22 1110.70,1000.75 1109.78,1001.88 C1108.50,1003.37 1105.51,1004.96 1103.55,1005.08 C1101.67,1005.14 1098.60,1003.51 1097.01,1001.81 C1096.13,1000.83 1092.05,995.37 1091.41,994.53" fill="none" stroke="rgb(0, 0, 0)" stroke-width="5.00" stroke-opacity="1.00" stroke-linejoin="round"/>
<path d="M1094.75,965.16 C1096.84,964.58 1100.03,964.41 1105.37,964.62 C1115.47,965.11 1121.45,967.67 1126.32,970.53 C1126.32,970.53 1118.98,971.21 1118.98,971.21" fill="none" stroke="rgb(0, 0, 0)" stroke-width="5.00" stroke-opacity="1.00" stroke-linejoin="round"/>
<path d="M1076.58,1061.01 C1076.58,1061.01 1076.58,1060.40 1076.58,1060.40 C1076.58,1060.40 1075.31,1059.96 1075.31,1059.96 C1073.32,1061.76 1071.28,1064.35 1068.49,1068.72 C1066.11,1072.55 1063.31,1079.01 1062.42,1082.93 C1061.70,1086.19 1060.86,1096.46 1060.82,1098.02 C1060.72,1102.43 1061.61,1108.14 1062.67,1111.17 C1063.05,1112.18 1064.51,1116.17 1064.72,1116.53 C1065.90,1118.51 1068.10,1120.22 1070.47,1120.87 C1073.23,1121.58 1075.66,1121.74 1077.16,1121.26 C1079.89,1120.32 1084.28,1117.25 1085.94,1115.10 C1087.65,1112.80 1090.06,1105.48 1090.60,1101.97 C1090.99,1099.30 1090.96,1092.20 1090.69,1089.51 C1090.37,1086.58 1088.92,1081.51 1087.45,1077.74 C1085.77,1073.50 1082.77,1068.53 1080.21,1066.53 C1079.06,1065.66 1077.05,1064.63 1075.98,1064.41 C1075.11,1064.24 1072.08,1064.08 1070.97,1064.04" fill="none" stroke="rgb(0, 0, 0)" stroke-width="5.00" stroke-opacity="1.00" stroke-linejoin="round"/>
<path d="M1117.01,1113.25 C1117.01,1113.25 1113.67,1112.50 1113.67,1112.50 C1113.67,1112.50 1115.34,1120.14 1115.34,1120.14 C1115.34,1120.14 1117.01,1113.25 1117.01,1113.25" fill="none" stroke="rgb(0, 0, 0)" stroke-width="5.00" stroke-opacity="1.00" stroke-linejoin="round"/>
<path d="M1136.39,1075.70 C1136.39,1075.70 1136.85,1075.09 1136.85,1075.09 C1136.85,1075.09 1122.88,1093.62 1122.88,1093.62 C1124.47,1096.00 1125.55,1097.01 1127.43,1097.48 C1132.79,1098.81 1149.77,1101.64 1156.45,1102.70 C1156.45,1102.70 1153.95,1102.50 1153.95,1102.50" fill="none" stroke="rgb(0, 0, 0)" stroke-width="5.00" stroke-opacity="1.00" stroke-linejoin="round"/>
<path d="M1139.68,1083.12 C1139.68,1083.12 1139.44,1121.26 1139.44,1121.26 C1139.44,1121.26 1145.17,1107.50 1145.17,1107.50" fill="none" stroke="rgb(0, 0, 0)" stroke-width="5.00" stroke-opacity="1.00" stroke-linejoin="round"/>
<path d="M1170.16,1074.03 C1170.16,1074.03 1165.18,1072.59 1165.18,1072.59 C1169.47,1072.75 1174.41,1073.09 1177.46,1074.33 C1178.78,1074.89 1181.34,1076.67 1182.18,1077.57 C1183.09,1078.60 1183.84,1080.54 1183.86,1081.91 C1183.83,1084.43 1180.31,1091.28 1178.27,1093.21 C1173.93,1097.21 1166.52,1099.52 1165.55,1099.64 C1167.69,1099.11 1171.16,1098.61 1173.19,1098.68 C1175.03,1098.76 1180.22,1100.67 1181.18,1101.03 C1182.02,1102.85 1182.58,1105.93 1182.28,1108.15 C1182.03,1109.81 1177.46,1116.27 1175.50,1117.93 C1173.28,1119.76 1169.39,1121.17 1168.43,1121.53 C1168.43,1121.53 1168.04,1117.79 1168.04,1117.79" fill="none" stroke="rgb(0, 0, 0)" stroke-width="5.00" stroke-opacity="1.00" stroke-linejoin="round"/>
<path d="M1206.05,1068.58 C1206.05,1068.58 1205.59,1068.43 1205.59,1068.43 C1205.59,1068.43 1207.44,1080.49 1207.44,1080.49 C1207.44,1080.49 1204.01,1070.09 1204.01,1070.09 C1206.28,1069.49 1210.39,1069.30 1216.38,1069.56 C1220.62,1069.79 1228.62,1070.76 1230.70,1072.16 C1231.98,1073.07 1233.78,1079.42 1234.17,1082.70 C1234.76,1088.04 1232.92,1108.40 1232.07,1115.73 C1231.85,1117.87 1231.54,1118.99 1230.66,1121.04 C1230.66,1121.04 1230.27,1120.97 1230.27,1120.97" fill="none" stroke="rgb(0, 0, 0)" stroke-width="5.00" stroke-opacity="1.00" stroke-linejoin="round"/>
<path d="M1257.68,1071.30 C1257.68,1071.30 1258.44,1071.30 1258.44,1071.30 C1258.19,1071.19 1258.07,1071.68 1257.91,1073.86 C1256.90,1086.64 1255.40,1096.72 1255.52,1096.63 C1257.97,1096.13 1259.92,1095.95 1261.79,1096.22 C1263.90,1096.54 1267.06,1097.63 1268.75,1098.68 C1270.58,1099.88 1272.16,1102.00 1272.77,1103.95 C1273.21,1105.57 1272.99,1108.44 1272.37,1110.06 C1271.96,1111.09 1267.74,1115.62 1265.45,1116.67 C1264.03,1117.31 1259.60,1118.45 1257.90,1118.62 C1256.11,1118.76 1253.02,1118.09 1251.89,1117.25 C1250.87,1116.45 1248.78,1113.59 1247.55,1111.56 C1246.69,1110.09 1245.24,1107.60 1244.66,1106.59" fill="none" stroke="rgb(0, 0, 0)" stroke-width="5.00" stroke-opacity="1.00" stroke-linejoin="round"/>
<path d="M1255.56,1072.52 C1256.32,1072.11 1257.09,1072.03 1259.36,1072.20 C1267.61,1072.75 1282.04,1073.74 1282.17,1073.88 C1282.17,1073.88 1273.28,1073.88 1273.28,1073.88" fill="none" stroke="rgb(0, 0, 0)" stroke-width="5.00" stroke-opacity="1.00" stroke-linejoin="round"/>
<path d="M948.92,1058.89 C948.92,1058.89 949.07,1058.59 949.07,1058.59 C947.90,1061.46 946.46,1080.38 947.34,1084.38 C947.70,1085.93 951.73,1093.62 952.69,1095.03 C954.50,1097.67 958.32,1101.03 961.70,1102.81 C969.82,1107.00 991.74,1113.24 992.77,1113.54 C992.64,1113.08 992.53,1112.76 992.45,1112.56 C992.36,1112.37 992.19,1112.05 991.93,1111.58" fill="none" stroke="rgb(0, 0, 0)" stroke-width="5.00" stroke-opacity="1.00" stroke-linejoin="round"/>
<path d="M986.02,1091.75 C986.02,1091.75 986.02,1091.30 986.02,1091.30 C991.79,1095.13 1006.93,1105.37 1008.77,1107.55 C1009.89,1108.91 1011.07,1112.59 1010.80,1115.85 C1010.56,1118.30 1009.68,1120.92 1008.26,1123.33 C1006.43,1126.36 996.31,1136.83 994.56,1138.35" fill="none" stroke="rgb(0, 0, 0)" stroke-width="5.00" stroke-opacity="1.00" stroke-linejoin="round"/>
<path d="M1310.04,1096.60 C1315.89,1096.99 1325.30,1095.61 1334.59,1092.70 C1338.72,1091.40 1342.97,1089.33 1345.19,1087.34 C1348.29,1084.47 1359.55,1070.13 1361.77,1066.02 C1364.46,1060.96 1367.56,1048.41 1369.20,1039.86 C1370.59,1031.89 1373.11,1003.85 1372.79,1001.61 C1372.79,1001.61 1368.68,1000.59 1368.68,1000.59" fill="none" stroke="rgb(0, 0, 0)" stroke-width="5.00" stroke-opacity="1.00" stroke-linejoin="round"/>
<path d="M1341.72,1028.00 C1341.72,1028.00 1340.97,1028.46 1340.97,1028.46 C1344.64,1022.60 1354.15,1011.15 1357.72,1008.84 C1359.66,1007.62 1365.78,1005.92 1368.25,1006.50 C1369.49,1006.82 1373.45,1008.63 1375.31,1009.63 C1377.65,1010.94 1381.54,1015.24 1385.45,1020.04 C1388.34,1023.66 1393.87,1030.90 1395.93,1034.19 C1398.57,1038.50 1398.74,1040.13 1398.33,1041.74 C1398.33,1041.74 1394.87,1041.78 1394.87,1041.78" fill="none" stroke="rgb(0, 0, 0)" stroke-width="5.00" stroke-opacity="1.00" stroke-linejoin="round"/>
<path d="M1307.81,558.73 C1307.81,558.73 1307.81,558.42 1307.81,558.42 C1304.55,566.80 1302.09,577.64 1301.48,586.72 C1301.21,591.19 1302.09,599.38 1302.87,600.73 C1303.78,602.20 1306.74,602.78 1308.94,602.01 C1309.69,601.72 1315.93,596.34 1317.84,593.67 C1319.78,590.89 1323.29,582.95 1324.20,579.86 C1325.38,575.77 1325.95,568.44 1325.44,565.59 C1324.85,562.52 1322.54,557.84 1320.66,556.43 C1319.96,555.92 1318.24,555.07 1317.08,554.56 C1316.72,555.76 1316.49,556.59 1316.38,557.08 C1316.28,557.56 1316.14,558.36 1315.98,559.49" fill="none" stroke="rgb(0, 0, 0)" stroke-width="5.00" stroke-opacity="1.00" stroke-linejoin="round"/>
<path d="M1344.75,589.16 C1344.75,589.16 1344.75,588.86 1344.75,588.86 C1344.75,588.86 1347.14,596.47 1347.14,596.47 C1347.14,596.47 1344.75,588.86 1344.75,588.86" fill="none" stroke="rgb(0, 0, 0)" stroke-width="5.00" stroke-opacity="1.00" stroke-linejoin="round"/>
<path d="M1359.90,561.75 C1355.37,564.76 1352.00,567.50 1351.89,569.69 C1351.90,570.95 1353.53,572.68 1355.54,573.67 C1358.56,575.09 1372.52,577.70 1372.89,577.68 C1373.22,577.67 1373.74,577.51 1374.43,577.20" fill="none" stroke="rgb(0, 0, 0)" stroke-width="5.00" stroke-opacity="1.00" stroke-linejoin="round"/>
<path d="M1367.62,563.12 C1367.62,563.12 1367.32,562.97 1367.32,562.97 C1366.63,570.11 1365.34,584.83 1365.33,592.86 C1365.32,594.80 1365.47,595.34 1365.95,595.52 C1365.95,595.52 1368.21,590.00 1368.21,590.00" fill="none" stroke="rgb(0, 0, 0)" stroke-width="5.00" stroke-opacity="1.00" stroke-linejoin="round"/>
<path d="M1386.55,553.88 C1390.93,556.35 1395.30,558.96 1397.02,561.04 C1397.62,561.81 1398.34,565.35 1398.12,566.55 C1397.85,567.87 1395.95,569.53 1393.91,570.74 C1392.00,571.82 1391.17,572.76 1390.92,573.91 C1393.43,576.90 1395.78,580.09 1396.22,581.84 C1396.45,582.85 1396.48,585.45 1396.29,586.75 C1395.88,589.17 1392.85,593.17 1388.86,597.17 C1387.78,598.26 1387.01,598.89 1386.57,599.06 C1386.10,599.23 1385.03,599.36 1383.37,599.46" fill="none" stroke="rgb(0, 0, 0)" stroke-width="5.00" stroke-opacity="1.00" stroke-linejoin="round"/>
<path d="M1414.71,561.75 C1414.66,561.84 1414.57,561.73 1414.57,561.75 C1414.55,562.11 1414.36,580.20 1414.34,581.70 C1413.46,578.40 1411.12,569.35 1411.10,567.83 C1411.13,565.70 1412.31,564.35 1414.51,563.85 C1418.32,563.08 1424.34,562.75 1427.34,563.75 C1428.61,564.22 1431.48,565.82 1432.09,566.66 C1433.16,568.22 1433.87,571.73 1433.71,574.25 C1433.46,577.38 1425.66,599.44 1425.48,600.13 C1425.36,600.58 1425.16,601.57 1424.86,603.09" fill="none" stroke="rgb(0, 0, 0)" stroke-width="5.00" stroke-opacity="1.00" stroke-linejoin="round"/>
<path d="M1453.33,565.24 C1453.33,565.24 1453.48,563.88 1453.48,563.88 C1453.63,567.47 1454.10,577.41 1454.27,579.03 C1454.60,581.64 1455.26,583.46 1456.41,584.46 C1457.63,585.48 1461.45,588.47 1462.05,589.02 C1463.55,590.43 1464.60,594.93 1464.20,596.48 C1463.66,598.39 1460.19,601.98 1458.68,602.53 C1457.22,603.03 1454.48,603.43 1453.51,603.20 C1449.46,602.13 1443.41,595.04 1442.57,594.01" fill="none" stroke="rgb(0, 0, 0)" stroke-width="5.00" stroke-opacity="1.00" stroke-linejoin="round"/>
<path d="M1448.48,564.63 C1455.80,565.51 1467.30,566.85 1470.20,566.74 C1471.74,566.67 1472.21,567.08 1473.03,568.62 C1473.03,568.62 1470.04,572.77 1470.04,572.77" fill="none" stroke="rgb(0, 0, 0)" stroke-width="5.00" stroke-opacity="1.00" stroke-linejoin="round"/>
<path d="M1269.34,634.89 C1269.34,634.89 1295.55,660.44 1295.55,660.44 C1295.55,660.44 1292.46,650.38 1292.46,650.38" fill="none" stroke="rgb(0, 0, 0)" stroke-width="5.00" stroke-opacity="1.00" stroke-linejoin="round"/>
<path d="M1289.03,637.32 C1288.71,637.06 1284.24,643.46 1282.99,645.51 C1277.92,653.97 1278.24,659.49 1278.75,660.43 C1278.75,660.43 1282.43,659.68 1282.43,659.68" fill="none" stroke="rgb(0, 0, 0)" stroke-width="5.00" stroke-opacity="1.00" stroke-linejoin="round"/>
<path d="M1453.48,633.08 C1453.48,633.08 1454.39,633.08 1454.39,633.08 C1450.29,632.98 1446.68,633.61 1443.02,635.90 C1441.03,637.16 1435.38,641.36 1434.35,642.13 C1436.03,643.89 1437.18,644.73 1439.04,645.34 C1443.06,646.69 1447.37,648.58 1450.63,650.52 C1452.06,651.34 1453.04,653.66 1452.71,655.44 C1452.50,656.37 1445.43,661.06 1443.91,661.32 C1443.41,661.40 1442.34,661.42 1440.69,661.37 C1440.53,658.82 1440.57,657.25 1441.12,656.29 C1442.68,653.62 1452.48,643.04 1454.44,640.93 C1455.15,640.16 1455.15,638.83 1454.75,635.93 C1453.35,635.92 1449.55,635.90 1448.11,635.94 C1446.66,635.98 1443.22,636.18 1441.97,636.26" fill="none" stroke="rgb(0, 0, 0)" stroke-width="5.00" stroke-opacity="1.00" stroke-linejoin="round"/>
<path d="M1262.22,678.50 C1262.22,678.50 1260.26,678.50 1260.26,678.50 C1275.50,678.48 1308.70,678.51 1324.78,678.83 C1328.26,678.97 1342.30,680.66 1348.95,680.93 C1353.91,681.13 1372.57,680.62 1380.94,680.17 C1393.31,679.25 1434.39,674.35 1441.26,673.95 C1447.61,673.59 1468.38,673.76 1470.48,673.88 C1475.08,674.15 1484.54,676.33 1485.32,676.47 C1485.73,676.54 1486.32,676.61 1487.09,676.69" fill="none" stroke="rgb(0, 0, 0)" stroke-width="5.00" stroke-opacity="1.00" stroke-linejoin="round"/>
<path d="M1318.41,713.03 C1318.41,713.03 1315.83,713.48 1315.83,713.48 C1327.65,714.17 1333.48,715.15 1334.67,716.35 C1336.53,718.34 1337.20,720.56 1336.32,722.22 C1333.90,726.47 1324.27,730.12 1318.48,732.00 C1321.67,732.53 1329.11,736.03 1330.07,737.60 C1330.70,738.74 1330.40,741.74 1329.54,742.85 C1328.31,744.35 1322.23,747.11 1318.82,748.04 C1318.82,748.04 1320.83,748.31 1320.83,748.31" fill="none" stroke="rgb(0, 0, 0)" stroke-width="5.00" stroke-opacity="1.00" stroke-linejoin="round"/>
<path d="M1354.45,749.82 C1354.45,749.82 1354.90,749.82 1354.90,749.82 C1354.90,749.82 1356.83,758.66 1356.83,758.66 C1356.83,758.66 1355.20,749.82 1355.20,749.82" fill="none" stroke="rgb(0, 0, 0)" stroke-width="5.00" stroke-opacity="1.00" stroke-linejoin="round"/>
<path d="M1377.77,715.30 C1377.77,715.30 1377.77,714.55 1377.77,714.55 C1377.11,717.61 1375.46,725.62 1375.58,726.12 C1375.95,727.37 1386.59,731.44 1387.77,732.36 C1389.33,733.61 1390.66,735.86 1391.01,737.36 C1390.31,738.87 1388.52,741.30 1386.81,742.70 C1385.25,743.97 1377.76,747.43 1376.36,748.08 C1374.94,746.98 1374.02,746.19 1373.61,745.70 C1373.20,745.22 1372.72,744.38 1372.16,743.16" fill="none" stroke="rgb(0, 0, 0)" stroke-width="5.00" stroke-opacity="1.00" stroke-linejoin="round"/>
<path d="M1374.29,715.15 C1376.39,714.77 1379.20,714.57 1385.28,714.43 C1390.27,714.37 1396.96,714.97 1401.15,716.01 C1403.13,716.50 1403.69,716.90 1403.84,717.63 C1403.84,717.63 1398.36,716.67 1398.36,716.67" fill="none" stroke="rgb(0, 0, 0)" stroke-width="5.00" stroke-opacity="1.00" stroke-linejoin="round"/>
<path d="M1337.64,806.46 C1337.64,806.46 1338.39,806.16 1338.39,806.16 C1338.38,805.83 1337.69,805.06 1337.03,805.10 C1336.04,805.20 1334.12,807.03 1333.22,808.83 C1332.19,810.95 1331.30,814.02 1331.16,815.97 C1331.11,817.71 1331.04,821.52 1331.14,822.13 C1331.55,824.27 1333.25,826.32 1335.07,826.86 C1335.83,827.07 1342.59,826.86 1344.13,825.71 C1345.28,824.81 1348.27,821.24 1349.10,819.72 C1349.90,818.19 1350.60,814.72 1350.50,812.90 C1350.19,808.54 1347.73,803.70 1345.44,801.43 C1345.44,801.43 1345.20,803.28 1345.20,803.28" fill="none" stroke="rgb(0, 0, 0)" stroke-width="5.00" stroke-opacity="1.00" stroke-linejoin="round"/>
<path d="M1366.56,816.61 C1366.87,817.38 1367.64,818.12 1369.13,818.91 C1369.69,819.21 1373.00,820.79 1374.18,821.36 C1374.18,821.36 1367.16,817.67 1367.16,817.67" fill="none" stroke="rgb(0, 0, 0)" stroke-width="5.00" stroke-opacity="1.00" stroke-linejoin="round"/>
<path d="M1390.34,798.59 C1390.34,798.59 1390.34,798.13 1390.34,798.13 C1390.34,798.13 1385.97,806.24 1385.97,806.24 C1388.04,808.10 1391.19,809.81 1392.33,810.41 C1394.65,811.68 1396.30,813.83 1396.62,815.98 C1396.68,816.44 1396.71,817.30 1396.71,818.56 C1394.43,820.10 1389.22,823.55 1387.62,823.94 C1387.05,824.07 1379.98,824.05 1378.37,824.03" fill="none" stroke="rgb(0, 0, 0)" stroke-width="5.00" stroke-opacity="1.00" stroke-linejoin="round"/>
<path d="M1385.79,789.35 C1385.79,789.35 1403.74,798.95 1403.74,798.95 C1403.74,798.95 1400.55,800.74 1400.55,800.74" fill="none" stroke="rgb(0, 0, 0)" stroke-width="5.00" stroke-opacity="1.00" stroke-linejoin="round"/>
<path d="M1280.85,827.36 C1280.85,827.36 1279.79,827.36 1279.79,827.36 C1284.37,832.46 1295.42,844.57 1299.94,848.10 C1300.49,848.52 1303.81,851.05 1304.23,851.51 C1304.23,851.51 1297.66,845.53 1297.66,845.53" fill="none" stroke="rgb(0, 0, 0)" stroke-width="5.00" stroke-opacity="1.00" stroke-linejoin="round"/>
<path d="M1298.87,832.35 C1295.09,837.90 1285.25,852.17 1281.89,856.23 C1280.68,857.68 1279.88,859.13 1278.67,861.90 C1278.67,861.90 1280.75,861.47 1280.75,861.47" fill="none" stroke="rgb(0, 0, 0)" stroke-width="5.00" stroke-opacity="1.00" stroke-linejoin="round"/>
<path d="M1383.82,842.95 C1383.82,842.95 1384.27,842.35 1384.27,842.35 C1382.45,842.18 1380.99,842.16 1380.04,842.44 C1378.71,842.85 1376.82,844.24 1375.25,845.94 C1373.70,847.66 1372.96,849.38 1372.59,851.66 C1377.34,852.97 1384.34,855.26 1385.28,855.56 C1386.88,856.13 1388.99,857.45 1389.56,858.47 C1390.16,859.62 1388.65,862.57 1387.01,863.92 C1386.43,864.37 1382.64,865.96 1380.91,866.68 C1377.52,867.95 1374.17,867.56 1373.10,867.18 C1373.56,865.42 1375.85,862.68 1379.86,858.85 C1383.76,855.23 1388.24,850.31 1388.90,847.97 C1389.10,847.14 1388.34,844.37 1387.79,843.54 C1386.85,842.17 1384.65,839.85 1383.06,838.41" fill="none" stroke="rgb(0, 0, 0)" stroke-width="5.00" stroke-opacity="1.00" stroke-linejoin="round"/>
<path d="M1262.22,896.10 C1262.26,896.37 1262.36,896.53 1262.53,896.59 C1266.38,897.78 1302.32,897.40 1323.16,895.64 C1338.07,894.12 1378.83,889.26 1383.47,888.86 C1403.30,887.20 1413.73,889.03 1414.84,889.29 C1414.84,889.29 1412.60,889.29 1412.60,889.29" fill="none" stroke="rgb(0, 0, 0)" stroke-width="5.00" stroke-opacity="1.00" stroke-linejoin="round"/>
<path d="M1340.97,926.54 C1340.97,926.54 1341.57,925.64 1341.57,925.64 C1341.57,925.64 1322.54,944.26 1322.54,944.26 C1324.59,945.24 1326.87,945.46 1332.66,945.32 C1341.36,944.96 1353.83,944.43 1357.60,944.26 C1357.60,944.26 1356.41,944.26 1356.41,944.26" fill="none" stroke="rgb(0, 0, 0)" stroke-width="5.00" stroke-opacity="1.00" stroke-linejoin="round"/>
<path d="M1343.99,937.90 C1343.99,937.88 1343.92,937.88 1343.92,937.90 C1343.90,938.09 1343.40,949.35 1343.04,953.02 C1342.03,962.94 1340.71,966.70 1339.79,968.61 C1339.79,968.61 1338.54,968.28 1338.54,968.28" fill="none" stroke="rgb(0, 0, 0)" stroke-width="5.00" stroke-opacity="1.00" stroke-linejoin="round"/>
<path d="M1380.95,425.62 C1380.95,425.62 1380.13,424.07 1380.13,424.07 C1384.31,427.74 1388.14,431.34 1390.47,434.51 C1394.25,439.74 1400.29,452.09 1402.26,458.91 C1404.07,465.26 1407.07,480.58 1407.49,486.87 C1407.77,491.24 1407.77,505.81 1407.76,508.55 C1407.16,507.85 1406.70,507.27 1406.37,506.83 C1406.04,506.39 1405.39,505.47 1404.42,504.06" fill="none" stroke="rgb(0, 0, 0)" stroke-width="5.00" stroke-opacity="1.00" stroke-linejoin="round"/>
<path d="M1375.04,448.18 C1375.04,448.18 1375.19,448.34 1375.19,448.34 C1371.34,437.31 1367.76,426.23 1366.08,418.37 C1365.64,416.43 1365.71,415.15 1366.27,412.75 C1369.19,412.13 1371.15,411.86 1372.69,412.10 C1377.73,412.89 1393.99,418.06 1401.10,421.03 C1409.46,424.54 1413.15,427.01 1414.05,427.72 C1413.49,428.74 1411.97,431.51 1411.35,432.50 C1410.72,433.50 1409.36,435.38 1408.50,436.52" fill="none" stroke="rgb(0, 0, 0)" stroke-width="5.00" stroke-opacity="1.00" stroke-linejoin="round"/>
</g>
</svg>
