<?xml version="1.0" encoding="UTF-8" standalone="no"?>
<!DOCTYPE svg PUBLIC "-//W3C//DTD SVG 1.1//EN" "http://www.w3.org/Graphics/SVG/1.1/DTD/svg11.dtd">
<svg width="512.00" height="320.00" viewBox="0.00 0.00 512.00 320.00" xmlns="http://www.w3.org/2000/svg" xmlns:xlink="http://www.w3.org/1999/xlink">
<g stroke-linecap="round" id="Layer_2">
<path d="M23.07,54.25 C23.09,54.21 23.21,54.23 23.21,54.27 C22.93,55.76 22.24,57.53 21.61,58.41 C21.61,58.41 23.17,56.47 23.17,56.47 C23.17,56.47 21.78,58.23 21.78,58.23 C21.78,58.23 22.80,57.83 22.80,57.83" fill="none" stroke="rgb(178, 178, 178)" stroke-width="6.00" stroke-opacity="1.00" stroke-linejoin="round"/>
<path d="M22.80,57.83 L496.36,56.37" fill="none" stroke="rgb(178, 178, 178)" stroke-width="6.00" stroke-opacity="1.00" stroke-linejoin="round"/>
<path d="M496.36,56.37 C496.36,56.37 495.55,57.71 495.55,57.71 C495.55,57.71 493.66,56.80 493.66,56.80" fill="none" stroke="rgb(178, 178, 178)" stroke-width="6.00" stroke-opacity="1.00" stroke-linejoin="round"/>
<path d="M58.55,50.85 C58.55,50.85 58.55,50.63 58.55,50.63 C58.55,50.63 57.88,63.32 57.88,63.32 C57.88,63.32 57.88,62.75 57.88,62.75" fill="none" stroke="rgb(178, 178, 178)" stroke-width="6.00" stroke-opacity="1.00" stroke-linejoin="round"/>
<path d="M94.31,50.60 C94.32,52.67 94.05,60.51 93.73,62.58 C93.58,63.46 93.31,64.97 92.97,67.12" fill="none" stroke="rgb(178, 178, 178)" stroke-width="6.00" stroke-opacity="1.00" stroke-linejoin="round"/>
<path d="M123.72,53.34 C123.72,53.34 123.72,52.85 123.72,52.85 C123.72,52.85 123.71,64.59 123.71,64.59 C123.71,64.59 124.80,63.72 124.80,63.72" fill="none" stroke="rgb(178, 178, 178)" stroke-width="6.00" stroke-opacity="1.00" stroke-linejoin="round"/>
<path d="M161.76,52.85 C161.76,52.85 161.76,52.47 161.76,52.47 C161.76,52.47 161.38,63.97 161.38,63.97 C161.46,63.82 161.53,63.67 161.61,63.51 C161.64,63.43 161.70,63.32 161.76,63.17" fill="none" stroke="rgb(178, 178, 178)" stroke-width="6.00" stroke-opacity="1.00" stroke-linejoin="round"/>
<path d="M200.22,53.76 C200.22,53.76 198.73,54.19 198.73,54.19 C198.73,54.19 197.91,54.28 197.91,54.28 C197.91,54.28 196.16,67.37 196.16,67.37 C196.16,67.37 197.11,66.45 197.11,66.45" fill="none" stroke="rgb(178, 178, 178)" stroke-width="6.00" stroke-opacity="1.00" stroke-linejoin="round"/>
<path d="M232.46,53.46 C232.46,53.46 232.70,52.82 232.70,52.82 C232.87,56.73 232.89,64.22 232.90,64.22 C233.01,64.60 233.32,64.98 233.83,65.36 C233.94,65.43 234.06,65.49 234.21,65.54" fill="none" stroke="rgb(178, 178, 178)" stroke-width="6.00" stroke-opacity="1.00" stroke-linejoin="round"/>
<path d="M266.59,52.12 C266.59,52.12 266.71,67.04 266.71,67.04 C266.71,67.04 267.94,67.42 267.94,67.42" fill="none" stroke="rgb(178, 178, 178)" stroke-width="6.00" stroke-opacity="1.00" stroke-linejoin="round"/>
<path d="M300.73,52.18 C300.73,52.18 300.73,52.19 300.73,52.20 C300.88,63.15 301.19,67.91 301.55,69.34 C301.55,69.34 302.21,67.79 302.21,67.79" fill="none" stroke="rgb(178, 178, 178)" stroke-width="6.00" stroke-opacity="1.00" stroke-linejoin="round"/>
<path d="M333.63,53.02 C333.63,53.02 333.65,68.64 333.65,68.64 C333.65,68.64 335.54,68.45 335.54,68.45" fill="none" stroke="rgb(178, 178, 178)" stroke-width="6.00" stroke-opacity="1.00" stroke-linejoin="round"/>
<path d="M359.69,65.48 C359.69,65.48 360.15,65.48 360.15,65.48" fill="none" stroke="rgb(178, 178, 178)" stroke-width="6.00" stroke-opacity="1.00" stroke-linejoin="round"/>
<path d="M374.12,68.39 C374.12,68.39 375.02,68.39 375.02,68.39" fill="none" stroke="rgb(178, 178, 178)" stroke-width="6.00" stroke-opacity="1.00" stroke-linejoin="round"/>
<path d="M386.40,67.42 C386.35,67.42 386.49,67.37 386.53,67.36 C386.76,67.34 387.48,67.27 388.70,67.17" fill="none" stroke="rgb(178, 178, 178)" stroke-width="6.00" stroke-opacity="1.00" stroke-linejoin="round"/>
<path d="M406.59,65.87 C406.59,65.87 407.14,65.96 407.14,65.96" fill="none" stroke="rgb(178, 178, 178)" stroke-width="6.00" stroke-opacity="1.00" stroke-linejoin="round"/>
<path d="M43.75,14.36 C43.49,17.95 41.99,21.02 40.76,23.16 C39.35,25.52 35.10,28.62 31.91,29.13 C30.70,29.29 29.05,28.79 28.51,28.12 C27.97,27.35 27.93,25.38 28.47,24.13 C28.69,23.64 31.28,19.68 31.59,19.32 C32.54,18.22 33.75,17.77 34.88,17.85 C35.85,18.73 36.73,20.44 36.95,22.44 C37.27,25.47 35.66,31.75 34.57,33.86 C33.41,36.04 30.13,40.36 28.26,41.68 C25.89,43.33 21.45,45.46 20.08,45.39 C19.76,43.87 20.00,42.89 21.13,42.12 C23.03,40.87 31.25,39.01 34.89,39.26 C36.36,39.37 40.56,40.15 41.80,40.33 C41.87,40.34 42.06,40.26 41.99,40.22" fill="none" stroke="rgb(150, 186, 167)" stroke-width="6.00" stroke-opacity="1.00" stroke-linejoin="round"/>
<path d="M50.90,25.17 C50.90,25.17 50.90,25.29 50.90,25.29 C50.90,25.29 62.25,25.42 62.25,25.42 C62.25,25.42 61.96,26.08 61.96,26.08" fill="none" stroke="rgb(150, 186, 167)" stroke-width="6.00" stroke-opacity="1.00" stroke-linejoin="round"/>
<path d="M50.09,32.27 C50.09,32.27 49.48,32.27 49.48,32.27 C49.48,32.27 63.04,33.18 63.04,33.18" fill="none" stroke="rgb(150, 186, 167)" stroke-width="6.00" stroke-opacity="1.00" stroke-linejoin="round"/>
<path d="M74.91,18.97 C78.72,18.22 83.95,18.48 85.15,19.87 C85.68,20.55 85.83,22.57 85.54,23.74 C85.20,24.83 83.28,26.70 81.51,27.63 C78.29,29.28 74.07,30.13 72.80,30.08 C75.89,30.21 80.95,32.34 81.98,34.23 C82.46,35.21 82.21,37.27 81.52,38.38 C80.82,39.43 78.72,41.07 77.32,41.71 C76.04,42.25 73.60,42.56 72.67,42.27 C71.71,41.94 70.42,39.97 70.34,38.90 C70.33,38.60 70.46,38.19 70.73,37.67" fill="none" stroke="rgb(150, 186, 167)" stroke-width="6.00" stroke-opacity="1.00" stroke-linejoin="round"/>
<path d="M99.87,26.32 C99.87,26.32 101.70,33.81 101.70,33.81 C101.70,33.81 102.30,33.85 102.30,33.85" fill="none" stroke="rgb(150, 186, 167)" stroke-width="6.00" stroke-opacity="1.00" stroke-linejoin="round"/>
<path d="M109.05,29.23 C106.81,29.85 101.15,34.49 100.43,36.29 C100.06,37.32 100.59,39.05 101.50,39.69 C103.02,40.69 107.28,41.36 108.07,41.21 C108.61,41.11 109.88,40.74 111.88,40.10" fill="none" stroke="rgb(150, 186, 167)" stroke-width="6.00" stroke-opacity="1.00" stroke-linejoin="round"/>
<path d="M117.14,28.57 C115.54,31.68 114.67,36.99 115.05,38.39 C115.35,39.37 116.87,39.82 118.95,39.90 C122.42,39.98 123.42,39.48 124.40,38.61 C124.55,38.47 124.74,38.28 124.97,38.04" fill="none" stroke="rgb(150, 186, 167)" stroke-width="6.00" stroke-opacity="1.00" stroke-linejoin="round"/>
<path d="M128.95,28.25 C128.95,28.25 138.18,30.19 138.18,30.19 C136.47,31.18 132.86,33.65 130.84,35.87 C129.73,37.16 129.66,39.50 130.97,40.45 C131.78,41.00 135.53,41.61 136.06,41.40 C136.28,41.30 136.99,40.93 138.19,40.28" fill="none" stroke="rgb(150, 186, 167)" stroke-width="6.00" stroke-opacity="1.00" stroke-linejoin="round"/>
<path d="M144.39,34.58 C144.39,34.58 145.52,37.00 145.52,37.00 C145.52,37.00 146.29,36.26 146.29,36.26" fill="none" stroke="rgb(150, 186, 167)" stroke-width="6.00" stroke-opacity="1.00" stroke-linejoin="round"/>
<path d="M149.39,33.48 C149.48,33.38 149.60,33.43 149.74,33.63 C150.21,34.28 150.51,35.05 151.06,35.63 C151.29,35.86 151.65,36.02 152.14,36.09" fill="none" stroke="rgb(150, 186, 167)" stroke-width="6.00" stroke-opacity="1.00" stroke-linejoin="round"/>
<path d="M158.97,33.79 C158.97,33.79 161.19,36.24 161.19,36.24 C161.19,36.24 162.07,35.40 162.07,35.40" fill="none" stroke="rgb(150, 186, 167)" stroke-width="6.00" stroke-opacity="1.00" stroke-linejoin="round"/>
<path d="M32.73,81.20 C34.78,79.01 39.66,73.81 41.08,73.16 C41.42,73.02 45.21,77.24 47.05,80.01 C47.05,80.01 45.91,81.32 45.91,81.32" fill="none" stroke="rgb(0, 255, 120)" stroke-width="6.00" stroke-opacity="1.00" stroke-linejoin="round"/>
<path d="M41.59,77.44 C41.59,81.26 41.61,89.41 41.79,91.18 C42.05,93.62 43.64,99.50 44.91,101.49 C46.68,104.19 51.29,108.92 53.31,110.20 C55.24,111.39 59.98,113.85 62.70,114.54 C69.48,116.21 83.86,116.55 91.31,115.40 C102.90,113.57 119.44,106.66 126.54,103.01 C130.32,101.07 132.82,99.53 135.66,96.70 C138.83,93.48 140.93,88.27 141.67,84.56 C141.95,83.08 142.17,81.43 142.40,79.36 C142.40,79.36 141.56,78.83 141.56,78.83" fill="none" stroke="rgb(0, 255, 120)" stroke-width="6.00" stroke-opacity="1.00" stroke-linejoin="round"/>
<path d="M132.16,84.47 C134.71,82.23 142.15,75.87 142.80,75.66 C143.92,75.34 145.58,76.31 146.11,77.40 C147.38,80.28 148.22,82.78 149.00,85.45 C149.00,85.45 146.96,85.70 146.96,85.70" fill="none" stroke="rgb(0, 255, 120)" stroke-width="6.00" stroke-opacity="1.00" stroke-linejoin="round"/>
<path d="M87.59,94.62 C87.59,94.62 83.28,103.24 83.28,103.24" fill="none" stroke="rgb(0, 255, 120)" stroke-width="6.00" stroke-opacity="1.00" stroke-linejoin="round"/>
<path d="M83.95,104.88 C82.42,104.89 79.30,105.02 78.64,104.77 C76.80,104.05 75.56,102.03 75.58,100.04 C75.61,99.19 75.87,96.04 76.32,94.91 C77.27,92.67 81.86,88.62 84.21,87.81 C85.86,87.28 87.43,87.07 89.00,87.19 C90.17,87.32 93.41,88.46 94.20,89.30 C95.08,90.29 95.60,93.29 95.39,94.60 C94.86,97.22 91.93,102.03 90.04,103.91 C88.26,105.63 83.43,108.67 82.20,109.43" fill="none" stroke="rgb(0, 255, 120)" stroke-width="6.00" stroke-opacity="1.00" stroke-linejoin="round"/>
<path d="M64.25,141.37 C64.25,141.37 77.40,132.14 77.40,132.14 C77.40,132.14 82.87,140.44 82.87,140.44 C82.87,140.44 81.12,141.67 81.12,141.67" fill="none" stroke="rgb(0, 255, 204)" stroke-width="6.00" stroke-opacity="1.00" stroke-linejoin="round"/>
<path d="M73.70,138.27 C73.70,138.27 74.24,137.30 74.24,137.30 C73.79,140.45 73.45,145.13 73.64,148.52 C73.90,152.46 75.64,158.26 77.81,161.49 C78.59,162.62 84.17,168.94 85.98,170.63 C88.51,172.97 93.72,175.81 95.92,176.69 C100.20,178.34 120.35,181.84 123.50,182.09 C125.52,182.23 131.49,182.02 134.51,181.70 C137.75,181.33 144.60,179.48 147.54,178.25 C150.57,176.97 157.32,173.12 160.20,170.93 C165.45,166.89 174.65,155.73 176.54,152.33 C178.66,148.46 180.00,143.80 180.34,140.76 C180.34,140.76 178.12,139.91 178.12,139.91" fill="none" stroke="rgb(0, 255, 204)" stroke-width="6.00" stroke-opacity="1.00" stroke-linejoin="round"/>
<path d="M170.30,144.71 C170.30,144.71 180.25,136.40 180.25,136.40 C180.25,136.40 183.18,148.28 183.18,148.28 C183.18,148.28 181.36,147.86 181.36,147.86" fill="none" stroke="rgb(0, 255, 204)" stroke-width="6.00" stroke-opacity="1.00" stroke-linejoin="round"/>
<path d="M122.81,152.24 C122.81,152.24 121.93,150.91 121.93,150.91 C122.54,150.40 128.33,149.94 130.17,151.77 C130.54,152.15 130.79,152.94 130.93,154.16 C129.79,155.90 128.70,156.89 126.81,157.76 C124.93,158.61 124.11,158.95 123.56,159.14 C126.15,160.15 133.73,162.89 133.74,162.90 C133.84,162.98 133.53,163.05 132.79,163.10" fill="none" stroke="rgb(0, 255, 204)" stroke-width="6.00" stroke-opacity="1.00" stroke-linejoin="round"/>
<path d="M126.45,165.59 C123.52,165.19 118.13,162.53 115.52,160.02 C114.39,158.89 113.75,156.44 113.88,154.48 C114.05,152.69 116.09,148.75 117.85,146.99 C119.30,145.58 123.68,142.56 125.02,141.93 C127.06,141.02 129.64,140.61 131.25,141.10 C132.59,141.53 135.46,143.45 136.76,144.68 C138.04,145.97 139.87,148.73 140.31,150.19 C141.12,153.05 140.43,158.02 139.51,160.27 C138.52,162.63 135.75,166.41 132.77,168.53 C131.41,169.46 128.16,168.20 127.26,167.84" fill="none" stroke="rgb(0, 255, 204)" stroke-width="6.00" stroke-opacity="1.00" stroke-linejoin="round"/>
<path d="M106.48,201.78 C110.23,197.03 119.12,189.76 120.07,189.96 C120.07,189.96 124.10,197.42 124.10,197.42 C124.10,197.42 123.62,198.56 123.62,198.56" fill="none" stroke="rgb(0, 224, 255)" stroke-width="6.00" stroke-opacity="1.00" stroke-linejoin="round"/>
<path d="M117.28,194.73 C116.38,197.61 115.48,202.82 115.53,205.97 C115.59,207.66 116.70,210.24 118.19,212.24 C120.20,214.85 123.79,216.93 129.26,219.31 C136.72,222.53 146.69,225.57 153.66,226.12 C158.27,226.46 164.45,226.55 167.04,226.16 C175.04,224.94 181.65,222.67 193.88,217.89 C198.95,215.84 204.16,213.55 206.13,212.29 C207.88,211.15 211.22,208.35 212.09,207.31 C213.35,205.77 216.66,199.71 217.20,198.07 C218.24,194.81 218.57,189.47 218.50,187.13 C218.50,187.13 217.38,187.51 217.38,187.51" fill="none" stroke="rgb(0, 224, 255)" stroke-width="6.00" stroke-opacity="1.00" stroke-linejoin="round"/>
<path d="M208.07,193.58 C212.61,188.82 219.07,188.07 219.68,188.40 C219.68,188.40 220.08,200.77 220.08,200.77 C220.08,200.77 218.60,200.75 218.60,200.75" fill="none" stroke="rgb(0, 224, 255)" stroke-width="6.00" stroke-opacity="1.00" stroke-linejoin="round"/>
<path d="M163.28,196.50 C166.25,196.41 170.87,197.68 171.95,199.32 C172.19,199.69 172.56,200.58 173.07,202.00 C172.29,203.66 168.62,205.10 166.14,205.39 C164.70,205.55 163.42,205.42 163.35,205.20 C167.97,203.12 172.65,207.48 173.23,208.62 C172.60,209.63 171.79,210.19 169.99,210.68 C168.20,211.16 166.77,211.10 165.93,210.54 C165.77,210.43 165.65,210.26 165.58,210.03" fill="none" stroke="rgb(0, 224, 255)" stroke-width="6.00" stroke-opacity="1.00" stroke-linejoin="round"/>
<path d="M168.00,216.65 C166.20,216.87 163.62,217.06 162.54,216.94 C161.31,216.76 159.34,215.42 158.46,214.15 C156.57,211.29 154.22,204.79 153.98,202.37 C153.93,201.68 153.87,199.00 154.04,198.37 C154.58,196.62 156.41,194.35 158.29,193.26 C161.35,191.54 168.46,190.22 171.17,191.01 C172.57,191.46 175.38,193.15 176.70,194.34 C179.34,196.81 182.03,202.51 182.15,204.94 C182.19,207.44 179.96,212.11 177.59,214.69 C175.23,217.17 170.89,219.27 165.85,220.90" fill="none" stroke="rgb(0, 224, 255)" stroke-width="6.00" stroke-opacity="1.00" stroke-linejoin="round"/>
<path d="M32.82,252.11 C33.42,251.15 38.08,246.24 39.15,245.17 C43.27,241.14 46.03,238.83 47.16,239.30 C48.11,239.77 53.10,247.25 53.16,247.93 C53.19,248.27 52.93,248.73 52.38,249.32" fill="none" stroke="rgb(0, 152, 255)" stroke-width="6.00" stroke-opacity="1.00" stroke-linejoin="round"/>
<path d="M44.96,244.58 C44.72,244.38 44.44,245.76 44.29,248.12 C44.17,249.94 44.58,254.45 45.30,256.59 C45.74,257.87 49.62,267.63 51.13,270.02 C52.25,271.77 59.19,280.15 61.05,281.37 C63.97,283.23 78.93,286.18 84.62,286.24 C88.97,286.24 94.37,285.03 99.12,283.18 C105.16,280.78 117.31,273.58 122.20,269.75 C125.02,267.52 130.01,263.17 131.57,261.55 C133.51,259.51 136.65,254.32 137.31,252.39 C138.30,249.42 138.48,246.53 138.46,245.35 C138.33,247.88 137.79,256.36 138.56,258.95 C139.81,262.96 144.00,268.99 145.90,271.35 C147.96,273.87 152.67,278.06 154.80,279.45 C156.92,280.82 163.94,284.20 167.35,285.30 C170.58,286.33 178.66,288.19 182.11,288.37 C185.42,288.51 190.88,287.84 194.19,286.94 C196.49,286.30 214.12,279.94 217.46,277.89 C222.20,274.92 231.32,264.16 233.47,260.71 C235.47,257.45 242.17,242.83 243.87,237.87 C243.87,237.87 242.07,237.84 242.07,237.84" fill="none" stroke="rgb(0, 152, 255)" stroke-width="6.00" stroke-opacity="1.00" stroke-linejoin="round"/>
<path d="M232.90,242.70 C238.02,238.68 242.62,235.90 243.68,237.09 C244.50,238.10 247.53,247.39 248.26,250.52 C248.26,250.52 246.93,251.56 246.93,251.56" fill="none" stroke="rgb(0, 152, 255)" stroke-width="6.00" stroke-opacity="1.00" stroke-linejoin="round"/>
<path d="M164.50,252.96 C164.50,252.96 164.73,253.06 164.73,253.06" fill="none" stroke="rgb(0, 152, 255)" stroke-width="6.00" stroke-opacity="1.00" stroke-linejoin="round"/>
<path d="M134.68,283.56 C132.29,283.70 130.85,284.09 129.24,285.15 C126.66,286.85 122.66,289.17 119.87,290.83 C124.68,292.66 133.05,293.25 134.95,293.32 C134.95,293.32 135.35,292.91 135.35,292.91" fill="none" stroke="rgb(0, 152, 255)" stroke-width="6.00" stroke-opacity="1.00" stroke-linejoin="round"/>
<path d="M136.30,286.90 C131.64,290.39 129.14,294.23 127.67,296.76" fill="none" stroke="rgb(0, 152, 255)" stroke-width="6.00" stroke-opacity="1.00" stroke-linejoin="round"/>
<path d="M127.66,303.83 C126.16,303.50 123.02,302.86 122.46,302.57 C121.40,302.00 120.11,299.79 119.95,298.27 C119.74,295.79 120.66,287.78 121.41,286.05 C122.35,283.97 127.74,279.33 130.12,278.63 C131.72,278.19 134.93,278.91 136.72,279.93 C138.26,280.87 140.82,283.18 141.73,284.45 C143.34,286.83 144.51,293.18 143.91,296.32 C143.16,299.85 139.67,305.12 137.19,307.08 C134.45,309.17 129.42,310.29 127.12,310.70" fill="none" stroke="rgb(0, 152, 255)" stroke-width="6.00" stroke-opacity="1.00" stroke-linejoin="round"/>
<path d="M129.69,252.78 C130.79,249.78 133.24,246.70 137.59,243.46 C139.21,242.28 141.99,240.26 143.15,239.43 C143.15,239.43 150.34,253.45 150.34,253.45 C150.34,253.45 149.52,253.99 149.52,253.99" fill="none" stroke="rgb(0, 152, 255)" stroke-width="6.00" stroke-opacity="1.00" stroke-linejoin="round"/>
<path d="M316.84,227.39 C316.84,227.39 320.62,231.73 320.62,231.73 C320.34,231.81 320.14,231.85 320.04,231.86 C319.94,231.87 319.80,231.87 319.60,231.86" fill="none" stroke="rgb(157, 191, 173)" stroke-width="6.00" stroke-opacity="1.00" stroke-linejoin="round"/>
<path d="M324.76,225.42 C325.64,226.76 326.14,227.66 326.27,228.11 C326.58,229.23 325.60,231.09 324.49,232.45" fill="none" stroke="rgb(157, 191, 173)" stroke-width="6.00" stroke-opacity="1.00" stroke-linejoin="round"/>
<path d="M319.69,240.10 C320.78,238.60 322.09,237.07 323.19,236.34 C325.20,235.01 327.27,234.36 328.02,234.65 C328.02,234.65 327.60,235.72 327.60,235.72" fill="none" stroke="rgb(157, 191, 173)" stroke-width="6.00" stroke-opacity="1.00" stroke-linejoin="round"/>
<path d="M329.11,236.14 C329.11,236.14 335.88,235.98 335.88,235.98 C335.88,235.98 335.64,235.71 335.64,235.71" fill="none" stroke="rgb(157, 191, 173)" stroke-width="6.00" stroke-opacity="1.00" stroke-linejoin="round"/>
<path d="M333.02,237.22 C333.02,237.22 333.38,239.63 333.38,239.63 C333.38,239.63 333.09,239.87 333.09,239.87" fill="none" stroke="rgb(157, 191, 173)" stroke-width="6.00" stroke-opacity="1.00" stroke-linejoin="round"/>
<path d="M327.51,241.42 C327.51,241.42 337.64,241.14 337.64,241.14 C337.64,241.14 336.68,240.52 336.68,240.52" fill="none" stroke="rgb(157, 191, 173)" stroke-width="6.00" stroke-opacity="1.00" stroke-linejoin="round"/>
<path d="M340.93,230.54 C340.93,230.54 337.31,238.55 337.31,238.55 C337.31,238.55 337.11,237.96 337.11,237.96" fill="none" stroke="rgb(157, 191, 173)" stroke-width="6.00" stroke-opacity="1.00" stroke-linejoin="round"/>
<path d="M342.80,231.18 C342.80,231.18 344.09,241.29 344.09,241.29 C345.15,241.53 348.64,237.84 349.31,236.72 C349.45,236.49 349.56,236.21 349.64,235.89" fill="none" stroke="rgb(157, 191, 173)" stroke-width="6.00" stroke-opacity="1.00" stroke-linejoin="round"/>
<path d="M350.53,231.50 C351.58,232.94 352.84,234.42 353.50,234.91 C353.69,235.04 353.92,235.13 354.21,235.17 C354.21,235.17 354.44,234.84 354.44,234.84" fill="none" stroke="rgb(157, 191, 173)" stroke-width="6.00" stroke-opacity="1.00" stroke-linejoin="round"/>
<path d="M361.73,229.42 C359.94,232.15 355.26,239.28 354.92,240.37 C354.85,240.58 355.05,240.51 355.52,240.16" fill="none" stroke="rgb(157, 191, 173)" stroke-width="6.00" stroke-opacity="1.00" stroke-linejoin="round"/>
<path d="M362.71,236.94 C365.11,236.97 369.58,237.96 369.92,238.03 C370.05,238.05 370.28,238.06 370.60,238.07" fill="none" stroke="rgb(157, 191, 173)" stroke-width="6.00" stroke-opacity="1.00" stroke-linejoin="round"/>
<path d="M376.40,228.46 C376.40,228.46 376.04,239.52 376.04,239.52 C376.04,239.52 376.49,237.92 376.49,237.92" fill="none" stroke="rgb(157, 191, 173)" stroke-width="6.00" stroke-opacity="1.00" stroke-linejoin="round"/>
<path d="M377.20,233.34 C378.24,233.91 381.12,235.47 381.88,235.80 C383.36,236.44 385.59,237.13 386.17,237.21 C386.17,237.21 386.00,237.22 386.00,237.22" fill="none" stroke="rgb(157, 191, 173)" stroke-width="6.00" stroke-opacity="1.00" stroke-linejoin="round"/>
<path d="M325.20,258.62 C323.85,260.29 322.99,261.76 322.70,263.22 C322.15,266.03 322.36,272.53 323.18,274.86 C323.80,276.59 324.93,278.71 325.47,279.38 C325.47,279.38 326.36,278.66 326.36,278.66" fill="none" stroke="rgb(157, 191, 173)" stroke-width="6.00" stroke-opacity="1.00" stroke-linejoin="round"/>
<path d="M327.24,264.82 C327.24,264.82 326.89,264.10 326.89,264.10 C326.89,264.10 328.55,269.04 328.55,269.04 C328.55,269.04 328.31,268.94 328.31,268.94" fill="none" stroke="rgb(157, 191, 173)" stroke-width="6.00" stroke-opacity="1.00" stroke-linejoin="round"/>
<path d="M327.16,264.94 C327.16,264.94 333.86,263.00 333.86,263.00 C334.98,264.49 333.82,266.80 333.28,267.19 C333.16,267.27 332.96,267.36 332.67,267.46" fill="none" stroke="rgb(157, 191, 173)" stroke-width="6.00" stroke-opacity="1.00" stroke-linejoin="round"/>
<path d="M329.64,268.54 C329.64,268.54 334.67,268.24 334.67,268.24 C334.67,268.24 334.70,268.42 334.70,268.42" fill="none" stroke="rgb(157, 191, 173)" stroke-width="6.00" stroke-opacity="1.00" stroke-linejoin="round"/>
<path d="M332.04,260.86 C331.63,264.83 331.43,270.23 331.86,273.14 C331.92,273.60 332.05,274.10 332.23,274.67 C332.23,274.67 331.07,275.34 331.07,275.34" fill="none" stroke="rgb(157, 191, 173)" stroke-width="6.00" stroke-opacity="1.00" stroke-linejoin="round"/>
<path d="M328.04,277.06 C328.12,276.70 328.82,276.35 330.57,275.94 C333.19,275.32 334.60,274.87 335.28,274.40 C335.40,274.31 335.41,274.24 335.31,274.18" fill="none" stroke="rgb(157, 191, 173)" stroke-width="6.00" stroke-opacity="1.00" stroke-linejoin="round"/>
<path d="M335.78,270.74 C335.78,270.74 337.89,277.00 337.89,277.00 C337.89,277.00 338.39,275.86 338.39,275.86" fill="none" stroke="rgb(157, 191, 173)" stroke-width="6.00" stroke-opacity="1.00" stroke-linejoin="round"/>
<path d="M338.80,256.26 C338.80,256.26 338.80,262.54 338.80,262.54" fill="none" stroke="rgb(157, 191, 173)" stroke-width="6.00" stroke-opacity="1.00" stroke-linejoin="round"/>
<path d="M338.27,258.82 C342.66,257.11 346.07,257.49 347.39,258.09 C347.39,258.09 346.75,264.11 346.75,264.11 C346.75,264.11 346.18,264.30 346.18,264.30" fill="none" stroke="rgb(157, 191, 173)" stroke-width="6.00" stroke-opacity="1.00" stroke-linejoin="round"/>
<path d="M343.78,258.94 C343.78,258.94 342.62,263.76 342.62,263.76 C342.62,263.76 341.71,263.94 341.71,263.94" fill="none" stroke="rgb(157, 191, 173)" stroke-width="6.00" stroke-opacity="1.00" stroke-linejoin="round"/>
<path d="M339.42,262.46 C339.42,262.46 344.67,263.09 344.67,263.09 C344.67,263.09 344.64,263.81 344.64,263.81" fill="none" stroke="rgb(157, 191, 173)" stroke-width="6.00" stroke-opacity="1.00" stroke-linejoin="round"/>
<path d="M337.20,266.98 C338.09,266.77 340.54,266.20 341.22,266.13 C343.11,265.93 344.69,266.16 345.16,266.57 C345.16,266.57 344.80,266.98 344.80,266.98" fill="none" stroke="rgb(157, 191, 173)" stroke-width="6.00" stroke-opacity="1.00" stroke-linejoin="round"/>
<path d="M342.80,265.78 C342.80,265.78 338.55,269.23 338.55,269.23 C338.55,269.23 344.23,269.64 344.23,269.64 C344.23,269.64 340.47,271.59 340.47,271.59 C341.14,272.04 342.37,272.14 343.87,271.77 C344.20,271.69 344.67,271.54 345.29,271.30" fill="none" stroke="rgb(157, 191, 173)" stroke-width="6.00" stroke-opacity="1.00" stroke-linejoin="round"/>
<path d="M345.29,269.26 C345.75,270.50 346.15,271.06 346.18,271.24 C346.19,271.32 346.18,271.55 346.13,271.93" fill="none" stroke="rgb(157, 191, 173)" stroke-width="6.00" stroke-opacity="1.00" stroke-linejoin="round"/>
<path d="M342.44,271.78 C344.00,275.16 344.82,277.45 344.71,277.54 C344.70,277.55 344.52,277.10 344.19,276.18" fill="none" stroke="rgb(157, 191, 173)" stroke-width="6.00" stroke-opacity="1.00" stroke-linejoin="round"/>
<path d="M342.53,273.90 C342.53,273.90 335.99,278.80 335.99,278.80 C336.63,278.44 337.05,278.19 337.26,278.06 C337.46,277.94 337.72,277.74 338.04,277.47" fill="none" stroke="rgb(157, 191, 173)" stroke-width="6.00" stroke-opacity="1.00" stroke-linejoin="round"/>
<path d="M345.82,273.50 C347.68,275.20 348.99,276.15 349.88,276.28 C350.14,276.32 351.25,276.29 351.37,276.30" fill="none" stroke="rgb(157, 191, 173)" stroke-width="6.00" stroke-opacity="1.00" stroke-linejoin="round"/>
<path d="M356.58,256.82 C356.58,256.82 356.58,263.70 356.58,263.70 C356.49,263.59 356.44,263.51 356.40,263.47 C356.36,263.43 356.30,263.37 356.22,263.30" fill="none" stroke="rgb(157, 191, 173)" stroke-width="6.00" stroke-opacity="1.00" stroke-linejoin="round"/>
<path d="M352.47,263.74 C352.47,263.74 361.75,263.33 361.75,263.33 C361.75,263.33 361.64,264.11 361.64,264.11 C361.64,264.11 360.67,264.84 360.67,264.84" fill="none" stroke="rgb(157, 191, 173)" stroke-width="6.00" stroke-opacity="1.00" stroke-linejoin="round"/>
<path d="M354.53,268.90 C354.53,268.90 360.04,269.22 360.04,269.22 C360.29,269.18 363.66,271.67 357.62,276.78 C357.62,276.78 356.22,274.94 356.22,274.94" fill="none" stroke="rgb(157, 191, 173)" stroke-width="6.00" stroke-opacity="1.00" stroke-linejoin="round"/>
<path d="M356.04,265.22 C356.04,265.22 356.04,264.31 356.04,264.31 C356.17,266.28 354.37,272.53 353.06,274.88 C352.91,275.13 352.73,275.33 352.52,275.50 C352.48,275.52 352.44,275.53 352.40,275.54" fill="none" stroke="rgb(157, 191, 173)" stroke-width="6.00" stroke-opacity="1.00" stroke-linejoin="round"/>
<path d="M366.89,256.02 C366.89,256.02 361.68,265.48 361.68,265.48 C361.68,265.48 361.38,264.87 361.38,264.87" fill="none" stroke="rgb(157, 191, 173)" stroke-width="6.00" stroke-opacity="1.00" stroke-linejoin="round"/>
<path d="M362.44,261.82 C369.93,260.68 374.08,260.92 374.54,261.82 C374.54,261.82 371.88,266.78 371.88,266.78 C371.88,266.78 372.40,266.50 372.40,266.50" fill="none" stroke="rgb(157, 191, 173)" stroke-width="6.00" stroke-opacity="1.00" stroke-linejoin="round"/>
<path d="M362.18,266.58 C362.93,266.14 365.40,265.64 367.23,265.71 C370.04,265.84 370.74,267.93 370.70,268.66 C370.16,269.29 369.38,269.85 368.27,270.38 C368.11,270.45 368.04,270.48 368.04,270.46" fill="none" stroke="rgb(157, 191, 173)" stroke-width="6.00" stroke-opacity="1.00" stroke-linejoin="round"/>
<path d="M368.04,263.82 C368.04,263.82 367.05,269.85 367.05,269.85 C367.05,269.85 365.61,268.99 365.61,268.99" fill="none" stroke="rgb(157, 191, 173)" stroke-width="6.00" stroke-opacity="1.00" stroke-linejoin="round"/>
<path d="M365.29,263.10 C363.54,269.93 364.21,273.93 364.65,274.53 C364.65,274.53 376.14,274.57 376.14,274.57 C376.14,274.57 375.33,273.98 375.33,273.98" fill="none" stroke="rgb(157, 191, 173)" stroke-width="6.00" stroke-opacity="1.00" stroke-linejoin="round"/>
<path d="M380.40,261.22 C380.40,261.22 390.84,259.96 390.84,259.96 C390.84,259.96 389.56,260.46 389.56,260.46" fill="none" stroke="rgb(157, 191, 173)" stroke-width="6.00" stroke-opacity="1.00" stroke-linejoin="round"/>
<path d="M385.91,256.54 C385.91,256.54 385.90,274.18 385.90,274.18 C385.90,274.18 385.02,272.46 385.02,272.46" fill="none" stroke="rgb(157, 191, 173)" stroke-width="6.00" stroke-opacity="1.00" stroke-linejoin="round"/>
<path d="M385.20,261.22 C385.20,261.22 377.22,270.26 377.22,270.26 C377.15,270.03 377.12,269.88 377.11,269.79 C377.11,269.71 377.12,269.58 377.15,269.41" fill="none" stroke="rgb(157, 191, 173)" stroke-width="6.00" stroke-opacity="1.00" stroke-linejoin="round"/>
<path d="M385.82,264.06 C385.82,264.06 391.10,266.59 391.10,266.59 C391.10,266.59 391.34,267.34 391.34,267.34" fill="none" stroke="rgb(157, 191, 173)" stroke-width="6.00" stroke-opacity="1.00" stroke-linejoin="round"/>
<path d="M381.73,269.54 C383.69,269.73 387.12,270.08 388.61,270.24 C389.19,270.31 389.86,270.34 389.86,270.34 C389.86,270.34 389.91,270.10 389.91,270.10" fill="none" stroke="rgb(157, 191, 173)" stroke-width="6.00" stroke-opacity="1.00" stroke-linejoin="round"/>
<path d="M395.96,261.62 C395.96,261.62 408.10,261.62 408.10,261.62 C408.10,261.62 406.44,261.62 406.44,261.62" fill="none" stroke="rgb(157, 191, 173)" stroke-width="6.00" stroke-opacity="1.00" stroke-linejoin="round"/>
<path d="M392.49,267.18 C392.49,267.18 400.88,267.13 400.88,267.13 C400.88,267.13 399.58,267.46 399.58,267.46" fill="none" stroke="rgb(157, 191, 173)" stroke-width="6.00" stroke-opacity="1.00" stroke-linejoin="round"/>
<path d="M396.93,268.02 C396.87,268.77 396.49,271.79 396.28,272.41 C396.15,272.76 395.90,272.99 395.52,273.10" fill="none" stroke="rgb(157, 191, 173)" stroke-width="6.00" stroke-opacity="1.00" stroke-linejoin="round"/>
<path d="M390.89,273.58 C392.15,273.43 394.30,273.23 395.54,273.17 C396.78,273.11 400.50,273.06 401.89,273.05 C401.89,273.05 402.18,272.42 402.18,272.42" fill="none" stroke="rgb(157, 191, 173)" stroke-width="6.00" stroke-opacity="1.00" stroke-linejoin="round"/>
<path d="M404.22,255.98 C404.16,258.24 403.97,266.22 404.01,267.52 C404.13,270.54 405.88,274.70 407.44,275.87 C408.99,276.97 410.61,276.65 410.81,276.28 C410.88,276.12 411.00,275.72 411.16,275.06" fill="none" stroke="rgb(157, 191, 173)" stroke-width="6.00" stroke-opacity="1.00" stroke-linejoin="round"/>
<path d="M408.58,253.82 C408.58,253.82 412.46,258.07 412.46,258.07" fill="none" stroke="rgb(157, 191, 173)" stroke-width="6.00" stroke-opacity="1.00" stroke-linejoin="round"/>
<path d="M421.64,258.30 C423.71,262.51 425.10,266.21 425.02,269.04 C424.88,271.80 422.21,275.76 420.70,276.64 C419.65,277.22 418.73,276.81 418.62,276.70 C418.62,276.70 418.62,276.06 418.62,276.06" fill="none" stroke="rgb(157, 191, 173)" stroke-width="6.00" stroke-opacity="1.00" stroke-linejoin="round"/>
</g>
</svg>
