<?xml version="1.0" encoding="UTF-8" standalone="no"?>
<!DOCTYPE svg PUBLIC "-//W3C//DTD SVG 1.1//EN" "http://www.w3.org/Graphics/SVG/1.1/DTD/svg11.dtd">
<svg width="1600.00" height="1200.00" viewBox="0.00 0.00 1600.00 1200.00" xmlns="http://www.w3.org/2000/svg" xmlns:xlink="http://www.w3.org/1999/xlink">
<g stroke-linecap="round" id="ノルム">
<path d="M106.48,106.78 L106.48,1143.26" fill="none" stroke="rgb(0, 0, 0)" stroke-width="6.00" stroke-opacity="1.00" stroke-linejoin="round"/>
<path d="M62.76,1042.38 L1501.22,1042.38" fill="none" stroke="rgb(0, 0, 0)" stroke-width="6.00" stroke-opacity="1.00" stroke-linejoin="round"/>
<path d="M112.18,1036.51 L1143.43,1036.51" fill="none" stroke="rgb(0, 49, 255)" stroke-width="6.00" stroke-opacity="1.00" stroke-linejoin="round"/>
<path d="M1143.91,1036.99 L1143.91,322.99" fill="none" stroke="rgb(26, 171, 0)" stroke-width="6.00" stroke-opacity="1.00" stroke-linejoin="round"/>
<path d="M1142.64,324.41 L109.97,1030.97" fill="none" stroke="rgb(255, 148, 0)" stroke-width="6.00" stroke-opacity="1.00" stroke-linejoin="round"/>
<path d="M1126.00,1082.76 C1126.00,1082.76 1121.62,1079.75 1121.62,1079.75 C1123.80,1079.79 1129.45,1082.60 1131.47,1084.47 C1134.00,1086.85 1136.40,1092.47 1136.89,1095.02 C1137.33,1097.45 1137.26,1104.31 1136.11,1107.14 C1135.01,1109.76 1130.81,1114.69 1128.83,1116.71 C1125.77,1119.77 1121.19,1122.26 1115.94,1124.17 C1115.14,1124.46 1114.34,1124.75 1113.54,1125.04 C1113.54,1125.04 1112.07,1122.83 1112.07,1122.83" fill="none" stroke="rgb(255, 255, 255)" stroke-width="7.00" stroke-opacity="1.00" stroke-linejoin="round"/>
<path d="M1118.99,1078.01 C1118.99,1078.01 1120.14,1078.01 1120.14,1078.01 C1120.14,1078.01 1118.89,1078.01 1118.89,1078.01 C1118.83,1077.99 1125.64,1081.80 1127.35,1084.62 C1129.15,1087.72 1130.28,1094.45 1129.52,1097.37 C1128.63,1100.52 1126.05,1105.52 1123.41,1109.26 C1121.35,1112.14 1117.76,1116.02 1115.50,1117.50 C1114.28,1118.30 1110.25,1120.41 1109.11,1121.00 C1107.10,1122.02 1106.05,1122.12 1104.68,1121.63 C1104.68,1121.63 1107.80,1116.82 1107.80,1116.82" fill="none" stroke="rgb(62, 99, 255)" stroke-width="7.00" stroke-opacity="1.00" stroke-linejoin="round"/>
<path d="M1147.23,1081.49 C1147.23,1081.49 1147.23,1080.86 1147.23,1080.86 C1146.23,1080.30 1145.14,1079.93 1144.09,1079.94 C1142.73,1080.01 1140.23,1081.04 1138.77,1082.30 C1135.83,1084.92 1131.92,1092.52 1130.78,1095.65 C1129.93,1098.05 1128.77,1104.31 1129.01,1106.72 C1129.18,1108.17 1130.24,1110.53 1131.26,1111.62 C1134.86,1115.31 1145.72,1118.93 1153.13,1120.67 C1153.13,1120.67 1154.99,1118.24 1154.99,1118.24" fill="none" stroke="rgb(62, 99, 255)" stroke-width="7.00" stroke-opacity="1.00" stroke-linejoin="round"/>
<path d="M58.33,288.46 C58.33,288.46 58.12,285.16 58.12,285.16 C57.12,284.59 55.26,284.35 53.95,284.89 C52.69,285.42 46.92,291.58 45.15,294.16 C44.38,295.32 44.26,297.13 44.81,298.04 C44.96,298.27 52.77,302.35 54.49,304.01 C55.83,305.35 57.52,308.62 57.93,310.54 C58.61,314.10 58.29,322.58 57.57,326.11 C56.84,329.52 54.49,336.47 53.22,339.10 C51.47,342.65 46.33,350.10 44.85,351.49 C43.09,353.07 39.65,355.19 38.26,355.23 C37.70,355.24 36.40,355.09 34.35,354.78 C34.06,352.07 34.46,350.59 36.32,348.87 C40.62,344.84 43.17,342.76 45.72,341.24 C46.47,340.80 49.34,338.90 50.41,338.19" fill="none" stroke="rgb(255, 255, 255)" stroke-width="7.00" stroke-opacity="1.00" stroke-linejoin="round"/>
<path d="M28.51,265.33 C28.51,265.33 29.02,265.11 29.02,265.11 C31.51,268.41 33.71,271.87 34.74,275.70 C35.29,277.89 35.73,281.70 35.57,283.43 C35.24,286.46 31.58,292.69 29.45,295.42 C24.57,301.61 19.56,306.17 18.31,307.22 C18.44,306.28 18.54,305.62 18.62,305.24 C18.69,304.86 18.83,304.23 19.05,303.34" fill="none" stroke="rgb(26, 171, 0)" stroke-width="5.00" stroke-opacity="1.00" stroke-linejoin="round"/>
<path d="M48.51,267.07 C48.51,267.07 48.51,265.41 48.51,265.41 C47.99,265.97 44.44,271.13 42.38,274.12 C40.25,277.30 37.73,282.09 37.24,284.21 C36.81,286.20 36.45,290.39 36.65,291.95 C36.99,294.34 41.18,300.71 43.43,302.73 C44.80,303.92 48.33,306.04 49.47,306.29 C50.48,306.48 52.89,305.54 53.47,305.26 C53.84,305.08 54.56,304.75 55.63,304.30" fill="none" stroke="rgb(26, 171, 0)" stroke-width="5.00" stroke-opacity="1.00" stroke-linejoin="round"/>
<path d="M64.98,299.38 C64.98,299.38 64.70,299.38 64.70,299.38 C66.02,298.51 67.86,298.13 69.31,298.91 C69.90,299.23 73.43,302.15 73.64,302.44 C74.74,304.09 75.33,310.68 74.61,312.98 C73.11,317.47 65.46,323.31 61.27,326.30 C68.46,326.57 77.95,326.93 78.57,326.98 C79.13,327.03 80.35,327.18 82.24,327.42" fill="none" stroke="rgb(26, 171, 0)" stroke-width="5.00" stroke-opacity="1.00" stroke-linejoin="round"/>
<path d="M1165.29,1104.61 C1165.29,1104.61 1164.81,1103.19 1164.81,1103.19 C1164.81,1103.19 1164.85,1132.11 1164.85,1132.11 C1164.85,1132.11 1167.98,1123.94 1167.98,1123.94" fill="none" stroke="rgb(62, 99, 255)" stroke-width="5.00" stroke-opacity="1.00" stroke-linejoin="round"/>
<path d="M185.19,209.11 C185.71,209.15 196.08,188.47 198.01,184.92 C203.13,175.54 205.41,173.20 206.33,172.58 C206.33,172.58 222.06,211.93 222.06,211.93 C222.06,211.93 220.52,206.89 220.52,206.89" fill="none" stroke="rgb(255, 148, 0)" stroke-width="5.00" stroke-opacity="1.00" stroke-linejoin="round"/>
<path d="M219.88,163.33 C219.88,163.33 220.23,162.52 220.23,162.52 C221.01,163.76 222.96,166.84 224.12,168.68 C225.52,170.90 226.23,171.52 227.10,171.54 C227.10,171.54 221.35,163.95 221.35,163.95" fill="none" stroke="rgb(255, 148, 0)" stroke-width="5.00" stroke-opacity="1.00" stroke-linejoin="round"/>
<path d="M219.88,162.22 C219.88,162.22 231.76,162.49 231.76,162.49 C231.76,162.49 235.72,167.92 235.72,167.92" fill="none" stroke="rgb(255, 148, 0)" stroke-width="5.00" stroke-opacity="1.00" stroke-linejoin="round"/>
<path d="M239.68,179.17 C239.68,179.17 239.68,178.38 239.68,178.38 C239.68,178.38 237.86,191.42 237.86,191.42 C237.86,191.42 237.62,185.82 237.62,185.82" fill="none" stroke="rgb(255, 148, 0)" stroke-width="5.00" stroke-opacity="1.00" stroke-linejoin="round"/>
<path d="M239.68,178.38 C239.68,178.38 257.02,176.00 257.02,176.00 C258.40,177.01 259.88,179.24 260.19,181.22 C260.43,182.88 247.94,220.21 247.22,223.60 C247.22,223.60 246.97,219.56 246.97,219.56" fill="none" stroke="rgb(255, 148, 0)" stroke-width="5.00" stroke-opacity="1.00" stroke-linejoin="round"/>
<path d="M275.47,169.19 C275.67,176.29 276.02,192.45 276.19,201.51 C276.22,211.08 275.15,216.98 274.99,217.95 C274.99,217.95 274.84,212.07 274.84,212.07" fill="none" stroke="rgb(255, 148, 0)" stroke-width="5.00" stroke-opacity="1.00" stroke-linejoin="round"/>
<path d="M270.25,193.43 C270.25,193.43 269.77,192.47 269.77,192.47 C281.12,195.06 288.36,197.51 294.43,200.60 C294.43,200.60 294.48,198.65 294.48,198.65" fill="none" stroke="rgb(255, 148, 0)" stroke-width="5.00" stroke-opacity="1.00" stroke-linejoin="round"/>
<path d="M310.17,175.37 C310.17,175.37 310.64,175.05 310.64,175.05 C310.58,183.43 309.42,193.28 307.42,202.37 C305.75,209.56 303.83,217.81 303.58,218.87 C303.58,218.87 303.35,215.92 303.35,215.92" fill="none" stroke="rgb(255, 148, 0)" stroke-width="5.00" stroke-opacity="1.00" stroke-linejoin="round"/>
<path d="M323.79,176.16 C323.79,176.16 323.94,176.01 323.94,176.01 C323.92,183.04 323.82,198.38 323.75,206.69 C323.65,211.11 323.76,215.94 325.04,218.65 C325.25,219.08 325.62,219.65 326.15,220.35 C331.33,219.09 337.94,216.48 340.11,214.01 C341.03,212.93 342.36,210.46 343.11,208.79" fill="none" stroke="rgb(255, 148, 0)" stroke-width="5.00" stroke-opacity="1.00" stroke-linejoin="round"/>
<path d="M355.62,178.22 C355.62,178.22 352.93,175.37 352.93,175.37 C357.06,179.08 360.77,183.11 362.29,186.35 C363.05,188.07 364.32,192.30 364.50,193.96 C364.82,197.25 362.97,204.02 361.53,206.72 C357.35,214.33 351.76,219.32 350.11,220.40 C350.11,220.40 351.34,215.76 351.34,215.76" fill="none" stroke="rgb(255, 148, 0)" stroke-width="5.00" stroke-opacity="1.00" stroke-linejoin="round"/>
<path d="M386.19,172.68 C384.07,173.75 382.26,174.95 380.91,176.38 C378.14,179.37 375.20,185.50 374.05,188.71 C373.13,191.33 371.56,197.69 371.29,201.26 C371.07,204.54 372.15,211.64 372.63,212.48 C373.53,214.00 380.54,219.21 382.36,220.16 C384.28,221.13 387.37,222.05 388.68,221.99 C389.69,221.91 391.92,221.08 392.64,220.63 C392.84,220.50 393.17,220.25 393.63,219.88" fill="none" stroke="rgb(255, 148, 0)" stroke-width="5.00" stroke-opacity="1.00" stroke-linejoin="round"/>
<path d="M434.50,190.57 C434.50,190.57 434.18,189.27 434.18,189.27 C433.45,192.02 431.56,198.99 430.29,202.05 C428.93,205.26 424.92,211.66 423.85,212.76 C422.67,213.97 421.00,215.11 420.05,215.48 C418.51,213.48 417.81,211.95 417.61,209.72 C417.22,204.84 418.08,198.99 419.96,195.74 C422.14,192.10 426.28,187.70 429.68,185.35 C431.25,184.30 433.42,183.40 434.71,183.27 C436.30,183.15 440.71,185.02 442.42,187.23 C444.37,189.84 446.58,195.86 447.16,199.48 C448.14,205.94 447.67,214.30 447.87,214.83 C448.01,215.18 448.46,215.86 449.23,216.87" fill="none" stroke="rgb(255, 148, 0)" stroke-width="5.00" stroke-opacity="1.00" stroke-linejoin="round"/>
<path d="M484.70,160.32 C484.70,160.32 484.54,199.75 484.54,199.75 C484.54,199.75 485.39,189.37 485.39,189.37" fill="none" stroke="rgb(255, 148, 0)" stroke-width="5.00" stroke-opacity="1.00" stroke-linejoin="round"/>
<path d="M485.66,161.59 C485.66,161.59 485.66,161.12 485.66,161.12 C485.66,161.12 502.78,165.87 502.78,165.87 C502.78,165.87 500.22,168.24 500.22,168.24" fill="none" stroke="rgb(255, 148, 0)" stroke-width="5.00" stroke-opacity="1.00" stroke-linejoin="round"/>
<path d="M477.53,173.47 C477.53,173.47 499.81,177.10 499.81,177.10 C499.81,177.10 496.26,177.43 496.26,177.43" fill="none" stroke="rgb(255, 148, 0)" stroke-width="5.00" stroke-opacity="1.00" stroke-linejoin="round"/>
<path d="M487.87,179.97 C487.87,179.97 486.92,180.28 486.92,180.28 C486.92,180.28 499.11,182.68 499.11,182.68 C499.11,182.68 498.84,184.68 498.84,184.68" fill="none" stroke="rgb(255, 148, 0)" stroke-width="5.00" stroke-opacity="1.00" stroke-linejoin="round"/>
<path d="M465.54,192.31 C465.54,192.31 464.21,191.80 464.21,191.80 C464.21,191.80 502.55,196.98 502.55,196.98 C502.55,196.98 499.75,199.92 499.75,199.92" fill="none" stroke="rgb(255, 148, 0)" stroke-width="5.00" stroke-opacity="1.00" stroke-linejoin="round"/>
<path d="M479.47,192.16 C479.68,195.15 480.19,202.73 480.50,207.33 C480.80,211.22 481.27,218.01 482.11,218.75 C482.11,218.75 486.65,214.69 486.65,214.69" fill="none" stroke="rgb(255, 148, 0)" stroke-width="5.00" stroke-opacity="1.00" stroke-linejoin="round"/>
<path d="M513.68,193.43 C513.68,193.43 514.48,192.79 514.48,192.79 C506.81,198.69 500.64,202.83 498.08,204.32 C497.44,204.83 498.09,206.09 499.29,207.25 C505.92,213.34 511.62,216.05 512.98,216.49 C512.98,216.49 516.70,212.75 516.70,212.75" fill="none" stroke="rgb(255, 148, 0)" stroke-width="5.00" stroke-opacity="1.00" stroke-linejoin="round"/>
<path d="M525.41,184.71 C525.41,184.71 522.92,184.55 522.92,184.55 C533.19,188.44 539.57,190.33 540.63,190.06 C540.84,190.00 541.25,189.81 541.88,189.47" fill="none" stroke="rgb(255, 148, 0)" stroke-width="5.00" stroke-opacity="1.00" stroke-linejoin="round"/>
<path d="M533.80,178.06 C534.12,185.11 534.56,198.17 534.40,199.60 C534.18,201.25 532.31,203.34 530.24,204.33 C529.68,204.59 528.67,204.91 527.22,205.30" fill="none" stroke="rgb(255, 148, 0)" stroke-width="5.00" stroke-opacity="1.00" stroke-linejoin="round"/>
<path d="M517.80,207.20 C520.46,209.71 525.80,213.02 530.60,214.93 C534.37,216.36 544.09,216.24 545.61,215.96 C546.07,215.87 546.57,215.58 547.08,215.08" fill="none" stroke="rgb(255, 148, 0)" stroke-width="5.00" stroke-opacity="1.00" stroke-linejoin="round"/>
<path d="M609.67,163.65 C609.67,163.65 609.67,162.22 609.67,162.22 C609.67,162.22 608.59,161.53 608.59,161.53 C606.64,162.64 603.13,166.46 600.07,170.59 C598.03,173.43 593.77,180.04 592.38,183.13 C591.39,185.37 589.28,192.68 588.77,195.50 C588.28,198.35 588.58,203.75 589.09,206.35 C589.71,209.30 591.61,214.17 593.69,216.97 C594.72,218.33 599.89,224.35 601.06,224.49 C601.81,224.56 603.81,224.27 605.23,224.00" fill="none" stroke="rgb(255, 148, 0)" stroke-width="5.00" stroke-opacity="1.00" stroke-linejoin="round"/>
<path d="M634.54,181.39 C634.61,181.27 634.66,181.20 634.69,181.15 C634.73,181.10 634.79,181.02 634.89,180.91 C635.60,185.17 635.69,188.73 634.81,192.72 C633.89,196.66 631.59,203.61 630.17,206.43 C627.56,211.52 619.24,220.05 616.11,222.95 C616.11,222.95 622.34,215.60 622.34,215.60" fill="none" stroke="rgb(255, 148, 0)" stroke-width="5.00" stroke-opacity="1.00" stroke-linejoin="round"/>
<path d="M663.21,184.87 C663.28,184.83 665.56,187.77 665.54,197.17 C665.50,201.25 665.11,206.01 663.96,209.16 C660.92,217.30 655.37,226.37 653.39,228.41 C653.39,228.41 658.14,221.78 658.14,221.78" fill="none" stroke="rgb(255, 148, 0)" stroke-width="5.00" stroke-opacity="1.00" stroke-linejoin="round"/>
<path d="M679.52,185.19 C679.52,185.19 679.67,184.24 679.67,184.24 C679.69,185.05 679.62,185.83 679.33,188.07 C678.32,196.17 676.20,214.05 676.67,218.14 C676.83,219.52 677.23,221.43 677.54,222.50 C679.28,222.70 682.79,221.20 686.66,218.55 C687.58,217.91 691.04,215.33 691.76,214.60 C693.40,212.95 695.04,210.72 695.68,209.42" fill="none" stroke="rgb(255, 148, 0)" stroke-width="5.00" stroke-opacity="1.00" stroke-linejoin="round"/>
<path d="M714.84,185.82 C714.84,185.82 715.63,186.61 715.63,186.61 C715.63,186.61 715.78,186.46 715.78,186.46 C715.78,186.46 704.25,216.05 704.25,216.05 C719.83,214.51 724.77,214.06 725.67,213.52 C725.91,213.38 728.33,211.21 729.73,210.06" fill="none" stroke="rgb(255, 148, 0)" stroke-width="5.00" stroke-opacity="1.00" stroke-linejoin="round"/>
<path d="M727.83,199.13 C727.83,199.13 727.50,198.17 727.50,198.17 C728.12,203.02 729.13,207.02 731.10,210.99 C732.51,213.79 736.20,220.17 737.57,222.53 C737.65,221.67 737.72,220.81 737.80,219.94 C737.84,219.48 737.89,218.77 737.96,217.82" fill="none" stroke="rgb(255, 148, 0)" stroke-width="5.00" stroke-opacity="1.00" stroke-linejoin="round"/>
<path d="M746.51,161.75 C748.10,164.30 752.68,171.64 754.15,174.64 C755.98,178.43 758.25,185.58 758.96,189.30 C759.36,191.42 760.55,199.91 760.49,203.30 C760.42,206.20 758.66,213.23 757.01,217.72 C755.63,221.41 751.87,226.30 749.67,227.75 C748.73,228.34 747.49,228.65 745.34,228.93 C744.47,227.70 744.26,226.35 744.72,223.76 C744.90,222.78 745.07,221.80 745.25,220.82" fill="none" stroke="rgb(255, 148, 0)" stroke-width="5.00" stroke-opacity="1.00" stroke-linejoin="round"/>
<path d="M232.08,286.56 C232.08,286.56 232.71,285.76 232.71,285.76 C232.71,285.76 232.71,343.83 232.71,343.83 C232.71,343.83 234.45,333.12 234.45,333.12" fill="none" stroke="rgb(255, 148, 0)" stroke-width="5.00" stroke-opacity="1.00" stroke-linejoin="round"/>
<path d="M242.21,295.42 C242.21,295.42 242.21,294.95 242.21,294.95 C242.21,294.95 240.79,291.91 240.79,291.91 C240.79,291.91 243.19,345.77 243.19,345.77 C243.49,345.15 243.70,344.71 243.82,344.45 C243.94,344.18 244.15,343.74 244.43,343.10" fill="none" stroke="rgb(255, 148, 0)" stroke-width="5.00" stroke-opacity="1.00" stroke-linejoin="round"/>
<path d="M254.73,301.13 C255.80,300.50 259.42,302.69 261.11,305.35 C262.80,308.15 263.49,313.28 262.96,317.28 C262.35,321.25 260.00,326.84 257.26,329.83 C253.61,333.70 251.83,334.93 249.15,336.43 C249.15,336.43 250.13,331.69 250.13,331.69" fill="none" stroke="rgb(255, 148, 0)" stroke-width="5.00" stroke-opacity="1.00" stroke-linejoin="round"/>
<path d="M269.30,306.20 C269.30,306.20 269.61,305.88 269.61,305.88 C269.26,306.28 265.95,311.62 264.99,313.71 C263.59,316.80 261.84,323.69 261.80,327.42 C261.81,329.16 262.20,333.10 262.62,334.20 C263.39,336.10 265.64,338.00 267.87,338.70 C270.10,339.34 279.10,339.68 281.93,338.40 C283.38,337.71 284.54,335.82 284.69,334.32 C284.71,334.00 284.70,333.39 284.66,332.49" fill="none" stroke="rgb(255, 148, 0)" stroke-width="5.00" stroke-opacity="1.00" stroke-linejoin="round"/>
<path d="M295.59,288.62 C295.59,288.62 295.59,288.46 295.59,288.46 C295.59,288.46 295.22,343.68 295.22,343.68 C295.22,343.68 300.50,329.79 300.50,329.79" fill="none" stroke="rgb(255, 148, 0)" stroke-width="5.00" stroke-opacity="1.00" stroke-linejoin="round"/>
<path d="M306.48,284.82 C306.48,284.82 306.48,283.70 306.48,283.70 C306.53,290.00 306.79,307.61 307.04,312.17 C307.43,318.98 309.47,335.55 309.40,340.27 C309.39,340.90 309.38,341.52 309.37,342.15 C309.89,341.60 310.42,341.05 310.94,340.50 C311.36,340.05 311.79,339.59 312.22,339.14" fill="none" stroke="rgb(255, 148, 0)" stroke-width="5.00" stroke-opacity="1.00" stroke-linejoin="round"/>
<path d="M495.32,619.95 C497.90,620.15 499.54,620.69 500.85,622.09 C503.21,624.65 506.43,630.86 506.99,633.42 C507.59,636.30 507.03,643.15 505.96,645.86 C504.84,648.59 501.12,654.00 497.98,656.59 C496.82,657.53 491.61,660.92 490.68,661.53 C490.43,659.62 493.82,654.33 494.84,652.74" fill="none" stroke="rgb(255, 148, 0)" stroke-width="5.00" stroke-opacity="1.00" stroke-linejoin="round"/>
<path d="M526.52,618.21 C526.52,618.21 527.15,617.58 527.15,617.58 C522.74,620.58 518.97,623.43 517.21,625.96 C515.69,628.20 513.35,634.96 512.43,639.17 C511.48,643.73 511.53,651.02 512.97,653.60 C513.83,655.03 516.50,656.83 518.45,657.28 C521.76,657.99 528.29,657.82 532.73,657.02 C534.31,656.70 535.70,655.38 536.35,653.61 C536.50,653.19 536.60,652.53 536.65,651.64" fill="none" stroke="rgb(255, 148, 0)" stroke-width="5.00" stroke-opacity="1.00" stroke-linejoin="round"/>
<path d="M486.13,595.25 C486.13,595.25 485.34,596.20 485.34,596.20 C484.86,596.36 503.89,595.11 516.07,594.64 C525.48,594.43 535.00,594.97 542.77,596.31 C542.77,596.31 541.09,596.36 541.09,596.36" fill="none" stroke="rgb(255, 148, 0)" stroke-width="5.00" stroke-opacity="1.00" stroke-linejoin="round"/>
<path d="M536.02,578.94 C536.02,578.94 534.14,577.27 534.14,577.27 C540.91,579.35 546.35,583.43 550.28,587.05 C551.69,588.40 552.75,590.14 553.08,591.70 C553.60,594.65 552.14,601.74 549.86,605.43 C548.56,607.48 544.32,613.25 543.79,613.89 C543.67,614.03 543.62,614.05 543.62,613.94" fill="none" stroke="rgb(255, 148, 0)" stroke-width="5.00" stroke-opacity="1.00" stroke-linejoin="round"/>
<path d="M340.41,306.04 C340.91,306.05 341.27,306.05 341.52,306.04 C345.64,305.81 359.73,309.25 363.24,310.14 C363.24,310.14 359.42,310.79 359.42,310.79" fill="none" stroke="rgb(153, 153, 153)" stroke-width="5.00" stroke-opacity="1.00" stroke-linejoin="round"/>
<path d="M332.65,326.79 C332.65,326.79 331.55,326.79 331.55,326.79 C335.04,327.90 343.03,328.23 345.03,328.31 C353.15,328.61 362.49,328.96 363.70,329.00" fill="none" stroke="rgb(153, 153, 153)" stroke-width="5.00" stroke-opacity="1.00" stroke-linejoin="round"/>
<path d="M420.51,311.58 C420.51,311.58 421.82,311.26 421.82,311.26 C421.82,311.26 413.67,309.38 413.67,309.38 C415.97,310.36 421.05,315.97 422.04,318.37 C423.39,321.87 424.23,327.23 423.09,331.33 C422.33,333.95 420.98,337.42 420.10,338.89 C417.54,343.03 411.31,345.53 410.37,345.82 C410.37,345.82 412.00,344.05 412.00,344.05" fill="none" stroke="rgb(62, 99, 255)" stroke-width="5.00" stroke-opacity="1.00" stroke-linejoin="round"/>
<path d="M434.34,318.55 C434.34,318.55 434.34,317.44 434.34,317.44 C434.34,317.44 430.18,315.82 430.18,315.82 C428.41,317.37 425.97,321.86 424.81,326.23 C423.86,330.01 423.89,338.53 425.21,340.89 C425.97,342.18 427.85,343.54 429.78,344.38 C431.43,345.06 433.60,345.64 435.65,345.96 C437.41,346.21 439.40,345.67 440.90,344.63 C441.22,344.40 441.68,343.99 442.26,343.41" fill="none" stroke="rgb(62, 99, 255)" stroke-width="5.00" stroke-opacity="1.00" stroke-linejoin="round"/>
<path d="M447.64,298.91 C447.64,298.91 446.61,298.28 446.61,298.28 C448.85,298.08 452.21,298.18 453.49,298.90 C454.77,299.62 456.79,302.54 457.93,304.64 C457.40,306.62 456.18,309.70 455.11,311.39 C454.10,312.97 448.64,317.60 447.60,319.80 C450.27,321.38 461.50,324.52 461.87,324.63 C461.94,324.65 462.12,324.72 462.05,324.73" fill="none" stroke="rgb(62, 99, 255)" stroke-width="5.00" stroke-opacity="1.00" stroke-linejoin="round"/>
<path d="M451.45,341.99 C451.45,341.99 449.52,341.07 449.52,341.07 C450.13,341.41 450.25,342.10 449.94,344.48 C448.09,359.53 447.78,362.77 447.80,364.44 C447.80,364.44 450.02,361.95 450.02,361.95" fill="none" stroke="rgb(62, 99, 255)" stroke-width="5.00" stroke-opacity="1.00" stroke-linejoin="round"/>
<path d="M509.25,318.71 C509.25,318.71 509.98,316.89 509.98,316.89" fill="none" stroke="rgb(28, 172, 2)" stroke-width="5.00" stroke-opacity="1.00" stroke-linejoin="round"/>
<path d="M508.78,313.48 C508.78,313.48 507.98,312.53 507.98,312.53 C507.98,312.53 506.29,312.37 506.29,312.37 C508.77,312.12 510.65,312.02 511.50,312.25 C512.82,312.62 514.50,313.78 515.37,314.93 C517.15,317.41 519.13,322.94 519.52,326.60 C519.85,330.01 518.39,335.80 517.21,337.61 C515.63,339.89 511.41,341.51 506.41,342.89 C506.41,342.89 507.19,341.04 507.19,341.04" fill="none" stroke="rgb(28, 172, 2)" stroke-width="5.00" stroke-opacity="1.00" stroke-linejoin="round"/>
<path d="M534.59,315.23 C533.10,315.02 531.99,315.14 530.77,315.82 C528.33,317.22 524.17,321.62 522.19,325.44 C520.39,329.01 519.81,332.54 520.46,334.76 C521.25,337.25 523.68,339.86 526.35,341.15 C529.80,342.76 534.97,344.22 537.64,344.36 C537.99,344.38 538.67,344.38 539.66,344.37" fill="none" stroke="rgb(28, 172, 2)" stroke-width="5.00" stroke-opacity="1.00" stroke-linejoin="round"/>
<path d="M547.58,336.61 C547.58,336.61 544.89,335.97 544.89,335.97 C547.37,336.52 549.40,337.28 551.15,338.53 C553.05,339.92 555.13,342.53 555.39,344.14 C555.62,345.83 554.65,348.78 553.51,350.18 C549.51,354.83 542.10,358.54 541.23,358.98 C550.96,360.91 555.59,360.39 557.97,359.73 C557.97,359.73 558.36,358.78 558.36,358.78" fill="none" stroke="rgb(28, 172, 2)" stroke-width="5.00" stroke-opacity="1.00" stroke-linejoin="round"/>
<path d="M541.68,302.55 C541.68,302.55 541.88,302.55 541.88,302.55 C541.88,302.55 539.61,301.97 539.61,301.97 C539.61,301.97 539.87,299.62 539.87,299.62 C542.07,298.64 543.26,298.40 544.80,298.79 C546.28,299.19 547.44,300.67 548.07,302.83 C548.47,304.39 546.15,308.82 542.57,313.81 C541.10,315.84 540.41,316.63 539.54,317.38 C542.49,318.26 551.11,320.77 552.32,321.03 C554.61,321.54 557.01,321.87 558.04,321.87" fill="none" stroke="rgb(28, 172, 2)" stroke-width="5.00" stroke-opacity="1.00" stroke-linejoin="round"/>
<path d="M475.20,331.54 C475.20,331.54 474.57,332.81 474.57,332.81 C474.57,332.81 474.04,332.81 474.04,332.81 C474.03,332.81 487.46,333.47 487.88,333.51 C488.22,333.55 488.69,333.63 489.30,333.75" fill="none" stroke="rgb(153, 153, 153)" stroke-width="5.00" stroke-opacity="1.00" stroke-linejoin="round"/>
<path d="M482.17,315.23 C482.17,315.23 482.64,348.27 482.64,348.27 C482.64,348.27 483.59,346.74 483.59,346.74" fill="none" stroke="rgb(153, 153, 153)" stroke-width="5.00" stroke-opacity="1.00" stroke-linejoin="round"/>
<path d="M377.75,351.02 C379.34,351.23 380.05,351.12 380.83,350.20 C382.58,348.14 390.52,339.71 391.29,338.90 C391.29,338.90 392.42,364.44 392.42,364.44 C392.79,353.76 397.97,318.28 400.54,301.46 C401.40,296.15 402.91,290.40 402.95,289.87 C403.03,288.88 402.82,287.86 402.97,286.88 C403.00,286.72 423.40,290.68 427.06,291.16 C432.22,291.83 447.38,290.72 454.29,290.14 C479.34,287.54 489.49,285.69 513.62,284.36 C530.39,283.60 566.89,282.05 576.11,282.50 C580.69,282.79 592.31,283.45 593.53,283.55 C595.94,283.73 596.68,283.42 597.16,282.09 C597.30,281.63 597.46,281.17 597.63,280.70" fill="none" stroke="rgb(153, 153, 153)" stroke-width="5.00" stroke-opacity="1.00" stroke-linejoin="round"/>
</g>
</svg>
