<?xml version="1.0" encoding="UTF-8" standalone="no"?>
<!DOCTYPE svg PUBLIC "-//W3C//DTD SVG 1.1//EN" "http://www.w3.org/Graphics/SVG/1.1/DTD/svg11.dtd">
<svg width="512.00" height="512.00" viewBox="0.00 0.00 512.00 512.00" xmlns="http://www.w3.org/2000/svg" xmlns:xlink="http://www.w3.org/1999/xlink">
<g stroke-linecap="round" id="Layer_1">
<path d="M25.38,25.52 C25.38,25.52 26.91,32.20 26.91,32.20 C26.91,32.20 24.67,31.84 24.67,31.84" fill="none" stroke="rgb(186, 186, 186)" stroke-width="6.00" stroke-opacity="1.00" stroke-linejoin="round"/>
<path d="M24.67,31.84 L28.93,80.80" fill="none" stroke="rgb(186, 186, 186)" stroke-width="6.00" stroke-opacity="1.00" stroke-linejoin="round"/>
<path d="M28.93,80.80 C28.93,80.80 27.70,80.08 27.70,80.08" fill="none" stroke="rgb(186, 186, 186)" stroke-width="6.00" stroke-opacity="1.00" stroke-linejoin="round"/>
<path d="M27.70,80.08 L497.56,80.80" fill="none" stroke="rgb(186, 186, 186)" stroke-width="6.00" stroke-opacity="1.00" stroke-linejoin="round"/>
<path d="M497.56,80.80 C497.56,80.80 497.56,79.36 497.56,79.36" fill="none" stroke="rgb(186, 186, 186)" stroke-width="6.00" stroke-opacity="1.00" stroke-linejoin="round"/>
<path d="M497.56,79.36 L497.73,27.36" fill="none" stroke="rgb(186, 186, 186)" stroke-width="6.00" stroke-opacity="1.00" stroke-linejoin="round"/>
<path d="M497.73,27.36 C497.73,27.36 497.73,27.83 497.73,27.83 C497.73,27.83 494.33,26.69 494.33,26.69" fill="none" stroke="rgb(186, 186, 186)" stroke-width="6.00" stroke-opacity="1.00" stroke-linejoin="round"/>
<path d="M62.18,33.36 C62.41,33.10 68.62,31.07 70.88,31.28 C72.32,31.44 74.52,32.78 75.22,33.85 C75.89,34.97 76.14,36.85 75.86,38.30 C75.51,39.87 74.75,41.56 73.93,42.37 C72.53,43.70 64.75,47.58 61.94,48.08 C65.98,49.16 69.15,50.41 70.88,51.93 C70.94,51.99 73.36,54.44 73.76,55.14 C74.82,57.07 75.54,60.62 75.01,62.30 C74.48,63.81 71.76,66.19 69.97,66.79 C68.03,67.37 64.83,67.02 63.04,66.11 C60.75,64.87 59.42,60.63 59.51,60.20 C59.54,60.12 59.54,59.92 59.51,59.60" fill="none" stroke="rgb(186, 186, 186)" stroke-width="6.00" stroke-opacity="1.00" stroke-linejoin="round"/>
<path d="M139.87,35.36 C139.87,35.36 139.87,35.04 139.87,35.04 C139.65,34.60 135.39,33.84 132.01,34.09 C130.09,34.28 127.51,35.26 127.18,36.24 C126.74,37.78 129.45,43.03 131.44,45.82 C138.90,56.14 140.93,59.81 140.76,61.80 C140.45,64.49 138.97,67.27 136.97,68.72 C136.46,69.06 134.00,70.36 133.25,70.45 C131.53,70.63 128.84,70.15 127.99,69.48 C127.13,68.74 126.32,67.10 126.34,66.08 C126.40,64.91 128.67,58.83 131.41,55.36 C132.27,54.28 138.69,47.51 141.12,44.98 C144.04,41.86 147.16,37.43 147.64,36.17 C148.43,33.99 148.59,30.65 147.73,29.67 C147.23,29.11 144.38,27.96 143.42,27.60" fill="none" stroke="rgb(186, 186, 186)" stroke-width="6.00" stroke-opacity="1.00" stroke-linejoin="round"/>
<path d="M216.49,36.43 C216.49,36.43 208.13,48.16 208.13,48.16 C209.39,48.12 215.51,49.02 218.35,50.23 C220.29,51.09 222.19,52.76 223.16,54.37 C223.85,55.61 224.42,57.92 224.29,59.05 C223.94,61.49 220.25,64.95 217.35,66.27 C216.76,66.52 213.67,67.39 212.97,67.38 C211.22,67.29 210.16,66.09 208.97,62.93 C208.69,62.17 208.24,61.03 207.60,59.52" fill="none" stroke="rgb(186, 186, 186)" stroke-width="6.00" stroke-opacity="1.00" stroke-linejoin="round"/>
<path d="M219.51,37.04 C219.51,37.04 218.71,36.90 218.71,36.90 C218.71,36.90 237.42,42.50 237.42,42.50 C237.42,42.50 235.51,43.28 235.51,43.28" fill="none" stroke="rgb(186, 186, 186)" stroke-width="6.00" stroke-opacity="1.00" stroke-linejoin="round"/>
<path d="M290.98,45.20 C290.78,43.69 291.57,41.94 293.44,40.10 C293.73,39.83 296.23,38.09 296.79,37.90 C299.05,37.18 302.12,37.74 303.96,39.23 C305.15,40.23 306.69,45.17 306.25,46.97 C305.90,48.27 303.13,52.47 300.40,54.57 C299.52,55.24 291.68,60.66 288.97,62.53 C296.47,62.65 309.19,63.46 309.49,63.47 C309.81,63.48 310.15,63.47 310.53,63.44" fill="none" stroke="rgb(186, 186, 186)" stroke-width="6.00" stroke-opacity="1.00" stroke-linejoin="round"/>
<path d="M365.64,42.48 C365.64,42.48 375.41,38.15 375.41,38.15 C375.41,38.15 370.99,72.53 370.99,72.53 C370.99,72.53 371.87,70.88 371.87,70.88" fill="none" stroke="rgb(186, 186, 186)" stroke-width="6.00" stroke-opacity="1.00" stroke-linejoin="round"/>
<path d="M456.31,33.60 C456.42,33.83 455.72,34.36 454.24,35.09 C451.73,36.23 446.24,38.83 443.37,40.76 C440.20,42.92 436.55,46.11 435.48,47.88 C432.84,52.40 432.25,58.59 432.72,60.09 C433.40,62.13 435.24,64.93 436.96,66.37 C438.32,67.46 441.72,69.34 442.99,69.67 C444.39,69.99 447.23,69.64 448.61,69.01 C449.94,68.36 452.19,66.31 452.80,65.14 C453.34,64.01 453.44,60.49 452.79,59.36 C452.14,58.30 449.41,56.21 448.54,55.90 C446.48,55.26 437.91,55.04 437.14,54.97 C436.67,54.93 435.59,54.74 433.91,54.40" fill="none" stroke="rgb(186, 186, 186)" stroke-width="6.00" stroke-opacity="1.00" stroke-linejoin="round"/>
<path d="M244.04,98.64 C244.04,98.64 244.04,97.36 244.04,97.36 C244.04,97.36 243.99,111.21 243.99,111.21" fill="none" stroke="rgb(186, 186, 186)" stroke-width="6.00" stroke-opacity="1.00" stroke-linejoin="round"/>
<path d="M256.49,94.88 C256.49,94.88 255.94,111.95 255.94,111.95 C255.94,111.95 253.29,111.76 253.29,111.76" fill="none" stroke="rgb(186, 186, 186)" stroke-width="6.00" stroke-opacity="1.00" stroke-linejoin="round"/>
<path d="M231.60,99.60 C231.60,99.60 231.24,99.44 231.24,99.44 C238.60,106.79 250.16,120.13 250.40,120.40 C251.52,121.60 252.74,121.47 255.03,119.99 C260.03,116.64 271.82,106.41 273.76,103.90 C273.76,103.90 273.02,103.04 273.02,103.04" fill="none" stroke="rgb(186, 186, 186)" stroke-width="6.00" stroke-opacity="1.00" stroke-linejoin="round"/>
<path d="M33.38,140.08 C33.38,140.08 32.42,139.78 32.42,139.78 C32.00,139.95 31.94,144.78 31.97,145.22 C31.98,145.50 32.04,145.79 32.13,146.08" fill="none" stroke="rgb(186, 186, 186)" stroke-width="6.00" stroke-opacity="1.00" stroke-linejoin="round"/>
<path d="M32.13,146.08 L32.13,181.84" fill="none" stroke="rgb(186, 186, 186)" stroke-width="6.00" stroke-opacity="1.00" stroke-linejoin="round"/>
<path d="M32.13,181.84 C32.13,181.84 33.56,183.16 33.56,183.16 C33.56,183.42 33.56,183.69 33.56,183.95 C33.56,184.62 33.56,185.38 33.56,185.36 C33.56,185.36 33.56,185.04 33.56,184.72 C33.56,184.61 33.56,184.51 33.56,184.40" fill="none" stroke="rgb(186, 186, 186)" stroke-width="6.00" stroke-opacity="1.00" stroke-linejoin="round"/>
<path d="M33.56,184.40 L481.91,185.28" fill="none" stroke="rgb(186, 186, 186)" stroke-width="6.00" stroke-opacity="1.00" stroke-linejoin="round"/>
<path d="M481.91,185.28 C481.91,185.28 482.27,185.55 482.27,185.55 C482.27,185.55 481.02,183.21 481.02,183.21" fill="none" stroke="rgb(186, 186, 186)" stroke-width="6.00" stroke-opacity="1.00" stroke-linejoin="round"/>
<path d="M481.02,183.21 L486.53,135.20" fill="none" stroke="rgb(186, 186, 186)" stroke-width="6.00" stroke-opacity="1.00" stroke-linejoin="round"/>
<path d="M486.53,135.20 C486.51,135.43 485.66,136.11 484.84,136.55 C484.60,136.68 484.33,136.82 484.03,136.97" fill="none" stroke="rgb(186, 186, 186)" stroke-width="6.00" stroke-opacity="1.00" stroke-linejoin="round"/>
<path d="M458.98,137.04 C456.75,136.81 454.79,137.15 452.70,138.27 C451.10,139.13 446.18,142.88 444.72,144.62 C443.31,146.32 440.57,151.66 440.16,154.50 C439.93,156.26 439.69,164.34 440.19,166.39 C440.36,166.97 442.59,169.82 443.48,170.53 C444.77,171.50 448.81,172.63 450.55,172.60 C452.31,172.52 454.98,171.31 456.00,170.19 C456.92,169.08 457.93,166.28 457.87,164.94 C457.76,163.61 456.32,160.99 455.32,160.20 C453.36,158.78 448.00,158.21 444.45,158.98 C444.05,159.07 443.44,159.20 442.62,159.36" fill="none" stroke="rgb(186, 186, 186)" stroke-width="6.00" stroke-opacity="1.00" stroke-linejoin="round"/>
<path d="M450.98,178.40 C451.04,178.41 450.89,178.49 450.83,178.50 C446.39,178.80 441.15,177.80 438.65,176.62 C435.45,175.05 429.97,171.20 427.81,168.63 C425.78,166.18 423.43,160.32 423.14,157.47 C422.88,154.44 424.16,148.62 425.71,145.77 C427.00,143.45 431.01,138.83 433.75,136.76 C436.11,135.02 442.29,131.44 445.49,130.35 C448.53,129.34 454.11,128.16 456.47,128.12 C459.62,128.11 464.71,128.94 466.91,130.11 C469.33,131.45 473.27,136.52 474.63,140.08 C475.81,143.25 476.71,150.29 476.65,153.64 C476.57,156.59 475.12,162.33 474.14,164.25 C472.39,167.61 468.02,172.26 464.72,174.80 C459.98,178.36 452.38,180.94 450.62,181.44" fill="none" stroke="rgb(255, 155, 0)" stroke-width="6.00" stroke-opacity="1.00" stroke-linejoin="round"/>
<path d="M413.50,216.85 C415.43,212.34 420.47,205.97 427.77,198.53 C429.30,196.99 429.49,196.85 429.47,196.88 C429.47,196.88 427.51,197.04 427.51,197.04" fill="none" stroke="rgb(255, 155, 0)" stroke-width="6.00" stroke-opacity="1.00" stroke-linejoin="round"/>
<path d="M416.49,194.24 C416.49,194.24 414.89,193.95 414.89,193.95 C416.69,192.52 417.85,191.84 419.65,191.28 C424.83,189.68 429.83,188.74 432.06,189.64 C433.09,190.10 434.36,191.52 434.67,192.61 C435.41,195.53 436.12,203.45 436.44,207.22 C436.44,207.22 435.16,207.76 435.16,207.76" fill="none" stroke="rgb(255, 155, 0)" stroke-width="6.00" stroke-opacity="1.00" stroke-linejoin="round"/>
<path d="M395.29,220.99 C395.29,220.99 402.49,220.93 402.49,220.93 C402.49,220.93 402.49,221.59 402.49,221.59" fill="none" stroke="rgb(255, 155, 0)" stroke-width="6.00" stroke-opacity="1.00" stroke-linejoin="round"/>
<path d="M397.64,217.12 C397.64,217.12 395.52,231.02 395.52,231.02 C395.52,231.02 395.51,229.72 395.51,229.72" fill="none" stroke="rgb(255, 155, 0)" stroke-width="6.00" stroke-opacity="1.00" stroke-linejoin="round"/>
<path d="M401.75,219.40 C401.75,219.40 401.96,231.38 401.96,231.38 C401.96,231.38 401.12,230.41 401.12,230.41" fill="none" stroke="rgb(255, 155, 0)" stroke-width="6.00" stroke-opacity="1.00" stroke-linejoin="round"/>
<path d="M395.29,224.56 C396.91,224.06 399.07,224.04 400.34,224.68 C400.65,224.84 400.99,225.17 401.34,225.66 C401.34,225.66 400.93,226.25 400.93,226.25" fill="none" stroke="rgb(255, 155, 0)" stroke-width="6.00" stroke-opacity="1.00" stroke-linejoin="round"/>
<path d="M395.00,227.57 C397.95,228.22 399.13,228.45 400.49,228.66 C400.63,228.68 400.77,228.71 400.89,228.74 C400.89,228.74 400.38,228.98 400.38,228.98" fill="none" stroke="rgb(255, 155, 0)" stroke-width="6.00" stroke-opacity="1.00" stroke-linejoin="round"/>
<path d="M389.38,234.20 C389.38,234.20 404.48,233.41 404.48,233.41 C404.48,233.41 403.15,233.75 403.15,233.75" fill="none" stroke="rgb(255, 155, 0)" stroke-width="6.00" stroke-opacity="1.00" stroke-linejoin="round"/>
<path d="M397.20,233.62 C395.66,234.48 393.73,236.00 392.07,237.74 C391.72,238.11 391.29,238.61 390.79,239.25 C390.97,239.07 391.16,238.88 391.35,238.70 C391.49,238.56 391.63,238.42 391.76,238.28" fill="none" stroke="rgb(255, 155, 0)" stroke-width="6.00" stroke-opacity="1.00" stroke-linejoin="round"/>
<path d="M398.96,234.71 C398.96,234.71 403.08,237.96 403.08,237.96 C403.08,237.96 403.60,237.75 403.60,237.75 C403.60,237.75 402.97,237.37 402.97,237.37" fill="none" stroke="rgb(255, 155, 0)" stroke-width="6.00" stroke-opacity="1.00" stroke-linejoin="round"/>
<path d="M395.80,237.72 C395.80,237.72 401.77,237.65 401.77,237.65 C401.77,237.65 401.78,237.93 401.78,237.93 C401.78,237.93 400.77,237.98 400.77,237.98" fill="none" stroke="rgb(255, 155, 0)" stroke-width="6.00" stroke-opacity="1.00" stroke-linejoin="round"/>
<path d="M398.23,236.53 C398.23,236.53 398.49,241.95 398.49,241.95 C398.49,241.95 397.64,242.32 397.64,242.32" fill="none" stroke="rgb(255, 155, 0)" stroke-width="6.00" stroke-opacity="1.00" stroke-linejoin="round"/>
<path d="M393.75,243.27 C396.76,242.98 398.57,242.74 400.37,242.41 C402.18,242.08 403.58,241.94 405.62,241.89 C405.62,241.89 405.35,241.98 405.35,241.98" fill="none" stroke="rgb(255, 155, 0)" stroke-width="6.00" stroke-opacity="1.00" stroke-linejoin="round"/>
<path d="M407.19,221.02 C407.56,221.34 408.24,222.02 408.57,222.48 C408.91,222.97 409.14,223.40 409.26,223.79 C409.32,224.00 409.36,224.38 409.38,224.91" fill="none" stroke="rgb(255, 155, 0)" stroke-width="6.00" stroke-opacity="1.00" stroke-linejoin="round"/>
<path d="M406.38,226.88 C406.75,227.67 407.64,229.03 407.65,229.08 C407.71,229.32 407.71,229.82 407.66,230.60" fill="none" stroke="rgb(255, 155, 0)" stroke-width="6.00" stroke-opacity="1.00" stroke-linejoin="round"/>
<path d="M405.65,236.07 C408.04,233.23 409.03,231.97 409.64,231.03 C409.84,230.72 410.26,230.05 410.88,229.02" fill="none" stroke="rgb(255, 155, 0)" stroke-width="6.00" stroke-opacity="1.00" stroke-linejoin="round"/>
<path d="M416.74,222.48 C414.18,223.94 412.45,225.14 411.91,225.50 C411.70,225.64 411.30,225.87 410.73,226.18" fill="none" stroke="rgb(255, 155, 0)" stroke-width="6.00" stroke-opacity="1.00" stroke-linejoin="round"/>
<path d="M412.26,225.69 C412.26,225.69 412.60,234.42 412.60,234.42 C412.60,234.42 412.70,233.95 412.70,233.95" fill="none" stroke="rgb(255, 155, 0)" stroke-width="6.00" stroke-opacity="1.00" stroke-linejoin="round"/>
<path d="M422.25,221.06 C422.22,221.03 419.65,222.79 418.59,223.47 C418.08,223.79 417.38,224.20 416.50,224.70" fill="none" stroke="rgb(255, 155, 0)" stroke-width="6.00" stroke-opacity="1.00" stroke-linejoin="round"/>
<path d="M414.90,225.19 C414.90,225.19 419.92,225.52 419.92,225.52 C419.92,225.52 419.91,225.61 419.91,225.61" fill="none" stroke="rgb(255, 155, 0)" stroke-width="6.00" stroke-opacity="1.00" stroke-linejoin="round"/>
<path d="M419.38,225.79 C419.38,225.79 419.16,232.66 419.16,232.66 C419.16,232.66 418.79,232.22 418.79,232.22" fill="none" stroke="rgb(255, 155, 0)" stroke-width="6.00" stroke-opacity="1.00" stroke-linejoin="round"/>
<path d="M414.61,227.64 C414.61,227.64 419.45,228.09 419.45,228.09 C419.45,228.09 419.41,228.38 419.41,228.38" fill="none" stroke="rgb(255, 155, 0)" stroke-width="6.00" stroke-opacity="1.00" stroke-linejoin="round"/>
<path d="M414.10,229.79 C414.10,229.79 420.12,230.12 420.12,230.12 C420.12,230.12 419.90,230.28 419.90,230.28" fill="none" stroke="rgb(255, 155, 0)" stroke-width="6.00" stroke-opacity="1.00" stroke-linejoin="round"/>
<path d="M413.07,232.23 C414.58,232.26 418.73,232.33 419.48,232.38 C419.96,232.42 420.70,232.51 421.68,232.66" fill="none" stroke="rgb(255, 155, 0)" stroke-width="6.00" stroke-opacity="1.00" stroke-linejoin="round"/>
<path d="M405.21,236.93 C405.21,236.93 419.51,236.26 419.51,236.26 C419.51,236.26 418.58,236.26 418.58,236.26" fill="none" stroke="rgb(255, 155, 0)" stroke-width="6.00" stroke-opacity="1.00" stroke-linejoin="round"/>
<path d="M413.80,233.45 C414.11,235.81 414.84,241.58 414.83,242.17 C414.83,242.32 414.78,242.46 414.70,242.58 C414.70,242.58 414.17,242.38 414.17,242.38" fill="none" stroke="rgb(255, 155, 0)" stroke-width="6.00" stroke-opacity="1.00" stroke-linejoin="round"/>
<path d="M428.93,224.86 C425.02,228.25 422.60,230.47 420.63,232.46 C420.61,232.48 420.54,232.55 420.56,232.53" fill="none" stroke="rgb(255, 155, 0)" stroke-width="6.00" stroke-opacity="1.00" stroke-linejoin="round"/>
<path d="M425.04,230.48 C425.04,230.48 425.48,242.27 425.48,242.27 C425.48,242.27 425.78,240.63 425.78,240.63" fill="none" stroke="rgb(255, 155, 0)" stroke-width="6.00" stroke-opacity="1.00" stroke-linejoin="round"/>
<path d="M429.67,225.52 C429.67,225.52 435.60,225.52 435.60,225.52 C435.60,225.52 435.33,225.26 435.33,225.26" fill="none" stroke="rgb(255, 155, 0)" stroke-width="6.00" stroke-opacity="1.00" stroke-linejoin="round"/>
<path d="M432.90,224.30 C432.90,224.30 432.31,232.63 432.31,232.63 C432.31,232.63 431.65,232.50 431.65,232.50" fill="none" stroke="rgb(255, 155, 0)" stroke-width="6.00" stroke-opacity="1.00" stroke-linejoin="round"/>
<path d="M430.04,229.55 C430.04,229.55 430.51,237.69 430.51,237.69 C430.51,237.69 430.55,236.38 430.55,236.38" fill="none" stroke="rgb(255, 155, 0)" stroke-width="6.00" stroke-opacity="1.00" stroke-linejoin="round"/>
<path d="M430.48,232.20 C432.26,230.69 435.49,230.51 436.19,231.25 C436.73,231.98 436.81,235.12 436.76,238.18 C436.76,238.18 436.35,238.15 436.35,238.15" fill="none" stroke="rgb(255, 155, 0)" stroke-width="6.00" stroke-opacity="1.00" stroke-linejoin="round"/>
<path d="M430.48,234.21 C430.48,234.21 436.33,233.97 436.33,233.97 C436.33,233.97 436.35,234.13 436.35,234.13" fill="none" stroke="rgb(255, 155, 0)" stroke-width="6.00" stroke-opacity="1.00" stroke-linejoin="round"/>
<path d="M431.36,235.64 C432.64,235.59 433.92,235.53 435.19,235.48 C435.61,235.47 435.89,235.46 436.01,235.47 C436.04,235.47 436.08,235.47 436.12,235.47" fill="none" stroke="rgb(255, 155, 0)" stroke-width="6.00" stroke-opacity="1.00" stroke-linejoin="round"/>
<path d="M430.92,238.48 C430.92,238.48 436.82,238.46 436.82,238.46 C436.82,238.46 436.61,238.06 436.61,238.06" fill="none" stroke="rgb(255, 155, 0)" stroke-width="6.00" stroke-opacity="1.00" stroke-linejoin="round"/>
<path d="M427.69,231.93 C427.69,231.93 428.86,240.73 428.86,240.73 C428.86,240.73 441.92,241.17 441.92,241.17 C441.92,241.17 441.50,241.09 441.50,241.09" fill="none" stroke="rgb(255, 155, 0)" stroke-width="6.00" stroke-opacity="1.00" stroke-linejoin="round"/>
<path d="M41.53,130.37 C41.53,130.37 42.02,130.55 42.02,130.55 C42.08,130.61 42.12,130.71 42.14,130.86 C42.16,131.01 42.18,131.42 42.19,132.08" fill="none" stroke="rgb(0, 193, 255)" stroke-width="6.00" stroke-opacity="1.00" stroke-linejoin="round"/>
<path d="M42.19,132.08 L42.98,175.41" fill="none" stroke="rgb(0, 193, 255)" stroke-width="6.00" stroke-opacity="1.00" stroke-linejoin="round"/>
<path d="M42.98,175.47" fill="none" stroke="rgb(0, 193, 255)" stroke-width="6.00" stroke-opacity="1.00" stroke-linejoin="round"/>
<path d="M34.81,215.58 C34.49,211.97 35.30,208.37 36.62,205.42 C38.67,200.99 40.42,197.43 40.51,197.21 C40.65,196.88 40.72,196.55 40.74,196.21" fill="none" stroke="rgb(0, 193, 255)" stroke-width="6.00" stroke-opacity="1.00" stroke-linejoin="round"/>
<path d="M32.71,199.88 C35.20,196.46 38.83,192.31 40.01,191.95 C41.54,191.57 43.42,192.99 44.70,195.46 C46.68,199.41 48.09,203.57 48.33,205.01 C48.38,205.27 48.35,205.38 48.25,205.33" fill="none" stroke="rgb(0, 193, 255)" stroke-width="6.00" stroke-opacity="1.00" stroke-linejoin="round"/>
<path d="M23.41,224.60 C23.41,224.60 22.07,224.16 22.07,224.16 C21.66,227.41 20.96,232.98 20.91,233.61 C20.88,234.06 20.85,234.84 20.83,235.96 C20.83,235.98 20.83,236.04 20.83,236.02" fill="none" stroke="rgb(0, 193, 255)" stroke-width="6.00" stroke-opacity="1.00" stroke-linejoin="round"/>
<path d="M28.34,225.11 C28.34,225.11 28.27,224.95 28.27,224.95 C28.27,224.95 32.12,236.72 32.12,236.72 C32.12,236.72 32.06,236.53 32.06,236.53" fill="none" stroke="rgb(0, 193, 255)" stroke-width="6.00" stroke-opacity="1.00" stroke-linejoin="round"/>
<path d="M33.92,225.69 C33.92,225.69 33.35,229.24 33.35,229.24 C34.13,229.91 35.71,229.75 36.14,228.88 C36.52,228.04 36.02,226.60 34.40,225.88 C34.40,225.88 34.40,227.00 34.40,227.00" fill="none" stroke="rgb(0, 193, 255)" stroke-width="6.00" stroke-opacity="1.00" stroke-linejoin="round"/>
<path d="M36.67,233.95 C38.63,234.19 39.82,234.34 40.25,234.38 C40.68,234.43 40.95,234.43 41.05,234.39 C41.05,234.39 41.19,234.08 41.19,234.08" fill="none" stroke="rgb(0, 193, 255)" stroke-width="6.00" stroke-opacity="1.00" stroke-linejoin="round"/>
<path d="M45.23,223.40 C45.23,223.40 54.13,222.85 54.13,222.85 C54.13,222.85 53.97,223.53 53.97,223.53 C53.97,223.53 53.35,223.94 53.35,223.94" fill="none" stroke="rgb(0, 193, 255)" stroke-width="6.00" stroke-opacity="1.00" stroke-linejoin="round"/>
<path d="M44.91,229.65 C48.34,229.59 52.01,230.13 52.69,230.39 C52.81,230.44 52.77,230.47 52.57,230.49" fill="none" stroke="rgb(0, 193, 255)" stroke-width="6.00" stroke-opacity="1.00" stroke-linejoin="round"/>
<path d="M48.87,230.20 C48.87,230.20 49.03,240.48 49.03,240.48 C49.03,240.48 50.02,240.13 50.02,240.13" fill="none" stroke="rgb(0, 193, 255)" stroke-width="6.00" stroke-opacity="1.00" stroke-linejoin="round"/>
<path d="M59.45,233.73 C57.59,234.54 54.15,237.29 53.71,237.54 C53.62,237.59 53.52,237.58 53.39,237.51" fill="none" stroke="rgb(0, 193, 255)" stroke-width="6.00" stroke-opacity="1.00" stroke-linejoin="round"/>
<path d="M55.74,236.42 C55.74,236.42 55.85,243.30 55.85,243.30 C55.85,243.30 56.53,242.00 56.53,242.00" fill="none" stroke="rgb(0, 193, 255)" stroke-width="6.00" stroke-opacity="1.00" stroke-linejoin="round"/>
<path d="M62.20,229.40 C62.20,229.40 64.85,233.12 64.85,233.12 C64.85,233.12 65.19,232.41 65.19,232.41" fill="none" stroke="rgb(0, 193, 255)" stroke-width="6.00" stroke-opacity="1.00" stroke-linejoin="round"/>
<path d="M66.48,228.16 C67.04,229.40 67.48,230.81 67.60,231.94 C67.70,232.91 67.57,233.97 67.37,234.64" fill="none" stroke="rgb(0, 193, 255)" stroke-width="6.00" stroke-opacity="1.00" stroke-linejoin="round"/>
<path d="M63.90,243.69 C65.97,240.88 71.20,236.33 71.23,236.29 C71.23,236.28 71.26,236.24 71.33,236.16" fill="none" stroke="rgb(0, 193, 255)" stroke-width="6.00" stroke-opacity="1.00" stroke-linejoin="round"/>
<path d="M73.92,234.89 C74.93,234.72 77.91,235.68 78.75,237.10 C79.49,238.51 78.62,241.22 78.01,241.63 C77.85,241.73 77.54,241.83 77.07,241.95" fill="none" stroke="rgb(0, 193, 255)" stroke-width="6.00" stroke-opacity="1.00" stroke-linejoin="round"/>
<path d="M73.68,238.56 C74.83,238.63 75.57,238.70 75.89,238.76 C76.21,238.82 76.56,238.96 76.95,239.18 C76.95,239.18 76.80,239.45 76.80,239.45" fill="none" stroke="rgb(0, 193, 255)" stroke-width="6.00" stroke-opacity="1.00" stroke-linejoin="round"/>
<path d="M73.11,242.78 C74.39,243.22 76.19,243.48 77.73,243.40 C78.05,243.38 78.40,243.32 78.77,243.22" fill="none" stroke="rgb(0, 193, 255)" stroke-width="6.00" stroke-opacity="1.00" stroke-linejoin="round"/>
<path d="M85.23,230.45 C85.23,230.45 88.31,230.19 88.31,230.19 C88.31,230.19 88.34,231.16 88.34,231.16" fill="none" stroke="rgb(0, 193, 255)" stroke-width="6.00" stroke-opacity="1.00" stroke-linejoin="round"/>
<path d="M84.75,242.16 C87.37,240.37 91.35,237.04 92.70,235.43 C92.89,235.19 93.15,234.82 93.46,234.30 C93.46,234.30 93.40,233.60 93.40,233.60" fill="none" stroke="rgb(0, 193, 255)" stroke-width="6.00" stroke-opacity="1.00" stroke-linejoin="round"/>
<path d="M247.62,252.12 C247.62,252.12 246.91,249.00 246.91,249.00 C246.91,249.00 246.63,264.52 246.63,264.52 C246.63,264.52 246.56,264.12 246.56,264.12" fill="none" stroke="rgb(186, 186, 186)" stroke-width="6.00" stroke-opacity="1.00" stroke-linejoin="round"/>
<path d="M260.07,248.44 C260.07,248.44 260.07,247.81 260.07,247.81 C259.53,253.37 259.26,257.55 259.36,259.70 C259.43,261.56 259.09,262.21 257.86,262.66 C257.65,262.73 257.44,262.84 257.22,263.00" fill="none" stroke="rgb(186, 186, 186)" stroke-width="6.00" stroke-opacity="1.00" stroke-linejoin="round"/>
<path d="M237.84,256.52 C237.84,256.52 235.36,255.64 235.36,255.64 C238.36,261.89 256.75,274.35 257.06,274.41 C258.10,274.58 261.96,274.47 262.07,274.40 C262.14,274.36 274.98,261.00 277.46,258.48 C277.46,258.48 277.13,259.24 277.13,259.24" fill="none" stroke="rgb(186, 186, 186)" stroke-width="6.00" stroke-opacity="1.00" stroke-linejoin="round"/>
<path d="M39.62,291.48 C39.62,291.48 37.84,294.52 37.84,294.52" fill="none" stroke="rgb(186, 186, 186)" stroke-width="6.00" stroke-opacity="1.00" stroke-linejoin="round"/>
<path d="M37.84,294.52 L37.67,337.08" fill="none" stroke="rgb(186, 186, 186)" stroke-width="6.00" stroke-opacity="1.00" stroke-linejoin="round"/>
<path d="M37.67,337.08 C37.67,337.08 38.02,337.08 38.02,337.08 C38.02,337.08 38.73,336.52 38.73,336.52" fill="none" stroke="rgb(186, 186, 186)" stroke-width="6.00" stroke-opacity="1.00" stroke-linejoin="round"/>
<path d="M38.73,336.52 L471.98,338.12" fill="none" stroke="rgb(186, 186, 186)" stroke-width="6.00" stroke-opacity="1.00" stroke-linejoin="round"/>
<path d="M471.98,338.12 C472.26,337.30 472.37,336.77 472.32,336.52 C472.27,336.27 471.98,335.95 471.44,335.56" fill="none" stroke="rgb(186, 186, 186)" stroke-width="6.00" stroke-opacity="1.00" stroke-linejoin="round"/>
<path d="M471.44,335.56 L472.87,278.20" fill="none" stroke="rgb(186, 186, 186)" stroke-width="6.00" stroke-opacity="1.00" stroke-linejoin="round"/>
<path d="M473.04,278.52 C473.04,278.52 468.42,279.40 468.42,279.40" fill="none" stroke="rgb(186, 186, 186)" stroke-width="6.00" stroke-opacity="1.00" stroke-linejoin="round"/>
<path d="M69.84,289.16 C69.84,289.16 65.76,288.92 65.76,288.92 C69.28,288.57 73.74,288.93 76.41,290.71 C77.84,291.72 78.81,294.13 78.44,295.74 C77.84,298.02 72.69,303.40 70.91,304.49 C70.00,305.04 68.79,305.51 67.11,306.03 C68.29,305.81 71.96,307.49 74.39,309.42 C75.62,310.44 77.44,312.30 77.94,313.24 C78.50,314.33 78.89,317.28 78.62,318.31 C78.12,320.04 73.70,323.14 71.87,323.74 C69.51,324.47 66.45,324.74 65.65,324.06 C65.39,323.83 65.01,323.21 64.51,322.20" fill="none" stroke="rgb(186, 186, 186)" stroke-width="6.00" stroke-opacity="1.00" stroke-linejoin="round"/>
<path d="M125.49,294.44 C125.49,294.44 124.37,294.18 124.37,294.18 C125.15,293.50 131.47,293.55 133.55,294.79 C134.78,295.57 136.46,298.01 136.76,299.44 C137.01,300.85 136.42,304.24 135.70,305.83 C134.34,308.65 129.75,313.74 126.64,315.74 C124.54,317.06 122.18,318.14 120.43,318.90 C120.19,319.41 129.47,320.31 130.38,320.41 C133.70,320.78 137.88,321.94 139.36,322.44" fill="none" stroke="rgb(186, 186, 186)" stroke-width="6.00" stroke-opacity="1.00" stroke-linejoin="round"/>
<path d="M195.53,295.24 C195.53,295.24 196.96,294.12 196.96,294.12 C196.96,294.02 196.96,293.95 196.96,293.93 C196.94,293.81 197.04,293.01 197.13,292.65 C197.17,292.52 197.22,292.40 197.30,292.30 C197.30,292.30 192.69,320.94 192.69,320.94 C192.69,320.94 192.87,318.84 192.87,318.84" fill="none" stroke="rgb(186, 186, 186)" stroke-width="6.00" stroke-opacity="1.00" stroke-linejoin="round"/>
<path d="M274.64,293.48 C274.64,293.48 274.78,292.18 274.78,292.18 C273.43,291.14 268.66,291.26 266.05,292.50 C264.66,293.20 262.73,294.44 261.63,295.36 C260.65,296.21 260.06,297.79 260.53,298.57 C261.10,299.43 276.98,310.34 279.73,313.72 C280.77,315.03 281.68,317.12 282.04,318.82 C282.30,320.27 282.01,322.04 281.30,323.06 C280.57,324.02 278.38,325.37 276.74,325.87 C275.07,326.34 271.31,326.77 269.72,326.61 C267.72,326.35 264.63,324.78 264.12,323.57 C263.75,322.60 264.10,319.81 264.56,319.07 C265.85,317.15 279.67,302.21 280.22,300.30 C280.68,298.43 280.56,296.81 279.58,296.16 C279.29,295.97 278.42,295.48 276.96,294.68" fill="none" stroke="rgb(186, 186, 186)" stroke-width="6.00" stroke-opacity="1.00" stroke-linejoin="round"/>
<path d="M339.53,291.56 C339.53,291.56 339.53,291.21 339.53,291.21 C339.53,291.21 333.37,305.24 333.37,305.24 C339.46,306.29 346.07,309.75 348.06,311.28 C349.01,312.06 350.19,314.10 350.13,315.24 C350.03,316.33 347.94,318.63 346.43,319.60 C345.07,320.41 342.50,321.45 341.31,321.60 C338.46,321.90 333.58,319.98 331.36,319.00" fill="none" stroke="rgb(186, 186, 186)" stroke-width="6.00" stroke-opacity="1.00" stroke-linejoin="round"/>
<path d="M343.09,290.76 C346.73,291.50 351.73,293.30 355.29,295.42 C358.37,297.30 359.40,298.54 359.75,299.35 C359.75,299.35 358.62,299.80 358.62,299.80" fill="none" stroke="rgb(186, 186, 186)" stroke-width="6.00" stroke-opacity="1.00" stroke-linejoin="round"/>
<path d="M433.58,291.89 C431.65,292.90 427.81,295.80 425.57,298.10 C423.41,300.37 420.59,305.58 419.79,308.10 C419.38,309.45 418.52,313.23 418.42,314.33 C418.31,315.91 418.83,318.04 419.67,319.20 C420.45,320.21 422.78,322.01 423.87,322.43 C424.69,322.72 428.07,323.02 428.97,322.90 C431.07,322.56 435.63,318.91 436.34,317.13 C436.68,316.19 436.70,313.73 436.37,312.79 C435.61,310.78 432.63,308.65 429.54,307.46 C427.01,306.55 418.33,308.22 417.22,308.44" fill="none" stroke="rgb(186, 186, 186)" stroke-width="6.00" stroke-opacity="1.00" stroke-linejoin="round"/>
<path d="M226.82,280.12 C226.82,280.12 226.47,280.04 226.47,280.04 C226.47,280.04 225.76,280.04 225.76,280.04" fill="none" stroke="rgb(9, 195, 255)" stroke-width="6.00" stroke-opacity="1.00" stroke-linejoin="round"/>
<path d="M225.76,280.04 L226.82,329.24" fill="none" stroke="rgb(9, 195, 255)" stroke-width="6.00" stroke-opacity="1.00" stroke-linejoin="round"/>
<path d="M227.18,329.52 C227.18,329.52 222.17,329.80 222.17,329.80" fill="none" stroke="rgb(9, 195, 255)" stroke-width="6.00" stroke-opacity="1.00" stroke-linejoin="round"/>
<path d="M165.39,329.64 C159.70,330.30 155.47,330.70 151.80,330.30 C144.26,329.31 127.88,327.07 124.51,325.69 C120.31,324.00 116.47,322.21 114.27,320.71 C111.91,319.06 107.89,314.72 105.93,311.54 C104.99,309.97 102.04,303.76 101.19,300.71 C100.36,297.62 100.35,290.91 101.01,288.33 C101.69,285.86 104.75,280.36 106.84,278.03 C109.16,275.51 114.64,271.51 117.28,270.24 C122.19,267.94 133.83,265.63 140.75,265.26 C149.35,264.83 189.98,267.08 197.43,268.39 C201.60,269.15 205.41,270.03 207.40,270.83 C210.08,271.94 214.05,274.74 215.88,277.12 C217.62,279.44 219.98,285.55 220.94,289.83 C221.79,293.76 222.10,299.37 221.80,302.84 C221.51,305.72 219.55,311.60 217.77,314.71 C216.27,317.28 212.21,322.18 210.46,323.77 C208.50,325.50 201.62,329.52 199.24,330.34 C195.88,331.47 176.54,335.51 172.12,335.62 C171.04,335.64 169.97,335.67 168.90,335.69" fill="none" stroke="rgb(226, 133, 254)" stroke-width="6.00" stroke-opacity="1.00" stroke-linejoin="round"/>
<path d="M168.49,365.50 C164.87,365.80 161.56,364.93 159.92,363.04 C156.88,359.36 153.50,348.20 153.14,346.97 C153.14,346.97 150.86,347.47 150.86,347.47" fill="none" stroke="rgb(226, 133, 254)" stroke-width="6.00" stroke-opacity="1.00" stroke-linejoin="round"/>
<path d="M146.99,355.40 C146.84,355.13 146.81,354.84 146.88,354.53 C147.33,352.68 152.09,345.20 152.26,344.94 C153.10,343.81 154.80,343.53 156.53,344.23 C158.19,344.96 161.30,347.62 164.59,350.92 C165.27,351.61 165.25,352.41 164.75,354.20" fill="none" stroke="rgb(226, 133, 254)" stroke-width="6.00" stroke-opacity="1.00" stroke-linejoin="round"/>
<path d="M179.45,361.41 C178.18,362.31 174.71,364.78 173.97,365.38 C173.05,366.13 172.22,366.98 171.26,367.68 C170.92,367.93 170.47,368.14 169.92,368.32" fill="none" stroke="rgb(226, 133, 254)" stroke-width="6.00" stroke-opacity="1.00" stroke-linejoin="round"/>
<path d="M168.63,370.37 C172.36,370.59 176.20,370.38 178.99,370.03 C179.22,370.01 179.37,370.00 179.43,370.01" fill="none" stroke="rgb(226, 133, 254)" stroke-width="6.00" stroke-opacity="1.00" stroke-linejoin="round"/>
<path d="M177.84,365.74 C177.84,365.74 178.03,384.35 178.03,384.35 C178.03,384.35 176.95,382.61 176.95,382.61" fill="none" stroke="rgb(226, 133, 254)" stroke-width="6.00" stroke-opacity="1.00" stroke-linejoin="round"/>
<path d="M176.91,374.52 C176.91,374.52 169.35,383.53 169.35,383.53 C169.35,383.53 170.03,381.22 170.03,381.22" fill="none" stroke="rgb(226, 133, 254)" stroke-width="6.00" stroke-opacity="1.00" stroke-linejoin="round"/>
<path d="M179.85,376.14 C180.39,376.92 181.89,379.07 182.26,379.48 C183.13,380.42 184.32,381.10 184.89,381.05 C184.97,381.04 185.16,381.00 185.46,380.93" fill="none" stroke="rgb(226, 133, 254)" stroke-width="6.00" stroke-opacity="1.00" stroke-linejoin="round"/>
<path d="M185.99,360.45 C185.99,360.45 179.98,372.38 179.98,372.38 C179.98,372.38 179.45,372.17 179.45,372.17" fill="none" stroke="rgb(226, 133, 254)" stroke-width="6.00" stroke-opacity="1.00" stroke-linejoin="round"/>
<path d="M184.39,363.94 C185.52,364.05 187.90,364.25 188.38,364.47 C189.37,364.96 190.60,366.99 190.82,368.43 C191.00,369.94 190.58,372.58 189.92,374.01 C187.28,379.50 183.89,378.44 183.35,378.09 C183.17,377.96 182.98,377.83 182.79,377.70" fill="none" stroke="rgb(226, 133, 254)" stroke-width="6.00" stroke-opacity="1.00" stroke-linejoin="round"/>
<path d="M182.12,368.93 C182.58,369.79 183.86,372.19 184.06,372.47 C184.18,372.66 184.34,372.80 184.52,372.89" fill="none" stroke="rgb(226, 133, 254)" stroke-width="6.00" stroke-opacity="1.00" stroke-linejoin="round"/>
<path d="M192.27,369.17 C192.27,369.17 187.24,378.49 187.24,378.49 C187.58,377.64 188.00,376.94 188.91,375.78 C189.82,374.61 191.11,373.80 193.58,372.73 C195.11,373.71 196.17,375.54 196.05,377.79 C195.79,381.58 191.82,386.00 190.67,386.51 C190.23,386.69 189.30,386.94 187.86,387.26" fill="none" stroke="rgb(226, 133, 254)" stroke-width="6.00" stroke-opacity="1.00" stroke-linejoin="round"/>
<path d="M187.59,378.96 C190.45,382.17 191.80,383.20 192.79,383.46 C192.98,383.51 193.15,383.48 193.30,383.37" fill="none" stroke="rgb(226, 133, 254)" stroke-width="6.00" stroke-opacity="1.00" stroke-linejoin="round"/>
<path d="M205.36,360.99 C201.32,364.01 196.75,368.23 196.20,368.74 C195.93,368.99 195.39,369.46 194.57,370.15" fill="none" stroke="rgb(226, 133, 254)" stroke-width="6.00" stroke-opacity="1.00" stroke-linejoin="round"/>
<path d="M194.27,371.09 C195.88,371.13 199.88,371.24 202.27,371.30 C203.97,371.35 206.28,371.40 206.89,371.41 C206.89,371.41 206.03,371.75 206.03,371.75" fill="none" stroke="rgb(226, 133, 254)" stroke-width="6.00" stroke-opacity="1.00" stroke-linejoin="round"/>
<path d="M197.21,374.27 C197.21,374.27 196.81,383.34 196.81,383.34 C196.81,383.34 196.81,379.81 196.81,379.81" fill="none" stroke="rgb(226, 133, 254)" stroke-width="6.00" stroke-opacity="1.00" stroke-linejoin="round"/>
<path d="M197.35,376.02 C200.66,375.05 206.01,374.69 208.00,375.54 C209.03,376.05 210.09,378.56 210.04,380.48 C209.97,382.05 208.88,384.09 208.14,384.78 C208.14,384.78 207.50,384.37 207.50,384.37" fill="none" stroke="rgb(226, 133, 254)" stroke-width="6.00" stroke-opacity="1.00" stroke-linejoin="round"/>
<path d="M204.16,371.39 C204.16,371.39 203.93,372.25 203.93,372.25" fill="none" stroke="rgb(226, 133, 254)" stroke-width="6.00" stroke-opacity="1.00" stroke-linejoin="round"/>
<path d="M198.68,379.02 C202.63,378.99 206.74,379.33 207.99,379.43 C208.09,379.44 208.37,379.48 208.28,379.44" fill="none" stroke="rgb(226, 133, 254)" stroke-width="6.00" stroke-opacity="1.00" stroke-linejoin="round"/>
<path d="M199.08,383.23 C202.10,383.25 206.60,383.03 207.61,382.69 C207.89,382.59 208.43,382.33 209.21,381.92 C209.21,381.92 209.32,380.84 209.32,380.84" fill="none" stroke="rgb(226, 133, 254)" stroke-width="6.00" stroke-opacity="1.00" stroke-linejoin="round"/>
<path d="M204.42,372.05 C204.38,374.96 204.23,383.79 204.20,384.34 C204.09,387.26 203.89,388.79 203.67,388.85 C203.67,388.85 203.20,388.32 203.20,388.32" fill="none" stroke="rgb(226, 133, 254)" stroke-width="6.00" stroke-opacity="1.00" stroke-linejoin="round"/>
<path d="M197.88,386.24 C200.65,385.37 203.99,384.83 205.54,385.13 C205.91,385.20 206.14,385.41 206.24,385.76 C206.24,385.76 206.18,387.25 206.18,387.25" fill="none" stroke="rgb(226, 133, 254)" stroke-width="6.00" stroke-opacity="1.00" stroke-linejoin="round"/>
<path d="M198.81,391.22 C201.80,391.21 204.37,391.02 205.78,390.58 C207.07,390.17 208.79,389.24 209.45,388.74" fill="none" stroke="rgb(226, 133, 254)" stroke-width="6.00" stroke-opacity="1.00" stroke-linejoin="round"/>
<path d="M211.24,377.46 C212.95,377.28 216.61,376.80 217.13,377.06 C218.20,377.63 218.35,379.95 217.71,381.60 C216.05,385.51 214.32,387.78 213.90,387.77 C213.90,387.77 213.77,386.30 213.77,386.30" fill="none" stroke="rgb(226, 133, 254)" stroke-width="6.00" stroke-opacity="1.00" stroke-linejoin="round"/>
<path d="M214.84,370.31 C213.99,374.30 212.24,378.97 211.27,381.58 C210.01,384.98 209.82,385.55 209.77,385.75 C209.77,385.75 209.77,384.67 209.77,384.67" fill="none" stroke="rgb(226, 133, 254)" stroke-width="6.00" stroke-opacity="1.00" stroke-linejoin="round"/>
<path d="M223.93,373.13 C224.19,372.71 224.46,384.31 224.75,385.87 C225.05,387.35 226.12,389.50 226.84,389.65 C228.59,389.95 232.48,387.47 233.94,386.60" fill="none" stroke="rgb(226, 133, 254)" stroke-width="6.00" stroke-opacity="1.00" stroke-linejoin="round"/>
<path d="M238.08,375.42 C238.08,375.42 246.63,376.99 246.63,376.99 C246.38,377.92 241.47,384.49 241.29,384.99 C241.16,385.38 241.05,386.18 240.95,387.41 C242.22,388.18 243.75,388.45 245.67,388.08 C246.31,387.96 248.82,387.25 250.10,386.90" fill="none" stroke="rgb(226, 133, 254)" stroke-width="6.00" stroke-opacity="1.00" stroke-linejoin="round"/>
<path d="M254.65,371.99 C256.89,372.48 260.01,372.92 261.06,373.19 C261.36,373.27 261.54,373.40 261.59,373.58 C261.59,373.58 261.25,374.07 261.25,374.07" fill="none" stroke="rgb(226, 133, 254)" stroke-width="6.00" stroke-opacity="1.00" stroke-linejoin="round"/>
<path d="M254.24,379.92 C254.24,379.92 262.64,379.77 262.64,379.77 C262.64,379.77 262.74,378.35 262.74,378.35" fill="none" stroke="rgb(226, 133, 254)" stroke-width="6.00" stroke-opacity="1.00" stroke-linejoin="round"/>
<path d="M257.45,371.03 C257.34,374.40 257.55,383.11 257.23,383.84 C257.03,384.26 256.48,385.21 255.56,386.69" fill="none" stroke="rgb(226, 133, 254)" stroke-width="6.00" stroke-opacity="1.00" stroke-linejoin="round"/>
<path d="M252.37,391.22 C254.35,392.44 256.45,393.40 257.68,393.46 C259.55,393.54 261.66,391.63 262.01,391.15" fill="none" stroke="rgb(226, 133, 254)" stroke-width="6.00" stroke-opacity="1.00" stroke-linejoin="round"/>
<path d="M267.20,375.96 C269.24,375.92 271.87,376.19 273.42,376.74 C273.89,376.91 274.60,377.25 275.54,377.78 C275.54,377.78 275.44,377.88 275.44,377.88" fill="none" stroke="rgb(226, 133, 254)" stroke-width="6.00" stroke-opacity="1.00" stroke-linejoin="round"/>
<path d="M271.07,376.86 C269.33,381.11 267.75,391.56 267.74,391.58 C267.72,391.71 267.67,391.80 267.60,391.85 C267.60,391.85 267.60,390.38 267.60,390.38" fill="none" stroke="rgb(226, 133, 254)" stroke-width="6.00" stroke-opacity="1.00" stroke-linejoin="round"/>
<path d="M271.88,383.83 C271.88,383.83 280.61,384.99 280.61,384.99 C280.61,384.99 280.94,385.60 280.94,385.60 C280.94,385.60 280.43,386.60 280.43,386.60" fill="none" stroke="rgb(226, 133, 254)" stroke-width="6.00" stroke-opacity="1.00" stroke-linejoin="round"/>
<path d="M273.75,392.43 C274.64,392.69 277.11,393.43 277.96,393.54 C279.07,393.69 282.33,393.83 282.39,393.81 C282.39,393.81 282.29,393.81 282.29,393.81" fill="none" stroke="rgb(226, 133, 254)" stroke-width="6.00" stroke-opacity="1.00" stroke-linejoin="round"/>
<path d="M33.99,403.43 C33.67,405.91 33.31,409.37 33.35,410.61 C33.41,411.99 34.43,413.69 35.51,414.35 C37.78,415.65 43.75,417.46 46.97,417.92 C51.54,418.52 73.41,419.04 77.24,419.25 C85.59,419.73 103.38,422.45 108.12,423.62 C110.09,424.11 116.69,426.25 119.00,427.79 C121.59,429.58 124.40,435.07 125.13,438.02 C125.14,438.10 125.75,441.21 125.75,441.19 C126.65,437.91 127.56,435.52 128.93,433.37 C130.26,431.34 133.21,428.70 136.51,426.44 C139.06,424.75 145.45,422.77 148.12,422.53 C151.04,422.28 199.72,422.89 201.72,422.74 C203.96,422.56 206.27,421.96 207.75,421.20 C208.89,420.58 211.48,418.30 212.28,417.25 C212.54,416.92 212.68,416.53 212.71,416.11" fill="none" stroke="rgb(226, 133, 254)" stroke-width="6.00" stroke-opacity="1.00" stroke-linejoin="round"/>
<path d="M102.25,468.04 C107.91,465.64 114.79,465.57 116.11,465.57 C116.11,465.57 114.12,465.49 114.12,465.49" fill="none" stroke="rgb(226, 133, 254)" stroke-width="6.00" stroke-opacity="1.00" stroke-linejoin="round"/>
<path d="M103.85,457.40 C103.61,461.22 104.00,474.38 103.38,476.77 C103.04,477.95 101.86,479.34 100.91,479.62 C99.97,479.87 98.66,479.15 97.80,478.22 C97.80,478.22 98.07,476.58 98.07,476.58 C100.09,475.62 101.39,475.26 102.82,475.41 C107.28,475.94 112.51,478.55 113.38,479.00 C113.38,479.00 112.53,478.20 112.53,478.20" fill="none" stroke="rgb(226, 133, 254)" stroke-width="6.00" stroke-opacity="1.00" stroke-linejoin="round"/>
<path d="M117.87,466.48 C117.87,466.48 119.19,474.33 119.19,474.33 C119.19,474.33 119.61,473.15 119.61,473.15" fill="none" stroke="rgb(226, 133, 254)" stroke-width="6.00" stroke-opacity="1.00" stroke-linejoin="round"/>
<path d="M125.09,461.73 C126.60,463.79 127.37,465.38 127.61,467.37 C128.05,471.09 127.22,477.29 125.92,479.48 C125.34,480.41 124.44,481.28 123.93,481.38 C123.77,481.40 123.39,481.41 122.81,481.38 C122.81,481.38 122.55,480.24 122.55,480.24" fill="none" stroke="rgb(226, 133, 254)" stroke-width="6.00" stroke-opacity="1.00" stroke-linejoin="round"/>
<path d="M138.58,462.03 C138.58,462.03 140.85,482.76 140.85,482.76 C140.85,482.76 139.91,482.76 139.91,482.76" fill="none" stroke="rgb(226, 133, 254)" stroke-width="6.00" stroke-opacity="1.00" stroke-linejoin="round"/>
<path d="M133.90,472.55 C133.65,472.70 133.18,473.58 132.04,476.10 C131.61,477.06 131.18,478.02 130.75,478.97 C130.75,478.97 131.70,478.33 131.70,478.33" fill="none" stroke="rgb(226, 133, 254)" stroke-width="6.00" stroke-opacity="1.00" stroke-linejoin="round"/>
<path d="M150.33,469.00 C150.33,469.00 154.34,474.53 154.34,474.53 C154.34,474.53 154.34,474.23 154.34,474.23" fill="none" stroke="rgb(226, 133, 254)" stroke-width="6.00" stroke-opacity="1.00" stroke-linejoin="round"/>
<path d="M157.28,468.16 C157.28,468.16 167.68,466.64 167.68,466.64 C167.68,466.64 164.99,466.36 164.99,466.36" fill="none" stroke="rgb(226, 133, 254)" stroke-width="6.00" stroke-opacity="1.00" stroke-linejoin="round"/>
<path d="M161.68,463.41 C161.68,463.41 163.86,475.12 163.86,475.12 C163.52,475.50 163.29,475.74 163.17,475.84 C163.04,475.94 162.84,476.02 162.57,476.09" fill="none" stroke="rgb(226, 133, 254)" stroke-width="6.00" stroke-opacity="1.00" stroke-linejoin="round"/>
<path d="M157.14,476.93 C157.60,478.66 158.48,480.37 159.51,481.02 C161.15,482.02 167.79,481.88 169.11,480.62 C169.43,480.31 170.02,479.48 170.90,478.13" fill="none" stroke="rgb(226, 133, 254)" stroke-width="6.00" stroke-opacity="1.00" stroke-linejoin="round"/>
<path d="M175.04,467.92 C175.04,467.92 178.62,476.14 178.62,476.14 C178.62,476.14 179.05,475.01 179.05,475.01" fill="none" stroke="rgb(226, 133, 254)" stroke-width="6.00" stroke-opacity="1.00" stroke-linejoin="round"/>
<path d="M188.93,464.07 C191.22,467.69 192.44,470.29 192.79,473.51 C192.95,475.53 192.86,477.98 192.31,478.86 C192.05,479.27 191.35,479.87 190.22,480.66" fill="none" stroke="rgb(226, 133, 254)" stroke-width="6.00" stroke-opacity="1.00" stroke-linejoin="round"/>
<path d="M234.21,416.71 C235.19,419.25 236.24,421.05 237.43,421.94 C237.56,422.04 242.97,424.95 245.08,425.20 C246.09,425.31 255.16,425.72 258.26,426.52 C258.78,426.66 280.22,432.97 284.24,433.58 C286.80,433.96 306.54,435.43 310.65,436.22 C313.63,436.82 320.48,439.87 322.98,442.12 C325.47,444.45 328.36,452.31 328.34,452.24 C329.46,449.44 332.27,442.51 333.82,440.09 C334.81,438.57 337.03,436.68 338.72,435.83 C341.46,434.53 348.41,433.63 351.60,433.88 C354.93,434.15 372.59,437.11 376.83,436.74 C379.81,436.46 386.59,434.60 389.95,432.96 C393.27,431.32 400.58,425.61 401.30,425.03 C403.38,423.31 403.65,422.36 403.71,421.94" fill="none" stroke="rgb(133, 254, 183)" stroke-width="6.00" stroke-opacity="1.00" stroke-linejoin="round"/>
<path d="M325.04,473.87 C321.06,474.09 317.60,473.12 315.66,472.97 C315.35,472.94 315.09,472.94 314.89,472.97 C314.89,472.97 326.17,471.04 326.17,471.04 C326.17,471.04 325.57,471.22 325.57,471.22" fill="none" stroke="rgb(133, 254, 183)" stroke-width="6.00" stroke-opacity="1.00" stroke-linejoin="round"/>
<path d="M317.15,464.37 C318.48,469.07 318.16,478.24 316.99,481.61 C316.36,483.41 315.37,484.62 313.82,485.83 C312.45,485.34 310.90,483.98 310.85,482.80 C310.83,481.82 312.26,480.65 313.52,480.37 C316.04,479.88 321.00,480.11 323.33,480.73 C324.51,481.05 326.11,481.98 328.45,483.61 C328.47,483.62 328.53,483.68 328.51,483.67" fill="none" stroke="rgb(133, 254, 183)" stroke-width="6.00" stroke-opacity="1.00" stroke-linejoin="round"/>
<path d="M331.98,467.32 C332.85,472.82 332.78,475.36 333.10,476.13 C333.14,476.20 333.22,475.82 333.36,475.00" fill="none" stroke="rgb(133, 254, 183)" stroke-width="6.00" stroke-opacity="1.00" stroke-linejoin="round"/>
<path d="M337.46,468.82 C338.68,474.81 337.91,486.47 336.94,487.62 C336.69,487.91 336.13,488.10 335.27,488.19" fill="none" stroke="rgb(133, 254, 183)" stroke-width="6.00" stroke-opacity="1.00" stroke-linejoin="round"/>
<path d="M347.34,470.62 C349.98,470.44 356.96,471.28 359.84,471.79 C360.20,471.86 360.38,471.91 360.37,471.94 C360.37,471.94 359.73,471.95 359.73,471.95" fill="none" stroke="rgb(133, 254, 183)" stroke-width="6.00" stroke-opacity="1.00" stroke-linejoin="round"/>
<path d="M355.35,468.10 C354.29,472.31 352.73,477.01 350.69,481.96 C350.19,483.17 348.92,486.36 348.81,486.60 C348.78,486.65 348.80,486.48 348.81,486.42" fill="none" stroke="rgb(133, 254, 183)" stroke-width="6.00" stroke-opacity="1.00" stroke-linejoin="round"/>
<path d="M355.35,474.17 C356.23,477.12 358.08,482.50 358.84,483.84 C359.53,485.04 360.18,485.99 360.80,486.67 C361.06,486.96 361.39,487.15 361.78,487.26 C361.78,487.26 362.01,486.83 362.01,486.83" fill="none" stroke="rgb(133, 254, 183)" stroke-width="6.00" stroke-opacity="1.00" stroke-linejoin="round"/>
<path d="M365.24,472.55 C367.17,472.23 368.69,472.09 370.94,472.05 C373.19,472.01 374.06,472.23 374.43,472.78 C374.43,472.78 374.29,473.44 374.29,473.44" fill="none" stroke="rgb(133, 254, 183)" stroke-width="6.00" stroke-opacity="1.00" stroke-linejoin="round"/>
<path d="M364.57,478.02 C364.57,478.02 375.43,478.73 375.43,478.73 C375.43,478.73 375.26,478.20 375.26,478.20" fill="none" stroke="rgb(133, 254, 183)" stroke-width="6.00" stroke-opacity="1.00" stroke-linejoin="round"/>
<path d="M370.05,469.66 C370.55,473.48 371.42,480.03 371.33,480.89 C371.14,482.71 370.12,485.13 369.73,485.30" fill="none" stroke="rgb(133, 254, 183)" stroke-width="6.00" stroke-opacity="1.00" stroke-linejoin="round"/>
<path d="M364.04,486.19 C365.76,488.24 367.48,490.00 368.62,490.26 C369.83,490.52 373.41,490.27 373.90,489.97 C374.03,489.89 374.44,489.57 375.12,489.02" fill="none" stroke="rgb(133, 254, 183)" stroke-width="6.00" stroke-opacity="1.00" stroke-linejoin="round"/>
<path d="M381.27,473.15 C382.09,476.46 383.50,482.16 383.67,482.73 C383.79,483.12 384.02,483.77 384.36,484.66 C384.36,484.66 384.47,483.43 384.47,483.43" fill="none" stroke="rgb(133, 254, 183)" stroke-width="6.00" stroke-opacity="1.00" stroke-linejoin="round"/>
<path d="M395.29,473.63 C396.75,476.47 399.38,482.83 399.12,484.03 C399.02,484.48 398.56,485.39 397.75,486.75 C397.75,486.75 395.38,487.15 395.38,487.15" fill="none" stroke="rgb(133, 254, 183)" stroke-width="6.00" stroke-opacity="1.00" stroke-linejoin="round"/>
<path d="M77.54,457.34 C75.16,456.47 74.40,456.27 74.47,456.32 C74.47,456.32 74.45,456.32 74.35,456.33 C72.08,459.21 68.67,466.38 68.13,469.40 C67.68,472.11 68.67,477.34 69.70,478.34 C70.98,479.51 75.19,479.78 76.88,478.66 C77.42,478.27 79.07,476.57 79.28,475.84 C79.79,473.89 79.01,471.04 77.52,470.05 C76.58,469.46 73.37,469.06 72.63,469.32 C72.34,469.43 71.89,469.74 71.26,470.26" fill="none" stroke="rgb(186, 186, 186)" stroke-width="6.00" stroke-opacity="1.00" stroke-linejoin="round"/>
<path d="M287.10,466.42 C287.10,466.42 286.50,466.30 286.50,466.30 C283.31,468.70 279.13,474.06 278.19,476.97 C277.39,479.63 277.29,487.64 278.10,489.23 C278.59,490.11 280.34,491.20 281.34,491.31 C281.63,491.32 285.02,490.86 285.64,490.59 C287.54,489.70 289.96,487.15 290.10,485.63 C290.19,484.24 288.42,481.99 286.80,481.17 C286.15,480.87 281.92,479.73 281.11,479.76 C280.53,479.80 279.33,480.04 277.49,480.48" fill="none" stroke="rgb(186, 186, 186)" stroke-width="6.00" stroke-opacity="1.00" stroke-linejoin="round"/>
<path d="M81.94,487.45 C79.62,487.54 75.21,487.77 74.48,487.75 C72.28,487.68 69.93,487.11 68.50,486.36 C65.67,484.77 61.61,481.42 59.72,479.29 C55.98,475.00 51.07,466.38 49.97,463.94 C49.14,462.01 49.50,457.46 50.50,454.64 C51.35,452.40 54.39,446.98 57.00,444.69 C59.97,442.14 67.07,438.97 70.37,438.74 C72.96,438.60 78.63,440.75 80.39,442.05 C82.07,443.34 86.87,448.07 88.68,450.61 C90.53,453.26 93.85,459.40 94.81,462.40 C95.88,465.89 96.36,473.03 95.61,476.06 C95.39,476.91 93.72,481.13 93.24,481.94 C91.50,484.77 87.09,487.24 85.42,488.23" fill="none" stroke="rgb(255, 158, 7)" stroke-width="6.00" stroke-opacity="1.00" stroke-linejoin="round"/>
<path d="M279.09,496.11 C276.77,494.26 271.63,490.12 270.29,488.58 C269.50,487.65 266.91,483.25 266.15,481.04 C265.40,478.84 264.71,474.73 264.50,472.02 C264.34,469.08 265.93,464.27 268.21,461.38 C269.21,460.17 271.29,457.52 271.75,457.07 C273.21,455.68 276.18,453.83 277.95,453.34 C281.24,452.48 287.27,453.30 289.29,454.10 C291.72,455.11 296.31,458.74 297.98,461.04 C299.50,463.20 302.22,469.36 302.68,471.51 C303.15,473.87 303.29,480.95 303.08,482.68 C302.55,486.60 299.96,492.48 297.88,495.20 C295.84,497.80 292.17,500.55 289.32,501.71 C286.81,502.67 275.16,501.70 273.75,501.58" fill="none" stroke="rgb(255, 158, 7)" stroke-width="6.00" stroke-opacity="1.00" stroke-linejoin="round"/>
</g>
</svg>
