<?xml version="1.0" encoding="UTF-8" standalone="no"?>
<!DOCTYPE svg PUBLIC "-//W3C//DTD SVG 1.1//EN" "http://www.w3.org/Graphics/SVG/1.1/DTD/svg11.dtd">
<svg width="1600.00" height="1200.00" viewBox="0.00 0.00 1600.00 1200.00" xmlns="http://www.w3.org/2000/svg" xmlns:xlink="http://www.w3.org/1999/xlink">
<g stroke-linecap="round" id="Vector">
<path d="M166.14,1037.59 L166.14,83.60" fill="none" stroke="rgb(0, 0, 0)" stroke-width="7.00" stroke-opacity="1.00" stroke-linejoin="round"/>
<path d="M151.47,99.06 L162.80,74.26" fill="none" stroke="rgb(0, 0, 0)" stroke-width="7.00" stroke-opacity="1.00" stroke-linejoin="round"/>
<path d="M164.94,73.33 L181.73,99.33" fill="none" stroke="rgb(0, 0, 0)" stroke-width="7.00" stroke-opacity="1.00" stroke-linejoin="round"/>
<path d="M88.50,961.60 L1439.87,961.60" fill="none" stroke="rgb(0, 0, 0)" stroke-width="7.00" stroke-opacity="1.00" stroke-linejoin="round"/>
<path d="M1428.13,939.33 L1447.60,958.79" fill="none" stroke="rgb(0, 0, 0)" stroke-width="7.00" stroke-opacity="1.00" stroke-linejoin="round"/>
<path d="M1429.47,983.46 L1452.20,960.73" fill="none" stroke="rgb(0, 0, 0)" stroke-width="7.00" stroke-opacity="1.00" stroke-linejoin="round"/>
<path d="M163.61,122.00 Q997.60,121.07 993.74,968.26" fill="none" stroke="rgb(0, 0, 0)" stroke-width="7.00" stroke-opacity="1.00" stroke-linejoin="round"/>
<path d="M170.94,956.93 L170.27,956.93" fill="none" stroke="rgb(255, 194, 0)" stroke-width="7.00" stroke-opacity="1.00" stroke-linejoin="round"/>
<path d="M171.33,955.60 L303.33,134.26" fill="none" stroke="rgb(255, 194, 0)" stroke-width="7.00" stroke-opacity="1.00" stroke-linejoin="round"/>
<path d="M169.87,957.20 L952.27,658.26" fill="none" stroke="rgb(255, 215, 87)" stroke-width="7.00" stroke-opacity="1.00" stroke-linejoin="round"/>
<path d="M956.67,656.79 L956.67,961.07" fill="none" stroke="rgb(163, 255, 87)" stroke-width="7.00" stroke-opacity="1.00" stroke-linejoin="round"/>
<path d="M304.53,131.60 L304.53,958.80" fill="none" stroke="rgb(116, 255, 0)" stroke-width="7.00" stroke-opacity="1.00" stroke-linejoin="round"/>
<path d="M169.61,954.93 L169.73,955.19" fill="none" stroke="rgb(79, 178, 255)" stroke-width="7.00" stroke-opacity="1.00" stroke-linejoin="round"/>
<path d="M169.73,955.19 L170.00,954.80" fill="none" stroke="rgb(79, 178, 255)" stroke-width="7.00" stroke-opacity="1.00" stroke-linejoin="round"/>
<path d="M170.67,954.26 L958.93,954.26" fill="none" stroke="rgb(79, 178, 255)" stroke-width="7.00" stroke-opacity="1.00" stroke-linejoin="round"/>
<path d="M170.94,952.53 L303.20,952.53" fill="none" stroke="rgb(0, 143, 255)" stroke-width="7.00" stroke-opacity="1.00" stroke-linejoin="round"/>
<path d="M940.27,996.26 C940.27,996.26 936.98,994.42 936.98,994.42 C938.23,994.12 942.54,995.90 943.61,997.34 C944.83,999.10 945.27,1006.15 944.18,1008.66 C941.38,1014.84 935.44,1019.15 933.96,1019.85 C933.96,1019.85 936.13,1016.13 936.13,1016.13" fill="none" stroke="rgb(79, 178, 255)" stroke-width="7.00" stroke-opacity="1.00" stroke-linejoin="round"/>
<path d="M962.54,992.66 C960.67,992.47 955.86,994.59 952.65,997.38 C951.19,998.70 949.22,1001.62 948.66,1003.31 C947.79,1006.12 947.64,1013.01 948.30,1016.58 C948.64,1018.23 949.75,1021.03 950.64,1022.27 C951.64,1023.60 954.32,1025.24 956.62,1026.05 C959.90,1027.16 964.61,1027.69 964.95,1027.82 C965.22,1027.92 965.71,1028.20 966.40,1028.66" fill="none" stroke="rgb(79, 178, 255)" stroke-width="7.00" stroke-opacity="1.00" stroke-linejoin="round"/>
<path d="M289.34,986.66 C289.34,986.66 286.53,985.19 286.53,985.19 C288.15,985.74 290.57,986.71 291.62,987.42 C294.22,989.19 297.11,994.95 297.83,998.64 C298.38,1001.66 298.04,1007.66 297.41,1009.57 C296.44,1012.32 292.83,1015.98 289.06,1019.11 C287.53,1020.37 286.54,1020.97 284.93,1021.68 C284.93,1021.68 286.53,1019.20 286.53,1019.20" fill="none" stroke="rgb(14, 149, 255)" stroke-width="7.00" stroke-opacity="1.00" stroke-linejoin="round"/>
<path d="M315.33,985.33 C315.33,985.33 315.90,982.93 315.90,982.93 C313.92,982.89 309.68,984.34 308.08,985.53 C306.05,987.07 301.64,992.82 300.88,994.49 C299.51,997.60 299.31,1003.98 299.70,1008.34 C300.07,1012.02 302.49,1017.92 304.51,1019.34 C306.49,1020.67 316.60,1024.06 317.04,1024.10 C317.43,1024.13 317.89,1024.00 318.41,1023.71 C318.49,1023.66 318.67,1023.53 318.94,1023.33" fill="none" stroke="rgb(14, 149, 255)" stroke-width="7.00" stroke-opacity="1.00" stroke-linejoin="round"/>
<path d="M186.87,887.79 C186.87,887.77 186.87,887.75 186.87,887.73 C186.87,887.66 186.67,887.41 186.20,886.86 C189.52,887.03 197.22,887.51 199.17,888.33 C200.07,888.72 209.09,895.09 209.28,895.42 C209.41,895.66 209.41,896.09 209.27,896.73" fill="none" stroke="rgb(255, 255, 255)" stroke-width="7.00" stroke-opacity="1.00" stroke-linejoin="round"/>
<path d="M189.68,882.51 C196.01,882.07 200.67,882.32 204.34,884.12 C210.73,887.39 218.17,895.68 223.40,902.33 C223.40,902.33 221.67,903.26 221.67,903.26" fill="none" stroke="rgb(255, 255, 255)" stroke-width="7.00" stroke-opacity="1.00" stroke-linejoin="round"/>
<path d="M188.47,886.33 C188.45,885.88 188.50,885.61 188.60,885.53 C188.69,885.47 195.44,885.02 198.00,885.77 C200.27,886.47 206.39,890.38 209.39,893.05 C211.56,895.00 216.32,900.35 218.39,903.23 C220.64,906.42 223.81,912.49 226.19,918.01 C227.17,920.23 227.39,921.51 227.05,922.55 C226.98,922.74 226.83,922.98 226.61,923.26" fill="none" stroke="rgb(251, 0, 255)" stroke-width="7.00" stroke-opacity="1.00" stroke-linejoin="round"/>
<path d="M233.00,932.86 C233.00,932.86 233.00,931.93 233.00,931.93 C233.00,931.93 232.88,931.66 232.88,931.66 C235.35,934.90 237.86,946.86 238.18,948.39 C238.08,947.91 238.01,947.57 237.96,947.35 C237.91,947.14 237.81,946.75 237.67,946.19" fill="none" stroke="rgb(251, 0, 255)" stroke-width="7.00" stroke-opacity="1.00" stroke-linejoin="round"/>
<path d="M251.14,859.00 C251.15,858.99 247.76,863.46 245.72,867.76 C244.83,869.65 242.74,875.63 242.06,878.25 C241.33,881.17 241.01,886.56 241.17,892.65 C241.25,895.27 241.73,896.59 242.98,898.24 C244.35,898.22 246.49,897.95 247.55,897.41 C249.85,896.21 254.35,890.41 256.35,886.86 C258.15,883.58 260.05,877.64 260.30,874.49 C260.48,871.26 259.16,866.67 256.85,862.24 C255.81,860.25 255.26,859.51 254.46,858.84 C254.46,858.84 251.27,861.26 251.27,861.26" fill="none" stroke="rgb(251, 0, 255)" stroke-width="7.00" stroke-opacity="1.00" stroke-linejoin="round"/>
<path d="M245.67,879.26 C245.67,879.26 244.87,877.14 244.87,877.14 C252.70,874.55 259.39,874.55 265.29,874.84 C265.29,874.84 260.20,877.26 260.20,877.26" fill="none" stroke="rgb(251, 0, 255)" stroke-width="7.00" stroke-opacity="1.00" stroke-linejoin="round"/>
<path d="M112.73,125.26 C112.73,125.26 113.00,124.73 113.00,124.73 C111.78,126.22 102.14,150.67 102.60,152.37 C102.72,152.77 103.24,153.49 104.17,154.54 C104.17,154.54 125.45,146.03 125.45,146.03 C125.83,150.74 125.86,155.21 124.73,158.63 C124.41,159.58 120.21,169.44 118.56,173.26 C116.85,177.12 113.61,182.43 111.45,184.82 C110.51,185.78 108.21,187.34 107.12,187.35 C105.73,187.33 104.66,186.84 103.89,185.89 C103.24,185.02 103.25,181.23 103.62,180.01 C104.27,178.18 105.60,176.11 106.93,174.90 C109.44,172.69 114.75,169.08 116.73,168.30 C119.22,167.36 127.08,167.13 129.50,167.72 C131.28,168.17 134.06,169.36 135.60,170.19" fill="none" stroke="rgb(116, 255, 0)" stroke-width="7.00" stroke-opacity="1.00" stroke-linejoin="round"/>
<path d="M115.00,626.73 C113.60,629.40 109.75,636.90 109.28,638.52 C108.61,640.88 108.35,643.66 108.54,645.06 C112.08,647.13 117.06,649.04 117.59,649.35 C119.49,650.49 121.59,653.93 122.74,657.35 C123.38,659.38 122.41,664.20 121.02,668.42 C119.59,672.63 116.65,677.57 113.87,680.00 C113.44,680.36 112.95,680.79 112.40,681.28 C112.40,681.28 108.68,680.18 108.68,680.18 C108.48,677.16 108.62,675.30 109.33,673.61 C110.70,670.44 114.38,666.13 117.33,664.81 C120.37,663.53 126.24,662.93 130.40,663.96 C132.73,664.55 134.95,665.64 137.22,667.17 C137.53,667.39 137.68,667.50 137.66,667.52" fill="none" stroke="rgb(163, 255, 87)" stroke-width="7.00" stroke-opacity="1.00" stroke-linejoin="round"/>
</g>
<g stroke-linecap="round" id="Layer_1">
<path d="M1023.58,196.21 C1023.58,196.21 1023.89,195.65 1023.89,195.65 C1019.50,193.93 1015.61,192.82 1012.19,192.80 C1009.45,192.83 1004.34,193.91 1001.72,195.67 C998.97,197.57 995.25,202.63 993.54,206.25 C991.88,209.89 990.42,214.78 989.60,220.05 C989.27,222.44 989.18,225.52 989.62,226.48 C989.86,226.98 992.26,228.06 993.46,228.75 C996.96,226.87 1001.68,223.08 1004.26,220.10 C1015.45,206.89 1017.86,194.84 1017.94,193.76 C1017.91,196.18 1018.61,205.60 1018.91,207.85 C1019.34,210.94 1020.87,215.92 1022.10,218.83 C1024.18,223.44 1025.03,224.43 1026.82,225.90 C1028.56,225.26 1031.22,224.18 1032.30,223.56 C1033.38,222.94 1035.27,221.43 1036.39,220.44" fill="none" stroke="rgb(14, 149, 255)" stroke-width="5.00" stroke-opacity="1.00" stroke-linejoin="round"/>
<path d="M1044.12,193.47 C1044.12,193.47 1044.31,192.09 1044.31,192.09 C1044.31,192.09 1042.50,190.78 1042.50,190.78 C1041.78,191.16 1041.53,191.80 1041.35,194.02 C1039.93,209.56 1037.89,230.94 1037.67,232.56 C1036.94,230.22 1038.11,225.03 1040.38,220.30 C1042.43,216.14 1045.80,210.67 1048.57,208.36 C1049.71,207.43 1052.30,205.47 1053.66,204.46 C1055.26,203.27 1056.33,202.90 1058.07,202.78 C1058.07,202.78 1062.60,206.57 1062.60,206.57" fill="none" stroke="rgb(14, 149, 255)" stroke-width="5.00" stroke-opacity="1.00" stroke-linejoin="round"/>
<path d="M1084.85,202.15 C1084.85,202.15 1084.85,201.24 1084.85,201.24 C1083.26,199.46 1082.73,198.96 1080.82,197.50 C1079.41,196.47 1077.22,196.17 1075.40,196.81 C1074.10,197.30 1069.69,202.19 1067.38,205.50 C1063.31,211.43 1059.46,221.41 1059.54,223.83 C1059.60,225.02 1060.60,227.52 1061.32,228.67 C1062.55,230.48 1066.00,232.04 1070.27,233.12 C1073.96,234.01 1076.37,233.88 1080.21,232.36 C1081.92,231.67 1084.77,230.51 1085.91,230.04" fill="none" stroke="rgb(14, 149, 255)" stroke-width="5.00" stroke-opacity="1.00" stroke-linejoin="round"/>
<path d="M1109.53,201.54 C1106.31,202.93 1101.24,205.94 1099.00,207.79 C1096.62,209.83 1093.60,215.62 1092.56,219.54 C1092.03,221.57 1090.33,230.38 1090.57,233.87 C1090.67,235.11 1092.68,238.29 1093.73,239.21 C1094.73,240.03 1101.24,239.68 1104.60,238.46 C1109.00,236.80 1118.43,228.50 1119.44,227.60" fill="none" stroke="rgb(14, 149, 255)" stroke-width="5.00" stroke-opacity="1.00" stroke-linejoin="round"/>
<path d="M1131.63,205.50 C1128.82,208.17 1125.11,212.86 1122.83,216.91 C1121.05,220.20 1120.81,225.49 1121.55,228.97 C1121.92,230.52 1122.98,232.20 1124.16,233.07 C1125.30,233.86 1127.39,234.44 1128.66,234.32 C1130.91,234.03 1135.73,230.03 1137.87,227.34 C1139.91,224.69 1141.90,219.41 1142.05,216.05 C1142.11,214.20 1141.78,211.72 1141.30,210.60 C1140.79,209.52 1139.44,208.33 1138.38,208.05 C1137.35,207.82 1134.69,208.10 1133.42,208.61 C1130.70,209.79 1128.49,214.18 1127.65,216.16 C1127.65,216.16 1130.87,219.53 1130.87,219.53" fill="none" stroke="rgb(14, 149, 255)" stroke-width="5.00" stroke-opacity="1.00" stroke-linejoin="round"/>
<path d="M1176.75,198.64 C1176.75,198.64 1176.75,197.96 1176.75,197.96 C1174.34,197.42 1172.50,197.38 1170.25,198.00 C1166.08,199.16 1161.05,201.95 1157.38,205.38 C1156.95,205.78 1156.13,206.56 1154.94,207.72 C1156.09,209.74 1166.50,215.60 1167.98,217.52 C1169.90,220.10 1170.94,225.74 1171.21,227.10 C1166.30,230.47 1161.68,233.40 1158.42,234.66 C1154.84,236.02 1152.36,236.41 1150.13,236.56 C1150.13,236.56 1156.47,232.48 1156.47,232.48" fill="none" stroke="rgb(14, 149, 255)" stroke-width="5.00" stroke-opacity="1.00" stroke-linejoin="round"/>
<path d="M1214.69,188.13 C1214.69,188.13 1214.84,187.07 1214.84,187.07 C1213.87,186.77 1211.13,185.84 1210.42,185.89 C1209.09,186.01 1206.38,187.65 1205.19,188.90 C1203.13,191.15 1198.23,198.46 1197.23,200.26 C1195.37,203.69 1194.08,209.12 1193.63,212.43 C1193.37,214.57 1193.14,217.77 1193.29,219.06 C1193.85,223.32 1196.97,228.20 1199.31,230.37 C1199.46,230.50 1199.53,230.50 1199.61,230.57" fill="none" stroke="rgb(14, 149, 255)" stroke-width="5.00" stroke-opacity="1.00" stroke-linejoin="round"/>
<path d="M1202.44,230.74 C1202.44,230.74 1204.46,230.08 1204.46,230.08" fill="none" stroke="rgb(14, 149, 255)" stroke-width="5.00" stroke-opacity="1.00" stroke-linejoin="round"/>
<path d="M1207.60,229.63 C1207.60,229.63 1207.76,229.36 1207.76,229.36" fill="none" stroke="rgb(14, 149, 255)" stroke-width="5.00" stroke-opacity="1.00" stroke-linejoin="round"/>
<path d="M1254.01,179.29 C1257.33,184.70 1259.91,189.13 1261.24,192.21 C1262.56,195.34 1264.04,200.75 1264.28,203.80 C1264.50,206.76 1264.01,213.43 1263.26,216.89 C1262.45,220.54 1260.08,227.37 1258.12,230.40 C1256.41,233.00 1251.62,238.08 1249.12,240.09 C1247.02,241.74 1244.06,242.49 1242.97,242.60 C1242.97,242.60 1241.66,236.60 1241.66,236.60" fill="none" stroke="rgb(14, 149, 255)" stroke-width="5.00" stroke-opacity="1.00" stroke-linejoin="round"/>
<path d="M1360.99,282.47 C1361.06,282.15 1361.01,281.89 1360.84,281.70 C1360.50,281.34 1356.89,278.89 1356.30,278.32 C1354.68,276.79 1354.00,275.05 1354.30,273.87 C1354.30,273.87 1356.18,272.70 1356.18,272.70 C1358.77,274.28 1361.41,278.07 1362.34,281.07 C1363.19,283.88 1364.05,289.37 1363.95,292.34 C1363.84,294.97 1362.77,302.86 1361.86,306.22 C1359.50,314.75 1356.73,318.92 1355.46,320.34 C1355.46,320.34 1358.10,314.32 1358.10,314.32" fill="none" stroke="rgb(14, 149, 255)" stroke-width="5.00" stroke-opacity="1.00" stroke-linejoin="round"/>
<path d="M1396.20,275.91 C1396.20,275.91 1396.20,275.00 1396.20,275.00 C1393.26,276.41 1385.72,280.13 1382.96,282.25 C1379.95,284.60 1375.44,290.71 1374.18,293.81 C1373.61,295.27 1372.79,298.74 1372.68,300.22 C1372.59,301.92 1373.14,304.82 1373.85,306.11 C1376.18,310.11 1387.12,315.17 1391.22,316.40 C1393.00,316.93 1393.64,316.92 1394.15,316.48 C1394.15,316.48 1393.30,315.84 1393.30,315.84" fill="none" stroke="rgb(14, 149, 255)" stroke-width="5.00" stroke-opacity="1.00" stroke-linejoin="round"/>
<path d="M1030.59,392.19 C1029.50,387.69 1028.13,382.74 1026.25,380.50 C1024.76,378.81 1016.64,373.81 1014.12,374.01 C1012.33,374.19 1009.77,375.82 1008.77,377.25 C1006.74,380.34 1003.97,386.43 1003.05,389.79 C1001.01,397.51 1001.71,405.10 1002.06,406.96 C1003.12,407.57 1005.04,408.00 1006.40,407.76 C1007.62,407.52 1012.71,403.60 1015.68,400.25 C1018.44,397.09 1026.75,385.62 1027.53,384.54 C1028.04,386.45 1027.08,402.78 1027.36,404.14 C1027.85,406.42 1029.14,408.57 1030.20,409.29 C1031.75,409.24 1035.10,407.11 1039.54,403.37 C1040.94,402.16 1043.24,400.15 1044.16,399.35" fill="none" stroke="rgb(124, 255, 15)" stroke-width="5.00" stroke-opacity="1.00" stroke-linejoin="round"/>
<path d="M1050.71,377.10 C1050.71,377.10 1049.38,375.19 1049.38,375.19 C1049.38,375.19 1049.14,406.11 1049.14,406.11 C1049.19,402.93 1050.80,397.58 1052.93,394.53 C1054.93,391.74 1059.43,388.00 1063.30,385.26 C1065.04,384.06 1070.44,381.03 1071.07,381.22 C1072.56,381.72 1074.40,383.71 1075.24,385.62 C1075.43,386.09 1077.08,389.54 1077.53,390.52" fill="none" stroke="rgb(124, 255, 15)" stroke-width="5.00" stroke-opacity="1.00" stroke-linejoin="round"/>
<path d="M1104.20,380.15 C1102.67,378.08 1100.83,376.52 1099.10,376.41 C1097.10,376.32 1094.15,377.32 1092.79,378.50 C1090.62,380.48 1085.49,386.33 1084.08,389.21 C1082.98,391.54 1082.00,399.47 1082.94,402.04 C1083.53,403.51 1085.02,405.36 1086.44,406.42 C1089.15,408.35 1093.97,409.15 1096.71,408.43 C1098.44,407.92 1100.65,406.80 1102.05,405.62 C1104.11,403.86 1108.89,397.82 1109.84,396.61" fill="none" stroke="rgb(124, 255, 15)" stroke-width="5.00" stroke-opacity="1.00" stroke-linejoin="round"/>
<path d="M1136.51,374.82 C1135.75,374.16 1134.73,373.94 1132.76,374.14 C1129.08,374.57 1123.81,376.54 1121.13,378.90 C1118.58,381.23 1117.84,383.46 1117.61,385.27 C1120.79,387.12 1129.91,392.58 1131.01,393.47 C1133.15,395.23 1134.77,397.41 1135.15,399.11 C1135.51,400.92 1135.69,403.65 1135.54,405.04 C1135.20,407.60 1131.85,411.53 1127.22,415.58 C1125.34,417.21 1124.25,417.94 1122.59,418.78 C1122.59,418.78 1127.82,412.77 1127.82,412.77" fill="none" stroke="rgb(124, 255, 15)" stroke-width="5.00" stroke-opacity="1.00" stroke-linejoin="round"/>
<path d="M1150.68,392.19 C1150.74,392.27 1150.82,392.04 1150.83,392.19 C1151.42,396.96 1152.44,411.80 1152.54,414.88 C1152.93,411.36 1153.02,407.53 1152.48,403.20 C1152.19,400.84 1151.11,393.88 1150.92,392.62" fill="none" stroke="rgb(124, 255, 15)" stroke-width="5.00" stroke-opacity="1.00" stroke-linejoin="round"/>
<path d="M1160.44,364.92 C1160.44,364.92 1164.09,366.82 1164.09,366.82 C1164.09,366.82 1164.02,366.42 1164.02,366.42" fill="none" stroke="rgb(124, 255, 15)" stroke-width="5.00" stroke-opacity="1.00" stroke-linejoin="round"/>
<path d="M1181.01,376.65 C1181.01,376.65 1179.94,376.65 1179.94,376.65 C1179.94,376.65 1170.85,409.32 1170.85,409.32 C1170.60,407.14 1172.36,400.02 1173.92,396.80 C1175.22,394.15 1180.74,386.43 1181.86,385.29 C1182.77,384.43 1185.02,382.99 1185.77,383.21 C1187.09,383.66 1189.21,385.28 1189.57,386.19 C1190.33,388.32 1191.57,396.16 1191.90,398.81 C1192.40,402.92 1192.43,411.32 1192.56,411.84 C1192.65,412.18 1192.92,412.81 1193.39,413.73 C1193.39,413.73 1198.08,409.57 1198.08,409.57" fill="none" stroke="rgb(124, 255, 15)" stroke-width="5.00" stroke-opacity="1.00" stroke-linejoin="round"/>
<path d="M1228.25,368.57 C1228.25,368.57 1228.25,367.96 1228.25,367.96 C1226.87,368.06 1224.71,368.44 1223.70,368.99 C1221.46,370.23 1217.31,376.03 1216.10,378.79 C1214.09,383.54 1211.53,400.59 1212.06,406.26 C1212.43,409.77 1215.58,416.95 1218.05,419.44 C1219.46,420.81 1221.65,422.13 1223.29,422.64 C1224.35,422.93 1227.18,423.34 1227.95,423.23 C1229.89,422.89 1234.45,417.73 1237.39,413.84 C1237.85,413.23 1238.31,412.61 1238.77,412.00" fill="none" stroke="rgb(124, 255, 15)" stroke-width="5.00" stroke-opacity="1.00" stroke-linejoin="round"/>
<path d="M1250.35,371.62 C1249.33,371.50 1247.26,372.50 1246.08,373.98 C1244.31,376.24 1242.24,388.76 1242.04,392.48 C1241.99,394.27 1242.80,397.15 1243.82,397.79 C1245.08,398.51 1247.59,397.76 1249.31,396.40 C1249.40,396.33 1254.92,392.12 1255.28,391.81 C1257.02,390.40 1258.88,389.90 1259.96,390.60 C1260.23,390.79 1261.54,393.79 1261.85,394.50 C1262.72,396.69 1262.68,401.46 1262.13,406.60 C1261.04,415.53 1257.49,424.01 1255.13,427.72 C1254.07,429.33 1251.85,431.31 1250.09,432.22 C1248.93,432.78 1246.04,432.83 1245.21,432.24 C1244.18,431.44 1242.67,428.94 1242.53,427.87 C1242.41,426.49 1242.98,424.86 1244.15,423.25 C1247.64,418.89 1250.65,416.48 1254.54,415.01 C1259.19,413.29 1265.57,411.37 1267.80,411.13 C1271.39,410.78 1275.50,412.33 1276.04,412.45 C1276.30,412.51 1276.78,412.56 1277.48,412.61" fill="none" stroke="rgb(124, 255, 15)" stroke-width="5.00" stroke-opacity="1.00" stroke-linejoin="round"/>
<path d="M1278.85,366.59 C1282.21,368.41 1286.22,372.05 1287.46,374.28 C1289.49,378.03 1291.84,393.03 1291.37,398.47 C1291.04,402.07 1289.03,409.48 1287.64,412.50 C1285.92,416.10 1281.84,420.91 1278.89,422.08 C1277.70,422.53 1275.01,423.05 1273.21,423.32 C1273.21,423.32 1269.88,416.78 1269.88,416.78" fill="none" stroke="rgb(124, 255, 15)" stroke-width="5.00" stroke-opacity="1.00" stroke-linejoin="round"/>
<path d="M1362.36,473.11 C1361.77,469.36 1361.13,468.50 1359.79,467.78 C1357.79,469.10 1356.91,469.99 1356.10,471.80 C1354.63,474.89 1351.94,481.07 1351.00,484.37 C1350.66,485.65 1350.85,489.39 1351.32,490.58 C1351.59,491.22 1354.21,492.58 1354.88,492.88 C1356.71,493.59 1361.09,492.79 1367.11,491.17 C1369.37,490.54 1374.14,489.25 1375.38,488.88 C1377.71,488.23 1379.77,488.01 1380.63,488.57 C1381.55,489.24 1382.36,491.59 1382.30,493.14 C1382.11,496.47 1380.60,504.08 1379.76,506.94 C1378.75,510.33 1375.74,517.53 1374.21,520.00 C1372.43,522.79 1367.56,527.47 1364.68,528.51 C1363.27,528.99 1359.87,529.02 1358.66,528.61 C1356.61,527.83 1352.56,523.25 1352.14,521.49 C1351.94,520.47 1352.43,517.99 1353.13,516.97 C1354.06,515.68 1357.31,513.48 1359.42,512.70 C1361.52,511.96 1371.31,511.07 1374.96,511.06 C1378.68,511.09 1385.56,512.20 1390.55,513.41 C1396.24,514.86 1401.83,516.80 1402.06,516.80 C1404.10,516.71 1411.73,511.62 1412.81,510.91" fill="none" stroke="rgb(124, 255, 15)" stroke-width="5.00" stroke-opacity="1.00" stroke-linejoin="round"/>
<path d="M1462.45,235.98 C1462.45,235.98 1463.25,235.98 1463.25,235.98 C1463.25,235.98 1458.01,235.96 1458.01,235.96 C1456.92,233.32 1455.92,229.24 1455.72,224.65 C1455.60,221.20 1456.28,214.76 1457.67,210.79 C1458.32,208.99 1460.23,204.74 1460.99,203.71 C1462.04,202.35 1465.17,199.75 1466.28,199.58 C1468.13,199.37 1470.24,200.29 1471.25,201.70 C1473.28,204.76 1475.13,210.30 1475.44,213.43 C1475.74,216.85 1475.62,221.97 1475.15,226.44 C1474.66,230.73 1473.55,234.82 1470.89,238.24 C1469.31,240.23 1467.63,241.34 1465.03,242.33 C1465.03,242.33 1463.40,239.34 1463.40,239.34" fill="none" stroke="rgb(251, 0, 255)" stroke-width="5.00" stroke-opacity="1.00" stroke-linejoin="round"/>
<path d="M1460.36,212.82 C1460.36,212.82 1480.05,218.22 1480.05,218.22 C1480.05,218.22 1477.12,217.54 1477.12,217.54" fill="none" stroke="rgb(251, 0, 255)" stroke-width="5.00" stroke-opacity="1.00" stroke-linejoin="round"/>
<path d="M1027.24,283.84 C1027.07,281.38 1026.30,275.53 1025.03,274.01 C1024.21,273.06 1021.00,271.46 1019.54,271.10 C1017.50,270.67 1012.18,272.34 1010.34,273.78 C1008.40,275.35 1004.17,281.46 1003.02,284.29 C1001.77,287.46 1000.03,295.45 999.81,298.81 C999.65,301.74 1000.84,306.59 1002.19,309.30 C1002.83,310.52 1004.48,312.63 1005.62,313.56 C1007.35,314.89 1010.77,315.90 1012.82,315.56 C1015.05,315.14 1026.28,306.27 1027.09,305.63" fill="none" stroke="rgb(251, 0, 255)" stroke-width="5.00" stroke-opacity="1.00" stroke-linejoin="round"/>
<path d="M1048.58,286.43 C1045.93,288.85 1042.09,293.15 1040.02,296.25 C1039.00,297.83 1037.97,300.90 1037.81,302.95 C1037.71,304.40 1038.29,308.48 1038.70,309.97 C1039.25,311.78 1040.42,313.52 1041.59,314.26 C1042.47,314.77 1044.95,315.58 1046.08,315.71 C1048.95,315.97 1055.96,312.84 1058.44,310.70 C1061.18,308.26 1064.60,303.90 1065.48,301.12 C1066.45,297.89 1066.46,290.77 1065.06,288.54 C1064.28,287.37 1061.42,285.29 1059.76,284.68 C1058.00,284.07 1053.63,283.61 1052.17,283.95 C1050.88,284.27 1048.71,285.70 1047.42,286.75 C1047.51,289.71 1048.10,291.17 1049.76,291.95 C1050.39,292.25 1051.02,292.55 1051.65,292.84 C1051.65,292.84 1048.58,286.43 1048.58,286.43" fill="none" stroke="rgb(251, 0, 255)" stroke-width="5.00" stroke-opacity="1.00" stroke-linejoin="round"/>
<path d="M1099.63,277.44 C1099.41,277.41 1099.31,277.23 1099.17,277.28 C1098.99,277.36 1089.01,282.51 1087.64,283.66 C1085.67,285.35 1083.71,287.80 1082.96,289.31 C1084.76,290.60 1096.88,295.61 1098.57,297.03 C1099.23,297.62 1100.76,300.11 1101.21,301.17 C1101.86,302.83 1102.01,305.24 1101.60,307.26 C1101.35,308.36 1100.18,311.92 1099.72,312.57 C1098.31,314.42 1093.55,316.68 1089.13,318.64 C1089.13,318.64 1090.03,312.03 1090.03,312.03" fill="none" stroke="rgb(251, 0, 255)" stroke-width="5.00" stroke-opacity="1.00" stroke-linejoin="round"/>
<path d="M1156.78,268.75 C1156.78,268.75 1156.63,267.69 1156.63,267.69 C1152.53,269.46 1148.29,271.51 1147.10,272.63 C1145.10,274.58 1142.10,281.31 1141.08,284.62 C1138.89,291.92 1138.28,302.34 1138.44,307.22 C1138.54,309.14 1139.82,312.46 1141.11,313.74 C1142.00,314.58 1145.43,315.12 1146.57,314.93 C1148.60,314.50 1154.30,310.82 1155.71,309.90" fill="none" stroke="rgb(251, 0, 255)" stroke-width="5.00" stroke-opacity="1.00" stroke-linejoin="round"/>
<path d="M1174.15,277.59 C1172.79,279.95 1168.94,286.60 1167.78,289.41 C1166.21,293.34 1165.60,299.76 1166.19,304.98 C1166.47,307.13 1167.17,309.48 1167.92,310.59 C1168.48,311.36 1170.72,312.52 1171.85,312.77 C1173.35,313.03 1175.60,312.40 1177.19,311.21 C1179.78,309.21 1183.78,303.57 1184.94,301.32 C1186.02,299.18 1188.23,292.65 1188.64,289.08 C1188.87,286.86 1188.51,283.75 1187.84,282.20 C1187.13,280.71 1185.42,279.05 1183.91,278.29 C1182.92,277.83 1180.19,276.98 1179.36,276.89 C1177.46,276.73 1171.09,279.17 1169.84,280.62 C1169.84,280.62 1173.69,279.72 1173.69,279.72" fill="none" stroke="rgb(251, 0, 255)" stroke-width="5.00" stroke-opacity="1.00" stroke-linejoin="round"/>
<path d="M1177.81,292.07 C1179.50,293.81 1183.73,295.03 1189.17,295.12 C1193.09,295.15 1197.28,294.93 1198.75,294.81 C1198.75,294.81 1199.60,290.46 1199.60,290.46" fill="none" stroke="rgb(251, 0, 255)" stroke-width="5.00" stroke-opacity="1.00" stroke-linejoin="round"/>
<path d="M1194.27,268.44 C1194.27,268.44 1194.27,267.83 1194.27,267.83 C1197.06,271.12 1199.51,274.31 1201.68,278.02 C1204.23,282.43 1206.97,288.99 1207.40,292.49 C1207.65,294.76 1207.28,302.78 1207.00,305.68 C1206.62,309.21 1204.24,313.84 1200.66,318.33 C1200.08,319.06 1199.49,319.80 1198.91,320.53 C1198.91,320.53 1196.39,319.53 1196.39,319.53 C1196.39,319.53 1196.56,316.45 1196.56,316.45" fill="none" stroke="rgb(251, 0, 255)" stroke-width="5.00" stroke-opacity="1.00" stroke-linejoin="round"/>
<path d="M1431.10,420.39 C1431.04,423.20 1430.25,425.10 1428.64,425.35 C1427.31,425.52 1425.69,424.30 1424.99,422.60 C1423.67,419.19 1422.85,411.11 1423.47,407.08 C1423.98,404.01 1427.12,394.96 1428.43,392.23 C1429.94,389.15 1434.25,383.51 1436.27,381.61 C1437.61,380.38 1439.29,379.61 1440.41,379.72 C1442.36,380.01 1446.57,383.62 1447.96,386.15 C1449.54,389.15 1451.42,395.09 1452.00,399.02 C1452.55,402.91 1452.10,410.68 1451.44,414.71 C1450.93,417.78 1449.31,423.25 1447.19,427.18 C1445.97,429.41 1445.07,430.46 1444.35,430.73 C1444.35,430.73 1442.68,429.38 1442.68,429.38" fill="none" stroke="rgb(251, 0, 255)" stroke-width="5.00" stroke-opacity="1.00" stroke-linejoin="round"/>
<path d="M1430.94,397.68 C1436.92,397.54 1442.44,397.64 1446.16,398.50 C1451.03,399.70 1452.54,400.99 1454.02,403.04 C1454.02,403.04 1448.73,403.32 1448.73,403.32" fill="none" stroke="rgb(251, 0, 255)" stroke-width="5.00" stroke-opacity="1.00" stroke-linejoin="round"/>
<path d="M1031.36,476.47 C1031.37,476.52 1031.37,476.37 1031.36,476.32 C1031.03,474.79 1030.06,471.44 1029.45,470.31 C1028.70,468.93 1026.26,466.97 1024.54,466.18 C1022.15,465.14 1016.44,464.76 1014.08,466.02 C1010.26,468.18 1006.04,475.51 1005.55,476.37 C1006.16,478.56 1008.88,481.27 1013.10,483.64 C1014.69,484.53 1018.01,486.57 1019.27,487.51 C1020.92,488.78 1023.03,491.53 1023.57,493.21 C1024.08,494.96 1024.00,497.90 1023.46,499.34 C1022.23,502.29 1018.54,505.92 1014.39,508.43 C1013.70,508.85 1013.02,509.27 1012.33,509.68 C1011.19,508.68 1010.49,507.94 1010.22,507.46 C1009.95,506.98 1009.73,506.10 1009.56,504.81" fill="none" stroke="rgb(251, 0, 255)" stroke-width="5.00" stroke-opacity="1.00" stroke-linejoin="round"/>
<path d="M1058.48,476.16 C1058.48,476.16 1058.33,475.86 1058.33,475.86 C1057.42,478.86 1055.23,486.39 1054.59,491.04 C1053.94,495.93 1053.90,508.47 1053.90,509.68 C1053.74,508.10 1053.38,504.45 1053.17,502.37 C1052.98,500.57 1052.67,497.60 1052.54,496.43" fill="none" stroke="rgb(251, 0, 255)" stroke-width="5.00" stroke-opacity="1.00" stroke-linejoin="round"/>
<path d="M1049.95,448.88 C1049.95,448.88 1050.51,447.23 1050.51,447.23 C1050.51,447.23 1054.76,451.70 1054.76,451.70 C1054.76,451.70 1049.95,447.67 1049.95,447.67" fill="none" stroke="rgb(251, 0, 255)" stroke-width="5.00" stroke-opacity="1.00" stroke-linejoin="round"/>
<path d="M1072.65,481.35 C1072.65,481.35 1072.12,479.06 1072.12,479.06 C1072.12,479.06 1070.37,508.68 1070.37,508.68 C1070.22,507.33 1070.68,500.21 1071.30,496.98 C1071.88,494.02 1074.25,486.65 1075.53,484.29 C1076.57,482.40 1079.18,479.18 1079.94,478.28 C1081.31,476.77 1083.56,475.74 1084.73,476.52 C1086.93,478.09 1088.26,484.45 1088.30,488.02 C1088.33,498.00 1087.72,503.83 1087.51,505.15 C1087.51,505.15 1089.72,502.83 1089.72,502.83" fill="none" stroke="rgb(251, 0, 255)" stroke-width="5.00" stroke-opacity="1.00" stroke-linejoin="round"/>
<path d="M1131.18,459.24 C1131.18,459.24 1131.33,458.79 1131.33,458.79 C1131.33,458.79 1129.53,457.92 1129.53,457.92 C1127.58,459.34 1124.59,463.24 1122.62,466.93 C1120.95,470.14 1118.80,476.32 1118.01,479.82 C1117.31,483.02 1116.41,490.19 1116.40,493.98 C1116.40,497.20 1117.16,505.82 1117.76,508.58 C1118.53,511.92 1119.61,513.71 1121.43,516.20 C1121.43,516.20 1129.50,507.71 1129.50,507.71" fill="none" stroke="rgb(251, 0, 255)" stroke-width="5.00" stroke-opacity="1.00" stroke-linejoin="round"/>
<path d="M1148.55,469.61 C1145.20,471.22 1142.09,474.43 1141.24,476.90 C1139.69,481.68 1137.76,497.88 1138.23,503.02 C1138.43,504.91 1139.12,507.96 1139.71,509.07 C1140.29,510.13 1142.47,512.37 1143.35,512.84 C1144.24,513.28 1146.45,513.26 1147.46,512.83 C1149.33,511.96 1154.50,506.99 1156.79,504.29 C1158.96,501.69 1162.52,495.59 1163.74,492.74 C1164.82,490.18 1166.09,484.75 1165.51,481.28 C1165.32,480.23 1164.19,476.31 1163.81,475.53 C1163.13,474.19 1161.40,472.74 1159.12,471.54 C1156.94,470.46 1153.60,470.01 1152.06,470.71 C1151.44,471.02 1150.82,471.66 1150.21,472.64 C1150.08,472.87 1149.99,473.13 1149.92,473.42" fill="none" stroke="rgb(251, 0, 255)" stroke-width="5.00" stroke-opacity="1.00" stroke-linejoin="round"/>
<path d="M1143.37,493.08 C1143.37,493.08 1142.46,493.69 1142.46,493.69 C1142.46,493.69 1164.40,492.98 1164.40,492.98 C1164.40,492.98 1164.55,491.40 1164.55,491.40" fill="none" stroke="rgb(251, 0, 255)" stroke-width="5.00" stroke-opacity="1.00" stroke-linejoin="round"/>
<path d="M1176.89,456.81 C1178.64,456.97 1180.18,457.38 1181.31,458.20 C1183.75,460.00 1186.86,465.81 1187.88,469.32 C1189.55,475.26 1190.23,489.79 1189.05,495.28 C1188.29,498.66 1185.57,505.24 1183.85,508.14 C1181.38,512.17 1179.92,513.47 1177.39,515.27 C1176.42,514.90 1175.98,513.63 1175.84,510.22 C1175.78,508.93 1175.73,507.63 1175.67,506.34" fill="none" stroke="rgb(251, 0, 255)" stroke-width="5.00" stroke-opacity="1.00" stroke-linejoin="round"/>
<path d="M1330.20,210.69 C1330.20,210.69 1328.23,210.99 1328.23,210.99 C1328.23,210.99 1362.93,209.58 1362.93,209.58 C1362.93,209.58 1359.93,213.58 1359.93,213.58" fill="none" stroke="rgb(145, 145, 145)" stroke-width="5.00" stroke-opacity="1.00" stroke-linejoin="round"/>
<path d="M1328.23,234.62 C1328.23,234.62 1327.31,234.01 1327.31,234.01 C1334.70,231.68 1357.70,231.19 1365.61,231.21 C1365.61,231.21 1361.60,234.46 1361.60,234.46" fill="none" stroke="rgb(145, 145, 145)" stroke-width="5.00" stroke-opacity="1.00" stroke-linejoin="round"/>
<path d="M1267.57,288.26 C1267.57,288.26 1267.57,289.48 1267.57,289.48 C1267.57,289.48 1305.48,288.38 1305.48,288.38 C1305.48,288.38 1304.60,289.02 1304.60,289.02" fill="none" stroke="rgb(145, 145, 145)" stroke-width="5.00" stroke-opacity="1.00" stroke-linejoin="round"/>
<path d="M1263.57,306.24 C1265.73,307.44 1270.98,308.25 1277.11,308.57 C1285.56,308.82 1296.93,309.14 1298.58,309.13 C1298.76,309.13 1298.94,309.13 1299.12,309.13" fill="none" stroke="rgb(145, 145, 145)" stroke-width="5.00" stroke-opacity="1.00" stroke-linejoin="round"/>
<path d="M1316.64,392.96 C1316.64,392.96 1316.34,392.96 1316.34,392.96 C1320.26,390.94 1324.08,389.37 1328.03,388.59 C1335.34,387.21 1345.00,386.96 1351.77,387.05 C1351.77,387.05 1351.70,389.30 1351.70,389.30" fill="none" stroke="rgb(145, 145, 145)" stroke-width="5.00" stroke-opacity="1.00" stroke-linejoin="round"/>
<path d="M1324.87,410.33 C1324.87,410.33 1354.79,410.78 1354.79,410.78 C1354.79,410.78 1354.92,411.08 1354.92,411.08 C1354.92,411.08 1349.56,413.53 1349.56,413.53" fill="none" stroke="rgb(145, 145, 145)" stroke-width="5.00" stroke-opacity="1.00" stroke-linejoin="round"/>
<path d="M1253.09,485.61 C1253.09,485.61 1252.48,485.61 1252.48,485.61 C1255.43,485.10 1275.19,484.60 1279.79,485.39 C1279.98,485.43 1280.24,485.45 1280.56,485.46 C1280.56,485.46 1280.07,485.46 1280.07,485.46" fill="none" stroke="rgb(145, 145, 145)" stroke-width="5.00" stroke-opacity="1.00" stroke-linejoin="round"/>
<path d="M1245.93,505.42 C1245.93,505.42 1291.57,506.18 1291.57,506.18 C1289.15,505.81 1282.83,503.64 1279.20,502.39 C1278.41,502.12 1277.63,501.85 1276.84,501.58" fill="none" stroke="rgb(145, 145, 145)" stroke-width="5.00" stroke-opacity="1.00" stroke-linejoin="round"/>
<path d="M1216.21,193.77 C1216.21,193.82 1216.21,193.87 1216.21,193.92 C1216.21,193.97 1216.21,194.03 1216.21,194.08 C1216.21,194.08 1211.64,194.38 1211.64,194.38 C1212.04,194.37 1213.54,195.23 1215.36,196.65 C1217.55,198.40 1219.86,201.20 1220.42,203.06 C1220.91,204.79 1220.82,208.13 1220.34,209.73 C1219.16,213.30 1215.71,218.29 1212.65,220.33 C1211.51,221.07 1209.02,222.43 1207.31,223.31 C1207.53,222.28 1207.71,221.56 1207.87,221.14 C1208.02,220.73 1208.37,220.04 1208.90,219.07" fill="none" stroke="rgb(19, 151, 255)" stroke-width="5.00" stroke-opacity="1.00" stroke-linejoin="round"/>
<path d="M1241.51,195.14 C1241.51,195.14 1241.51,194.83 1241.51,194.83 C1241.51,194.83 1241.23,193.83 1241.23,193.83 C1238.55,194.11 1236.69,194.65 1234.53,195.98 C1230.77,198.32 1225.30,202.99 1224.41,204.42 C1223.35,206.22 1223.23,209.07 1224.08,211.24 C1224.72,212.77 1229.57,218.49 1232.33,220.75 C1235.08,222.98 1243.40,228.06 1244.98,228.52 C1246.90,229.07 1249.33,229.05 1250.50,228.67" fill="none" stroke="rgb(19, 151, 255)" stroke-width="5.00" stroke-opacity="1.00" stroke-linejoin="round"/>
</g>
</svg>
