<?xml version="1.0" encoding="UTF-8" standalone="no"?>
<!DOCTYPE svg PUBLIC "-//W3C//DTD SVG 1.1//EN" "http://www.w3.org/Graphics/SVG/1.1/DTD/svg11.dtd">
<svg width="1600.00" height="1200.00" viewBox="0.00 0.00 1600.00 1200.00" xmlns="http://www.w3.org/2000/svg" xmlns:xlink="http://www.w3.org/1999/xlink">
<g stroke-linecap="round" id="内積と仕事">
<path d="M1267.14,997.07 L1507.79,997.07" fill="none" stroke="rgb(163, 163, 163)" stroke-width="7.00" stroke-opacity="1.00" stroke-linejoin="round"/>
<path d="M342.11,1070.28 C342.11,1070.28 342.11,1070.64 342.11,1070.64 C342.10,1067.45 342.09,1061.97 342.08,1061.44 C342.07,1061.07 342.03,1060.49 341.97,1059.68" fill="none" stroke="rgb(163, 163, 163)" stroke-width="7.00" stroke-opacity="1.00" stroke-linejoin="round"/>
<path d="M298.15,997.07 L1481.39,997.07" fill="none" stroke="rgb(163, 163, 163)" stroke-width="7.00" stroke-opacity="1.00" stroke-linejoin="round"/>
<path d="M358.28,993.98 L358.28,699.93" fill="none" stroke="rgb(163, 163, 163)" stroke-width="7.00" stroke-opacity="1.00" stroke-linejoin="round"/>
<path d="M357.40,701.26 L682.76,701.26" fill="none" stroke="rgb(163, 163, 163)" stroke-width="7.00" stroke-opacity="1.00" stroke-linejoin="round"/>
<path d="M683.35,698.91 L683.35,994.56" fill="none" stroke="rgb(163, 163, 163)" stroke-width="7.00" stroke-opacity="1.00" stroke-linejoin="round"/>
<path d="M307.26,1017.06 C307.26,1017.06 307.41,1017.06 307.41,1017.06 C307.41,1017.06 306.82,1014.93 306.82,1014.93 C300.40,1029.17 284.46,1063.96 280.00,1073.11 C271.89,1088.75 262.75,1100.64 262.15,1101.43 C262.15,1101.43 264.92,1095.57 264.92,1095.57" fill="none" stroke="rgb(163, 163, 163)" stroke-width="5.00" stroke-opacity="1.00" stroke-linejoin="round"/>
<path d="M330.93,1035.29 C331.28,1034.93 330.85,1034.46 328.18,1032.28 C326.99,1031.29 326.28,1030.56 326.04,1030.09 C325.92,1029.84 325.88,1029.15 325.93,1028.01 C325.96,1027.61 325.96,1026.98 325.93,1026.13 C325.64,1026.09 325.43,1026.15 325.30,1026.31 C320.30,1032.69 299.75,1090.17 298.88,1092.61 C298.88,1092.61 305.20,1083.07 305.20,1083.07" fill="none" stroke="rgb(163, 163, 163)" stroke-width="5.00" stroke-opacity="1.00" stroke-linejoin="round"/>
<path d="M367.54,1007.51 C367.52,1007.89 367.50,1008.65 365.62,1011.88 C362.16,1017.80 341.56,1063.35 338.63,1071.11 C337.24,1074.83 335.73,1080.59 335.22,1082.53 C335.22,1082.53 341.37,1072.63 341.37,1072.63" fill="none" stroke="rgb(163, 163, 163)" stroke-width="5.00" stroke-opacity="1.00" stroke-linejoin="round"/>
<path d="M393.12,1014.71 C391.49,1022.82 379.52,1057.29 373.72,1073.77 C372.75,1076.52 371.39,1080.37 371.00,1081.46 C371.00,1081.46 378.69,1065.53 378.69,1065.53" fill="none" stroke="rgb(163, 163, 163)" stroke-width="5.00" stroke-opacity="1.00" stroke-linejoin="round"/>
<path d="M422.97,1015.44 C422.97,1015.44 423.11,1014.71 423.11,1014.71 C423.11,1014.71 408.43,1080.48 408.43,1080.48 C408.43,1080.48 413.27,1069.69 413.27,1069.69" fill="none" stroke="rgb(163, 163, 163)" stroke-width="5.00" stroke-opacity="1.00" stroke-linejoin="round"/>
<path d="M455.17,1020.00 C455.21,1022.45 442.84,1060.92 437.81,1076.47 C437.56,1077.22 437.32,1077.97 437.08,1078.72 C437.08,1078.72 447.37,1055.43 447.37,1055.43" fill="none" stroke="rgb(163, 163, 163)" stroke-width="5.00" stroke-opacity="1.00" stroke-linejoin="round"/>
<path d="M485.31,1011.91 C485.31,1011.91 485.74,1011.62 485.74,1011.62 C485.74,1011.62 461.36,1071.97 461.36,1071.97 C463.18,1069.68 467.67,1063.99 470.36,1060.60 C471.41,1059.27 473.22,1056.98 473.99,1056.02" fill="none" stroke="rgb(163, 163, 163)" stroke-width="5.00" stroke-opacity="1.00" stroke-linejoin="round"/>
<path d="M520.00,1006.92 C520.00,1006.92 519.37,1006.18 519.37,1006.18 C520.20,1006.88 520.64,1012.87 520.53,1015.22 C520.33,1018.91 514.81,1036.40 512.07,1044.31 C506.69,1057.77 501.00,1072.07 500.54,1073.49 C500.54,1073.49 503.98,1068.81 503.98,1068.81" fill="none" stroke="rgb(163, 163, 163)" stroke-width="5.00" stroke-opacity="1.00" stroke-linejoin="round"/>
<path d="M563.22,1016.76 C563.22,1016.76 563.67,1016.62 563.67,1016.62 C557.36,1031.04 539.33,1071.70 539.23,1071.96 C537.96,1075.39 535.80,1081.23 536.20,1081.60 C538.03,1078.85 542.27,1072.48 544.68,1068.86 C545.17,1068.11 545.67,1067.36 546.17,1066.60" fill="none" stroke="rgb(163, 163, 163)" stroke-width="5.00" stroke-opacity="1.00" stroke-linejoin="round"/>
<path d="M602.63,1014.85 C602.63,1014.85 602.92,1014.71 602.92,1014.71 C602.92,1014.71 577.36,1074.00 577.36,1074.00 C577.36,1074.00 582.19,1067.05 582.19,1067.05" fill="none" stroke="rgb(163, 163, 163)" stroke-width="5.00" stroke-opacity="1.00" stroke-linejoin="round"/>
<path d="M638.65,1007.95 C636.48,1016.98 632.86,1027.06 629.07,1035.68 C626.06,1042.36 617.35,1060.35 617.13,1060.95 C616.73,1062.05 616.35,1063.85 616.22,1064.90 C618.87,1062.16 622.91,1057.05 625.24,1054.10 C625.74,1053.46 626.24,1052.83 626.74,1052.20" fill="none" stroke="rgb(163, 163, 163)" stroke-width="5.00" stroke-opacity="1.00" stroke-linejoin="round"/>
<path d="M670.26,1013.39 C670.26,1013.39 670.62,1013.61 670.62,1013.61 C667.20,1019.58 663.63,1027.19 659.24,1037.38 C649.10,1061.77 646.25,1069.71 644.97,1075.13 C646.62,1072.54 650.43,1066.55 652.59,1063.14 C653.04,1062.44 653.49,1061.73 653.94,1061.02" fill="none" stroke="rgb(163, 163, 163)" stroke-width="5.00" stroke-opacity="1.00" stroke-linejoin="round"/>
<path d="M708.34,1011.62 C707.31,1013.31 704.29,1018.31 702.45,1021.58 C698.55,1028.75 690.57,1043.63 686.49,1051.34 C676.76,1070.60 672.27,1084.29 671.54,1086.49 C671.54,1086.49 681.30,1074.62 681.30,1074.62" fill="none" stroke="rgb(163, 163, 163)" stroke-width="5.00" stroke-opacity="1.00" stroke-linejoin="round"/>
<path d="M716.43,1025.73 C716.43,1025.73 716.72,1025.88 716.72,1025.88 C714.89,1033.00 709.00,1046.69 705.77,1054.05 C702.38,1062.02 699.08,1070.34 698.67,1071.40 C698.67,1071.40 697.95,1070.08 697.95,1070.08" fill="none" stroke="rgb(163, 163, 163)" stroke-width="5.00" stroke-opacity="1.00" stroke-linejoin="round"/>
<path d="M682.61,825.49 C682.61,825.49 682.90,826.66 682.90,826.66 C682.88,826.85 683.17,826.52 684.42,824.91 C689.03,818.98 699.37,805.95 702.83,802.29 C706.51,798.42 733.93,774.33 745.45,764.24 C756.80,753.99 782.04,729.81 790.11,722.38 C802.09,711.82 832.64,686.49 838.52,682.06 C850.26,673.20 872.66,654.31 885.35,643.39 C896.93,633.30 918.29,615.15 933.04,604.06 C945.70,595.06 970.38,577.33 982.57,568.19 C1008.17,548.34 1052.35,513.85 1057.46,509.40 C1057.96,508.97 1071.95,495.57 1075.68,493.00 C1081.26,489.17 1111.54,470.97 1114.29,468.75 C1113.36,468.94 1112.70,469.09 1112.29,469.20 C1111.88,469.31 1111.17,469.52 1110.15,469.85" fill="none" stroke="rgb(163, 163, 163)" stroke-width="7.00" stroke-opacity="1.00" stroke-linejoin="round"/>
<path d="M683.05,862.68 C683.05,862.68 682.46,862.68 682.46,862.68 C682.40,861.92 685.82,858.65 688.01,855.98 C696.13,846.02 703.00,838.39 709.58,832.65 C712.91,829.76 746.85,802.05 759.02,791.72 C789.28,765.57 815.46,744.10 849.37,715.44 C863.40,703.53 890.12,680.92 902.82,670.21 C916.00,659.38 936.60,642.75 950.03,633.02 C960.87,624.97 985.04,607.05 998.36,597.18 C1025.05,578.34 1075.08,543.10 1098.42,526.70 C1111.02,518.25 1135.94,502.39 1136.09,502.24 C1136.09,502.24 1134.41,501.30 1134.41,501.30" fill="none" stroke="rgb(163, 163, 163)" stroke-width="7.00" stroke-opacity="1.00" stroke-linejoin="round"/>
<path d="M694.52,820.35 C694.44,819.59 694.47,818.98 694.63,818.50 C694.85,817.82 696.15,815.38 696.13,815.40 C695.69,817.78 693.65,834.64 693.51,835.04 C693.36,835.44 692.95,836.16 692.28,837.19 C692.28,837.19 691.39,837.11 691.39,837.11" fill="none" stroke="rgb(163, 163, 163)" stroke-width="7.00" stroke-opacity="1.00" stroke-linejoin="round"/>
<path d="M708.19,804.17 C708.19,804.17 708.49,804.17 708.49,804.17 C708.49,804.17 703.35,833.10 703.35,833.10 C703.35,833.10 703.63,827.84 703.63,827.84" fill="none" stroke="rgb(163, 163, 163)" stroke-width="7.00" stroke-opacity="1.00" stroke-linejoin="round"/>
<path d="M723.18,796.82 C723.18,796.82 723.77,795.65 723.77,795.65 C723.77,795.65 721.03,820.44 721.03,820.44 C721.03,820.44 720.83,814.17 720.83,814.17" fill="none" stroke="rgb(163, 163, 163)" stroke-width="7.00" stroke-opacity="1.00" stroke-linejoin="round"/>
<path d="M743.48,773.74 C743.48,773.74 743.77,773.45 743.77,773.45 C743.47,779.11 743.07,784.22 742.47,788.15 C742.10,790.46 740.86,797.21 740.44,797.63 C740.44,797.63 740.54,793.14 740.54,793.14" fill="none" stroke="rgb(163, 163, 163)" stroke-width="7.00" stroke-opacity="1.00" stroke-linejoin="round"/>
<path d="M766.56,740.66 C766.56,740.66 767.00,740.37 767.00,740.37 C767.00,740.37 759.83,774.11 759.83,774.11 C759.83,774.11 759.73,767.88 759.73,767.88" fill="none" stroke="rgb(163, 163, 163)" stroke-width="7.00" stroke-opacity="1.00" stroke-linejoin="round"/>
<path d="M782.73,732.43 C780.91,749.04 777.32,761.97 777.00,763.13 C777.00,763.13 777.00,760.80 777.00,760.80" fill="none" stroke="rgb(163, 163, 163)" stroke-width="7.00" stroke-opacity="1.00" stroke-linejoin="round"/>
<path d="M795.82,727.13 C795.82,727.13 796.26,726.84 796.26,726.84 C796.26,726.84 791.71,759.22 791.71,759.22 C791.71,759.22 791.84,754.10 791.84,754.10" fill="none" stroke="rgb(163, 163, 163)" stroke-width="7.00" stroke-opacity="1.00" stroke-linejoin="round"/>
<path d="M808.46,713.60 C808.65,732.98 806.67,746.37 806.32,748.76 C806.32,748.76 806.42,742.57 806.42,742.57" fill="none" stroke="rgb(163, 163, 163)" stroke-width="7.00" stroke-opacity="1.00" stroke-linejoin="round"/>
<path d="M825.51,703.90 C825.51,703.90 825.74,703.90 825.74,703.90 C825.74,703.90 823.22,732.34 823.22,732.34 C823.22,732.34 823.68,727.69 823.68,727.69" fill="none" stroke="rgb(163, 163, 163)" stroke-width="7.00" stroke-opacity="1.00" stroke-linejoin="round"/>
<path d="M851.98,679.50 C851.98,679.50 852.86,679.06 852.86,679.06 C851.92,682.40 850.23,701.68 847.94,708.21 C847.68,708.95 847.42,709.70 847.16,710.45 C847.16,710.45 849.22,702.04 849.22,702.04" fill="none" stroke="rgb(163, 163, 163)" stroke-width="7.00" stroke-opacity="1.00" stroke-linejoin="round"/>
<path d="M866.83,665.09 C866.22,672.90 864.68,692.81 864.61,694.89 C864.60,695.23 864.59,695.63 864.60,696.07 C864.60,696.07 867.63,681.93 867.63,681.93" fill="none" stroke="rgb(163, 163, 163)" stroke-width="7.00" stroke-opacity="1.00" stroke-linejoin="round"/>
<path d="M883.73,643.04 C883.87,653.56 882.87,663.54 880.72,674.24 C880.57,675.00 880.42,675.76 880.26,676.51 C880.26,676.51 881.11,664.97 881.11,664.97" fill="none" stroke="rgb(163, 163, 163)" stroke-width="7.00" stroke-opacity="1.00" stroke-linejoin="round"/>
<path d="M891.67,636.71 C891.67,636.71 891.82,636.71 891.82,636.71 C892.16,645.02 891.67,654.72 890.46,666.77 C890.30,668.39 890.01,671.19 889.89,672.36 C889.89,672.36 893.24,660.49 893.24,660.49" fill="none" stroke="rgb(163, 163, 163)" stroke-width="7.00" stroke-opacity="1.00" stroke-linejoin="round"/>
<path d="M916.52,629.66 C916.52,629.66 912.44,658.06 912.44,658.06 C912.44,658.06 914.38,645.23 914.38,645.23" fill="none" stroke="rgb(163, 163, 163)" stroke-width="7.00" stroke-opacity="1.00" stroke-linejoin="round"/>
<path d="M925.49,617.89 C925.73,627.32 925.48,636.74 924.25,645.85 C924.04,647.38 923.68,649.96 923.54,651.02 C923.33,649.18 925.06,641.23 926.05,636.66 C926.27,635.67 926.49,634.68 926.70,633.69" fill="none" stroke="rgb(163, 163, 163)" stroke-width="7.00" stroke-opacity="1.00" stroke-linejoin="round"/>
<path d="M952.84,598.63 C952.84,598.63 953.50,598.63 953.50,598.63 C953.91,602.02 952.15,610.66 951.71,612.81 C949.87,621.61 947.76,631.71 947.48,633.02 C947.48,633.02 950.24,620.91 950.24,620.91" fill="none" stroke="rgb(163, 163, 163)" stroke-width="7.00" stroke-opacity="1.00" stroke-linejoin="round"/>
<path d="M969.60,587.76 C969.60,587.76 969.67,587.76 969.67,587.76 C969.67,587.76 965.39,613.58 965.39,613.58 C965.39,613.58 970.61,599.71 970.61,599.71" fill="none" stroke="rgb(163, 163, 163)" stroke-width="7.00" stroke-opacity="1.00" stroke-linejoin="round"/>
<path d="M989.74,572.17 C987.46,595.26 985.46,601.88 985.18,602.81 C985.63,599.67 986.72,592.29 987.37,588.07 C988.01,584.10 988.85,578.90 989.04,577.68" fill="none" stroke="rgb(163, 163, 163)" stroke-width="7.00" stroke-opacity="1.00" stroke-linejoin="round"/>
<path d="M999.29,557.32 C999.29,557.32 999.81,557.32 999.81,557.32 C1000.25,568.03 1000.41,578.50 999.80,588.40 C999.74,589.22 999.69,590.04 999.64,590.86 C1000.65,587.52 1003.00,579.81 1004.33,575.42 C1004.61,574.51 1004.88,573.60 1005.16,572.69" fill="none" stroke="rgb(163, 163, 163)" stroke-width="7.00" stroke-opacity="1.00" stroke-linejoin="round"/>
<path d="M1027.97,542.03 C1027.97,542.03 1025.78,578.20 1025.78,578.20 C1025.78,578.20 1026.90,570.26 1026.90,570.26" fill="none" stroke="rgb(163, 163, 163)" stroke-width="7.00" stroke-opacity="1.00" stroke-linejoin="round"/>
<path d="M1035.76,536.59 C1035.76,536.59 1035.90,536.59 1035.90,536.59 C1035.90,536.59 1034.45,563.81 1034.45,563.81 C1034.45,563.81 1038.17,549.60 1038.17,549.60" fill="none" stroke="rgb(163, 163, 163)" stroke-width="7.00" stroke-opacity="1.00" stroke-linejoin="round"/>
<path d="M1053.84,514.68 C1053.84,514.68 1054.87,514.39 1054.87,514.39 C1054.87,514.39 1053.07,541.27 1053.07,541.27 C1053.07,541.27 1054.69,532.07 1054.69,532.07" fill="none" stroke="rgb(163, 163, 163)" stroke-width="7.00" stroke-opacity="1.00" stroke-linejoin="round"/>
<path d="M1064.43,502.93 C1064.43,502.93 1064.45,536.49 1064.45,536.49 C1064.45,536.49 1066.49,527.90 1066.49,527.90" fill="none" stroke="rgb(163, 163, 163)" stroke-width="7.00" stroke-opacity="1.00" stroke-linejoin="round"/>
<path d="M1078.98,499.84 C1079.12,501.97 1079.44,507.40 1079.42,512.26 C1079.40,516.39 1078.83,531.99 1078.72,534.95 C1078.72,534.95 1081.98,520.25 1081.98,520.25" fill="none" stroke="rgb(163, 163, 163)" stroke-width="7.00" stroke-opacity="1.00" stroke-linejoin="round"/>
<path d="M1092.50,496.31 C1092.50,496.31 1092.87,496.46 1092.87,496.46 C1092.94,504.08 1093.06,524.03 1092.90,526.93 C1092.87,527.42 1092.82,527.95 1092.75,528.53 C1092.75,528.53 1093.51,521.76 1093.51,521.76" fill="none" stroke="rgb(163, 163, 163)" stroke-width="7.00" stroke-opacity="1.00" stroke-linejoin="round"/>
<path d="M1105.15,491.46 C1105.14,498.88 1105.22,518.79 1105.71,522.34 C1105.79,522.94 1105.93,523.59 1106.14,524.27 C1106.14,524.27 1106.18,522.84 1106.18,522.84" fill="none" stroke="rgb(163, 163, 163)" stroke-width="7.00" stroke-opacity="1.00" stroke-linejoin="round"/>
<path d="M1116.18,471.46 C1116.18,471.46 1115.15,472.49 1115.15,472.49 C1115.53,475.57 1112.61,495.06 1111.22,504.04 C1110.60,507.97 1109.55,514.63 1109.12,517.36 C1109.12,517.36 1109.71,513.51 1109.71,513.51" fill="none" stroke="rgb(163, 163, 163)" stroke-width="7.00" stroke-opacity="1.00" stroke-linejoin="round"/>
<path d="M1114.81,470.29 C1114.81,470.29 1114.81,470.43 1114.81,470.43 C1114.63,469.30 1115.02,468.48 1116.47,467.35 C1117.91,466.23 1119.20,465.66 1121.23,465.14 C1122.35,466.13 1123.05,467.16 1123.33,468.73 C1124.21,473.64 1124.36,491.49 1123.29,500.06 C1123.11,501.48 1121.86,510.26 1121.51,511.95 C1121.51,511.95 1122.50,510.72 1122.50,510.72" fill="none" stroke="rgb(163, 163, 163)" stroke-width="7.00" stroke-opacity="1.00" stroke-linejoin="round"/>
<path d="M1127.35,466.46 C1127.35,466.46 1126.91,467.78 1126.91,467.78 C1126.91,467.82 1126.95,463.46 1127.58,460.64 C1127.97,458.89 1128.73,457.80 1130.16,456.62 C1132.00,457.78 1133.05,458.81 1133.44,460.25 C1134.82,465.42 1134.40,478.19 1133.23,489.92 C1131.67,503.13 1131.32,504.10 1130.43,505.44 C1130.43,505.44 1128.82,501.16 1128.82,501.16" fill="none" stroke="rgb(163, 163, 163)" stroke-width="7.00" stroke-opacity="1.00" stroke-linejoin="round"/>
<path d="M1141.03,494.55 C1141.03,494.55 1140.73,494.69 1140.73,494.69 C1140.73,494.69 1138.38,494.99 1138.38,494.99 C1139.17,492.53 1141.55,489.20 1144.80,486.35 C1147.55,484.00 1154.48,479.40 1157.51,477.61 C1162.52,474.68 1171.29,471.98 1181.44,469.43 C1189.32,467.63 1204.69,464.67 1212.07,463.46 C1219.75,462.32 1235.53,460.54 1243.66,459.96 C1251.96,459.55 1267.21,459.19 1274.14,459.08 C1284.17,459.17 1294.58,460.16 1301.49,461.70 C1309.82,463.57 1321.13,467.48 1326.20,471.14 C1328.49,472.81 1336.65,479.96 1337.25,480.55 C1339.86,483.14 1340.13,484.06 1339.95,484.61 C1339.95,484.61 1334.51,484.98 1334.51,484.98" fill="none" stroke="rgb(163, 163, 163)" stroke-width="7.00" stroke-opacity="1.00" stroke-linejoin="round"/>
<path d="M1135.00,502.78 C1135.00,502.78 1135.24,502.51 1135.24,502.51 C1137.91,503.93 1152.41,515.93 1158.20,520.26 C1166.03,525.88 1173.23,530.65 1182.18,536.06 C1188.96,540.03 1203.71,548.16 1208.77,550.42 C1215.25,553.28 1229.49,557.94 1238.01,560.23 C1245.50,562.19 1259.71,564.01 1265.72,564.33 C1270.67,564.56 1275.25,564.40 1278.72,563.58 C1283.19,562.49 1296.14,556.98 1298.55,555.42 C1297.69,554.35 1297.08,553.61 1296.73,553.19 C1296.38,552.77 1295.79,552.09 1294.96,551.14" fill="none" stroke="rgb(163, 163, 163)" stroke-width="7.00" stroke-opacity="1.00" stroke-linejoin="round"/>
<path d="M1340.39,488.07 C1339.66,487.42 1339.22,487.04 1339.05,486.92 C1338.75,486.70 1338.06,484.85 1338.18,483.73 C1338.22,483.85 1333.04,500.74 1330.56,508.77 C1327.55,517.91 1324.51,525.92 1320.24,534.66 C1314.03,546.77 1298.58,575.99 1291.04,590.36 C1284.52,603.35 1272.82,627.32 1267.87,638.46 C1255.08,668.61 1228.14,732.20 1213.99,765.65 C1194.66,810.50 1176.87,847.73 1164.70,873.58 C1158.01,888.45 1146.59,915.70 1140.99,932.11 C1126.12,974.09 1116.37,994.95 1115.23,997.35 C1115.23,997.35 1113.83,996.77 1113.83,996.77" fill="none" stroke="rgb(163, 163, 163)" stroke-width="7.00" stroke-opacity="1.00" stroke-linejoin="round"/>
<path d="M1204.39,789.18 C1204.39,789.18 1204.39,790.06 1204.39,790.06 C1204.39,790.06 1204.12,790.21 1204.12,790.21 C1204.10,790.15 1204.10,790.33 1204.10,790.39 C1203.75,806.14 1205.27,836.49 1206.24,852.26 C1207.31,867.55 1209.32,894.94 1210.76,909.21 C1212.06,920.12 1213.75,930.23 1216.15,939.80 C1218.12,947.54 1222.01,958.16 1226.24,967.97 C1227.84,971.53 1231.33,978.20 1233.39,981.12 C1237.81,987.31 1245.14,991.96 1245.24,992.07 C1245.49,992.35 1245.84,993.04 1246.29,994.13" fill="none" stroke="rgb(163, 163, 163)" stroke-width="7.00" stroke-opacity="1.00" stroke-linejoin="round"/>
<path d="M1298.34,455.29 C1298.05,455.29 1297.29,455.26 1297.05,455.29 C1295.49,455.44 1293.72,455.20 1292.57,454.51 C1291.51,453.84 1286.70,446.93 1285.17,443.63 C1282.63,438.00 1280.95,425.71 1280.42,415.11 C1280.14,403.92 1280.48,389.15 1281.65,384.45 C1282.97,379.31 1290.06,367.36 1294.27,362.08 C1298.63,356.64 1308.62,346.75 1315.66,341.49 C1321.97,336.80 1335.04,329.15 1340.32,326.80 C1346.92,323.89 1361.61,320.42 1367.69,320.47 C1371.46,320.53 1378.64,321.57 1382.17,322.56 C1389.90,324.78 1402.02,330.46 1409.71,335.21 C1416.32,339.31 1428.83,349.03 1432.76,353.53 C1436.96,358.41 1443.75,371.17 1445.91,378.18 C1447.99,384.99 1450.67,397.90 1451.50,405.43 C1451.91,409.33 1452.67,427.18 1452.08,433.54 C1451.69,437.67 1450.33,445.72 1449.47,448.90 C1448.58,452.11 1445.80,459.01 1444.15,462.06 C1442.50,465.05 1438.44,470.29 1435.95,472.87 C1431.24,477.69 1419.11,486.34 1413.49,489.09 C1407.29,492.09 1394.19,496.36 1387.62,497.18 C1381.04,497.97 1366.43,497.19 1361.19,495.52 C1358.18,494.54 1349.93,490.74 1348.69,489.74 C1347.13,488.44 1345.54,485.67 1345.20,484.97 C1345.00,484.55 1344.52,483.72 1343.77,482.49" fill="none" stroke="rgb(163, 163, 163)" stroke-width="7.00" stroke-opacity="1.00" stroke-linejoin="round"/>
<path d="M1292.31,559.08 C1292.31,559.08 1292.31,559.82 1292.31,559.82 C1294.74,557.80 1300.93,552.74 1304.18,550.75 C1306.94,549.07 1320.26,543.39 1321.79,542.62" fill="none" stroke="rgb(163, 163, 163)" stroke-width="7.00" stroke-opacity="1.00" stroke-linejoin="round"/>
<path d="M685.55,797.11 L1051.04,466.31" fill="none" stroke="rgb(0, 114, 255)" stroke-width="7.00" stroke-opacity="1.00" stroke-linejoin="round"/>
<path d="M1025.47,462.05 L1052.67,457.64" fill="none" stroke="rgb(0, 114, 255)" stroke-width="7.00" stroke-opacity="1.00" stroke-linejoin="round"/>
<path d="M1053.55,456.47 L1054.57,486.02" fill="none" stroke="rgb(0, 114, 255)" stroke-width="7.00" stroke-opacity="1.00" stroke-linejoin="round"/>
<path d="M731.09,588.05 C731.09,588.05 731.86,587.90 731.86,587.90 C731.86,587.90 729.67,588.79 729.67,588.79 C730.17,587.61 731.21,585.87 732.11,585.17 C733.19,584.36 737.11,583.12 738.80,583.06 C740.39,583.03 744.08,583.98 745.37,584.68 C746.54,585.37 748.18,587.42 748.47,588.60 C749.01,591.26 746.82,598.22 744.92,601.13 C742.21,605.19 730.09,616.13 726.43,618.36 C729.36,617.98 736.81,617.01 741.32,616.42 C745.19,615.92 751.87,615.06 754.09,614.95" fill="none" stroke="rgb(0, 114, 255)" stroke-width="7.00" stroke-opacity="1.00" stroke-linejoin="round"/>
<path d="M768.32,582.02 C768.32,581.80 768.32,581.58 768.32,581.36 C768.32,581.14 768.32,580.92 768.32,580.70 C768.08,580.67 767.84,580.67 767.57,580.70 C766.20,580.89 764.63,581.42 763.99,582.09 C762.49,583.72 758.83,590.70 758.09,594.08 C757.53,596.76 757.74,604.52 758.33,606.90 C758.79,608.67 759.83,610.88 760.88,612.35 C761.78,613.55 763.68,615.06 764.88,615.44 C766.19,615.79 768.30,614.79 769.52,613.28 C771.32,610.94 774.44,603.88 775.13,601.46 C775.80,599.03 776.80,591.67 776.62,588.83 C776.48,587.15 775.76,585.01 774.91,583.64 C773.40,581.34 770.36,581.18 769.75,581.75 C769.60,581.90 769.37,582.09 769.06,582.32" fill="none" stroke="rgb(0, 114, 255)" stroke-width="7.00" stroke-opacity="1.00" stroke-linejoin="round"/>
<path d="M791.11,581.87 C791.11,581.87 791.26,580.26 791.26,580.26 C789.40,581.88 788.52,582.93 787.75,584.65 C785.96,588.72 784.45,593.85 783.79,598.16 C783.25,601.81 782.75,609.72 783.16,611.39 C783.54,612.78 785.19,615.89 786.08,616.49 C787.49,617.38 790.95,617.73 792.64,617.22 C793.94,616.78 798.91,612.34 800.32,609.41 C801.76,606.31 802.66,600.76 802.33,597.10 C801.99,593.74 800.22,588.06 798.14,585.26 C797.35,584.22 792.99,581.49 792.65,580.79 C792.59,580.65 792.51,580.37 792.43,579.96" fill="none" stroke="rgb(0, 114, 255)" stroke-width="7.00" stroke-opacity="1.00" stroke-linejoin="round"/>
<path d="M823.71,584.52 C823.71,584.52 825.07,584.67 825.07,584.67 C825.07,584.67 821.55,585.22 821.55,585.22 C821.55,585.22 821.57,581.40 821.57,581.40 C821.57,581.40 816.38,614.09 816.38,614.09 C816.38,614.09 818.16,607.75 818.16,607.75" fill="none" stroke="rgb(0, 114, 255)" stroke-width="7.00" stroke-opacity="1.00" stroke-linejoin="round"/>
<path d="M823.46,578.64 C823.46,578.64 822.57,578.64 822.57,578.64 C823.54,583.11 824.65,586.62 826.64,590.06 C830.64,596.83 837.31,603.83 842.72,608.92 C846.87,584.21 849.27,576.91 849.37,576.71 C849.45,576.54 849.59,576.40 849.77,576.29" fill="none" stroke="rgb(0, 114, 255)" stroke-width="7.00" stroke-opacity="1.00" stroke-linejoin="round"/>
<path d="M796.09,708.61 C804.09,717.39 809.79,724.81 813.05,731.43 C814.46,734.35 816.41,739.61 817.12,743.58 C818.44,751.28 818.97,782.57 819.05,791.48 C819.05,791.48 820.07,786.83 820.07,786.83" fill="none" stroke="rgb(255, 174, 0)" stroke-width="7.00" stroke-opacity="1.00" stroke-linejoin="round"/>
<path d="M870.21,735.66 C870.21,735.66 870.36,734.93 870.36,734.93 C867.44,735.88 866.16,736.61 865.44,737.98 C862.44,743.52 857.32,757.70 857.35,762.65 C857.38,764.03 857.85,767.00 858.27,768.41 C859.12,771.07 862.78,773.98 864.41,774.98 C867.56,773.90 871.18,771.13 872.44,768.26 C874.29,763.90 878.78,743.37 879.09,739.98 C879.18,738.78 878.89,736.35 878.52,735.68 C877.92,734.68 876.35,733.20 874.94,732.21 C874.34,731.79 873.75,731.37 873.15,730.95" fill="none" stroke="rgb(255, 174, 0)" stroke-width="7.00" stroke-opacity="1.00" stroke-linejoin="round"/>
<path d="M863.30,754.19 C863.30,754.19 862.93,752.24 862.93,752.24 C863.97,752.07 876.23,753.31 877.78,753.30 C878.14,753.30 878.75,753.30 879.62,753.30" fill="none" stroke="rgb(255, 174, 0)" stroke-width="7.00" stroke-opacity="1.00" stroke-linejoin="round"/>
<path d="M890.65,750.80 C890.65,750.80 889.76,750.36 889.76,750.36 C889.76,750.36 904.43,750.11 904.43,750.11 C904.43,750.11 905.05,751.98 905.05,751.98" fill="none" stroke="rgb(255, 174, 0)" stroke-width="7.00" stroke-opacity="1.00" stroke-linejoin="round"/>
<path d="M894.02,759.19 C894.02,759.19 906.39,763.24 906.39,763.24 C906.39,763.24 906.82,760.06 906.82,760.06" fill="none" stroke="rgb(255, 174, 0)" stroke-width="7.00" stroke-opacity="1.00" stroke-linejoin="round"/>
<path d="M925.34,754.33 C925.34,754.33 925.34,754.77 925.34,754.77 C925.34,754.77 970.92,755.34 970.92,755.34 C970.47,755.69 970.12,755.93 969.89,756.06 C969.66,756.19 969.22,756.40 968.56,756.69" fill="none" stroke="rgb(255, 174, 0)" stroke-width="7.00" stroke-opacity="1.00" stroke-linejoin="round"/>
<path d="M946.36,766.83 C946.36,766.83 946.81,766.83 946.81,766.83 C946.81,766.83 935.67,779.46 935.67,779.46 C935.67,779.46 959.68,780.12 959.68,780.12 C959.36,779.16 959.13,778.50 958.98,778.14 C958.83,777.77 958.54,777.19 958.13,776.39" fill="none" stroke="rgb(255, 174, 0)" stroke-width="7.00" stroke-opacity="1.00" stroke-linejoin="round"/>
<path d="M950.19,762.42 C950.19,762.42 949.45,791.67 949.45,791.67 C949.45,791.67 950.34,788.73 950.34,788.73" fill="none" stroke="rgb(255, 174, 0)" stroke-width="7.00" stroke-opacity="1.00" stroke-linejoin="round"/>
<path d="M940.78,718.31 C940.78,718.31 939.02,719.31 939.02,719.31 C939.02,719.31 966.61,722.99 966.61,722.99 C966.61,722.99 963.27,723.16 963.27,723.16" fill="none" stroke="rgb(255, 174, 0)" stroke-width="7.00" stroke-opacity="1.00" stroke-linejoin="round"/>
<path d="M948.87,722.72 C948.87,722.72 948.72,721.30 948.72,721.30 C948.64,722.48 947.99,731.80 947.06,734.86 C946.04,738.04 942.05,743.67 940.49,744.99 C938.75,746.45 936.09,748.09 934.41,748.86 C934.76,747.56 935.03,746.68 935.21,746.21 C935.39,745.73 935.72,745.01 936.22,744.04" fill="none" stroke="rgb(255, 174, 0)" stroke-width="7.00" stroke-opacity="1.00" stroke-linejoin="round"/>
<path d="M957.83,724.48 C954.76,734.15 953.62,740.53 953.84,743.92 C953.98,745.53 954.78,747.48 955.66,748.11 C958.41,749.97 976.72,751.71 976.96,750.97 C977.27,749.75 979.41,743.65 980.13,740.13 C980.22,739.73 980.38,738.87 980.62,737.57" fill="none" stroke="rgb(255, 174, 0)" stroke-width="7.00" stroke-opacity="1.00" stroke-linejoin="round"/>
<path d="M265.37,982.55 L347.72,982.55" fill="none" stroke="rgb(255, 50, 0)" stroke-width="7.00" stroke-opacity="1.00" stroke-linejoin="round"/>
<path d="M331.85,968.15 C331.85,968.15 330.36,966.08 330.36,966.08 C332.34,965.80 336.76,967.59 340.72,970.52 C344.59,973.44 351.77,981.31 351.99,981.45 C351.99,981.45 338.55,1001.49 338.55,1001.49" fill="none" stroke="rgb(255, 50, 0)" stroke-width="7.00" stroke-opacity="1.00" stroke-linejoin="round"/>
<path d="M214.17,911.17 C214.17,911.17 215.06,909.98 215.06,909.98 C214.98,915.56 211.16,927.27 206.96,936.50 C207.25,937.03 215.10,940.52 216.40,941.25 C218.19,942.29 220.28,944.06 220.98,945.21 C221.64,946.38 222.33,949.11 222.17,950.18 C221.79,952.21 217.16,956.47 214.70,957.39 C213.63,957.76 211.04,957.96 209.82,957.80 C208.41,957.54 206.35,956.34 205.96,955.25 C205.60,954.17 205.74,950.41 206.06,947.60 C206.31,945.68 206.72,942.45 206.90,941.15" fill="none" stroke="rgb(255, 50, 0)" stroke-width="5.00" stroke-opacity="1.00" stroke-linejoin="round"/>
<path d="M213.69,915.18 C213.69,915.18 210.76,913.54 210.76,913.54 C214.95,914.12 230.10,918.92 233.31,921.26" fill="none" stroke="rgb(255, 50, 0)" stroke-width="5.00" stroke-opacity="1.00" stroke-linejoin="round"/>
<path d="M239.10,928.09 C239.10,928.09 238.97,927.83 238.97,927.83 C237.49,927.83 236.38,928.15 235.30,929.09 C233.12,931.06 230.16,937.51 229.23,941.23 C228.28,945.22 227.80,951.55 228.12,955.95 C228.31,958.07 229.19,961.11 230.09,962.58 C230.85,963.77 232.99,965.32 234.20,965.66 C235.46,965.96 237.87,965.63 239.34,964.96 C240.95,964.15 243.02,962.08 244.06,960.20 C245.68,957.19 246.97,951.27 247.07,948.80 C247.15,946.38 246.56,939.73 245.53,936.10 C245.00,934.37 243.27,931.30 242.09,930.29 C240.78,929.21 238.19,928.72 236.08,928.84 C235.52,928.89 234.85,928.94 234.06,928.98" fill="none" stroke="rgb(255, 50, 0)" stroke-width="5.00" stroke-opacity="1.00" stroke-linejoin="round"/>
<path d="M250.23,941.44 C250.23,941.44 251.18,940.71 251.18,940.71 C252.09,942.35 252.76,947.23 253.09,953.49 C253.26,958.10 253.54,965.79 253.64,968.87 C253.66,965.60 254.47,958.42 254.84,956.28 C255.52,952.59 258.57,945.63 260.16,945.00 C261.71,944.47 264.19,945.98 265.13,948.03 C266.96,952.27 265.13,963.82 264.78,965.42 C264.47,963.21 265.43,958.81 267.51,953.71 C269.26,949.52 271.10,946.42 273.59,944.63 C273.87,944.44 274.42,944.07 275.24,943.52 C276.38,943.69 278.14,944.68 279.07,945.99 C281.67,949.71 283.70,962.95 283.91,965.54 C283.94,965.92 283.99,966.74 284.06,968.01" fill="none" stroke="rgb(255, 50, 0)" stroke-width="5.00" stroke-opacity="1.00" stroke-linejoin="round"/>
<path d="M154.63,161.03 C154.63,161.03 155.17,161.03 155.17,161.03 C152.23,168.23 147.09,177.15 140.93,186.12 C134.90,194.73 127.99,203.00 126.55,203.75 C126.55,203.75 127.83,200.89 127.83,200.89" fill="none" stroke="rgb(0, 0, 0)" stroke-width="5.00" stroke-opacity="1.00" stroke-linejoin="round"/>
<path d="M145.83,182.23 C145.83,182.23 146.90,181.70 146.90,181.70 C146.90,181.70 146.54,229.60 146.54,229.60 C146.54,229.60 146.64,226.36 146.64,226.36" fill="none" stroke="rgb(0, 0, 0)" stroke-width="5.00" stroke-opacity="1.00" stroke-linejoin="round"/>
<path d="M156.90,195.43 C159.74,195.52 166.50,195.77 170.41,195.92 C174.58,196.10 179.82,196.83 181.29,196.32 C181.29,196.32 181.44,195.03 181.44,195.03" fill="none" stroke="rgb(0, 0, 0)" stroke-width="5.00" stroke-opacity="1.00" stroke-linejoin="round"/>
<path d="M169.04,181.03 C169.04,181.03 168.77,180.76 168.77,180.76 C168.77,180.76 169.24,226.13 169.24,226.13 C169.24,226.13 167.70,226.36 167.70,226.36" fill="none" stroke="rgb(0, 0, 0)" stroke-width="5.00" stroke-opacity="1.00" stroke-linejoin="round"/>
<path d="M160.10,223.96 C160.10,223.96 157.90,223.85 157.90,223.85 C157.90,223.85 184.53,227.12 184.53,227.12 C184.53,227.12 184.77,224.77 184.77,224.77" fill="none" stroke="rgb(0, 0, 0)" stroke-width="5.00" stroke-opacity="1.00" stroke-linejoin="round"/>
<path d="M188.90,173.70 C188.90,173.70 188.77,173.70 188.77,173.70 C188.77,173.70 222.29,177.10 222.29,177.10 C222.29,177.10 220.63,179.03 220.63,179.03" fill="none" stroke="rgb(0, 0, 0)" stroke-width="5.00" stroke-opacity="1.00" stroke-linejoin="round"/>
<path d="M191.70,184.37 C191.70,184.37 191.57,183.70 191.57,183.70 C191.57,183.70 193.55,196.43 193.55,196.43 C193.55,196.43 192.42,188.06 192.42,188.06" fill="none" stroke="rgb(0, 0, 0)" stroke-width="5.00" stroke-opacity="1.00" stroke-linejoin="round"/>
<path d="M191.57,183.70 C194.87,183.42 203.80,182.66 207.55,182.51 C212.88,182.34 217.57,183.04 222.84,184.43 C222.84,184.43 224.25,189.01 224.25,189.01 C222.76,190.44 220.33,192.56 219.06,193.33 C217.79,194.10 214.88,195.22 213.00,195.83" fill="none" stroke="rgb(0, 0, 0)" stroke-width="5.00" stroke-opacity="1.00" stroke-linejoin="round"/>
<path d="M194.77,191.70 C194.77,191.70 194.02,191.24 194.02,191.24 C203.99,191.36 215.13,191.72 217.84,193.07 C217.84,193.07 215.17,193.43 215.17,193.43" fill="none" stroke="rgb(0, 0, 0)" stroke-width="5.00" stroke-opacity="1.00" stroke-linejoin="round"/>
<path d="M176.37,199.43 C176.37,199.43 175.83,199.43 175.83,199.43 C181.19,199.19 197.10,197.03 205.05,195.89 C214.70,194.59 220.93,194.98 223.07,195.41 C224.94,195.82 226.39,196.83 226.97,198.10 C227.88,200.31 227.75,203.60 226.39,206.77 C224.55,210.96 221.72,215.66 220.55,216.16 C220.27,216.27 219.59,216.43 218.50,216.63" fill="none" stroke="rgb(0, 0, 0)" stroke-width="5.00" stroke-opacity="1.00" stroke-linejoin="round"/>
<path d="M185.17,206.10 C185.17,206.10 183.10,204.63 183.10,204.63 C183.10,204.63 225.60,204.50 225.60,204.50 C225.60,204.50 224.77,204.50 224.77,204.50" fill="none" stroke="rgb(0, 0, 0)" stroke-width="5.00" stroke-opacity="1.00" stroke-linejoin="round"/>
<path d="M189.84,215.43 C189.84,215.43 223.14,214.99 223.14,214.99 C223.14,214.99 222.40,209.42 222.40,209.42" fill="none" stroke="rgb(0, 0, 0)" stroke-width="5.00" stroke-opacity="1.00" stroke-linejoin="round"/>
<path d="M212.10,152.63 C212.10,152.63 212.10,152.10 212.10,152.10 C210.52,158.47 209.98,167.37 209.77,176.25 C209.80,193.61 210.00,231.87 209.66,234.42 C209.09,234.10 208.45,233.02 207.38,230.35 C206.32,227.74 205.31,224.94 204.78,223.21 C204.67,222.84 204.49,222.20 204.23,221.30" fill="none" stroke="rgb(0, 0, 0)" stroke-width="5.00" stroke-opacity="1.00" stroke-linejoin="round"/>
<path d="M248.77,202.50 C251.58,202.84 258.73,203.70 263.06,204.22 C266.74,204.69 273.13,205.47 274.14,206.39 C274.14,206.39 269.84,208.50 269.84,208.50" fill="none" stroke="rgb(0, 0, 0)" stroke-width="5.00" stroke-opacity="1.00" stroke-linejoin="round"/>
<path d="M251.57,216.63 C251.57,216.63 250.77,216.90 250.77,216.90 C258.42,218.25 268.89,220.09 269.46,220.06 C269.81,220.03 270.06,219.82 270.23,219.43" fill="none" stroke="rgb(0, 0, 0)" stroke-width="5.00" stroke-opacity="1.00" stroke-linejoin="round"/>
<path d="M436.37,214.76 C436.35,215.16 436.35,215.43 436.37,215.57 C436.49,216.85 431.18,219.82 430.07,218.80 C430.07,218.80 432.75,214.08 432.75,214.08 C432.75,214.08 434.01,214.20 434.01,214.20 C434.01,214.20 433.23,219.88 433.23,219.88 C433.23,219.88 434.64,219.96 434.64,219.96" fill="none" stroke="rgb(0, 0, 0)" stroke-width="5.00" stroke-opacity="1.00" stroke-linejoin="round"/>
<path d="M634.63,216.63 C634.56,218.43 634.03,219.52 632.51,220.62 C631.93,221.04 631.35,221.45 630.77,221.87 C630.77,221.87 631.24,214.67 631.24,214.67 C631.24,214.67 632.78,214.05 632.78,214.05 C632.78,214.05 632.97,220.13 632.97,220.13 C632.97,220.13 636.23,219.43 636.23,219.43" fill="none" stroke="rgb(0, 0, 0)" stroke-width="5.00" stroke-opacity="1.00" stroke-linejoin="round"/>
<path d="M823.30,208.23 C823.30,208.23 822.90,207.43 822.90,207.43 C822.90,207.43 819.57,206.63 819.57,206.63 C819.57,206.63 842.02,210.40 842.02,210.40 C842.02,210.40 841.04,212.10 841.04,212.10" fill="none" stroke="rgb(0, 0, 0)" stroke-width="5.00" stroke-opacity="1.00" stroke-linejoin="round"/>
<path d="M818.50,224.77 C818.50,224.77 818.17,224.36 818.17,224.36 C825.08,225.35 840.89,227.68 842.50,228.50 C842.79,228.65 843.42,229.05 844.37,229.70" fill="none" stroke="rgb(0, 0, 0)" stroke-width="5.00" stroke-opacity="1.00" stroke-linejoin="round"/>
<path d="M320.24,181.20 C320.24,181.20 312.27,207.45 312.27,207.45 C312.15,207.50 316.18,207.50 316.58,207.54 C317.80,207.68 321.73,209.21 322.72,209.87 C323.88,210.67 325.38,213.02 325.59,214.31 C325.74,215.62 325.08,218.86 324.39,220.09 C322.84,222.70 317.68,225.23 315.52,225.21 C314.06,225.13 312.90,224.37 311.98,222.92 C311.55,222.20 311.06,221.51 310.67,220.77 C310.41,220.29 309.87,219.17 309.03,217.43" fill="none" stroke="rgb(255, 50, 0)" stroke-width="5.00" stroke-opacity="1.00" stroke-linejoin="round"/>
<path d="M320.50,182.89 C320.50,182.89 318.11,182.63 318.11,182.63 C318.11,182.63 336.16,186.92 336.16,186.92 C336.16,186.92 335.84,187.56 335.84,187.56" fill="none" stroke="rgb(255, 50, 0)" stroke-width="5.00" stroke-opacity="1.00" stroke-linejoin="round"/>
<path d="M344.90,190.23 C344.90,190.23 344.90,190.10 344.90,190.10 C343.76,190.11 341.36,193.18 339.89,195.55 C337.95,198.73 336.06,203.26 335.21,206.86 C334.47,210.18 334.31,217.11 335.10,221.11 C335.53,223.15 336.13,224.86 337.05,226.65 C337.75,227.90 339.83,228.84 341.51,228.65 C343.02,228.43 348.95,223.40 350.97,220.57 C352.47,218.41 354.97,212.45 355.41,208.53 C355.52,207.45 355.66,197.59 355.38,196.03 C354.95,193.87 353.81,191.85 352.53,191.23 C351.52,190.78 348.80,190.12 347.46,189.91 C347.18,189.87 346.64,189.80 345.84,189.70" fill="none" stroke="rgb(255, 50, 0)" stroke-width="5.00" stroke-opacity="1.00" stroke-linejoin="round"/>
<path d="M474.10,190.63 C474.78,191.06 476.48,190.57 477.15,190.39 C478.85,189.94 484.48,190.91 486.61,192.65 C487.75,193.63 490.00,196.89 490.54,198.45 C491.61,201.65 490.73,208.16 489.39,211.39 C488.30,213.95 485.14,218.89 483.11,221.34 C481.79,222.93 476.12,229.01 472.96,231.63 C472.96,231.63 499.17,233.18 499.17,233.18 C499.17,233.18 497.70,230.23 497.70,230.23" fill="none" stroke="rgb(0, 114, 255)" stroke-width="5.00" stroke-opacity="1.00" stroke-linejoin="round"/>
<path d="M513.97,197.83 C513.97,197.83 514.10,197.43 514.10,197.43 C513.22,197.04 510.82,197.11 509.64,197.92 C508.21,198.92 506.03,207.75 505.65,210.02 C505.03,213.73 504.91,221.10 505.39,224.96 C505.87,228.30 508.87,230.08 510.29,230.28 C511.92,229.72 514.61,228.35 516.12,227.12 C518.24,225.36 522.71,217.92 523.17,214.70 C523.54,211.59 522.38,204.88 520.82,201.69 C520.42,200.89 518.55,197.83 518.02,197.24 C516.70,195.79 515.13,194.82 513.83,194.54 C513.55,194.49 513.28,194.43 513.00,194.36" fill="none" stroke="rgb(0, 114, 255)" stroke-width="5.00" stroke-opacity="1.00" stroke-linejoin="round"/>
<path d="M549.84,199.29 C549.84,199.29 549.30,198.10 549.30,198.10 C546.97,197.54 545.67,197.51 544.93,198.36 C543.39,200.14 539.51,207.88 538.64,211.43 C537.51,216.26 538.16,227.00 538.62,228.10 C539.48,229.98 540.98,231.58 542.65,232.16 C544.60,232.77 547.04,232.38 548.81,231.06 C551.51,228.98 555.10,223.31 555.92,220.81 C556.72,218.29 557.61,210.82 556.95,206.93 C556.75,205.82 555.58,201.60 555.25,200.84 C554.25,198.75 549.37,196.66 548.53,196.27 C548.18,196.11 547.68,195.83 547.04,195.43" fill="none" stroke="rgb(0, 114, 255)" stroke-width="5.00" stroke-opacity="1.00" stroke-linejoin="round"/>
<path d="M676.10,205.29 C676.10,205.29 676.37,204.90 676.37,204.90 C676.04,203.25 675.01,202.24 672.84,201.70 C671.85,201.47 668.89,201.22 667.96,201.30 C666.40,201.47 663.63,202.74 662.33,203.89 C660.81,205.30 657.62,211.85 657.17,214.86 C656.74,218.02 657.58,223.30 658.95,226.29 C659.65,227.71 661.30,229.52 662.66,230.30 C664.81,231.46 668.57,230.79 672.64,229.13 C673.64,228.72 674.63,228.32 675.62,227.91 C676.49,227.57 677.36,227.24 678.23,226.90" fill="none" stroke="rgb(255, 178, 14)" stroke-width="5.00" stroke-opacity="1.00" stroke-linejoin="round"/>
<path d="M689.44,208.23 C689.44,208.23 689.40,202.93 689.40,202.93 C687.11,204.58 683.89,209.26 682.91,211.32 C681.36,214.67 679.41,222.12 679.43,225.64 C679.48,227.32 680.10,230.78 680.78,231.83 C681.82,233.40 684.42,235.66 686.29,236.87 C688.28,236.61 691.30,235.64 692.79,234.53 C694.59,233.16 697.80,225.14 698.06,221.45 C698.28,217.54 696.93,210.03 695.15,207.66 C694.40,206.70 692.50,204.99 691.20,203.93 C691.20,203.93 685.17,206.23 685.17,206.23" fill="none" stroke="rgb(255, 178, 14)" stroke-width="5.00" stroke-opacity="1.00" stroke-linejoin="round"/>
<path d="M724.63,205.03 C724.63,205.03 725.30,204.36 725.30,204.36 C723.46,204.27 719.70,204.00 718.88,204.15 C712.97,205.31 710.36,210.45 709.85,211.62 C711.36,213.32 715.07,216.15 718.19,217.95 C719.72,218.86 721.71,220.78 722.17,222.06 C722.63,223.46 721.76,226.00 720.48,227.65 C718.06,230.62 712.53,234.79 710.69,235.39 C710.69,235.39 710.10,232.90 710.10,232.90" fill="none" stroke="rgb(255, 178, 14)" stroke-width="5.00" stroke-opacity="1.00" stroke-linejoin="round"/>
<path d="M741.57,217.43 C741.57,217.43 742.37,216.63 742.37,216.63 C742.37,216.63 791.67,218.86 791.67,218.86 C791.67,218.86 785.17,222.10 785.17,222.10" fill="none" stroke="rgb(255, 178, 14)" stroke-width="5.00" stroke-opacity="1.00" stroke-linejoin="round"/>
<path d="M763.30,227.57 C763.30,227.57 765.17,224.89 765.17,224.89 C765.17,224.89 753.07,239.92 753.07,239.92 C754.56,242.22 755.65,243.20 757.65,243.63 C765.08,245.20 773.74,245.40 774.94,245.43 C774.94,245.43 772.63,242.10 772.63,242.10" fill="none" stroke="rgb(255, 178, 14)" stroke-width="5.00" stroke-opacity="1.00" stroke-linejoin="round"/>
<path d="M769.04,227.83 C768.75,230.72 766.63,246.47 765.49,254.87 C764.75,260.39 764.69,261.02 764.64,262.17 C764.64,262.17 764.69,253.24 764.69,253.24" fill="none" stroke="rgb(255, 178, 14)" stroke-width="5.00" stroke-opacity="1.00" stroke-linejoin="round"/>
<path d="M751.04,174.36 C751.04,174.36 774.88,177.43 774.88,177.43 C774.88,177.43 771.67,177.43 771.67,177.43" fill="none" stroke="rgb(255, 178, 14)" stroke-width="5.00" stroke-opacity="1.00" stroke-linejoin="round"/>
<path d="M762.23,175.96 C762.23,175.96 763.17,175.70 763.17,175.70 C763.43,177.50 763.91,181.16 763.79,182.24 C763.38,185.75 760.44,191.52 758.51,194.84 C757.47,196.59 755.66,199.44 754.36,201.34 C753.11,203.15 751.95,204.30 750.46,205.41 C750.46,205.41 750.23,205.03 750.23,205.03" fill="none" stroke="rgb(255, 178, 14)" stroke-width="5.00" stroke-opacity="1.00" stroke-linejoin="round"/>
<path d="M775.97,176.89 C774.52,178.26 772.49,180.70 771.65,182.30 C770.85,183.81 769.92,191.74 769.92,193.98 C769.95,196.53 771.40,200.90 773.37,203.40 C774.49,204.74 776.83,206.47 778.47,207.03 C779.85,207.48 789.09,207.90 789.92,207.44 C791.04,206.77 792.38,204.33 792.76,202.30 C792.90,201.54 793.13,196.77 793.13,196.60 C793.13,196.16 793.10,195.38 793.04,194.23" fill="none" stroke="rgb(255, 178, 14)" stroke-width="5.00" stroke-opacity="1.00" stroke-linejoin="round"/>
<path d="M888.77,226.79 C888.77,226.79 949.00,225.30 949.00,225.30 C949.00,225.30 946.77,225.43 946.77,225.43" fill="none" stroke="rgb(255, 255, 255)" stroke-width="5.00" stroke-opacity="1.00" stroke-linejoin="round"/>
<path d="M879.70,221.96 C879.70,221.96 879.43,221.70 879.43,221.70 C878.66,221.75 878.16,221.79 877.92,221.82 C877.69,221.84 877.40,221.89 877.06,221.96 C883.51,221.29 899.83,219.60 909.68,218.58 C917.48,217.83 931.58,216.44 934.41,217.22 C934.41,217.22 930.23,219.96 930.23,219.96" fill="none" stroke="rgb(2, 2, 2)" stroke-width="5.00" stroke-opacity="1.00" stroke-linejoin="round"/>
<path d="M866.90,270.16 C868.35,266.01 875.52,258.62 877.66,256.59 C877.66,256.59 879.42,274.90 879.42,274.90 C879.28,267.10 880.62,257.14 882.00,248.95 C882.60,245.87 883.85,244.18 885.97,243.77 C888.18,243.39 923.75,243.92 925.21,243.86 C925.21,243.86 923.83,244.23 923.83,244.23" fill="none" stroke="rgb(2, 2, 2)" stroke-width="5.00" stroke-opacity="1.00" stroke-linejoin="round"/>
<path d="M896.90,260.50 C896.90,260.50 896.24,260.50 896.24,260.50 C896.48,259.45 899.37,256.81 902.00,255.51 C903.51,254.83 906.93,254.45 908.27,255.11 C909.62,255.83 910.84,258.52 910.72,259.77 C910.29,262.54 908.18,265.83 905.18,268.46 C900.51,272.46 899.95,273.07 899.46,273.91 C899.46,273.91 916.15,272.61 916.15,272.61 C915.73,271.59 915.39,270.89 915.12,270.51 C914.86,270.13 914.29,269.55 913.43,268.76" fill="none" stroke="rgb(2, 2, 2)" stroke-width="5.00" stroke-opacity="1.00" stroke-linejoin="round"/>
<path d="M873.00,171.03 C873.00,171.03 873.30,171.00 873.30,171.00 C873.30,171.00 867.15,201.00 867.15,201.00 C867.15,201.00 869.30,197.03 869.30,197.03" fill="none" stroke="rgb(2, 2, 2)" stroke-width="5.00" stroke-opacity="1.00" stroke-linejoin="round"/>
<path d="M889.04,176.89 C889.04,176.89 888.90,176.23 888.90,176.23 C886.47,180.16 884.41,184.92 884.08,188.55 C883.84,191.68 884.63,198.01 885.32,198.71 C886.49,199.83 888.70,200.61 890.16,200.41 C892.83,199.96 896.47,197.70 897.95,195.68 C899.37,193.66 900.97,187.44 900.82,185.97 C900.68,184.89 899.49,182.77 897.95,180.78 C896.31,178.69 894.55,177.76 891.80,177.25 C891.80,177.25 891.09,178.14 891.09,178.14 C891.09,178.14 892.24,179.16 892.24,179.16" fill="none" stroke="rgb(2, 2, 2)" stroke-width="5.00" stroke-opacity="1.00" stroke-linejoin="round"/>
<path d="M916.24,174.90 C914.80,177.75 911.08,185.29 910.28,187.94 C909.59,190.25 909.33,192.08 909.20,195.45 C909.16,197.44 909.84,199.27 910.97,200.24 C912.16,201.19 916.66,201.73 919.53,200.96 C921.60,200.34 924.51,196.31 925.52,193.18 C925.99,191.64 926.08,188.61 925.71,187.05 C925.40,185.88 923.91,182.53 923.28,181.79 C922.28,180.64 920.32,179.37 919.04,178.83 C919.04,178.83 917.32,180.05 917.32,180.05 C917.32,180.05 920.10,181.83 920.10,181.83" fill="none" stroke="rgb(2, 2, 2)" stroke-width="5.00" stroke-opacity="1.00" stroke-linejoin="round"/>
<path d="M938.10,176.89 C938.10,176.89 937.90,176.83 937.90,176.83 C936.82,182.76 935.98,188.10 936.01,191.10 C936.05,193.39 937.26,200.86 938.00,201.61 C938.29,201.91 939.08,202.39 940.36,203.07 C942.59,201.43 943.70,200.27 944.23,198.77 C945.21,195.94 945.93,190.92 945.57,187.22 C945.34,185.22 944.16,182.14 943.09,181.05 C941.40,179.40 938.40,180.17 937.28,181.07 C937.21,181.83 937.21,182.32 937.28,182.54 C937.34,182.76 937.57,183.01 937.97,183.30" fill="none" stroke="rgb(2, 2, 2)" stroke-width="5.00" stroke-opacity="1.00" stroke-linejoin="round"/>
<path d="M983.30,215.96 C983.30,215.96 982.97,215.10 982.97,215.10 C982.97,215.10 1018.26,216.39 1018.26,216.39 C1018.26,216.39 1014.64,219.03 1014.64,219.03" fill="none" stroke="rgb(2, 2, 2)" stroke-width="5.00" stroke-opacity="1.00" stroke-linejoin="round"/>
<path d="M980.77,232.50 C980.77,232.50 980.24,232.50 980.24,232.50 C980.24,232.50 1015.81,233.30 1015.81,233.30 C1015.81,233.30 1013.70,233.96 1013.70,233.96" fill="none" stroke="rgb(2, 2, 2)" stroke-width="5.00" stroke-opacity="1.00" stroke-linejoin="round"/>
<path d="M983.17,243.03 C983.17,243.03 983.24,243.70 983.24,243.70 C983.24,243.70 983.66,243.47 983.66,243.47 C983.66,243.47 984.34,247.17 984.34,247.17 C984.34,247.17 988.63,240.10 988.63,240.10" fill="none" stroke="rgb(2, 2, 2)" stroke-width="5.00" stroke-opacity="1.00" stroke-linejoin="round"/>
<path d="M1007.97,199.96 C1007.97,199.96 1007.70,199.96 1007.70,199.96 C1007.70,199.96 1007.60,199.26 1007.60,199.26 C1007.60,199.26 1011.30,207.72 1011.30,207.72 C1011.30,207.72 1011.30,205.29 1011.30,205.29" fill="none" stroke="rgb(2, 2, 2)" stroke-width="5.00" stroke-opacity="1.00" stroke-linejoin="round"/>
<path d="M1048.10,187.43 C1048.52,187.67 1048.79,187.92 1048.90,188.16 C1049.06,188.52 1052.00,205.29 1052.50,208.14 C1052.50,208.14 1051.33,204.88 1051.33,204.88" fill="none" stroke="rgb(2, 2, 2)" stroke-width="5.00" stroke-opacity="1.00" stroke-linejoin="round"/>
<path d="M1047.17,191.96 C1054.11,191.56 1072.99,190.52 1074.53,191.09 C1076.10,191.72 1077.08,192.36 1077.48,193.02 C1078.40,194.67 1075.61,204.13 1075.07,205.96 C1066.61,234.55 1065.19,240.00 1064.93,240.96 C1064.93,240.96 1064.77,238.10 1064.77,238.10" fill="none" stroke="rgb(2, 2, 2)" stroke-width="5.00" stroke-opacity="1.00" stroke-linejoin="round"/>
<path d="M1094.24,205.43 C1091.26,209.51 1089.25,213.23 1088.60,217.14 C1088.21,219.61 1087.55,226.39 1087.81,229.32 C1088.00,231.09 1088.81,233.23 1089.65,234.22 C1090.39,235.04 1092.17,236.14 1093.23,236.44 C1094.42,236.74 1096.33,236.53 1097.63,235.93 C1099.92,234.81 1105.45,229.24 1107.07,226.54 C1108.66,223.79 1110.69,216.02 1110.97,212.14 C1111.21,208.23 1109.53,203.69 1107.84,201.28 C1107.04,200.20 1104.48,199.14 1102.92,199.33 C1102.22,199.42 1101.57,199.83 1100.98,200.55 C1100.80,200.76 1100.60,201.15 1100.37,201.70" fill="none" stroke="rgb(2, 2, 2)" stroke-width="5.00" stroke-opacity="1.00" stroke-linejoin="round"/>
<path d="M1124.37,190.23 C1124.37,190.23 1124.37,190.10 1124.37,190.10 C1124.37,190.10 1125.03,203.30 1125.03,203.30 C1125.03,203.30 1124.20,194.51 1124.20,194.51 C1130.43,192.90 1139.21,195.60 1141.46,196.39 C1142.34,197.77 1143.14,200.87 1143.16,203.65 C1143.17,206.00 1135.76,236.11 1134.69,240.53 C1134.69,240.53 1133.04,239.16 1133.04,239.16" fill="none" stroke="rgb(2, 2, 2)" stroke-width="5.00" stroke-opacity="1.00" stroke-linejoin="round"/>
<path d="M1155.70,237.03 C1155.70,237.03 1155.30,237.16 1155.30,237.16 C1155.31,237.63 1155.37,238.01 1155.49,238.31 C1155.71,238.89 1156.06,239.56 1156.53,240.32 C1156.65,240.51 1156.73,240.57 1156.77,240.50" fill="none" stroke="rgb(2, 2, 2)" stroke-width="5.00" stroke-opacity="1.00" stroke-linejoin="round"/>
<path d="M1175.97,217.70 C1175.97,217.70 1175.70,218.36 1175.70,218.36 C1175.70,218.36 1174.26,243.59 1174.26,243.59 C1174.26,243.59 1177.57,240.90 1177.57,240.90" fill="none" stroke="rgb(2, 2, 2)" stroke-width="5.00" stroke-opacity="1.00" stroke-linejoin="round"/>
<path d="M1192.63,218.89 C1192.63,218.89 1192.63,218.23 1192.63,218.23 C1191.11,221.89 1189.92,225.48 1189.34,229.19 C1188.89,232.19 1188.39,239.41 1189.36,242.13 C1189.62,242.80 1191.27,244.62 1191.92,244.65 C1193.48,244.64 1195.96,243.36 1196.96,242.01 C1198.89,239.28 1200.77,232.28 1200.54,228.30 C1200.25,224.45 1198.26,222.29 1196.47,220.69 C1195.77,220.08 1194.11,218.50 1193.17,217.56" fill="none" stroke="rgb(2, 2, 2)" stroke-width="5.00" stroke-opacity="1.00" stroke-linejoin="round"/>
<path d="M1217.83,218.89 C1217.83,218.89 1216.90,218.77 1216.90,218.77 C1215.73,219.33 1212.55,224.00 1211.42,226.38 C1210.11,229.24 1209.17,234.12 1208.93,239.10 C1208.84,241.30 1209.10,242.17 1209.87,242.95 C1211.31,243.18 1213.51,243.25 1214.46,242.83 C1215.49,242.35 1217.64,239.70 1218.35,238.21 C1218.98,236.81 1219.52,233.91 1219.36,232.84 C1219.15,231.81 1217.75,230.31 1216.65,229.98 C1215.70,229.73 1211.93,229.57 1211.06,229.75 C1210.66,229.84 1209.99,230.08 1209.03,230.50" fill="none" stroke="rgb(2, 2, 2)" stroke-width="5.00" stroke-opacity="1.00" stroke-linejoin="round"/>
<path d="M1229.97,239.43 C1229.97,239.43 1229.17,239.30 1229.17,239.30 C1229.17,239.30 1233.52,247.11 1233.52,247.11 C1233.52,247.11 1234.90,244.36 1234.90,244.36" fill="none" stroke="rgb(2, 2, 2)" stroke-width="5.00" stroke-opacity="1.00" stroke-linejoin="round"/>
<path d="M1239.03,239.30 C1239.03,239.30 1239.30,238.76 1239.30,238.76 C1239.30,238.76 1242.92,243.49 1242.92,243.49 C1242.92,243.49 1245.17,243.16 1245.17,243.16" fill="none" stroke="rgb(2, 2, 2)" stroke-width="5.00" stroke-opacity="1.00" stroke-linejoin="round"/>
<path d="M1251.17,236.36 C1251.54,235.99 1253.06,236.39 1254.61,237.48 C1255.28,237.96 1258.94,241.36 1259.69,241.80 C1260.15,242.06 1261.03,242.41 1262.35,242.85 C1262.35,242.85 1263.17,239.70 1263.17,239.70" fill="none" stroke="rgb(2, 2, 2)" stroke-width="5.00" stroke-opacity="1.00" stroke-linejoin="round"/>
<path d="M298.24,286.10 C298.24,286.10 302.90,328.26 302.90,328.26 C302.90,327.51 302.90,326.76 302.90,326.00 C302.90,325.28 302.90,324.55 302.90,323.83" fill="none" stroke="rgb(255, 255, 255)" stroke-width="5.00" stroke-opacity="1.00" stroke-linejoin="round"/>
<path d="M299.70,284.63 C299.70,284.63 299.57,284.23 299.57,284.23 C299.57,284.23 299.17,333.89 299.17,333.89 C299.17,333.89 301.30,322.63 301.30,322.63" fill="none" stroke="rgb(255, 55, 6)" stroke-width="5.00" stroke-opacity="1.00" stroke-linejoin="round"/>
<path d="M304.77,285.16 C304.77,285.16 304.90,285.30 304.90,285.30 C304.90,285.30 304.90,285.16 304.90,285.16 C304.93,285.62 306.36,304.56 306.43,310.59 C306.51,317.41 305.68,329.19 305.60,330.36 C305.70,329.72 305.80,329.08 305.90,328.45 C306.01,327.75 306.12,327.06 306.23,326.36" fill="none" stroke="rgb(255, 55, 6)" stroke-width="5.00" stroke-opacity="1.00" stroke-linejoin="round"/>
<path d="M326.90,300.76 C326.90,300.76 326.50,300.76 326.50,300.76 C326.50,300.76 324.01,294.37 324.01,294.37 C322.46,294.61 321.43,295.24 320.78,296.77 C319.09,300.86 317.36,312.90 317.33,316.89 C317.32,318.93 317.80,320.97 318.73,323.59 C320.50,323.94 321.55,323.56 323.01,321.63 C326.20,317.39 329.08,312.11 330.32,308.67 C331.51,305.27 332.85,300.01 333.22,297.29 C332.95,300.17 332.99,307.23 333.43,310.40 C334.02,314.38 336.20,319.74 338.83,325.38 C339.96,324.39 341.68,322.74 342.38,321.86 C343.08,320.98 344.29,318.91 345.00,317.57" fill="none" stroke="rgb(255, 55, 6)" stroke-width="5.00" stroke-opacity="1.00" stroke-linejoin="round"/>
<path d="M311.57,276.63 C311.57,276.63 311.17,276.50 311.17,276.50 C311.17,276.50 338.34,279.70 338.34,279.70 C338.34,279.70 335.30,278.89 335.30,278.89" fill="none" stroke="rgb(255, 55, 6)" stroke-width="5.00" stroke-opacity="1.00" stroke-linejoin="round"/>
<path d="M329.84,269.96 C331.55,269.62 332.62,269.64 334.31,270.18 C338.51,271.55 342.72,274.19 343.63,276.54 C343.99,277.59 343.70,279.68 343.07,280.57 C342.50,281.31 340.41,283.05 338.93,284.12 C335.90,286.29 335.38,286.74 335.04,287.16" fill="none" stroke="rgb(255, 55, 6)" stroke-width="5.00" stroke-opacity="1.00" stroke-linejoin="round"/>
<path d="M351.30,290.50 C351.30,290.50 351.70,289.56 351.70,289.56 C351.70,289.56 356.23,332.69 356.23,332.69 C356.23,332.69 357.43,324.23 357.43,324.23" fill="none" stroke="rgb(255, 55, 6)" stroke-width="5.00" stroke-opacity="1.00" stroke-linejoin="round"/>
<path d="M364.63,287.83 C364.63,287.83 364.63,286.90 364.63,286.90 C364.63,286.90 369.57,331.07 369.57,331.07 C369.57,331.07 370.24,323.69 370.24,323.69" fill="none" stroke="rgb(255, 55, 6)" stroke-width="5.00" stroke-opacity="1.00" stroke-linejoin="round"/>
<path d="M463.70,285.83 C463.70,285.83 464.39,285.42 464.39,285.42 C464.39,285.42 467.03,328.13 467.03,328.13 C467.03,328.13 467.17,319.56 467.17,319.56" fill="none" stroke="rgb(16, 123, 255)" stroke-width="5.00" stroke-opacity="1.00" stroke-linejoin="round"/>
<path d="M473.44,280.10 C473.44,280.10 472.90,279.30 472.90,279.30 C471.91,283.23 471.83,288.66 471.87,291.16 C472.51,314.66 473.53,322.67 474.41,327.94 C474.41,327.94 475.70,323.96 475.70,323.96" fill="none" stroke="rgb(16, 123, 255)" stroke-width="5.00" stroke-opacity="1.00" stroke-linejoin="round"/>
<path d="M487.83,281.83 C487.83,281.83 487.83,280.36 487.83,280.36 C487.83,280.36 487.83,319.25 487.83,319.25 C488.32,315.05 489.10,310.21 490.77,307.56 C492.42,305.05 496.07,304.68 497.53,304.72 C498.52,305.80 499.91,307.70 500.35,308.96 C500.87,310.52 501.03,315.07 500.59,316.75 C500.14,318.35 498.02,321.24 496.73,322.15 C495.50,322.96 492.59,323.70 491.56,323.46 C490.71,323.22 489.18,321.84 488.20,320.62 C487.50,319.74 486.80,318.85 486.10,317.96" fill="none" stroke="rgb(16, 123, 255)" stroke-width="5.00" stroke-opacity="1.00" stroke-linejoin="round"/>
<path d="M476.77,271.83 C476.77,271.83 474.84,271.60 474.84,271.60 C474.84,271.60 503.56,275.79 503.56,275.79 C503.56,275.79 503.04,275.16 503.04,275.16" fill="none" stroke="rgb(16, 123, 255)" stroke-width="5.00" stroke-opacity="1.00" stroke-linejoin="round"/>
<path d="M500.90,269.30 C502.99,269.19 507.30,268.93 508.24,269.03 C510.45,269.31 512.71,270.91 512.76,272.44 C512.75,274.25 511.80,276.60 510.54,278.10 C510.22,278.46 505.40,284.01 504.15,285.34 C503.85,285.67 503.52,286.06 503.17,286.50" fill="none" stroke="rgb(16, 123, 255)" stroke-width="5.00" stroke-opacity="1.00" stroke-linejoin="round"/>
<path d="M521.44,284.77 C521.44,284.77 521.44,284.50 521.44,284.50 C521.44,284.50 522.50,326.23 522.50,326.23 C522.50,326.23 522.50,318.10 522.50,318.10" fill="none" stroke="rgb(16, 123, 255)" stroke-width="5.00" stroke-opacity="1.00" stroke-linejoin="round"/>
<path d="M528.50,283.43 C528.50,283.43 531.65,328.91 531.65,328.91 C531.65,328.91 532.63,315.83 532.63,315.83" fill="none" stroke="rgb(16, 123, 255)" stroke-width="5.00" stroke-opacity="1.00" stroke-linejoin="round"/>
<path d="M657.84,292.36 C657.97,292.07 657.97,291.88 657.84,291.81 C657.35,291.59 654.87,291.81 653.41,292.28 C651.50,292.94 649.28,294.54 647.86,296.36 C645.69,299.21 644.21,303.92 643.94,307.78 C643.70,311.65 644.42,315.89 646.35,319.17 C647.60,321.21 649.12,322.52 650.61,322.91 C651.77,323.14 653.33,322.37 654.60,321.06 C654.83,320.81 659.12,315.27 659.84,314.36" fill="none" stroke="rgb(255, 178, 14)" stroke-width="5.00" stroke-opacity="1.00" stroke-linejoin="round"/>
<path d="M674.77,295.70 C673.67,295.53 672.98,295.44 672.68,295.43 C671.27,295.38 668.00,299.09 666.81,301.51 C665.38,304.47 663.73,310.98 663.57,312.82 C663.44,314.77 663.81,317.84 664.47,319.10 C665.18,320.36 667.93,322.82 669.30,323.40 C670.70,323.93 674.35,323.97 675.57,323.43 C676.85,322.81 678.78,320.23 679.45,318.50 C680.25,316.27 679.94,310.66 678.85,307.16 C678.31,305.48 677.09,302.27 676.48,300.71 C675.79,298.89 674.97,297.83 672.99,295.97" fill="none" stroke="rgb(255, 178, 14)" stroke-width="5.00" stroke-opacity="1.00" stroke-linejoin="round"/>
<path d="M711.70,290.89 C709.35,290.93 705.84,291.30 704.43,291.96 C701.96,293.15 697.96,299.37 697.04,301.36 C698.69,303.86 708.07,309.66 709.88,311.84 C710.55,312.71 711.13,314.89 710.87,316.02 C710.46,317.60 708.13,320.79 706.60,321.84 C706.06,322.20 697.89,325.65 696.50,326.23 C695.25,325.42 694.47,324.83 694.16,324.47 C693.85,324.10 693.56,323.45 693.30,322.50" fill="none" stroke="rgb(255, 178, 14)" stroke-width="5.00" stroke-opacity="1.00" stroke-linejoin="round"/>
<path d="M732.10,282.90 C730.65,286.17 727.55,293.21 726.84,295.41 C726.05,297.96 724.84,317.77 725.77,322.14 C726.02,323.24 727.35,326.02 727.97,326.64 C728.80,327.42 732.07,329.27 733.11,329.22 C734.78,329.08 737.72,327.59 738.90,326.33 C741.20,323.75 743.47,318.25 743.93,316.16 C744.88,311.64 744.28,305.83 742.74,302.28 C739.68,295.54 734.27,291.71 732.66,290.90 C732.66,290.90 734.37,288.76 734.37,288.76" fill="none" stroke="rgb(255, 178, 14)" stroke-width="5.00" stroke-opacity="1.00" stroke-linejoin="round"/>
<path d="M721.43,307.03 C721.43,307.03 744.94,307.28 744.94,307.28 C744.94,307.28 737.84,305.43 737.84,305.43" fill="none" stroke="rgb(255, 178, 14)" stroke-width="5.00" stroke-opacity="1.00" stroke-linejoin="round"/>
<path d="M681.17,802.23 L1045.04,802.23" fill="none" stroke="rgb(11, 211, 0)" stroke-width="6.00" stroke-opacity="1.00" stroke-linejoin="round"/>
<path d="M1031.83,787.56 L1049.83,803.83" fill="none" stroke="rgb(11, 211, 0)" stroke-width="6.00" stroke-opacity="1.00" stroke-linejoin="round"/>
<path d="M1051.30,803.83 L1030.77,820.63" fill="none" stroke="rgb(11, 211, 0)" stroke-width="6.00" stroke-opacity="1.00" stroke-linejoin="round"/>
<path d="M782.50,847.16 C782.50,847.30 782.50,846.90 782.50,846.76 C782.50,845.23 782.50,842.21 782.50,840.72 C782.50,840.72 783.57,879.40 783.57,879.40 C783.92,877.93 784.74,874.55 785.20,872.65 C785.60,871.12 786.25,868.65 786.50,867.70" fill="none" stroke="rgb(11, 211, 0)" stroke-width="5.00" stroke-opacity="1.00" stroke-linejoin="round"/>
<path d="M789.30,839.83 C788.82,841.82 788.92,859.74 789.02,868.29 C789.30,878.08 790.53,882.41 790.77,883.29 C790.77,883.29 792.64,877.70 792.64,877.70" fill="none" stroke="rgb(11, 211, 0)" stroke-width="5.00" stroke-opacity="1.00" stroke-linejoin="round"/>
<path d="M802.37,839.16 C802.37,839.16 801.84,838.76 801.84,838.76 C801.84,838.76 803.97,887.47 803.97,887.47 C803.91,883.92 804.62,876.99 804.90,875.63 C805.60,872.31 808.17,866.78 809.12,865.87 C810.64,864.50 813.61,863.61 815.01,864.35 C816.13,864.99 817.28,867.23 817.30,868.45 C817.23,871.00 814.78,876.10 812.62,878.21 C811.56,879.20 808.49,880.91 807.35,881.00 C806.89,881.03 806.30,880.79 805.56,880.29 C805.56,880.29 810.37,871.29 810.37,871.29" fill="none" stroke="rgb(11, 211, 0)" stroke-width="5.00" stroke-opacity="1.00" stroke-linejoin="round"/>
<path d="M797.30,841.56 C797.30,841.56 785.27,839.52 785.27,839.52 C790.15,837.44 816.05,837.33 818.71,837.84 C818.71,837.84 817.83,837.96 817.83,837.96" fill="none" stroke="rgb(11, 211, 0)" stroke-width="5.00" stroke-opacity="1.00" stroke-linejoin="round"/>
<path d="M815.44,831.16 C817.33,830.35 823.18,830.34 825.18,830.86 C827.44,831.48 829.49,833.85 830.27,834.90 C828.79,837.90 826.11,840.34 822.45,841.96 C822.16,842.08 821.87,842.20 821.58,842.32 C821.58,842.32 822.50,841.96 822.50,841.96" fill="none" stroke="rgb(11, 211, 0)" stroke-width="5.00" stroke-opacity="1.00" stroke-linejoin="round"/>
<path d="M839.04,833.43 C839.04,833.43 839.04,832.90 839.04,832.90 C839.04,832.90 840.90,880.79 840.90,880.79 C840.90,880.79 843.57,869.69 843.57,869.69" fill="none" stroke="rgb(11, 211, 0)" stroke-width="5.00" stroke-opacity="1.00" stroke-linejoin="round"/>
<path d="M851.57,833.57 C851.57,833.57 851.57,833.03 851.57,833.03 C853.57,838.43 855.10,851.23 855.63,859.23 C856.12,867.67 855.75,878.70 855.79,878.66 C856.02,878.38 856.71,877.71 857.83,876.63" fill="none" stroke="rgb(11, 211, 0)" stroke-width="5.00" stroke-opacity="1.00" stroke-linejoin="round"/>
<path d="M877.43,855.56 C877.43,855.56 878.81,864.94 878.81,864.94 C878.81,864.94 877.43,855.56 877.43,855.56" fill="none" stroke="rgb(11, 211, 0)" stroke-width="5.00" stroke-opacity="1.00" stroke-linejoin="round"/>
<path d="M915.57,853.29 C915.76,852.84 914.92,851.42 913.74,850.75 C912.69,850.18 909.10,850.22 907.68,850.75 C906.28,851.32 901.69,857.00 900.71,859.26 C899.67,861.76 898.65,867.16 899.09,870.54 C899.43,872.70 900.22,875.66 901.02,876.58 C902.24,877.96 905.11,879.60 907.15,880.34 C907.15,880.34 911.83,876.50 911.83,876.50" fill="none" stroke="rgb(11, 211, 0)" stroke-width="5.00" stroke-opacity="1.00" stroke-linejoin="round"/>
<path d="M920.90,858.90 C920.90,858.90 919.57,858.76 919.57,858.76 C918.59,863.62 917.73,868.64 918.21,871.64 C918.47,873.13 919.62,874.01 921.66,874.75 C923.89,872.92 925.08,871.68 925.80,870.27 C927.11,867.63 928.33,862.15 928.14,859.35 C928.00,857.78 927.42,856.05 926.67,854.91 C926.01,854.00 923.71,852.75 922.31,852.63 C920.74,852.51 919.23,853.77 918.27,855.45 C918.27,855.45 920.64,856.76 920.64,856.76" fill="none" stroke="rgb(11, 211, 0)" stroke-width="5.00" stroke-opacity="1.00" stroke-linejoin="round"/>
<path d="M939.57,845.57 C939.57,845.57 939.57,844.76 939.57,844.76 C939.57,844.76 932.73,851.75 932.73,851.75 C932.95,853.21 933.87,854.08 936.53,855.00 C939.13,855.90 940.42,856.39 942.25,857.20 C943.10,857.61 945.42,859.71 945.84,860.86 C946.24,862.04 945.80,865.75 945.31,866.42 C942.65,869.71 934.74,873.39 933.40,873.88 C933.40,873.88 935.04,873.43 935.04,873.43" fill="none" stroke="rgb(11, 211, 0)" stroke-width="5.00" stroke-opacity="1.00" stroke-linejoin="round"/>
<path d="M970.10,835.29 C970.10,835.29 970.10,834.76 970.10,834.76 C968.58,837.23 964.83,843.51 963.49,847.45 C962.42,850.69 961.43,856.82 960.87,862.27 C960.50,866.42 960.73,871.92 961.38,874.35 C961.55,874.89 962.92,878.41 963.55,878.76 C964.77,879.40 967.75,879.65 968.89,879.26 C971.22,878.36 974.71,874.15 976.18,871.20 C977.78,867.91 979.06,863.39 979.35,859.96 C979.58,856.88 978.48,851.09 976.99,848.70 C975.66,846.65 971.42,842.97 970.33,842.05 C970.33,842.05 975.57,843.30 975.57,843.30" fill="none" stroke="rgb(11, 211, 0)" stroke-width="5.00" stroke-opacity="1.00" stroke-linejoin="round"/>
<path d="M956.10,863.57 C956.10,863.57 982.38,864.80 982.38,864.80 C982.38,864.80 973.30,860.36 973.30,860.36" fill="none" stroke="rgb(11, 211, 0)" stroke-width="5.00" stroke-opacity="1.00" stroke-linejoin="round"/>
</g>
</svg>
