<?xml version="1.0" encoding="UTF-8" standalone="no"?>
<!DOCTYPE svg PUBLIC "-//W3C//DTD SVG 1.1//EN" "http://www.w3.org/Graphics/SVG/1.1/DTD/svg11.dtd">
<svg width="1600.00" height="1200.00" viewBox="0.00 0.00 1600.00 1200.00" xmlns="http://www.w3.org/2000/svg" xmlns:xlink="http://www.w3.org/1999/xlink">
<g stroke-linecap="round" id="内積・外積">
<path d="M148.22,982.84 C148.52,982.69 148.65,982.55 148.60,982.43 C148.40,981.90 146.53,980.09 146.11,979.14 C145.72,978.22 145.22,974.58 145.64,973.65 C145.88,973.15 146.64,972.12 147.91,970.56 C150.08,970.59 152.18,971.73 153.10,973.77 C153.82,975.41 152.66,977.68 150.98,978.59 C150.63,978.77 150.12,978.89 149.46,978.97 C149.46,978.97 148.70,980.19 148.70,980.19 C148.70,980.19 147.48,979.46 147.48,979.46 C148.43,977.58 150.49,977.60 151.62,978.01 C151.62,978.01 151.95,979.40 151.95,979.40 C151.95,979.40 149.92,979.96 149.92,979.96 C148.46,978.89 147.55,977.10 148.20,975.77 C148.37,975.41 148.90,974.87 149.77,974.17 C149.77,974.17 151.84,974.68 151.84,974.68 C152.04,976.72 151.38,978.71 149.98,979.19 C149.60,979.32 148.89,979.32 147.83,979.20 C147.83,979.20 147.78,977.92 147.78,977.92 C149.57,976.83 150.99,976.79 152.59,977.79 C152.59,977.79 152.96,979.65 152.96,979.65 C152.96,979.65 150.80,980.44 150.80,980.44 C150.80,980.44 149.45,978.28 149.45,978.28 C149.45,978.28 151.67,975.78 151.67,975.78 C151.67,975.78 155.21,978.32 155.21,978.32 C154.28,979.58 152.77,981.31 151.98,981.73 C151.24,982.11 148.74,982.02 147.98,981.62 C146.58,980.85 145.93,979.50 146.07,978.14 C146.07,978.14 147.90,977.06 147.90,977.06" fill="none" stroke="rgb(0, 0, 0)" stroke-width="12.00" stroke-opacity="1.00" stroke-linejoin="round"/>
<path d="M147.66,977.17 L969.15,258.03" fill="none" stroke="rgb(0, 0, 0)" stroke-width="10.00" stroke-opacity="1.00" stroke-linejoin="round"/>
<path d="M969.51,258.17 C969.51,258.17 968.96,257.07 968.96,257.07 C968.96,257.07 969.56,258.17 969.56,258.17" fill="none" stroke="rgb(0, 0, 0)" stroke-width="10.00" stroke-opacity="1.00" stroke-linejoin="round"/>
<path d="M908.76,269.66 C909.45,270.86 910.15,271.26 911.31,270.79 C911.36,270.77 932.74,261.33 938.59,259.41 C943.34,257.87 948.82,255.79 952.47,254.39 C956.33,252.95 970.92,249.89 974.02,249.04 C972.52,255.20 969.10,269.58 967.18,277.80 C965.07,287.77 963.60,299.96 962.86,306.63 C961.61,319.64 961.43,320.20 960.95,320.28 C960.80,320.28 960.62,320.31 960.42,320.34" fill="none" stroke="rgb(0, 0, 0)" stroke-width="10.00" stroke-opacity="1.00" stroke-linejoin="round"/>
<path d="M149.02,977.72 C149.02,977.72 149.11,975.11 149.11,975.11 C149.11,975.11 148.35,977.72 148.35,977.72" fill="none" stroke="rgb(0, 0, 0)" stroke-width="10.00" stroke-opacity="1.00" stroke-linejoin="round"/>
<path d="M148.35,977.72 L1269.93,979.38" fill="none" stroke="rgb(0, 0, 0)" stroke-width="10.00" stroke-opacity="1.00" stroke-linejoin="round"/>
<path d="M1269.93,979.38 C1270.59,979.56 1271.03,979.76 1271.27,979.99 C1271.51,980.21 1271.86,980.77 1272.34,981.66 C1272.34,981.66 1270.62,979.38 1270.62,979.38" fill="none" stroke="rgb(0, 0, 0)" stroke-width="10.00" stroke-opacity="1.00" stroke-linejoin="round"/>
<path d="M1258.29,943.79 C1258.29,943.79 1258.29,943.38 1258.29,943.38 C1258.29,943.38 1257.33,941.72 1257.33,941.72" fill="none" stroke="rgb(0, 0, 0)" stroke-width="10.00" stroke-opacity="1.00" stroke-linejoin="round"/>
<path d="M1252.62,940.88 C1252.92,940.67 1253.15,940.58 1253.31,940.61 C1255.64,941.19 1284.58,969.06 1296.61,980.76 C1300.42,984.49 1301.89,985.98 1305.10,989.38 C1297.95,994.63 1274.08,1018.63 1271.15,1022.03" fill="none" stroke="rgb(0, 0, 0)" stroke-width="10.00" stroke-opacity="1.00" stroke-linejoin="round"/>
<path d="M983.68,274.23 L983.68,295.14" fill="none" stroke="rgb(163, 163, 163)" stroke-width="10.00" stroke-opacity="1.00" stroke-linejoin="round"/>
<path d="M984.93,323.67 L984.93,346.24" fill="none" stroke="rgb(163, 163, 163)" stroke-width="10.00" stroke-opacity="1.00" stroke-linejoin="round"/>
<path d="M985.21,376.98 L985.21,404.40" fill="none" stroke="rgb(163, 163, 163)" stroke-width="10.00" stroke-opacity="1.00" stroke-linejoin="round"/>
<path d="M986.31,429.61 L986.31,457.86" fill="none" stroke="rgb(163, 163, 163)" stroke-width="10.00" stroke-opacity="1.00" stroke-linejoin="round"/>
<path d="M983.96,478.21 L983.96,502.03" fill="none" stroke="rgb(163, 163, 163)" stroke-width="10.00" stroke-opacity="1.00" stroke-linejoin="round"/>
<path d="M983.82,528.07 L983.82,550.78" fill="none" stroke="rgb(163, 163, 163)" stroke-width="10.00" stroke-opacity="1.00" stroke-linejoin="round"/>
<path d="M985.35,574.88 L985.35,597.72" fill="none" stroke="rgb(163, 163, 163)" stroke-width="10.00" stroke-opacity="1.00" stroke-linejoin="round"/>
<path d="M981.74,629.44 L981.74,653.95" fill="none" stroke="rgb(163, 163, 163)" stroke-width="10.00" stroke-opacity="1.00" stroke-linejoin="round"/>
<path d="M979.25,690.09 L979.25,712.80" fill="none" stroke="rgb(163, 163, 163)" stroke-width="10.00" stroke-opacity="1.00" stroke-linejoin="round"/>
<path d="M982.58,741.19 L982.58,772.07" fill="none" stroke="rgb(163, 163, 163)" stroke-width="10.00" stroke-opacity="1.00" stroke-linejoin="round"/>
<path d="M980.08,803.93 L980.08,833.15" fill="none" stroke="rgb(163, 163, 163)" stroke-width="10.00" stroke-opacity="1.00" stroke-linejoin="round"/>
<path d="M981.61,862.92 L981.61,899.90" fill="none" stroke="rgb(163, 163, 163)" stroke-width="10.00" stroke-opacity="1.00" stroke-linejoin="round"/>
<path d="M984.62,925.65 L984.62,961.11" fill="none" stroke="rgb(163, 163, 163)" stroke-width="10.00" stroke-opacity="1.00" stroke-linejoin="round"/>
<path d="M141.71,1001.13 L1268.40,1001.13" fill="none" stroke="rgb(13, 186, 0)" stroke-width="10.00" stroke-opacity="1.00" stroke-linejoin="round"/>
<path d="M174.67,964.57 L975.38,964.57" fill="none" stroke="rgb(255, 142, 0)" stroke-width="10.00" stroke-opacity="1.00" stroke-linejoin="round"/>
<path d="M1049.46,1041.98 C1049.46,1041.98 1049.30,1040.76 1049.30,1040.76 C1046.20,1040.44 1044.53,1040.39 1043.76,1040.81 C1041.97,1041.82 1037.39,1047.01 1035.95,1049.29 C1033.05,1054.00 1028.82,1068.29 1028.03,1074.77 C1027.85,1076.43 1027.82,1079.14 1027.99,1080.90 C1028.16,1082.58 1029.02,1083.95 1030.71,1085.73 C1031.89,1085.39 1033.62,1084.73 1034.45,1084.15 C1036.25,1082.87 1039.70,1076.77 1041.77,1072.46 C1045.27,1064.93 1047.99,1055.86 1050.10,1047.55 C1050.49,1054.93 1051.90,1067.43 1054.34,1074.76 C1054.96,1076.57 1056.29,1079.87 1056.92,1081.37 C1057.68,1083.11 1059.51,1085.52 1060.89,1086.43 C1061.74,1086.96 1064.49,1087.13 1065.19,1086.86 C1066.69,1086.19 1070.50,1080.03 1071.18,1078.72 C1071.49,1078.13 1072.05,1076.96 1072.86,1075.21" fill="none" stroke="rgb(13, 186, 0)" stroke-width="10.00" stroke-opacity="1.00" stroke-linejoin="round"/>
<path d="M1012.77,1038.10 L1012.77,1090.17" fill="none" stroke="rgb(13, 186, 0)" stroke-width="7.00" stroke-opacity="1.00" stroke-linejoin="round"/>
<path d="M999.20,1037.55 L999.20,1091.69" fill="none" stroke="rgb(13, 186, 0)" stroke-width="7.00" stroke-opacity="1.00" stroke-linejoin="round"/>
<path d="M1084.22,1040.59 L1084.22,1088.78" fill="none" stroke="rgb(13, 186, 0)" stroke-width="7.00" stroke-opacity="1.00" stroke-linejoin="round"/>
<path d="M1096.82,1040.32 L1096.82,1092.53" fill="none" stroke="rgb(13, 186, 0)" stroke-width="7.00" stroke-opacity="1.00" stroke-linejoin="round"/>
<path d="M429.89,873.86 L429.89,932.72" fill="none" stroke="rgb(255, 142, 0)" stroke-width="7.00" stroke-opacity="1.00" stroke-linejoin="round"/>
<path d="M440.97,873.58 L440.97,930.78" fill="none" stroke="rgb(255, 142, 0)" stroke-width="7.00" stroke-opacity="1.00" stroke-linejoin="round"/>
<path d="M455.09,878.57 C455.09,878.57 455.65,876.49 455.65,876.49 C455.69,883.47 455.93,901.22 456.52,907.74 C457.44,914.70 458.64,924.79 458.55,927.35 C458.21,920.98 460.10,912.05 461.09,909.35 C462.14,906.61 465.40,904.94 466.80,904.56 C468.34,905.35 470.59,906.77 471.44,907.80 C473.31,910.10 474.27,917.21 473.85,920.64 C473.63,922.13 472.76,924.57 472.02,925.68 C470.78,927.45 467.67,928.42 466.44,928.70 C465.92,927.44 465.14,925.44 464.85,924.52 C464.57,923.60 464.17,921.71 463.95,920.53" fill="none" stroke="rgb(255, 142, 0)" stroke-width="10.00" stroke-opacity="1.00" stroke-linejoin="round"/>
<path d="M493.04,881.90 L493.04,924.82" fill="none" stroke="rgb(255, 142, 0)" stroke-width="7.00" stroke-opacity="1.00" stroke-linejoin="round"/>
<path d="M503.43,880.37 L503.43,929.81" fill="none" stroke="rgb(255, 142, 0)" stroke-width="7.00" stroke-opacity="1.00" stroke-linejoin="round"/>
<path d="M532.23,905.02 C532.23,905.02 532.06,902.84 532.06,902.84 C529.66,901.80 527.32,901.32 525.63,901.67 C523.87,902.08 521.23,905.90 520.00,909.92 C518.99,913.32 518.05,920.31 518.41,921.81 C518.92,923.76 520.58,925.81 522.33,926.68 C523.50,927.21 526.40,927.66 527.56,927.34 C528.78,926.99 531.70,925.19 533.61,923.86" fill="none" stroke="rgb(255, 142, 0)" stroke-width="10.00" stroke-opacity="1.00" stroke-linejoin="round"/>
<path d="M542.16,909.04 C542.16,909.04 543.59,908.62 543.59,908.62 C543.59,908.62 542.64,907.93 542.64,907.93 C540.99,908.41 537.93,912.06 537.09,914.71 C536.24,917.56 536.28,924.28 536.95,926.95 C537.29,928.10 538.82,929.67 540.04,929.96 C540.86,930.12 544.47,928.71 545.27,927.98 C546.95,926.35 549.62,917.23 549.53,915.43 C549.38,913.26 548.03,910.04 546.98,909.62 C546.66,909.50 545.98,909.49 544.97,909.59" fill="none" stroke="rgb(255, 142, 0)" stroke-width="10.00" stroke-opacity="1.00" stroke-linejoin="round"/>
<path d="M568.23,904.74 C568.23,904.74 568.37,903.63 568.37,903.63 C566.45,903.45 565.11,903.84 563.80,905.26 C561.59,907.71 559.71,912.01 558.97,913.93 C562.66,915.44 567.13,918.33 568.52,920.94 C569.14,922.20 569.55,925.16 569.25,926.31 C568.97,927.21 567.29,929.63 566.38,930.44 C564.43,932.11 562.31,933.12 561.18,932.97 C560.99,932.94 560.81,932.86 560.62,932.72" fill="none" stroke="rgb(255, 142, 0)" stroke-width="10.00" stroke-opacity="1.00" stroke-linejoin="round"/>
<path d="M585.55,903.36 C585.55,903.36 585.13,902.25 585.13,902.25 C582.25,906.84 580.58,910.92 580.30,915.58 C580.11,919.39 580.72,929.62 580.89,930.24 C581.20,931.23 582.66,933.26 583.48,933.52 C585.26,934.01 587.28,933.78 588.62,932.92 C591.38,931.08 593.20,928.42 594.44,924.80 C595.90,920.42 597.27,914.30 596.87,911.09 C596.48,908.27 593.46,901.97 591.96,901.46 C591.25,901.23 589.97,901.01 588.14,900.82 C587.67,900.78 587.03,900.75 586.23,900.72" fill="none" stroke="rgb(255, 142, 0)" stroke-width="10.00" stroke-opacity="1.00" stroke-linejoin="round"/>
<path d="M585.55,921.50 C585.55,921.50 584.30,921.50 584.30,921.50 C584.30,921.50 583.32,921.27 583.32,921.27 C583.32,921.27 596.30,916.63 596.30,916.63 C596.30,916.63 593.30,915.40 593.30,915.40" fill="none" stroke="rgb(255, 142, 0)" stroke-width="10.00" stroke-opacity="1.00" stroke-linejoin="round"/>
<path d="M250.97,903.22 C251.35,902.02 251.77,902.04 252.97,903.74 C255.87,907.69 259.09,912.79 260.45,915.79 C262.61,920.73 268.23,948.52 268.48,949.80" fill="none" stroke="rgb(163, 163, 163)" stroke-width="10.00" stroke-opacity="1.00" stroke-linejoin="round"/>
<path d="M302.35,928.84 C302.35,928.84 300.91,930.78 300.91,930.78 C299.65,930.09 298.76,929.25 298.05,927.79 C296.70,924.98 294.91,918.28 294.48,915.77 C293.68,910.93 294.52,899.00 296.34,891.27 C296.82,889.27 297.48,887.29 298.16,885.78 C298.60,884.92 300.40,883.45 301.49,883.38 C303.06,883.32 305.85,884.56 306.90,885.67 C308.90,887.92 310.89,892.81 311.60,896.20 C312.37,900.02 313.12,905.70 313.15,908.23 C313.18,911.23 312.28,919.13 311.72,922.22 C311.03,925.84 308.56,931.70 307.10,932.20 C305.93,932.57 303.53,932.27 301.93,931.75" fill="none" stroke="rgb(163, 163, 163)" stroke-width="10.00" stroke-opacity="1.00" stroke-linejoin="round"/>
<path d="M302.21,902.25 C302.21,902.25 301.12,902.67 301.12,902.67 C301.12,902.67 317.61,900.04 317.61,900.04 C317.61,900.04 314.53,900.17 314.53,900.17" fill="none" stroke="rgb(163, 163, 163)" stroke-width="10.00" stroke-opacity="1.00" stroke-linejoin="round"/>
<path d="M130.90,961.93 L131.74,961.80" fill="none" stroke="rgb(163, 163, 163)" stroke-width="7.00" stroke-opacity="1.00" stroke-linejoin="round"/>
<path d="M128.97,964.29 L885.22,295.28" fill="none" stroke="rgb(163, 163, 163)" stroke-width="10.00" stroke-opacity="1.00" stroke-linejoin="round"/>
<path d="M483.62,526.55 C483.62,526.55 483.62,525.71 483.62,525.71 C483.62,525.71 484.10,524.33 484.10,524.33 C484.10,524.33 484.73,578.58 484.73,578.58 C485.39,568.41 486.60,554.65 488.58,549.13 C489.05,547.87 490.35,545.12 490.99,544.26 C492.39,542.49 494.74,540.88 496.28,540.90 C497.72,540.97 500.20,542.43 501.43,543.84 C503.90,546.81 506.25,553.09 506.74,555.82 C507.15,558.25 506.98,564.73 506.12,568.26 C505.60,570.34 504.42,572.93 503.47,574.11 C502.67,575.05 500.61,576.51 499.78,576.60 C498.64,576.67 496.58,575.77 495.25,574.68 C493.87,573.48 491.77,571.25 491.44,570.31 C490.95,568.86 491.08,566.40 491.52,564.90" fill="none" stroke="rgb(163, 163, 163)" stroke-width="8.00" stroke-opacity="1.00" stroke-linejoin="round"/>
<path d="M522.40,523.36 L521.43,577.09" fill="none" stroke="rgb(163, 163, 163)" stroke-width="7.00" stroke-opacity="1.00" stroke-linejoin="round"/>
<path d="M531.40,523.91 L530.70,575.99" fill="none" stroke="rgb(163, 163, 163)" stroke-width="7.00" stroke-opacity="1.00" stroke-linejoin="round"/>
<path d="M472.27,526.41 L471.16,581.66" fill="none" stroke="rgb(163, 163, 163)" stroke-width="7.00" stroke-opacity="1.00" stroke-linejoin="round"/>
<path d="M458.14,525.85 L456.90,581.52" fill="none" stroke="rgb(163, 163, 163)" stroke-width="7.00" stroke-opacity="1.00" stroke-linejoin="round"/>
<path d="M120.11,102.00 C120.45,102.21 120.54,102.18 120.37,101.91 C119.20,100.20 117.38,98.73 116.07,98.77 C114.65,98.85 111.95,99.67 110.47,100.59 C107.37,102.58 102.56,108.40 101.30,110.47 C99.60,113.32 97.53,119.37 96.64,123.51 C95.89,127.11 95.38,134.15 95.88,136.24 C96.27,137.83 97.40,140.55 98.22,142.11 C101.89,140.74 106.25,137.62 108.96,134.04 C121.47,117.28 124.03,107.05 124.28,106.07 C124.67,115.73 125.71,123.83 127.94,131.43 C129.02,135.06 131.83,141.69 132.99,143.02 C134.01,144.17 136.06,145.71 137.40,146.49 C137.40,146.49 140.77,144.00 140.77,144.00" fill="none" stroke="rgb(13, 186, 0)" stroke-width="10.00" stroke-opacity="1.00" stroke-linejoin="round"/>
<path d="M84.06,83.20 C95.78,81.62 107.09,80.37 115.52,80.32 C137.98,80.25 142.54,82.21 142.87,82.96 C142.87,82.96 136.63,85.73 136.63,85.73" fill="none" stroke="rgb(13, 186, 0)" stroke-width="10.00" stroke-opacity="1.00" stroke-linejoin="round"/>
<path d="M133.30,63.33 C133.30,63.33 132.64,63.20 132.64,63.20 C142.93,70.84 154.07,79.64 154.67,81.72 C154.98,82.99 151.04,89.07 148.65,92.61 C143.40,100.43 139.61,107.68 138.57,109.71" fill="none" stroke="rgb(13, 186, 0)" stroke-width="10.00" stroke-opacity="1.00" stroke-linejoin="round"/>
<path d="M163.57,123.86 C163.57,123.86 161.71,123.86 161.71,123.86 C161.71,123.86 161.70,122.66 161.70,122.66 C161.70,122.66 160.89,124.31 160.89,124.31 C160.89,124.31 162.61,121.75 162.61,121.75 C162.61,121.75 162.87,123.38 162.87,123.38 C162.87,123.38 161.20,124.63 161.20,124.63 C161.20,124.63 160.89,123.48 160.89,123.48 C160.89,123.48 162.31,124.24 162.31,124.24 C162.31,124.24 165.54,124.18 165.54,124.18 C164.74,124.98 162.86,125.33 161.92,124.46 C161.62,124.18 161.28,123.47 160.90,122.33 C162.46,121.33 164.74,122.41 165.70,123.37 C165.87,123.54 165.96,123.71 165.97,123.86" fill="none" stroke="rgb(0, 0, 0)" stroke-width="10.00" stroke-opacity="1.00" stroke-linejoin="round"/>
<path d="M205.44,91.33 C205.29,96.54 203.96,108.05 203.71,117.46 C203.61,121.15 201.17,142.75 200.24,150.53 C200.24,150.53 200.37,147.60 200.37,147.60" fill="none" stroke="rgb(255, 255, 255)" stroke-width="10.00" stroke-opacity="1.00" stroke-linejoin="round"/>
<path d="M205.04,99.86 C205.04,99.86 204.50,99.46 204.50,99.46 C203.40,98.50 200.37,95.86 199.68,95.50 C198.98,95.14 197.15,94.79 197.17,94.80 C197.17,94.80 203.03,145.07 203.03,145.07 C203.03,145.07 205.30,142.80 205.30,142.80" fill="none" stroke="rgb(255, 255, 255)" stroke-width="10.00" stroke-opacity="1.00" stroke-linejoin="round"/>
<path d="M201.84,100.27 C201.84,100.27 202.24,99.06 202.24,99.06 C202.24,99.06 203.12,148.38 203.12,148.38 C203.84,141.00 206.21,129.58 209.85,121.49 C210.83,119.35 212.58,116.93 213.97,116.03 C215.28,115.25 218.76,115.37 220.20,116.21 C221.69,117.13 223.57,119.28 224.61,121.09 C226.99,125.41 228.37,130.12 228.48,134.29 C228.49,136.20 228.16,139.77 227.75,141.54 C227.27,143.52 225.96,145.88 224.60,147.42 C223.45,148.64 221.13,150.07 219.84,150.28 C219.00,150.39 215.82,149.70 215.15,149.25 C213.84,148.32 212.33,146.12 211.65,144.16 C211.33,143.20 210.19,139.33 209.84,138.13" fill="none" stroke="rgb(163, 163, 163)" stroke-width="10.00" stroke-opacity="1.00" stroke-linejoin="round"/>
<path d="M185.70,83.06 C185.70,83.06 184.10,82.39 184.10,82.39 C184.10,82.39 229.29,83.47 229.29,83.47" fill="none" stroke="rgb(163, 163, 163)" stroke-width="10.00" stroke-opacity="1.00" stroke-linejoin="round"/>
<path d="M231.30,59.87 C231.68,60.14 231.98,60.37 232.19,60.55 C233.34,61.53 248.08,75.16 252.56,80.71 C253.59,82.05 254.32,83.71 254.02,84.55 C253.90,84.85 247.49,92.84 246.30,94.26 C244.00,96.98 239.84,100.67 238.16,101.86 C237.94,102.01 237.52,102.28 236.90,102.66" fill="none" stroke="rgb(163, 163, 163)" stroke-width="10.00" stroke-opacity="1.00" stroke-linejoin="round"/>
<path d="M279.84,120.00 C279.84,120.00 279.74,121.07 279.74,121.07 C279.74,121.07 304.73,122.53 304.73,122.53 C304.73,122.53 302.50,124.27 302.50,124.27" fill="none" stroke="rgb(0, 0, 0)" stroke-width="10.00" stroke-opacity="1.00" stroke-linejoin="round"/>
<path d="M277.70,138.13 C286.58,136.05 298.78,134.63 305.09,136.00 C305.53,136.10 306.13,136.28 306.90,136.53" fill="none" stroke="rgb(0, 0, 0)" stroke-width="10.00" stroke-opacity="1.00" stroke-linejoin="round"/>
<path d="M333.00,97.86 L333.00,142.80" fill="none" stroke="rgb(13, 186, 0)" stroke-width="7.00" stroke-opacity="1.00" stroke-linejoin="round"/>
<path d="M344.50,98.79 L344.50,139.33" fill="none" stroke="rgb(13, 186, 0)" stroke-width="7.00" stroke-opacity="1.00" stroke-linejoin="round"/>
<path d="M388.63,102.66 L388.63,140.00" fill="none" stroke="rgb(13, 186, 0)" stroke-width="7.00" stroke-opacity="1.00" stroke-linejoin="round"/>
<path d="M399.70,99.20 L399.70,142.27" fill="none" stroke="rgb(13, 186, 0)" stroke-width="7.00" stroke-opacity="1.00" stroke-linejoin="round"/>
<path d="M423.43,98.00 L423.43,149.60" fill="none" stroke="rgb(255, 142, 1)" stroke-width="7.00" stroke-opacity="1.00" stroke-linejoin="round"/>
<path d="M434.24,98.93 L434.24,151.73" fill="none" stroke="rgb(255, 142, 1)" stroke-width="7.00" stroke-opacity="1.00" stroke-linejoin="round"/>
<path d="M477.84,104.93 L477.84,146.13" fill="none" stroke="rgb(255, 142, 1)" stroke-width="7.00" stroke-opacity="1.00" stroke-linejoin="round"/>
<path d="M492.50,100.66 L492.50,154.53" fill="none" stroke="rgb(255, 142, 1)" stroke-width="7.00" stroke-opacity="1.00" stroke-linejoin="round"/>
<path d="M529.17,113.73 C529.17,113.73 528.48,112.55 528.48,112.55 C524.40,112.14 518.62,113.47 516.20,115.08 C513.30,117.08 510.07,121.53 508.88,125.19 C507.87,128.44 507.68,134.84 508.10,137.46 C508.81,141.57 511.21,146.37 512.98,147.42 C514.85,148.40 518.75,147.51 523.20,145.46 C524.59,144.82 526.90,143.76 527.84,143.33" fill="none" stroke="rgb(255, 142, 1)" stroke-width="10.00" stroke-opacity="1.00" stroke-linejoin="round"/>
<path d="M554.64,115.46 C553.54,115.08 552.77,114.84 552.32,114.74 C550.97,114.47 546.62,114.52 545.22,114.99 C543.69,115.54 540.20,118.32 539.19,119.62 C538.07,121.15 537.11,128.01 537.29,130.73 C537.37,131.74 538.16,135.61 538.49,136.93 C538.98,138.70 540.41,141.42 541.56,142.64 C542.67,143.75 545.44,144.86 547.00,144.86 C548.70,144.81 551.65,143.58 553.59,142.16 C555.47,140.72 557.45,138.35 558.12,136.75 C558.57,135.56 559.15,132.22 559.13,130.89 C559.02,127.88 555.59,121.62 554.77,120.88 C554.34,120.50 553.41,119.94 551.97,119.20" fill="none" stroke="rgb(255, 142, 1)" stroke-width="10.00" stroke-opacity="1.00" stroke-linejoin="round"/>
<path d="M584.90,119.87 C584.90,119.87 582.04,116.68 582.04,116.68 C579.44,117.14 576.11,119.39 573.16,122.86 C572.71,123.39 572.27,123.92 571.82,124.45 C573.33,126.55 579.92,131.79 581.90,134.01 C583.20,135.52 584.20,137.63 584.09,138.77 C583.42,143.26 574.53,148.33 572.60,149.37 C571.82,148.63 571.32,148.10 571.10,147.77 C570.89,147.44 570.64,146.85 570.37,146.00" fill="none" stroke="rgb(255, 142, 1)" stroke-width="10.00" stroke-opacity="1.00" stroke-linejoin="round"/>
<path d="M617.57,148.53 C615.99,149.06 612.94,150.32 612.38,150.31 C610.67,150.23 608.91,148.69 608.38,146.96 C607.12,142.92 606.24,138.13 605.95,134.30 C605.69,130.64 605.93,123.29 606.43,119.41 C607.02,115.08 609.20,108.91 611.23,105.83 C613.31,102.75 616.26,99.46 617.72,98.77 C619.06,98.18 620.04,97.98 620.65,98.16 C621.86,98.55 624.21,101.43 625.08,103.11 C626.77,106.61 628.28,111.78 628.68,114.78 C629.10,118.15 629.32,123.46 629.16,126.35 C628.97,129.29 627.56,135.81 626.78,137.99 C625.42,141.70 622.02,146.75 620.53,147.99 C618.89,149.31 617.20,149.83 615.64,149.48 C614.45,149.22 611.41,148.48 609.57,148.00" fill="none" stroke="rgb(255, 142, 1)" stroke-width="10.00" stroke-opacity="1.00" stroke-linejoin="round"/>
<path d="M612.77,119.87 C612.77,119.87 611.64,120.13 611.64,120.13 C611.64,120.13 630.57,124.52 630.57,124.52 C630.57,124.52 624.63,122.02 624.63,122.02" fill="none" stroke="rgb(255, 142, 1)" stroke-width="10.00" stroke-opacity="1.00" stroke-linejoin="round"/>
<path d="M451.04,100.53 C451.04,100.53 449.17,147.73 449.17,147.73 C449.38,144.47 450.65,139.32 452.66,135.15 C453.58,133.30 455.79,129.77 456.70,128.74 C457.63,127.75 459.75,126.63 460.70,126.60 C461.63,126.63 463.75,127.68 464.45,128.49 C465.99,130.37 467.08,136.04 466.65,139.33 C465.53,146.75 460.40,150.87 458.74,151.57 C457.67,149.91 456.07,147.24 455.48,145.92 C454.90,144.60 454.04,141.70 453.57,139.86" fill="none" stroke="rgb(255, 142, 1)" stroke-width="10.00" stroke-opacity="1.00" stroke-linejoin="round"/>
<path d="M369.03,103.86 C369.03,103.86 370.24,103.86 370.24,103.86 C367.94,105.30 363.62,109.41 362.35,111.58 C359.35,116.84 356.85,131.82 357.23,133.35 C357.59,134.59 359.20,136.08 360.48,136.11 C362.78,136.11 365.54,135.19 367.08,133.96 C368.19,133.03 370.64,128.53 371.39,126.18 C372.55,122.37 374.00,110.67 374.15,109.49 C373.57,111.93 373.28,118.19 373.65,122.59 C374.04,126.75 375.37,131.25 376.98,135.75 C376.98,135.75 381.00,133.07 381.00,133.07" fill="none" stroke="rgb(32, 191, 20)" stroke-width="10.00" stroke-opacity="1.00" stroke-linejoin="round"/>
<path d="M-72.01,279.91" fill="none" stroke="rgb(32, 191, 20)" stroke-width="10.00" stroke-opacity="1.00" stroke-linejoin="round"/>
<path d="M1305.91,916.26 C1305.91,916.26 1305.82,916.00 1305.82,916.00 C1305.82,916.00 1305.49,916.20 1305.49,916.20" fill="none" stroke="rgb(163, 163, 163)" stroke-width="7.00" stroke-opacity="1.00" stroke-linejoin="round"/>
<path d="M1304.39,927.14 C1304.39,927.14 1304.39,925.71 1304.39,925.71 C1304.39,925.71 1305.64,937.80 1305.64,937.80" fill="none" stroke="rgb(163, 163, 163)" stroke-width="7.00" stroke-opacity="1.00" stroke-linejoin="round"/>
<path d="M1305.28,948.83 C1305.28,948.85 1305.28,948.81 1305.28,948.79 C1305.28,948.52 1305.28,948.26 1305.28,947.99 C1305.28,947.99 1305.46,960.44 1305.46,960.44" fill="none" stroke="rgb(163, 163, 163)" stroke-width="7.00" stroke-opacity="1.00" stroke-linejoin="round"/>
<path d="M1304.48,973.21 C1304.48,973.21 1304.48,972.58 1304.48,972.58 C1304.48,972.58 1305.93,980.73 1305.93,980.73 C1305.93,980.73 1306.98,978.55 1306.98,978.55" fill="none" stroke="rgb(163, 163, 163)" stroke-width="7.00" stroke-opacity="1.00" stroke-linejoin="round"/>
<path d="M1046.95,647.20 L1046.95,746.63" fill="none" stroke="rgb(255, 142, 0)" stroke-width="10.00" stroke-opacity="1.00" stroke-linejoin="round"/>
<path d="M1045.25,749.12 L1215.63,749.12" fill="none" stroke="rgb(13, 186, 0)" stroke-width="10.00" stroke-opacity="1.00" stroke-linejoin="round"/>
<path d="M1047.50,645.39 L1212.99,645.39" fill="none" stroke="rgb(13, 186, 0)" stroke-width="10.00" stroke-opacity="1.00" stroke-linejoin="round"/>
<path d="M1212.30,646.78 L1212.30,745.10" fill="none" stroke="rgb(255, 142, 0)" stroke-width="10.00" stroke-opacity="1.00" stroke-linejoin="round"/>
<path d="M1064.95,656.34 C1064.95,656.34 1065.37,655.82 1065.37,655.82 C1060.86,665.45 1057.58,675.06 1057.08,679.21 C1057.08,679.21 1075.36,656.32 1075.36,656.32 C1074.38,661.75 1069.82,675.76 1067.25,683.48 C1064.77,690.49 1060.97,699.94 1060.10,703.86 C1067.49,694.58 1093.07,661.17 1096.84,657.02 C1097.29,656.52 1097.74,656.03 1098.20,655.53 C1097.03,660.02 1091.58,673.52 1088.67,680.56 C1081.33,697.14 1069.93,721.82 1066.34,729.52 C1074.85,716.89 1094.03,689.16 1104.01,676.79 C1106.33,674.05 1110.68,668.98 1112.53,666.92 C1114.85,664.33 1117.71,662.11 1122.06,659.24 C1122.06,659.24 1123.29,659.93 1123.29,659.93 C1123.29,659.93 1081.66,738.27 1081.66,738.27 C1090.25,726.47 1109.54,700.30 1120.81,685.72 C1126.61,678.58 1138.86,664.36 1139.61,663.70 C1141.37,662.13 1144.31,660.00 1146.00,658.98 C1144.69,664.22 1138.94,677.29 1136.09,683.62 C1128.88,698.94 1111.11,736.37 1111.28,736.55 C1119.43,726.45 1162.43,663.33 1164.97,660.42 C1165.96,659.30 1169.48,656.34 1171.61,654.39 C1170.04,661.51 1165.89,673.43 1163.39,680.53 C1157.24,697.14 1146.71,723.07 1142.78,732.37 C1146.32,726.74 1154.30,714.18 1158.74,707.23 C1164.36,698.85 1172.44,687.84 1176.16,683.57 C1181.20,677.84 1190.89,669.41 1193.78,667.97 C1194.26,669.13 1194.19,669.86 1193.29,671.54 C1193.17,671.76 1183.33,691.42 1179.63,699.11 C1172.43,714.95 1165.43,734.66 1164.13,738.32 C1167.01,735.17 1178.04,720.22 1183.00,713.51 C1189.66,704.92 1195.63,697.72 1198.36,695.80 C1197.68,701.01 1193.69,715.95 1191.47,724.11 C1190.42,727.89 1188.68,733.50 1189.09,735.05 C1189.09,735.05 1200.67,722.81 1200.67,722.81" fill="none" stroke="rgb(255, 250, 0)" stroke-width="10.00" stroke-opacity="1.00" stroke-linejoin="round"/>
<path d="M1272.53,635.90 C1271.30,637.48 1267.18,641.49 1265.44,644.55 C1260.71,652.93 1255.92,665.21 1254.37,673.42 C1253.20,679.76 1252.82,694.65 1252.78,701.31 C1252.75,709.33 1253.74,721.92 1255.89,728.30 C1256.73,730.75 1260.52,740.05 1262.19,742.80 C1263.25,744.51 1268.69,750.57 1270.92,751.98 C1270.92,751.98 1273.01,748.96 1273.01,748.96" fill="none" stroke="rgb(163, 163, 163)" stroke-width="7.00" stroke-opacity="1.00" stroke-linejoin="round"/>
<path d="M1270.59,703.45 C1270.59,703.45 1269.74,703.45 1269.74,703.45 C1269.73,703.49 1269.74,703.36 1269.74,703.31 C1269.90,702.25 1270.06,701.19 1270.22,700.12" fill="none" stroke="rgb(163, 163, 163)" stroke-width="7.00" stroke-opacity="1.00" stroke-linejoin="round"/>
<path d="M1267.32,698.61 L1298.07,698.61" fill="none" stroke="rgb(163, 163, 163)" stroke-width="5.00" stroke-opacity="1.00" stroke-linejoin="round"/>
<path d="M1281.48,682.02 L1281.48,713.62" fill="none" stroke="rgb(163, 163, 163)" stroke-width="5.00" stroke-opacity="1.00" stroke-linejoin="round"/>
<path d="M1320.10,750.30 C1320.10,750.30 1320.10,749.45 1320.10,749.45 C1321.42,749.46 1325.04,749.49 1325.46,749.45 C1325.73,749.42 1325.92,749.34 1326.03,749.21" fill="none" stroke="rgb(163, 163, 163)" stroke-width="7.00" stroke-opacity="1.00" stroke-linejoin="round"/>
<path d="M1333.91,746.43 C1333.91,746.43 1333.30,747.51 1333.30,747.51 C1333.30,747.51 1341.28,748.55 1341.28,748.55" fill="none" stroke="rgb(163, 163, 163)" stroke-width="7.00" stroke-opacity="1.00" stroke-linejoin="round"/>
<path d="M1347.34,749.09 C1347.46,749.29 1347.58,749.49 1347.71,749.69 C1347.83,749.90 1347.95,750.10 1348.07,750.30 C1348.07,750.30 1347.14,749.88 1347.14,749.88 C1347.14,749.88 1359.19,748.48 1359.19,748.48 C1359.19,748.48 1358.60,747.63 1358.60,747.63" fill="none" stroke="rgb(163, 163, 163)" stroke-width="7.00" stroke-opacity="1.00" stroke-linejoin="round"/>
<path d="M1321.19,645.10 C1321.19,645.10 1322.28,644.61 1322.28,644.61 C1322.54,647.44 1322.98,652.30 1323.01,652.69 C1323.02,652.95 1323.02,653.29 1323.01,653.69" fill="none" stroke="rgb(163, 163, 163)" stroke-width="7.00" stroke-opacity="1.00" stroke-linejoin="round"/>
<path d="M1323.25,663.38 C1323.25,663.38 1322.65,663.62 1322.65,663.62 C1322.65,665.78 1322.63,675.18 1322.65,675.93 C1322.66,676.44 1322.70,677.22 1322.77,678.27" fill="none" stroke="rgb(163, 163, 163)" stroke-width="7.00" stroke-opacity="1.00" stroke-linejoin="round"/>
<path d="M1322.65,693.16 C1322.75,693.04 1322.85,692.92 1322.95,692.80 C1323.05,692.68 1323.15,692.55 1323.25,692.43 C1323.25,692.43 1323.51,699.47 1323.65,703.43 C1323.69,704.37 1323.74,705.56 1323.74,705.75" fill="none" stroke="rgb(163, 163, 163)" stroke-width="7.00" stroke-opacity="1.00" stroke-linejoin="round"/>
<path d="M1322.65,714.59 C1322.65,718.07 1322.70,725.65 1322.84,726.14 C1322.88,726.30 1323.02,726.49 1323.25,726.69" fill="none" stroke="rgb(163, 163, 163)" stroke-width="7.00" stroke-opacity="1.00" stroke-linejoin="round"/>
<path d="M1320.83,739.64 C1320.83,739.94 1320.83,740.22 1320.83,740.50 C1320.89,743.86 1320.99,750.24 1321.47,751.67" fill="none" stroke="rgb(163, 163, 163)" stroke-width="7.00" stroke-opacity="1.00" stroke-linejoin="round"/>
<path d="M1323.98,638.56 C1323.98,638.56 1323.98,638.32 1323.98,638.32 C1323.98,638.32 1335.33,640.49 1335.33,640.49" fill="none" stroke="rgb(163, 163, 163)" stroke-width="7.00" stroke-opacity="1.00" stroke-linejoin="round"/>
<path d="M1343.71,641.35 C1343.71,641.35 1342.27,640.89 1342.27,640.89 C1347.52,639.91 1349.27,639.69 1349.67,639.98 C1349.82,640.10 1350.06,640.47 1350.37,641.10" fill="none" stroke="rgb(163, 163, 163)" stroke-width="7.00" stroke-opacity="1.00" stroke-linejoin="round"/>
<path d="M1352.55,645.46 C1352.73,645.40 1352.91,645.34 1353.09,645.28 C1353.28,645.22 1353.46,645.16 1353.64,645.10 C1353.64,646.44 1353.63,649.77 1353.63,651.77 C1353.62,654.16 1353.77,655.17 1354.18,656.10" fill="none" stroke="rgb(163, 163, 163)" stroke-width="7.00" stroke-opacity="1.00" stroke-linejoin="round"/>
<path d="M1355.21,667.01 C1355.21,667.01 1355.45,667.01 1355.45,667.01 C1355.44,669.34 1355.48,672.88 1355.62,674.27 C1355.75,675.67 1356.25,678.00 1356.62,679.35" fill="none" stroke="rgb(163, 163, 163)" stroke-width="7.00" stroke-opacity="1.00" stroke-linejoin="round"/>
<path d="M1354.00,692.19 C1354.00,692.19 1354.73,692.55 1354.73,692.55 C1354.70,693.00 1356.44,702.84 1356.47,703.47 C1356.49,703.94 1356.44,704.82 1356.33,706.11" fill="none" stroke="rgb(163, 163, 163)" stroke-width="7.00" stroke-opacity="1.00" stroke-linejoin="round"/>
<path d="M1357.27,717.74 C1357.27,717.74 1356.54,730.37 1356.54,730.37 C1356.54,730.37 1356.54,728.34 1356.54,728.34" fill="none" stroke="rgb(163, 163, 163)" stroke-width="7.00" stroke-opacity="1.00" stroke-linejoin="round"/>
<path d="M1356.78,739.53 C1356.78,739.53 1356.78,740.61 1356.78,740.61 C1356.78,740.61 1356.54,749.75 1356.54,749.75 C1356.54,749.75 1356.77,740.95 1356.77,740.95" fill="none" stroke="rgb(163, 163, 163)" stroke-width="7.00" stroke-opacity="1.00" stroke-linejoin="round"/>
<path d="M1379.63,632.87 C1379.63,632.87 1380.76,632.87 1380.76,632.87 C1379.81,633.88 1379.52,634.28 1379.54,634.94 C1379.66,636.84 1379.93,637.71 1380.99,639.41 C1382.89,642.48 1387.15,649.44 1388.14,651.34 C1390.05,655.13 1391.64,661.63 1392.31,665.06 C1394.08,674.65 1395.33,685.20 1395.22,692.69 C1395.00,702.35 1394.13,716.01 1393.72,719.40 C1393.20,723.56 1392.02,729.55 1390.32,734.37 C1389.36,737.07 1386.19,744.62 1383.65,750.30 C1381.04,755.88 1379.91,757.53 1377.81,759.09 C1377.81,759.09 1377.49,756.84 1377.49,756.84" fill="none" stroke="rgb(163, 163, 163)" stroke-width="5.00" stroke-opacity="1.00" stroke-linejoin="round"/>
</g>
</svg>
