<?xml version="1.0" encoding="UTF-8" standalone="no"?>
<!DOCTYPE svg PUBLIC "-//W3C//DTD SVG 1.1//EN" "http://www.w3.org/Graphics/SVG/1.1/DTD/svg11.dtd">
<svg width="512.00" height="512.00" viewBox="0.00 0.00 512.00 512.00" xmlns="http://www.w3.org/2000/svg" xmlns:xlink="http://www.w3.org/1999/xlink">
<g stroke-linecap="round" id="Layer_2">
<path d="M32.56,26.00 C32.56,26.00 32.87,25.92 32.87,25.92 C32.87,25.92 30.24,29.52 30.24,29.52" fill="none" stroke="rgb(144, 144, 144)" stroke-width="5.00" stroke-opacity="1.00" stroke-linejoin="round"/>
<path d="M30.24,28.56 C30.24,28.56 30.42,28.56 30.42,28.56 C30.42,28.56 31.13,28.56 31.13,28.56 C31.13,28.56 30.60,27.60 30.60,27.60" fill="none" stroke="rgb(0, 0, 0)" stroke-width="5.00" stroke-opacity="1.00" stroke-linejoin="round"/>
<path d="M30.60,27.60 L31.49,493.92" fill="none" stroke="rgb(0, 0, 0)" stroke-width="5.00" stroke-opacity="1.00" stroke-linejoin="round"/>
<path d="M31.67,494.24 C31.14,493.50 30.74,492.99 30.46,492.73 C30.18,492.48 29.64,492.10 28.82,491.60" fill="none" stroke="rgb(0, 0, 0)" stroke-width="5.00" stroke-opacity="1.00" stroke-linejoin="round"/>
<path d="M18.16,475.84 C18.16,475.84 19.70,473.49 19.70,473.49" fill="none" stroke="rgb(0, 0, 0)" stroke-width="5.00" stroke-opacity="1.00" stroke-linejoin="round"/>
<path d="M19.70,473.49 L499.58,474.08" fill="none" stroke="rgb(0, 0, 0)" stroke-width="5.00" stroke-opacity="1.00" stroke-linejoin="round"/>
<path d="M499.58,474.48 C499.58,474.48 499.58,473.36 499.58,473.36" fill="none" stroke="rgb(0, 0, 0)" stroke-width="5.00" stroke-opacity="1.00" stroke-linejoin="round"/>
<path d="M41.80,458.88 C41.80,458.88 38.96,461.60 38.96,461.60 C43.44,460.47 76.34,445.68 89.98,439.43 C103.90,432.74 138.79,414.71 143.75,411.70 C153.91,405.51 173.20,391.59 194.82,377.62 C202.29,372.81 218.99,361.87 223.16,358.88 C227.48,355.78 250.33,334.46 265.04,321.84 C273.38,314.94 331.52,261.43 333.97,259.07 C336.84,256.29 350.12,242.04 353.73,237.78 C358.52,232.01 366.06,220.08 369.35,215.46 C373.26,209.98 395.91,182.31 405.54,170.68 C410.73,164.25 416.92,155.10 422.03,146.30 C428.84,134.11 443.01,105.21 447.48,95.12 C449.19,91.12 460.81,57.67 465.39,41.51 C466.50,38.00 469.94,30.28 469.66,28.53 C469.59,28.09 469.19,27.57 468.47,26.96" fill="none" stroke="rgb(0, 95, 255)" stroke-width="5.00" stroke-opacity="1.00" stroke-linejoin="round"/>
<path d="M232.56,398.80 C232.56,398.80 233.00,398.78 233.00,398.78 C237.98,383.77 246.45,358.95 248.34,354.92 C250.73,349.94 251.73,349.18 252.66,349.15 C254.33,350.84 255.63,354.55 255.86,356.93 C256.06,359.31 255.66,365.39 255.27,367.09 C254.77,369.15 252.35,372.16 249.09,375.52" fill="none" stroke="rgb(0, 95, 255)" stroke-width="5.00" stroke-opacity="1.00" stroke-linejoin="round"/>
<path d="M229.00,377.12 C240.16,379.18 245.97,380.61 246.71,381.16 C246.78,381.21 246.80,381.29 246.78,381.39 C246.76,381.41 246.76,381.43 246.78,381.44" fill="none" stroke="rgb(0, 95, 255)" stroke-width="5.00" stroke-opacity="1.00" stroke-linejoin="round"/>
<path d="M257.09,373.92 C253.83,377.14 250.92,381.46 249.93,384.93 C249.16,387.78 248.69,392.64 248.56,396.27 C248.44,401.33 249.02,402.89 250.29,404.92 C250.29,404.92 250.87,402.32 250.87,402.32" fill="none" stroke="rgb(0, 95, 255)" stroke-width="5.00" stroke-opacity="1.00" stroke-linejoin="round"/>
<path d="M259.58,379.28 C260.32,380.15 261.19,381.68 261.61,383.21 C262.40,386.10 261.40,392.15 260.11,394.26 C257.27,398.69 254.66,401.27 252.40,403.04 C252.40,403.04 251.93,400.88 251.93,400.88" fill="none" stroke="rgb(0, 95, 255)" stroke-width="5.00" stroke-opacity="1.00" stroke-linejoin="round"/>
<path d="M269.71,380.40 C266.90,384.54 264.99,389.10 264.93,392.81 C264.95,393.77 265.29,396.29 265.78,396.66 C266.73,397.31 269.19,397.75 270.26,397.46 C271.07,397.21 271.87,396.97 272.68,396.72" fill="none" stroke="rgb(0, 95, 255)" stroke-width="5.00" stroke-opacity="1.00" stroke-linejoin="round"/>
<path d="M279.13,375.84 C280.32,377.76 281.35,381.89 281.65,386.55 C281.84,390.00 281.17,393.05 279.78,396.15 C278.52,398.91 274.23,403.42 272.37,404.02 C272.00,404.13 271.48,404.10 270.84,403.93 C270.70,403.89 270.50,403.80 270.24,403.68" fill="none" stroke="rgb(0, 95, 255)" stroke-width="5.00" stroke-opacity="1.00" stroke-linejoin="round"/>
<path d="M293.36,382.72 C298.57,382.55 304.02,382.51 307.58,383.46 C309.42,383.96 310.35,385.11 310.96,387.00 C310.96,387.00 309.70,387.87 309.70,387.87" fill="none" stroke="rgb(0, 95, 255)" stroke-width="5.00" stroke-opacity="1.00" stroke-linejoin="round"/>
<path d="M296.73,392.80 C300.11,393.38 305.91,394.37 306.60,394.52 C307.26,394.66 308.15,394.88 309.28,395.17 C309.31,395.17 309.38,395.21 309.36,395.20" fill="none" stroke="rgb(0, 95, 255)" stroke-width="5.00" stroke-opacity="1.00" stroke-linejoin="round"/>
<path d="M313.44,366.08 C314.52,365.81 316.67,365.16 317.36,365.26 C318.93,365.51 321.66,366.91 322.74,367.94 C324.83,370.02 327.41,374.07 328.06,376.46 C328.69,378.93 328.23,384.11 327.03,386.80 C325.63,389.81 322.82,393.73 319.88,396.59 C315.28,400.95 313.91,402.05 311.55,403.75 C311.55,403.75 333.52,405.74 333.52,405.74 C333.52,405.74 334.78,404.56 334.78,404.56" fill="none" stroke="rgb(0, 95, 255)" stroke-width="5.00" stroke-opacity="1.00" stroke-linejoin="round"/>
<path d="M343.49,378.16 C344.50,378.19 345.79,379.08 346.73,380.73 C347.52,382.17 348.44,386.09 348.27,387.68 C347.88,390.62 345.32,394.62 342.55,397.24 C339.45,400.14 335.98,401.73 336.11,401.43 C336.11,401.43 336.91,400.32 336.91,400.32" fill="none" stroke="rgb(0, 95, 255)" stroke-width="5.00" stroke-opacity="1.00" stroke-linejoin="round"/>
<path d="M360.38,383.52 C357.74,386.58 355.03,390.03 353.65,394.13 C353.08,395.89 352.65,399.44 352.82,400.90 C353.04,402.42 354.46,404.35 355.75,404.99 C356.61,405.38 360.08,405.86 361.06,405.72 C363.33,405.35 366.08,403.38 366.68,402.79" fill="none" stroke="rgb(0, 95, 255)" stroke-width="5.00" stroke-opacity="1.00" stroke-linejoin="round"/>
<path d="M363.22,365.68 C366.28,365.74 368.16,366.16 368.93,367.20 C369.53,368.02 369.89,369.36 370.01,371.04 C370.06,372.56 368.89,374.85 367.28,376.26 C366.65,376.80 364.82,377.69 364.72,377.98 C366.32,378.95 370.71,381.60 371.33,381.92 C371.73,382.12 372.16,382.28 372.64,382.40" fill="none" stroke="rgb(0, 95, 255)" stroke-width="5.00" stroke-opacity="1.00" stroke-linejoin="round"/>
<path d="M381.00,394.24 C381.00,394.24 396.37,394.72 396.37,394.72 C396.37,394.72 395.93,393.52 395.93,393.52" fill="none" stroke="rgb(0, 95, 255)" stroke-width="5.00" stroke-opacity="1.00" stroke-linejoin="round"/>
<path d="M392.38,385.84 C392.38,385.84 391.76,404.69 391.76,404.69 C391.76,404.69 392.96,403.83 392.96,403.83" fill="none" stroke="rgb(0, 95, 255)" stroke-width="5.00" stroke-opacity="1.00" stroke-linejoin="round"/>
<path d="M413.89,365.84 C415.84,365.96 420.01,366.16 420.88,366.42 C422.70,367.01 425.03,369.43 425.26,370.98 C425.44,372.52 424.89,374.89 424.21,376.00 C422.57,378.49 420.12,380.93 417.41,382.71 C413.26,385.36 411.93,386.00 409.50,386.99 C412.26,387.82 417.67,390.10 419.94,392.36 C421.11,393.61 421.79,395.38 421.50,396.61 C420.85,398.88 415.90,403.13 412.05,405.43 C411.03,406.04 409.21,406.95 408.12,407.47 C408.12,407.47 408.73,406.88 408.73,406.88" fill="none" stroke="rgb(0, 95, 255)" stroke-width="5.00" stroke-opacity="1.00" stroke-linejoin="round"/>
<path d="M428.11,391.76 C429.53,393.15 430.62,394.65 430.98,396.11 C431.31,397.55 431.11,400.89 430.55,402.40 C429.94,403.93 428.32,406.13 426.71,407.77 C425.04,409.45 423.77,410.25 421.68,411.11 C421.68,411.11 421.53,408.40 421.53,408.40" fill="none" stroke="rgb(0, 95, 255)" stroke-width="5.00" stroke-opacity="1.00" stroke-linejoin="round"/>
<path d="M440.38,391.20 C439.14,395.18 437.76,400.04 437.71,403.42 C437.71,405.17 438.45,407.60 439.17,408.35 C439.88,409.01 441.63,409.48 443.08,409.50 C443.97,409.49 446.77,409.27 448.21,409.14 C448.32,409.13 448.67,409.09 448.56,409.12" fill="none" stroke="rgb(0, 95, 255)" stroke-width="5.00" stroke-opacity="1.00" stroke-linejoin="round"/>
<path d="M35.93,454.64 C36.74,453.36 37.23,452.59 37.42,452.35 C37.63,452.07 38.46,451.68 39.96,450.84 C45.85,447.63 59.57,438.41 64.18,434.66 C68.30,431.30 82.54,418.00 88.54,412.21 C95.95,404.81 100.52,399.47 106.97,391.22 C118.65,376.40 137.03,354.41 143.01,346.51 C149.63,337.38 170.46,311.71 180.28,299.25 C196.21,278.67 217.63,247.37 228.63,229.01 C230.08,226.50 263.91,158.59 268.38,150.68 C273.21,142.22 277.74,131.47 280.06,124.00 C284.21,109.78 294.70,79.00 296.64,70.85 C299.47,58.21 302.11,47.64 304.88,39.04 C305.89,35.93 311.06,21.10 311.43,19.76 C311.43,19.76 309.00,21.92 309.00,21.92" fill="none" stroke="rgb(0, 255, 134)" stroke-width="5.00" stroke-opacity="1.00" stroke-linejoin="round"/>
<path d="M56.20,463.28 C68.41,460.23 95.99,453.78 111.36,450.40 C129.70,446.16 146.09,441.33 163.72,434.99 C178.81,429.34 210.72,417.03 220.26,412.27 C222.92,410.94 226.34,408.73 227.43,407.94 C227.43,407.94 227.40,407.20 227.40,407.20" fill="none" stroke="rgb(0, 255, 134)" stroke-width="5.00" stroke-opacity="1.00" stroke-linejoin="round"/>
<path d="M309.18,359.60 C312.04,358.68 325.85,351.24 331.83,347.91 C335.74,345.81 350.32,339.31 354.62,336.85 C360.61,333.30 372.54,325.88 378.54,322.10 C383.37,318.93 395.51,309.77 400.47,305.50 C405.94,300.62 417.43,290.19 423.38,284.45 C430.66,277.14 454.94,249.62 461.52,241.04 C470.94,228.63 484.14,211.41 486.53,208.09 C486.53,208.09 486.24,208.16 486.24,208.16" fill="none" stroke="rgb(0, 255, 134)" stroke-width="5.00" stroke-opacity="1.00" stroke-linejoin="round"/>
<path d="M286.96,193.76" fill="none" stroke="rgb(0, 255, 134)" stroke-width="5.00" stroke-opacity="1.00" stroke-linejoin="round"/>
<path d="M309.36,158.08 C306.16,160.28 302.94,164.54 301.17,166.88 C298.68,170.32 293.57,184.08 292.83,190.33 C292.55,192.98 293.91,198.37 296.01,200.17 C297.17,201.12 299.85,202.11 301.08,201.99 C302.47,201.80 304.64,200.49 306.48,198.82 C309.84,195.68 314.28,189.66 316.04,186.28 C317.79,182.85 319.48,175.89 319.15,172.93 C318.91,171.09 317.84,168.76 316.50,167.03 C315.31,165.57 314.06,164.59 312.26,163.65 C310.38,162.74 305.36,162.78 303.84,162.80" fill="none" stroke="rgb(0, 255, 134)" stroke-width="5.00" stroke-opacity="1.00" stroke-linejoin="round"/>
<path d="M297.80,182.64 C304.95,181.15 312.96,181.71 315.22,182.64 C315.22,182.64 314.51,183.52 314.51,183.52" fill="none" stroke="rgb(0, 255, 134)" stroke-width="5.00" stroke-opacity="1.00" stroke-linejoin="round"/>
<path d="M332.82,169.92 C330.98,170.51 329.98,171.05 329.24,172.03 C327.79,173.98 325.13,179.08 324.16,182.39 C323.16,185.90 322.77,192.48 323.28,194.78 C323.78,196.87 326.49,200.49 326.86,200.53 C326.86,200.53 328.02,199.84 328.02,199.84" fill="none" stroke="rgb(0, 255, 134)" stroke-width="5.00" stroke-opacity="1.00" stroke-linejoin="round"/>
<path d="M337.80,173.20 C339.19,175.07 340.21,179.16 340.06,181.92 C339.85,185.04 337.61,191.16 336.00,194.00 C334.37,196.75 332.57,197.43 331.23,197.31 C331.23,197.31 331.04,196.56 331.04,196.56" fill="none" stroke="rgb(0, 255, 134)" stroke-width="5.00" stroke-opacity="1.00" stroke-linejoin="round"/>
<path d="M350.07,176.24 C348.30,176.41 344.84,180.99 343.69,183.81 C342.67,186.43 341.81,192.64 342.11,194.55 C342.53,196.98 343.85,199.21 345.47,200.09 C348.21,201.47 349.99,200.30 350.82,199.04 C350.93,198.85 351.10,198.56 351.31,198.16" fill="none" stroke="rgb(0, 255, 134)" stroke-width="5.00" stroke-opacity="1.00" stroke-linejoin="round"/>
<path d="M349.00,162.08 C350.27,161.34 352.31,161.43 353.60,162.52 C354.00,162.87 354.78,165.67 354.76,166.31 C354.63,168.74 353.28,171.26 351.55,172.32 C351.42,172.39 349.70,173.09 349.79,173.14 C351.17,173.43 354.01,174.01 355.47,174.31 C355.80,174.38 356.13,174.43 356.47,174.48" fill="none" stroke="rgb(0, 255, 134)" stroke-width="5.00" stroke-opacity="1.00" stroke-linejoin="round"/>
<path d="M361.09,174.16 C362.59,175.69 363.60,177.13 364.17,178.89 C365.24,182.23 365.50,188.46 365.10,191.05 C364.18,196.71 360.07,203.66 358.25,205.10 C358.25,205.10 357.71,204.40 357.71,204.40" fill="none" stroke="rgb(0, 255, 134)" stroke-width="5.00" stroke-opacity="1.00" stroke-linejoin="round"/>
<path d="M199.13,58.16 C197.00,58.58 195.90,58.96 194.96,59.72 C191.98,62.17 187.55,66.08 185.32,69.04 C183.25,71.83 179.75,77.85 178.97,79.93 C178.10,82.37 177.08,88.72 177.12,91.62 C177.22,95.19 178.65,100.85 180.46,102.97 C181.33,103.96 184.07,105.78 185.33,106.24 C188.20,107.20 194.38,106.44 197.41,104.75 C200.19,103.13 205.77,97.63 207.79,94.55 C209.95,91.16 212.63,83.74 213.07,79.93 C213.42,76.59 212.43,70.05 211.25,67.08 C210.07,64.19 206.98,59.88 205.46,58.76 C203.95,57.71 201.63,56.58 200.72,56.68 C200.22,56.73 197.17,57.52 195.58,57.92" fill="none" stroke="rgb(0, 255, 134)" stroke-width="5.00" stroke-opacity="1.00" stroke-linejoin="round"/>
<path d="M229.71,60.24 C226.69,62.12 223.86,64.64 221.67,67.80 C219.51,71.00 217.82,75.57 217.38,79.82 C217.18,81.97 217.22,88.36 217.96,91.95 C218.63,95.07 221.67,101.84 222.58,102.96 C222.77,103.19 223.01,103.30 223.31,103.28" fill="none" stroke="rgb(0, 255, 134)" stroke-width="5.00" stroke-opacity="1.00" stroke-linejoin="round"/>
<path d="M227.22,71.76 C227.22,71.73 229.46,77.86 229.85,82.83 C230.13,86.82 228.84,93.60 227.60,95.96 C226.46,98.05 224.37,100.24 223.22,100.60 C222.98,100.67 222.77,100.58 222.60,100.32" fill="none" stroke="rgb(0, 255, 134)" stroke-width="5.00" stroke-opacity="1.00" stroke-linejoin="round"/>
<path d="M242.16,75.60 C238.85,77.78 236.14,80.33 235.01,83.00 C233.85,85.88 232.83,91.79 233.16,94.19 C233.28,94.95 234.21,97.59 234.68,98.19 C235.79,99.51 238.81,101.10 240.02,100.85 C240.40,100.76 240.87,100.35 241.44,99.60" fill="none" stroke="rgb(0, 255, 134)" stroke-width="5.00" stroke-opacity="1.00" stroke-linejoin="round"/>
<path d="M243.40,62.48 C243.40,62.48 243.64,61.02 243.64,61.02 C245.84,60.61 248.02,61.26 248.58,63.06 C249.56,66.45 245.77,70.47 244.28,71.68 C245.44,72.60 248.64,75.16 248.98,75.39 C249.19,75.54 249.29,75.56 249.27,75.44" fill="none" stroke="rgb(0, 255, 134)" stroke-width="5.00" stroke-opacity="1.00" stroke-linejoin="round"/>
<path d="M259.93,66.96 C261.93,69.65 263.53,72.28 264.11,74.28 C264.40,75.32 265.55,81.23 265.35,83.83 C265.12,86.66 263.23,94.93 261.75,98.09 C258.31,105.26 254.67,107.94 253.28,108.68 C253.10,108.78 252.94,108.87 252.82,108.96" fill="none" stroke="rgb(0, 255, 134)" stroke-width="5.00" stroke-opacity="1.00" stroke-linejoin="round"/>
<path d="M362.87,265.20 C362.87,265.20 372.64,265.12 372.64,265.12 C370.86,263.14 368.69,259.34 367.76,255.61 C366.85,251.80 366.87,244.98 367.81,242.06 C368.66,239.56 371.82,235.26 373.47,233.88 C375.51,232.23 377.97,231.51 380.15,231.95 C382.04,232.40 385.42,236.09 386.95,239.69 C387.74,241.66 388.24,245.11 388.02,247.29 C387.71,249.94 384.05,258.50 381.58,262.08 C380.91,263.05 377.24,267.92 377.24,267.91 C380.31,268.35 385.59,269.12 386.12,269.18 C386.49,269.21 387.09,269.25 387.93,269.28" fill="none" stroke="rgb(0, 255, 134)" stroke-width="5.00" stroke-opacity="1.00" stroke-linejoin="round"/>
<path d="M409.44,233.12 C406.34,233.02 403.51,233.72 401.81,235.76 C400.02,238.03 397.74,243.22 396.84,246.64 C396.13,249.47 395.61,255.65 395.88,257.57 C396.43,261.13 399.01,265.39 400.77,266.75 C402.17,267.82 403.25,268.22 403.74,267.98 C403.74,267.98 403.93,266.48 403.93,266.48" fill="none" stroke="rgb(0, 255, 134)" stroke-width="5.00" stroke-opacity="1.00" stroke-linejoin="round"/>
<path d="M411.04,239.84 C411.79,242.47 412.49,246.35 412.40,248.69 C412.31,250.69 411.13,255.38 410.04,257.47 C407.93,261.43 403.75,265.59 401.15,266.68 C400.97,266.75 400.82,266.73 400.70,266.63 C400.67,266.60 400.62,266.57 400.56,266.56" fill="none" stroke="rgb(0, 255, 134)" stroke-width="5.00" stroke-opacity="1.00" stroke-linejoin="round"/>
<path d="M421.71,240.32 C418.43,245.16 415.69,249.70 414.91,252.91 C414.36,255.33 414.12,264.09 414.91,265.18 C415.20,265.59 416.06,266.33 417.48,267.43 C418.79,267.17 419.68,266.84 420.15,266.44 C420.62,266.04 421.32,265.01 422.24,263.36" fill="none" stroke="rgb(0, 255, 134)" stroke-width="5.00" stroke-opacity="1.00" stroke-linejoin="round"/>
<path d="M426.16,230.16 C426.16,230.16 428.63,229.95 428.63,229.95 C429.65,231.67 429.96,232.79 429.46,233.88 C428.55,235.80 425.79,238.77 424.52,240.07 C424.50,240.37 428.22,241.62 428.73,241.97 C429.06,242.19 429.63,242.70 430.42,243.52" fill="none" stroke="rgb(0, 255, 134)" stroke-width="5.00" stroke-opacity="1.00" stroke-linejoin="round"/>
<path d="M434.87,235.68 C436.50,238.97 437.95,245.37 437.96,248.56 C437.94,252.35 436.77,258.18 435.30,261.88 C432.77,268.06 426.93,275.98 424.64,277.72 C424.49,277.84 424.34,277.93 424.20,278.00" fill="none" stroke="rgb(0, 255, 134)" stroke-width="5.00" stroke-opacity="1.00" stroke-linejoin="round"/>
<path d="M40.73,431.36 C42.29,427.61 43.50,424.54 45.28,419.72 C49.32,408.52 55.13,395.65 56.56,391.78 C60.19,381.66 65.63,371.52 68.91,365.58 C72.61,358.34 76.46,349.36 80.26,339.31 C82.73,332.64 87.68,319.22 90.35,310.55 C94.60,295.16 103.06,263.60 104.69,253.71 C106.52,239.82 110.18,210.69 112.74,196.26 C117.94,168.72 125.24,122.60 127.10,108.89 C128.28,98.51 128.98,67.45 130.30,48.40 C131.32,31.29 130.74,18.05 130.53,17.82 C130.28,17.56 129.44,16.87 128.02,15.76" fill="none" stroke="rgb(136, 255, 0)" stroke-width="5.00" stroke-opacity="1.00" stroke-linejoin="round"/>
<path d="M50.33,151.20 C49.13,150.86 47.03,150.95 45.35,151.62 C44.31,152.05 41.39,154.45 40.75,155.41 C40.14,156.38 39.09,160.07 39.05,161.26 C39.04,163.03 39.93,165.98 40.83,167.07 C41.59,167.94 44.01,169.25 45.00,169.42 C45.73,169.52 48.43,169.01 49.18,168.63 C51.15,167.58 54.48,162.50 55.27,159.66 C55.46,158.90 55.93,155.53 55.76,154.73 C55.30,152.86 53.62,150.56 52.19,150.07 C51.52,149.85 48.77,149.43 48.38,149.36" fill="none" stroke="rgb(136, 255, 0)" stroke-width="5.00" stroke-opacity="1.00" stroke-linejoin="round"/>
<path d="M71.13,130.80 C68.52,130.34 66.69,130.69 65.12,132.12 C63.84,133.29 60.35,137.79 59.25,139.84 C58.21,141.81 56.71,146.49 56.55,149.41 C56.44,151.72 56.75,159.91 57.74,163.18 C58.64,166.06 62.06,169.69 64.18,170.92 C64.39,171.03 64.58,171.10 64.73,171.12" fill="none" stroke="rgb(136, 255, 0)" stroke-width="5.00" stroke-opacity="1.00" stroke-linejoin="round"/>
<path d="M68.11,140.24 C68.36,140.21 71.35,143.29 71.85,145.78 C72.52,149.26 72.00,155.71 71.28,158.29 C69.74,163.69 65.27,169.84 63.37,171.06 C63.37,171.06 62.60,169.44 62.60,169.44" fill="none" stroke="rgb(136, 255, 0)" stroke-width="5.00" stroke-opacity="1.00" stroke-linejoin="round"/>
<path d="M78.96,144.72 C78.96,144.72 77.03,144.43 77.03,144.43 C75.20,146.11 73.38,151.14 73.00,154.62 C72.80,156.66 72.84,158.96 73.08,161.39 C73.31,163.20 74.51,166.07 75.64,167.28 C77.38,169.08 80.45,169.56 81.06,169.19 C81.06,169.19 81.44,167.84 81.44,167.84" fill="none" stroke="rgb(136, 255, 0)" stroke-width="5.00" stroke-opacity="1.00" stroke-linejoin="round"/>
<path d="M93.89,136.38 C95.91,138.37 97.78,141.08 98.44,143.92 C99.60,149.19 98.70,163.04 97.33,167.47 C96.75,169.29 93.61,177.04 92.78,177.43 C92.58,177.52 92.18,177.52 91.58,177.44" fill="none" stroke="rgb(136, 255, 0)" stroke-width="5.00" stroke-opacity="1.00" stroke-linejoin="round"/>
<path d="M113.98,466.00 C120.33,466.00 133.20,465.98 139.08,465.36 C146.98,464.46 162.54,462.21 169.63,461.09 C177.84,459.92 214.88,457.45 227.15,456.36 C238.48,455.84 268.70,455.86 285.70,453.87 C297.46,452.25 335.75,445.43 344.38,442.81 C373.26,433.32 407.02,422.29 410.27,421.15 C411.24,420.82 412.21,420.49 413.18,420.16" fill="none" stroke="rgb(136, 255, 0)" stroke-width="5.00" stroke-opacity="1.00" stroke-linejoin="round"/>
<path d="M453.89,396.96 C457.49,395.91 477.34,388.04 480.42,386.61 C483.06,385.37 498.48,373.65 498.64,373.12 C498.64,373.12 496.38,374.32 496.38,374.32" fill="none" stroke="rgb(136, 255, 0)" stroke-width="5.00" stroke-opacity="1.00" stroke-linejoin="round"/>
<path d="M388.11,445.28 C387.72,445.14 387.39,445.12 387.11,445.22 C386.02,445.63 381.51,449.05 380.15,451.00 C379.43,452.11 378.81,455.02 379.07,456.71 C379.39,458.64 381.66,460.34 384.30,461.07 C386.65,461.64 390.24,460.66 391.91,458.82 C394.80,455.48 395.60,449.30 395.42,448.97 C394.94,451.86 394.91,454.31 395.58,456.24 C396.32,458.30 398.34,460.97 399.77,461.69 C400.88,462.21 404.01,462.27 405.30,461.91 C406.68,461.46 408.93,459.77 409.88,458.44 C410.91,456.91 412.02,453.68 412.08,451.95 C412.10,450.23 411.21,447.85 410.26,446.90 C409.42,446.10 407.72,445.60 406.55,445.62 C406.33,445.63 406.11,445.68 405.89,445.76" fill="none" stroke="rgb(136, 255, 0)" stroke-width="5.00" stroke-opacity="1.00" stroke-linejoin="round"/>
<path d="M429.00,431.20 C426.77,432.44 425.33,433.62 424.18,435.43 C422.17,438.61 419.81,444.67 419.50,446.58 C418.93,450.25 419.87,458.36 420.99,460.63 C422.08,462.76 425.31,465.48 426.43,465.33 C426.54,465.32 426.68,465.27 426.87,465.20" fill="none" stroke="rgb(136, 255, 0)" stroke-width="5.00" stroke-opacity="1.00" stroke-linejoin="round"/>
<path d="M429.36,443.68 C430.25,443.43 432.14,442.94 432.75,443.22 C434.51,444.06 436.01,446.78 436.06,449.21 C436.05,453.25 431.12,457.73 427.88,460.14 C427.88,460.14 428.64,458.72 428.64,458.72" fill="none" stroke="rgb(136, 255, 0)" stroke-width="5.00" stroke-opacity="1.00" stroke-linejoin="round"/>
<path d="M443.93,443.76 C440.93,445.69 438.21,448.09 437.09,450.29 C435.96,452.66 435.66,457.34 436.53,458.52 C437.74,460.06 440.14,461.48 442.62,462.15 C445.21,462.82 446.32,462.85 447.17,462.38 C447.29,462.30 447.40,462.20 447.49,462.08" fill="none" stroke="rgb(136, 255, 0)" stroke-width="5.00" stroke-opacity="1.00" stroke-linejoin="round"/>
<path d="M452.11,434.40 C453.64,435.41 455.90,437.26 456.93,438.52 C458.11,439.98 459.94,446.30 460.16,449.13 C460.39,452.56 459.33,458.73 457.81,461.81 C456.50,464.38 454.32,466.42 453.53,466.86 C453.33,466.96 453.09,467.02 452.82,467.04" fill="none" stroke="rgb(136, 255, 0)" stroke-width="5.00" stroke-opacity="1.00" stroke-linejoin="round"/>
<path d="M83.04,123.84 C83.04,123.84 84.11,123.20 84.11,123.20 C84.00,123.20 83.90,123.20 83.79,123.20 C83.72,123.20 83.65,123.20 83.58,123.20" fill="none" stroke="rgb(136, 255, 0)" stroke-width="5.00" stroke-opacity="1.00" stroke-linejoin="round"/>
<path d="M82.87,127.76 C82.87,127.76 82.89,126.76 82.89,126.76 C83.97,126.05 86.10,126.23 87.15,127.57 C88.06,128.78 87.99,132.33 87.12,133.56 C85.89,135.19 80.55,136.15 79.85,136.07 C81.56,136.67 82.58,137.31 83.75,138.69 C84.88,140.06 85.82,141.72 85.98,142.75 C86.09,143.61 85.40,144.91 84.68,145.34 C83.85,145.76 80.13,145.14 79.55,144.02 C79.28,143.50 79.38,142.24 79.84,140.24" fill="none" stroke="rgb(136, 255, 0)" stroke-width="5.00" stroke-opacity="1.00" stroke-linejoin="round"/>
</g>
</svg>
