<?xml version="1.0" encoding="UTF-8" standalone="no"?>
<!DOCTYPE svg PUBLIC "-//W3C//DTD SVG 1.1//EN" "http://www.w3.org/Graphics/SVG/1.1/DTD/svg11.dtd">
<svg width="512.00" height="300.00" viewBox="0.00 0.00 512.00 300.00" xmlns="http://www.w3.org/2000/svg" xmlns:xlink="http://www.w3.org/1999/xlink">
<g stroke-linecap="round" id="Layer_2">
<path d="M34.03,41.62 C34.03,41.62 34.03,41.44 34.03,41.44 C32.00,42.02 26.43,44.41 25.89,45.53 C24.47,48.61 24.88,64.61 25.13,72.93 C26.05,88.77 28.20,129.67 28.57,133.31 C28.81,135.67 30.14,143.21 30.93,144.62 C31.80,146.07 36.94,147.63 41.54,148.47 C42.52,148.64 45.22,148.98 45.77,148.85 C46.09,148.77 46.80,148.49 47.92,148.01" fill="none" stroke="rgb(0, 0, 0)" stroke-width="6.00" stroke-opacity="1.00" stroke-linejoin="round"/>
<path d="M50.99,54.49 C50.99,54.49 51.12,54.24 51.12,54.24 C50.90,61.47 50.63,69.97 50.59,71.25 C50.59,71.25 50.59,71.26 50.59,71.25 C50.59,71.25 50.59,71.25 50.59,71.25" fill="none" stroke="rgb(0, 0, 0)" stroke-width="6.00" stroke-opacity="1.00" stroke-linejoin="round"/>
<path d="M47.25,88.02 C47.25,88.02 47.12,87.93 47.12,87.93 C47.12,87.93 47.12,87.49 47.12,87.49 C47.63,87.07 49.94,86.50 51.52,86.53 C52.36,86.56 53.46,87.73 53.75,88.50 C54.03,89.42 53.25,92.41 52.32,93.76 C51.57,94.84 49.55,95.69 47.55,96.19 C49.13,95.68 54.22,97.32 55.30,99.01 C55.73,99.79 55.90,101.69 55.47,102.51 C54.67,103.91 53.06,104.75 50.96,104.88 C50.26,104.92 49.47,104.97 48.58,105.03" fill="none" stroke="rgb(0, 0, 0)" stroke-width="6.00" stroke-opacity="1.00" stroke-linejoin="round"/>
<path d="M52.19,119.10 C52.19,119.10 49.80,124.01 49.80,124.01 C49.79,124.22 56.68,126.61 57.74,128.38 C58.36,129.48 57.84,131.97 56.94,132.89 C55.05,134.69 52.69,133.97 51.63,133.20 C51.37,133.00 50.98,132.73 50.45,132.38" fill="none" stroke="rgb(0, 0, 0)" stroke-width="6.00" stroke-opacity="1.00" stroke-linejoin="round"/>
<path d="M49.12,116.33 C49.12,116.33 64.19,116.75 64.19,116.75 C64.19,116.75 61.94,116.37 61.94,116.37" fill="none" stroke="rgb(0, 0, 0)" stroke-width="6.00" stroke-opacity="1.00" stroke-linejoin="round"/>
<path d="M73.83,59.35 C73.83,59.35 72.36,59.31 72.36,59.31 C73.15,58.33 75.22,57.38 76.95,57.62 C78.94,57.93 80.89,60.46 81.08,62.64 C81.28,66.08 75.31,71.58 73.76,72.47 C73.76,72.47 83.17,74.68 83.17,74.68 C83.17,74.68 83.05,75.58 83.05,75.58" fill="none" stroke="rgb(0, 0, 0)" stroke-width="6.00" stroke-opacity="1.00" stroke-linejoin="round"/>
<path d="M81.31,85.38 C81.31,85.38 74.49,92.71 74.49,92.71 C74.49,92.71 88.90,93.07 88.90,93.07" fill="none" stroke="rgb(0, 0, 0)" stroke-width="6.00" stroke-opacity="1.00" stroke-linejoin="round"/>
<path d="M85.72,88.69 C82.40,93.16 81.15,101.01 81.18,103.58 C81.18,103.86 81.18,104.36 81.18,105.05" fill="none" stroke="rgb(0, 0, 0)" stroke-width="6.00" stroke-opacity="1.00" stroke-linejoin="round"/>
<path d="M86.52,113.39 C84.72,115.94 83.53,119.20 83.33,122.74 C83.22,125.59 83.45,127.92 84.14,128.41 C84.90,128.90 87.97,129.17 88.90,128.79 C89.88,128.35 91.10,126.29 91.30,124.92 C91.46,123.46 90.65,121.36 89.53,120.45 C87.40,118.83 83.91,119.31 83.46,119.78 C83.30,119.96 83.03,120.41 82.64,121.14" fill="none" stroke="rgb(0, 0, 0)" stroke-width="6.00" stroke-opacity="1.00" stroke-linejoin="round"/>
<path d="M101.88,48.78 C105.96,48.81 110.69,49.34 111.45,50.07 C113.08,51.74 115.75,60.42 116.12,61.80 C118.41,70.46 119.73,103.86 120.37,117.83 C120.44,121.45 120.58,128.57 120.66,132.08 C120.75,136.67 120.39,140.16 118.84,141.72 C117.98,142.52 116.24,143.75 115.44,144.01 C114.57,144.28 112.32,144.40 110.83,144.40" fill="none" stroke="rgb(0, 0, 0)" stroke-width="6.00" stroke-opacity="1.00" stroke-linejoin="round"/>
<path d="M137.81,100.77 C137.81,100.77 136.03,100.01 136.03,100.01 C135.29,97.34 137.23,95.02 138.49,94.22 C139.50,94.68 140.33,95.87 140.51,97.49 C140.66,98.84 140.20,100.15 139.53,100.91 C137.87,100.18 138.62,98.89 138.99,98.48 C139.87,100.12 139.03,100.98 138.55,101.27 C138.55,101.27 138.87,98.73 138.87,98.73 C138.87,98.73 138.97,100.04 138.97,100.04 C138.10,99.49 137.97,98.90 138.56,97.67 C138.69,97.38 138.84,97.03 139.01,96.62" fill="none" stroke="rgb(0, 0, 0)" stroke-width="6.00" stroke-opacity="1.00" stroke-linejoin="round"/>
<path d="M183.89,67.86 C182.41,67.59 181.24,67.88 179.01,69.22 C176.65,70.66 175.34,71.65 174.83,72.41 C173.79,74.07 173.02,87.72 173.46,96.45 C174.03,104.74 175.27,122.06 175.36,122.64 C178.80,124.48 185.75,125.08 186.96,125.17" fill="none" stroke="rgb(0, 0, 0)" stroke-width="6.00" stroke-opacity="1.00" stroke-linejoin="round"/>
<path d="M137.54,95.78 C137.54,95.78 137.54,95.54 137.54,95.54 C137.54,95.54 137.15,96.61 137.15,96.61 C137.15,96.61 137.22,94.75 137.22,94.75 C137.22,94.75 138.05,98.54 138.05,98.54 C138.05,98.54 137.61,95.57 137.61,95.57 C137.61,95.57 139.56,98.83 139.56,98.83 C139.56,98.83 139.32,97.12 139.32,97.12 C140.82,97.45 140.64,99.09 140.34,99.95 C140.34,99.95 138.96,97.14 138.96,97.14 C138.96,97.14 138.21,99.98 138.21,99.98" fill="none" stroke="rgb(0, 0, 0)" stroke-width="6.00" stroke-opacity="1.00" stroke-linejoin="round"/>
<path d="M194.44,80.27 C194.44,80.27 192.78,78.29 192.78,78.29 C192.78,78.29 193.48,86.69 193.48,86.69 C193.48,86.69 193.77,85.80 193.77,85.80" fill="none" stroke="rgb(0, 0, 0)" stroke-width="6.00" stroke-opacity="1.00" stroke-linejoin="round"/>
<path d="M193.10,80.63 C193.10,80.63 203.82,79.98 203.82,79.98 C204.35,81.63 203.37,89.26 203.27,90.60 C203.15,92.39 203.10,94.52 203.12,96.64 C203.13,96.97 203.13,97.49 203.12,98.20 C203.12,98.23 203.12,98.34 203.12,98.30" fill="none" stroke="rgb(0, 0, 0)" stroke-width="6.00" stroke-opacity="1.00" stroke-linejoin="round"/>
<path d="M201.39,105.39 C198.96,106.38 197.36,107.52 196.71,108.95 C196.39,109.70 196.56,111.11 197.09,111.50 C197.41,111.72 205.45,115.62 207.12,117.24 C207.90,118.08 207.97,120.70 207.06,122.14 C206.12,123.56 203.40,125.13 202.51,124.99 C201.71,124.78 200.47,124.05 200.02,123.24 C198.89,121.13 198.44,118.00 198.99,115.83 C199.37,114.44 205.09,106.44 205.04,105.78 C205.04,105.78 201.12,104.55 201.12,104.55" fill="none" stroke="rgb(0, 0, 0)" stroke-width="6.00" stroke-opacity="1.00" stroke-linejoin="round"/>
<path d="M232.91,80.27 C232.26,79.44 231.42,78.79 230.54,78.68 C229.39,78.58 227.22,79.82 226.22,81.27 C225.22,82.80 225.36,85.35 226.49,86.29 C227.47,87.05 230.35,87.60 231.57,87.35 C233.09,87.00 235.66,84.50 236.55,83.65 C236.47,87.10 236.22,97.40 236.18,97.83 C236.14,98.25 236.03,98.99 235.85,100.05" fill="none" stroke="rgb(0, 0, 0)" stroke-width="6.00" stroke-opacity="1.00" stroke-linejoin="round"/>
<path d="M229.17,111.40 C229.10,113.56 228.72,117.93 228.77,118.28 C228.79,118.49 228.92,118.66 229.15,118.78 C229.15,118.78 229.43,118.66 229.43,118.66" fill="none" stroke="rgb(0, 0, 0)" stroke-width="6.00" stroke-opacity="1.00" stroke-linejoin="round"/>
<path d="M237.72,111.28 C237.37,112.13 236.89,113.86 236.78,115.13 C236.63,117.37 237.55,119.75 238.96,120.49 C239.81,120.89 243.27,120.94 244.36,120.68 C245.73,120.30 246.96,118.81 247.10,117.36 C247.35,113.73 245.87,111.29 244.90,110.52 C244.90,110.52 240.26,112.64 240.26,112.64 C240.26,112.64 239.05,112.07 239.05,112.07" fill="none" stroke="rgb(0, 0, 0)" stroke-width="6.00" stroke-opacity="1.00" stroke-linejoin="round"/>
<path d="M274.45,79.07 C274.45,79.07 274.49,91.80 274.49,91.80 C274.49,91.80 274.71,91.69 274.71,91.69" fill="none" stroke="rgb(0, 0, 0)" stroke-width="6.00" stroke-opacity="1.00" stroke-linejoin="round"/>
<path d="M284.06,80.27 C284.07,83.75 284.07,89.98 284.32,92.44 C284.33,92.69 284.31,93.03 284.25,93.46" fill="none" stroke="rgb(0, 0, 0)" stroke-width="6.00" stroke-opacity="1.00" stroke-linejoin="round"/>
<path d="M271.11,106.00 C271.11,106.00 271.37,122.33 271.37,122.33 C271.37,122.33 271.64,120.66 271.64,120.66" fill="none" stroke="rgb(0, 0, 0)" stroke-width="6.00" stroke-opacity="1.00" stroke-linejoin="round"/>
<path d="M279.57,110.06 C279.57,110.06 279.49,109.42 279.49,109.42 C279.49,109.42 284.94,108.66 284.94,108.66 C285.51,109.30 285.63,110.12 285.16,111.46 C284.30,113.81 279.05,119.60 278.35,120.39 C278.15,120.62 278.08,120.81 278.16,120.96 C279.81,120.82 286.15,120.10 288.90,119.87 C289.12,119.84 289.28,119.81 289.41,119.76" fill="none" stroke="rgb(0, 0, 0)" stroke-width="6.00" stroke-opacity="1.00" stroke-linejoin="round"/>
<path d="M295.15,64.76 C296.49,64.68 297.45,64.87 299.88,65.83 C302.33,66.83 303.27,68.15 303.44,70.72 C304.08,86.37 306.12,122.34 305.62,124.03 C305.15,125.56 300.44,127.83 298.89,128.59" fill="none" stroke="rgb(0, 0, 0)" stroke-width="6.00" stroke-opacity="1.00" stroke-linejoin="round"/>
<path d="M324.40,95.72 C326.85,94.46 330.75,95.02 331.92,95.19 C331.92,95.19 332.01,95.84 332.01,95.84" fill="none" stroke="rgb(0, 0, 0)" stroke-width="6.00" stroke-opacity="1.00" stroke-linejoin="round"/>
<path d="M324.27,107.80 C324.27,107.80 331.41,107.95 331.41,107.95 C331.41,107.95 331.08,108.16 331.08,108.16" fill="none" stroke="rgb(0, 0, 0)" stroke-width="6.00" stroke-opacity="1.00" stroke-linejoin="round"/>
<path d="M378.36,45.41 C378.36,45.41 378.36,45.05 378.36,45.05 C377.23,45.12 368.71,45.66 367.39,46.54 C366.14,47.41 364.69,49.67 364.17,51.31 C363.18,54.76 362.78,59.67 362.95,63.07 C364.52,91.94 363.60,135.67 363.54,145.14 C363.56,146.47 364.26,147.50 365.83,148.46 C366.63,148.92 370.74,150.91 371.49,151.03 C372.16,151.12 375.72,150.88 377.43,150.77" fill="none" stroke="rgb(0, 0, 0)" stroke-width="6.00" stroke-opacity="1.00" stroke-linejoin="round"/>
<path d="M485.08,49.68 C486.44,49.68 489.08,49.65 489.70,49.74 C491.51,50.04 492.93,51.48 493.42,53.40 C494.34,57.36 492.42,94.57 491.64,109.78 C491.26,124.94 491.27,149.13 491.00,150.46 C490.68,151.92 487.59,154.17 483.51,155.74 C482.82,156.00 482.57,155.87 481.34,155.10" fill="none" stroke="rgb(0, 0, 0)" stroke-width="6.00" stroke-opacity="1.00" stroke-linejoin="round"/>
<path d="M374.49,63.92 C374.49,63.92 374.09,63.92 374.09,63.92 C374.28,63.93 376.76,63.96 377.53,64.06 C379.65,64.37 381.24,65.98 381.36,67.88 C381.40,68.95 379.11,74.07 377.81,75.45 C375.76,77.57 371.99,79.84 371.15,80.83 C374.59,81.32 380.51,82.15 381.02,82.21 C381.37,82.26 381.87,82.31 382.50,82.37" fill="none" stroke="rgb(0, 0, 0)" stroke-width="6.00" stroke-opacity="1.00" stroke-linejoin="round"/>
<path d="M389.18,60.32 C391.36,61.10 393.83,62.40 395.08,63.67 C396.36,65.01 397.20,68.03 396.59,69.40 C395.48,71.67 389.37,74.53 389.03,74.55 C390.91,75.13 392.31,75.83 392.98,76.74 C393.63,77.71 393.95,79.72 393.43,80.71 C392.61,82.18 390.86,83.43 389.10,83.92 C388.56,84.06 387.97,84.23 387.31,84.42" fill="none" stroke="rgb(0, 0, 0)" stroke-width="6.00" stroke-opacity="1.00" stroke-linejoin="round"/>
<path d="M407.75,67.05 C407.75,67.05 407.75,66.81 407.75,66.81 C407.99,66.33 409.74,65.41 411.31,65.26 C413.13,65.11 415.47,65.88 415.98,66.74 C416.93,68.56 416.27,72.27 414.65,74.59 C412.91,76.99 409.09,80.90 408.04,81.96 C408.40,82.98 412.65,84.22 415.23,84.56 C416.19,84.68 417.45,84.82 417.74,84.88 C417.74,84.88 417.63,85.26 417.63,85.26" fill="none" stroke="rgb(0, 0, 0)" stroke-width="6.00" stroke-opacity="1.00" stroke-linejoin="round"/>
<path d="M432.06,64.46 C429.85,63.42 427.71,62.68 426.72,63.02 C425.48,63.48 423.92,65.19 423.32,66.60 C422.80,68.05 422.64,71.03 423.23,72.25 C423.89,73.52 426.79,73.81 428.25,72.97 C429.37,72.29 430.90,70.28 432.36,67.97 C432.36,67.97 429.38,85.52 429.38,85.52 C429.38,85.52 429.38,85.38 429.38,85.38" fill="none" stroke="rgb(0, 0, 0)" stroke-width="6.00" stroke-opacity="1.00" stroke-linejoin="round"/>
<path d="M451.82,66.39 C451.82,66.39 451.69,65.89 451.69,65.89 C455.64,66.04 458.11,68.79 458.93,70.68 C457.85,72.72 457.01,73.73 455.72,74.39 C453.41,75.55 449.49,76.75 448.37,76.99 C448.31,77.05 452.52,78.25 453.63,80.14 C454.12,81.07 451.17,83.68 450.12,84.07 C449.64,84.25 448.42,84.60 446.48,85.14" fill="none" stroke="rgb(0, 0, 0)" stroke-width="6.00" stroke-opacity="1.00" stroke-linejoin="round"/>
<path d="M470.52,66.75 C470.52,66.75 466.01,72.63 466.01,72.63 C466.38,73.67 468.04,75.43 468.62,76.15 C469.66,77.48 469.95,79.76 469.17,81.01 C468.42,82.17 466.75,83.08 465.28,83.42 C465.28,83.42 463.44,81.71 463.44,81.71" fill="none" stroke="rgb(0, 0, 0)" stroke-width="6.00" stroke-opacity="1.00" stroke-linejoin="round"/>
<path d="M467.58,65.72 C476.96,68.46 480.37,69.91 482.06,71.66 C482.06,71.66 480.45,72.79 480.45,72.79" fill="none" stroke="rgb(0, 0, 0)" stroke-width="6.00" stroke-opacity="1.00" stroke-linejoin="round"/>
<path d="M377.43,98.78 C377.43,98.78 375.11,104.78 375.11,104.78 C376.56,105.21 379.49,106.04 380.16,106.38 C381.95,107.32 383.59,109.79 383.33,111.38 C383.06,112.76 380.85,115.01 379.38,115.59 C378.41,115.95 377.63,115.95 377.05,115.58 C376.66,115.32 375.89,114.49 374.76,113.09" fill="none" stroke="rgb(0, 0, 0)" stroke-width="6.00" stroke-opacity="1.00" stroke-linejoin="round"/>
<path d="M376.76,98.12 C378.11,98.39 381.84,99.14 382.76,99.23 C383.37,99.29 384.53,99.34 386.24,99.38" fill="none" stroke="rgb(0, 0, 0)" stroke-width="6.00" stroke-opacity="1.00" stroke-linejoin="round"/>
<path d="M390.92,97.46 C390.92,97.46 395.53,98.02 395.53,98.02 C395.53,98.02 396.12,99.77 396.12,99.77 C396.12,99.77 389.77,104.29 389.77,104.29 C390.58,104.94 393.33,106.91 393.73,107.34 C394.97,108.72 394.88,111.10 393.61,112.50 C392.67,113.48 390.52,114.72 389.45,115.09 C389.28,115.14 389.05,115.20 388.78,115.25" fill="none" stroke="rgb(0, 0, 0)" stroke-width="6.00" stroke-opacity="1.00" stroke-linejoin="round"/>
<path d="M421.10,96.32 C417.61,99.32 414.80,103.15 414.11,106.64 C413.96,107.54 413.84,110.49 414.16,111.11 C415.03,112.65 417.15,113.38 418.78,112.79 C419.42,112.52 420.59,110.14 420.52,109.36 C420.41,108.28 418.73,107.29 417.18,106.94 C417.18,106.94 415.96,107.60 415.96,107.60 C415.96,107.60 415.76,109.36 415.76,109.36" fill="none" stroke="rgb(0, 0, 0)" stroke-width="6.00" stroke-opacity="1.00" stroke-linejoin="round"/>
<path d="M426.31,96.56 C426.31,96.56 426.31,101.23 426.31,101.23 C426.31,101.23 426.18,98.53 426.18,98.53 C427.79,98.10 430.25,97.90 431.42,98.37 C432.72,98.92 433.89,101.72 433.87,103.93 C433.84,104.83 433.02,110.09 432.79,111.26 C432.68,111.82 432.21,113.60 432.10,114.02 C432.08,114.07 432.07,114.10 432.06,114.11" fill="none" stroke="rgb(0, 0, 0)" stroke-width="6.00" stroke-opacity="1.00" stroke-linejoin="round"/>
<path d="M452.76,97.28 C449.72,97.49 448.89,99.24 448.82,100.19 C450.43,101.92 454.05,103.86 455.97,105.38 C456.99,106.24 458.37,108.67 458.39,110.03 C458.37,111.40 456.37,113.71 454.85,114.47 C452.11,115.73 450.55,114.91 449.99,114.16 C450.13,112.38 453.14,107.65 454.56,105.88 C456.31,103.68 456.41,101.68 455.85,101.12 C455.79,101.06 455.43,100.74 454.76,100.17" fill="none" stroke="rgb(0, 0, 0)" stroke-width="6.00" stroke-opacity="1.00" stroke-linejoin="round"/>
<path d="M468.52,98.60 C468.52,98.60 468.58,117.53 468.58,117.53 C468.58,117.53 467.04,117.05 467.04,117.05" fill="none" stroke="rgb(0, 0, 0)" stroke-width="6.00" stroke-opacity="1.00" stroke-linejoin="round"/>
<path d="M384.64,129.98 C382.21,130.15 380.65,130.64 379.65,131.67 C379.10,132.28 378.52,133.83 378.83,134.41 C379.66,135.85 385.54,139.48 386.76,140.92 C387.67,142.03 387.59,144.52 386.84,146.00 C385.54,148.34 383.63,150.01 382.89,150.28 C382.34,150.28 381.47,148.39 381.27,146.31 C381.11,144.58 382.76,139.86 384.43,136.48 C385.63,133.96 386.03,131.83 385.36,131.02 C385.24,130.89 384.80,130.64 384.04,130.27 C383.76,130.16 383.33,129.94 382.77,129.62" fill="none" stroke="rgb(0, 0, 0)" stroke-width="6.00" stroke-opacity="1.00" stroke-linejoin="round"/>
<path d="M394.66,129.38 C396.86,128.90 399.31,129.91 399.22,131.02 C399.05,132.51 397.98,134.57 396.92,135.41 C395.77,136.31 394.76,136.89 392.80,137.88 C395.49,138.88 397.04,139.93 396.92,141.08 C396.73,142.62 393.68,145.86 392.93,146.65 C392.75,146.83 392.53,147.04 392.25,147.29" fill="none" stroke="rgb(0, 0, 0)" stroke-width="6.00" stroke-opacity="1.00" stroke-linejoin="round"/>
<path d="M414.96,131.78 C414.96,131.78 413.76,147.84 413.76,147.84 C413.76,147.84 415.59,147.37 415.59,147.37" fill="none" stroke="rgb(0, 0, 0)" stroke-width="6.00" stroke-opacity="1.00" stroke-linejoin="round"/>
<path d="M422.57,138.81 C421.65,142.83 422.05,145.70 423.26,146.02 C424.57,146.30 426.60,145.30 427.38,143.87 C428.01,142.64 427.31,140.76 426.03,139.91 C424.90,139.20 423.37,138.90 422.58,139.04 C422.58,139.04 422.84,139.71 422.84,139.71" fill="none" stroke="rgb(0, 0, 0)" stroke-width="6.00" stroke-opacity="1.00" stroke-linejoin="round"/>
<path d="M433.12,132.86 C433.15,134.11 433.22,137.57 433.26,137.95 C433.31,138.44 436.18,141.81 436.26,144.26 C436.29,146.79 434.77,147.86 433.89,147.99 C433.89,147.99 432.06,146.33 432.06,146.33" fill="none" stroke="rgb(0, 0, 0)" stroke-width="6.00" stroke-opacity="1.00" stroke-linejoin="round"/>
<path d="M432.86,134.67 C432.86,134.67 440.67,135.91 440.67,135.91 C440.67,135.91 438.55,136.11 438.55,136.11" fill="none" stroke="rgb(0, 0, 0)" stroke-width="6.00" stroke-opacity="1.00" stroke-linejoin="round"/>
<path d="M453.03,134.49 C453.04,137.78 453.07,145.40 452.72,147.15 C452.66,147.45 452.54,147.69 452.36,147.87 C452.36,147.87 452.36,147.71 452.36,147.71" fill="none" stroke="rgb(0, 0, 0)" stroke-width="6.00" stroke-opacity="1.00" stroke-linejoin="round"/>
<path d="M457.43,134.97 C457.43,134.97 463.05,134.35 463.05,134.35 C463.75,135.69 462.36,138.45 460.23,141.01 C458.92,142.51 457.15,144.58 456.75,145.22 C456.75,145.22 465.40,147.01 465.40,147.01 C465.40,147.01 465.31,147.11 465.31,147.11" fill="none" stroke="rgb(0, 0, 0)" stroke-width="6.00" stroke-opacity="1.00" stroke-linejoin="round"/>
<path d="M468.12,133.46 C468.12,133.46 468.71,140.41 468.71,140.41 C468.71,140.41 468.94,134.42 468.94,134.42 C469.39,133.99 470.42,133.64 471.55,133.78 C473.16,133.99 474.85,135.37 475.90,137.25 C476.60,138.58 476.47,144.01 475.80,148.88 C475.25,152.65 473.80,156.70 473.19,158.05" fill="none" stroke="rgb(0, 0, 0)" stroke-width="6.00" stroke-opacity="1.00" stroke-linejoin="round"/>
<path d="M37.63,50.04 C37.63,50.04 37.63,49.26 37.63,49.26 C37.63,60.54 36.33,75.58 36.41,75.72 C37.27,76.97 42.92,77.73 47.39,77.23 C54.23,76.25 69.03,74.29 74.99,74.63 C80.04,74.94 95.69,78.03 99.97,78.21 C102.33,78.26 104.01,78.10 104.16,77.27 C104.31,76.30 103.63,67.04 103.36,63.42 C103.13,60.43 102.37,55.60 101.27,54.33 C100.34,53.36 92.25,53.05 88.21,53.41 C77.87,54.41 67.15,56.62 60.79,56.49 C54.02,56.33 41.48,55.28 39.52,55.02 C38.85,54.92 38.17,54.82 37.50,54.73" fill="none" stroke="rgb(255, 182, 0)" stroke-width="6.00" stroke-opacity="1.00" stroke-linejoin="round"/>
<path d="M188.70,67.77 C187.25,70.11 187.07,75.83 187.04,78.93 C186.94,80.26 185.67,90.14 185.18,93.70 C184.62,98.27 186.34,111.93 187.15,123.01 C187.44,126.70 189.01,135.61 189.08,135.91 C189.33,136.78 190.58,137.16 192.84,137.23 C197.40,137.28 207.72,135.36 209.15,134.73 C211.25,133.75 213.78,131.34 214.66,129.45 C215.76,126.95 216.59,107.32 216.30,101.05 C216.01,94.84 212.74,67.40 212.64,67.14 C212.08,65.82 207.56,65.09 202.89,64.68 C199.74,64.49 195.01,65.30 193.24,65.72" fill="none" stroke="rgb(255, 182, 0)" stroke-width="6.00" stroke-opacity="1.00" stroke-linejoin="round"/>
<path d="M373.82,52.20 C372.43,52.21 371.66,54.72 371.34,60.27 C370.72,72.15 369.43,84.71 369.46,89.34 C371.22,89.99 380.79,91.22 382.71,91.39 C387.78,91.81 399.78,89.69 401.31,89.66 C404.76,89.57 405.79,89.23 405.87,87.95 C406.05,83.49 404.12,56.43 403.86,56.13 C403.10,55.32 395.82,54.37 394.47,54.29 C390.24,54.03 385.28,54.63 380.77,55.27" fill="none" stroke="rgb(255, 182, 0)" stroke-width="6.00" stroke-opacity="1.00" stroke-linejoin="round"/>
<path d="M64.61,49.08 C64.61,49.08 64.61,51.48 64.61,51.48 C63.09,43.27 60.81,31.00 60.63,29.51 C60.60,29.28 60.59,29.12 60.61,29.00" fill="none" stroke="rgb(255, 182, 0)" stroke-width="6.00" stroke-opacity="1.00" stroke-linejoin="round"/>
<path d="M63.95,27.98 C63.98,27.88 63.98,27.82 63.95,27.80 C63.92,27.79 63.80,27.79 63.59,27.80 C63.54,27.80 63.50,27.80 63.46,27.80" fill="none" stroke="rgb(255, 182, 0)" stroke-width="6.00" stroke-opacity="1.00" stroke-linejoin="round"/>
<path d="M63.95,27.98 C62.37,28.08 62.04,28.09 62.02,28.10 C61.97,28.12 61.72,28.18 61.27,28.28 C61.45,28.64 63.49,29.15 65.74,29.31 C66.19,29.33 86.50,28.33 93.96,28.11 C102.00,27.78 121.98,25.01 125.68,24.60 C131.57,23.95 148.23,23.38 156.08,23.17 C167.95,22.97 171.67,23.04 182.88,24.12 C185.27,24.35 229.44,26.07 245.34,26.62 C254.75,27.12 266.02,28.59 274.44,28.76 C305.80,28.83 344.72,28.94 352.27,28.98 C355.18,28.99 382.01,27.45 391.07,27.61 C391.34,28.60 390.65,34.27 390.25,37.73 C389.89,41.30 389.19,48.43 389.15,51.06 C389.14,51.48 389.15,51.98 389.18,52.56" fill="none" stroke="rgb(255, 182, 0)" stroke-width="6.00" stroke-opacity="1.00" stroke-linejoin="round"/>
<path d="M204.06,61.16 C202.25,56.84 200.29,42.23 200.22,35.25 C200.21,33.93 201.50,27.64 201.62,26.86 C201.62,26.86 201.52,26.90 201.52,26.90" fill="none" stroke="rgb(255, 182, 0)" stroke-width="6.00" stroke-opacity="1.00" stroke-linejoin="round"/>
<path d="M126.59,202.16 C124.89,205.00 113.76,214.49 108.13,217.90 C104.22,220.21 100.46,222.31 97.96,223.59 C97.96,223.59 99.82,222.59 99.82,222.59" fill="none" stroke="rgb(0, 0, 0)" stroke-width="6.00" stroke-opacity="1.00" stroke-linejoin="round"/>
<path d="M130.19,213.88 C126.67,217.98 119.22,224.08 110.82,230.34 C100.67,237.75 99.80,238.35 97.20,240.07 C97.19,240.08 97.16,240.11 97.17,240.10 C97.17,240.10 97.92,239.45 97.92,239.45" fill="none" stroke="rgb(0, 0, 0)" stroke-width="6.00" stroke-opacity="1.00" stroke-linejoin="round"/>
<path d="M117.77,228.73 C117.56,237.65 119.58,247.36 120.30,247.91 C120.30,247.91 120.31,244.58 120.31,244.58" fill="none" stroke="rgb(0, 0, 0)" stroke-width="6.00" stroke-opacity="1.00" stroke-linejoin="round"/>
<path d="M130.86,212.68 C135.88,210.85 140.38,209.91 144.64,209.92 C145.63,209.92 146.62,209.93 147.60,209.93 C147.60,209.93 146.32,211.11 146.32,211.11" fill="none" stroke="rgb(0, 0, 0)" stroke-width="6.00" stroke-opacity="1.00" stroke-linejoin="round"/>
<path d="M125.79,227.05 C125.79,227.05 146.61,223.77 146.61,223.77 C146.61,223.77 145.93,223.62 145.93,223.62" fill="none" stroke="rgb(0, 0, 0)" stroke-width="6.00" stroke-opacity="1.00" stroke-linejoin="round"/>
<path d="M139.41,225.06 C139.41,225.06 141.81,248.98 141.81,248.98 C140.64,248.54 137.40,247.34 136.59,246.99 C136.07,246.76 135.05,246.28 133.53,245.56" fill="none" stroke="rgb(0, 0, 0)" stroke-width="6.00" stroke-opacity="1.00" stroke-linejoin="round"/>
<path d="M191.90,210.46 C191.90,210.46 204.77,209.38 204.77,209.38 C204.77,209.38 200.94,210.73 200.94,210.73" fill="none" stroke="rgb(0, 0, 0)" stroke-width="6.00" stroke-opacity="1.00" stroke-linejoin="round"/>
<path d="M196.98,211.66 C195.96,214.64 194.66,217.72 192.61,220.62 C188.33,226.61 181.57,234.38 179.90,236.26 C179.90,236.26 180.22,235.58 180.22,235.58" fill="none" stroke="rgb(0, 0, 0)" stroke-width="6.00" stroke-opacity="1.00" stroke-linejoin="round"/>
<path d="M193.77,221.76 C198.76,220.58 201.54,220.24 202.18,221.73 C202.80,223.45 201.09,227.74 198.70,232.11 C197.21,234.74 192.93,240.76 191.31,241.60 C191.08,241.72 190.70,241.76 190.17,241.71 C190.04,241.69 189.90,241.69 189.77,241.71" fill="none" stroke="rgb(0, 0, 0)" stroke-width="6.00" stroke-opacity="1.00" stroke-linejoin="round"/>
<path d="M191.90,226.99 C191.90,226.99 199.85,232.38 199.85,232.38 C199.85,232.38 200.85,231.00 200.85,231.00" fill="none" stroke="rgb(0, 0, 0)" stroke-width="6.00" stroke-opacity="1.00" stroke-linejoin="round"/>
<path d="M213.41,214.36 C213.41,214.36 213.26,227.87 213.26,227.87 C213.26,227.87 213.72,225.91 213.72,225.91" fill="none" stroke="rgb(0, 0, 0)" stroke-width="6.00" stroke-opacity="1.00" stroke-linejoin="round"/>
<path d="M227.03,214.36 C227.03,214.36 227.54,246.19 227.54,246.19 C227.54,246.19 216.21,240.99 216.21,240.99" fill="none" stroke="rgb(0, 0, 0)" stroke-width="6.00" stroke-opacity="1.00" stroke-linejoin="round"/>
<path d="M276.85,232.34 C276.85,232.31 276.85,232.38 276.85,232.40 C276.92,238.35 273.36,242.36 272.14,242.84 C271.13,242.30 270.23,240.91 270.43,239.35 C270.74,236.98 274.27,231.44 276.24,229.86 C277.61,228.80 279.56,229.00 280.82,230.14 C283.38,232.62 285.26,240.69 285.26,241.58 C285.26,242.02 285.13,242.68 284.86,243.58" fill="none" stroke="rgb(0, 0, 0)" stroke-width="6.00" stroke-opacity="1.00" stroke-linejoin="round"/>
<path d="M311.04,219.23 C308.25,222.13 302.73,229.21 302.27,229.68 C301.91,230.06 301.21,230.67 300.16,231.51" fill="none" stroke="rgb(0, 0, 0)" stroke-width="6.00" stroke-opacity="1.00" stroke-linejoin="round"/>
<path d="M297.69,233.72 C297.69,233.72 312.28,232.79 312.28,232.79 C312.28,232.79 312.33,232.25 312.33,232.25 C312.33,232.25 312.22,232.08 312.22,232.08" fill="none" stroke="rgb(0, 0, 0)" stroke-width="6.00" stroke-opacity="1.00" stroke-linejoin="round"/>
<path d="M310.38,227.23 C310.38,227.23 310.36,243.06 310.36,243.06 C310.36,243.06 310.00,242.27 310.00,242.27" fill="none" stroke="rgb(0, 0, 0)" stroke-width="6.00" stroke-opacity="1.00" stroke-linejoin="round"/>
<path d="M309.71,237.02 C309.71,237.02 301.85,244.00 301.85,244.00 C301.85,244.00 301.83,243.46 301.83,243.46" fill="none" stroke="rgb(0, 0, 0)" stroke-width="6.00" stroke-opacity="1.00" stroke-linejoin="round"/>
<path d="M310.38,234.56 C311.32,234.99 313.92,236.18 314.55,236.32 C315.23,236.46 316.08,236.52 317.10,236.48 C317.38,236.47 317.66,236.42 317.94,236.34" fill="none" stroke="rgb(0, 0, 0)" stroke-width="6.00" stroke-opacity="1.00" stroke-linejoin="round"/>
<path d="M318.39,221.82 C318.39,221.82 327.97,221.28 327.97,221.28 C327.97,221.28 328.40,220.66 328.40,220.66" fill="none" stroke="rgb(0, 0, 0)" stroke-width="6.00" stroke-opacity="1.00" stroke-linejoin="round"/>
<path d="M324.00,218.93 C324.00,218.93 323.96,228.80 323.96,228.80 C323.96,228.80 323.39,228.53 323.39,228.53" fill="none" stroke="rgb(0, 0, 0)" stroke-width="6.00" stroke-opacity="1.00" stroke-linejoin="round"/>
<path d="M315.85,225.12 C320.40,225.48 323.97,225.54 326.07,225.54 C326.30,225.55 326.67,225.58 327.18,225.63 C327.18,225.63 326.87,225.84 326.87,225.84" fill="none" stroke="rgb(0, 0, 0)" stroke-width="6.00" stroke-opacity="1.00" stroke-linejoin="round"/>
<path d="M314.25,230.41 C323.10,229.80 327.46,230.43 330.46,231.41 C330.63,231.46 330.79,231.49 330.94,231.49" fill="none" stroke="rgb(0, 0, 0)" stroke-width="6.00" stroke-opacity="1.00" stroke-linejoin="round"/>
<path d="M317.46,232.28 C317.46,232.28 317.59,240.73 317.59,240.73 C317.59,240.73 317.59,239.56 317.59,239.56" fill="none" stroke="rgb(0, 0, 0)" stroke-width="6.00" stroke-opacity="1.00" stroke-linejoin="round"/>
<path d="M317.99,231.80 C319.44,232.06 322.59,232.60 323.37,232.98 C325.39,233.98 327.18,236.43 327.19,238.06 C327.18,238.41 327.07,239.00 326.86,239.82 C326.86,239.82 326.12,240.28 326.12,240.28" fill="none" stroke="rgb(0, 0, 0)" stroke-width="6.00" stroke-opacity="1.00" stroke-linejoin="round"/>
<path d="M318.52,235.76 C320.21,235.76 323.76,235.76 325.63,235.76 C326.39,235.76 327.15,235.76 327.90,235.76 C328.02,235.76 328.13,235.76 328.25,235.76" fill="none" stroke="rgb(0, 0, 0)" stroke-width="6.00" stroke-opacity="1.00" stroke-linejoin="round"/>
<path d="M318.66,238.17 C318.66,238.17 328.26,238.34 328.26,238.34 C328.26,238.34 328.04,238.70 328.04,238.70" fill="none" stroke="rgb(0, 0, 0)" stroke-width="6.00" stroke-opacity="1.00" stroke-linejoin="round"/>
<path d="M316.92,242.49 C316.92,242.49 327.95,242.39 327.95,242.39 C327.95,242.39 328.26,242.87 328.26,242.87" fill="none" stroke="rgb(0, 0, 0)" stroke-width="6.00" stroke-opacity="1.00" stroke-linejoin="round"/>
<path d="M322.66,241.95 C318.68,244.73 316.95,248.05 317.08,248.49 C317.08,248.49 317.70,248.98 317.70,248.98" fill="none" stroke="rgb(0, 0, 0)" stroke-width="6.00" stroke-opacity="1.00" stroke-linejoin="round"/>
<path d="M328.14,245.14 C332.78,249.66 335.90,250.62 336.63,250.62 C336.63,250.62 337.08,249.80 337.08,249.80" fill="none" stroke="rgb(0, 0, 0)" stroke-width="6.00" stroke-opacity="1.00" stroke-linejoin="round"/>
<path d="M137.41,265.15 C129.55,262.57 122.89,260.69 116.42,256.92 C113.30,255.08 108.82,251.55 106.54,248.77 C104.61,246.40 100.95,241.12 100.10,239.39 C98.96,237.01 97.77,233.19 97.43,230.62 C97.10,227.97 97.38,224.23 98.08,221.14 C98.63,218.86 101.06,214.89 103.77,211.50 C105.99,208.74 110.37,204.64 112.36,203.12 C115.52,200.73 120.76,198.31 123.49,198.33 C126.36,198.39 132.70,200.03 135.01,201.12 C137.79,202.48 142.27,205.18 144.40,206.87 C146.48,208.55 150.25,212.65 151.77,214.88 C153.39,217.32 155.67,222.35 156.34,225.07 C157.04,228.04 157.03,233.59 156.16,236.34 C155.18,239.28 151.83,244.39 148.75,248.00 C142.88,254.77 138.83,256.95 137.39,257.33 C137.04,257.41 136.69,257.50 136.34,257.58" fill="none" stroke="rgb(255, 182, 0)" stroke-width="6.00" stroke-opacity="1.00" stroke-linejoin="round"/>
<path d="M112.56,188.22 C111.59,187.78 110.47,187.23 109.79,186.76 C105.41,183.72 99.95,176.14 96.64,170.26 C96.64,170.26 96.27,170.97 96.27,170.97" fill="none" stroke="rgb(255, 182, 0)" stroke-width="6.00" stroke-opacity="1.00" stroke-linejoin="round"/>
<path d="M94.13,177.52 C93.67,176.34 93.44,174.09 93.87,172.48 C94.59,169.84 96.99,166.38 97.79,165.69 C97.79,165.69 109.18,173.61 109.18,173.61 C109.18,173.61 108.42,174.27 108.42,174.27" fill="none" stroke="rgb(255, 182, 0)" stroke-width="6.00" stroke-opacity="1.00" stroke-linejoin="round"/>
<path d="M216.88,254.27 C211.04,254.56 206.97,254.58 205.20,254.03 C203.09,253.32 198.46,251.08 196.33,249.25 C194.89,248.00 189.25,242.08 187.16,239.54 C184.85,236.68 182.87,232.77 181.77,228.97 C180.91,225.80 180.69,219.25 182.04,215.75 C183.19,212.93 187.87,206.05 190.67,203.91 C193.77,201.58 199.62,199.11 202.33,198.81 C205.41,198.53 210.24,198.78 213.44,199.43 C216.75,200.13 221.80,201.98 224.51,203.52 C229.45,206.38 236.65,213.73 238.75,217.60 C239.90,219.74 241.39,223.96 241.76,226.13 C242.12,228.42 241.97,232.79 241.28,234.96 C240.44,237.49 237.70,242.12 235.08,245.45 C234.16,246.58 230.84,250.49 229.95,250.96 C229.40,251.24 228.16,251.61 226.23,252.05" fill="none" stroke="rgb(255, 182, 0)" stroke-width="6.00" stroke-opacity="1.00" stroke-linejoin="round"/>
<path d="M206.06,181.37 C206.06,181.37 205.54,165.34 205.54,165.34 C205.54,165.34 204.32,165.98 204.32,165.98" fill="none" stroke="rgb(255, 182, 0)" stroke-width="6.00" stroke-opacity="1.00" stroke-linejoin="round"/>
<path d="M198.58,173.85 C199.86,170.56 202.80,166.70 204.41,164.92 C205.38,163.85 206.28,163.41 207.66,163.16 C209.41,165.68 216.33,176.36 218.10,178.67 C218.28,178.89 218.54,179.21 218.88,179.62" fill="none" stroke="rgb(255, 182, 0)" stroke-width="6.00" stroke-opacity="1.00" stroke-linejoin="round"/>
</g>
</svg>
